<svg width="38" height="38" viewBox="0 0 38 38" fill="none" xmlns="http://www.w3.org/2000/svg">
<path d="M31.2032 37.3494C23.0759 38.2169 14.9241 38.2169 6.79681 37.3494C3.55612 37.0036 0.996445 34.4439 0.650574 31.2029C-0.216858 23.0757 -0.216858 14.9241 0.650574 6.79681C0.996445 3.55612 3.55612 0.996445 6.79681 0.650574C14.9241 -0.216858 23.0757 -0.216858 31.2029 0.650574C34.4439 0.996445 37.0036 3.55612 37.3494 6.79681C38.2169 14.9241 38.2169 23.0757 37.3494 31.2029C37.0036 34.4439 34.4442 37.0036 31.2032 37.3494Z" fill="url(#paint0_linear)"/>
<path d="M35.2826 8.1713C34.9759 5.29562 32.7047 3.02412 29.8287 2.71709C22.6167 1.94765 15.3833 1.94765 8.1713 2.71709C5.29562 3.02412 3.02412 5.29562 2.71709 8.1713C1.94765 15.3833 1.94765 22.6167 2.71709 29.8284C3.02412 32.7044 5.29562 34.9759 8.1713 35.2826C15.3833 36.0523 22.6167 36.0523 29.8284 35.2826C32.7044 34.9759 34.9759 32.7044 35.2826 29.8284C36.0523 22.6167 36.0523 15.3833 35.2826 8.1713Z" fill="url(#paint1_linear)"/>
<path d="M0.569458 30.4152C0.595551 30.6778 0.622513 30.9405 0.650635 31.2032C0.996506 34.4438 3.55618 37.0035 6.79716 37.3494C14.9244 38.2168 23.076 38.2168 31.2032 37.3494C34.4442 37.0035 37.0036 34.4438 37.3495 31.2032C37.3776 30.9405 37.4046 30.6778 37.431 30.4152H0.569458Z" fill="url(#paint2_linear)"/>
<path d="M25.5472 6.32861C22.2364 6.32861 19.5526 9.01267 19.5526 12.3235V16.8013H16.3264V22.3454L19.5526 25.235V37.9983C23.4381 37.9794 27.3233 37.7634 31.2032 37.3494C34.4442 37.0036 37.0036 34.4439 37.3495 31.2029C37.9948 25.1558 38.1598 19.0954 37.8446 13.0414L31.1319 6.32861H25.5472Z" fill="url(#paint3_linear)"/>
<path d="M19.5526 37.9983C21.7667 37.9876 23.9805 37.9125 26.1935 37.7733V22.3454H30.5996L31.1319 16.8013H26.1935V13.2808C26.1935 12.5033 26.8237 11.873 27.6013 11.873H31.1319V6.32861H25.5472C22.2364 6.32861 19.5526 9.01267 19.5526 12.3235V16.8013H16.3264V22.3454H19.5526V37.9983Z" fill="white"/>
<defs>
<linearGradient id="paint0_linear" x1="12.6167" y1="5.34273" x2="22.228" y2="25.9064" gradientUnits="userSpaceOnUse">
<stop stop-color="#3457A0"/>
<stop offset="1" stop-color="#3B5998"/>
</linearGradient>
<linearGradient id="paint1_linear" x1="26.2084" y1="23.9529" x2="-7.00982" y2="1.12873" gradientUnits="userSpaceOnUse">
<stop stop-color="#3457A0" stop-opacity="0"/>
<stop offset="1" stop-color="#1F3F77"/>
</linearGradient>
<linearGradient id="paint2_linear" x1="19.0001" y1="31.7562" x2="19.0001" y2="36.8983" gradientUnits="userSpaceOnUse">
<stop stop-color="#3457A0" stop-opacity="0"/>
<stop offset="1" stop-color="#1F3F77"/>
</linearGradient>
<linearGradient id="paint3_linear" x1="43.6242" y1="31.3819" x2="17.249" y2="18.0826" gradientUnits="userSpaceOnUse">
<stop stop-color="#3457A0" stop-opacity="0"/>
<stop offset="0.3251" stop-color="#2A4C8D" stop-opacity="0.32549"/>
<stop offset="0.7045" stop-color="#22427D" stop-opacity="0.705882"/>
<stop offset="1" stop-color="#1F3F77"/>
</linearGradient>
</defs>
</svg>
