<svg width="37" height="38" viewBox="0 0 37 38" fill="none" xmlns="http://www.w3.org/2000/svg">
<path d="M30.382 37.3494C22.4687 38.2169 14.5313 38.2169 6.61795 37.3494C3.46254 37.0036 0.970222 34.4439 0.633453 31.2029C-0.211151 23.0757 -0.211151 14.9241 0.633453 6.79681C0.970222 3.55612 3.46254 0.996445 6.61795 0.650574C14.5313 -0.216858 22.4684 -0.216858 30.3818 0.650574C33.5375 0.996445 36.0298 3.55612 36.3665 6.79681C37.2112 14.9241 37.2112 23.0757 36.3665 31.2029C36.0298 34.4439 33.5377 37.0036 30.382 37.3494Z" fill="url(#paint0_linear)"/>
<path d="M34.354 8.1713C34.0554 5.29562 31.8439 3.02412 29.0436 2.71709C22.0215 1.94765 14.9784 1.94765 7.95619 2.71709C5.15618 3.02412 2.94445 5.29562 2.64551 8.1713C1.89632 15.3833 1.89632 22.6167 2.64551 29.8284C2.94445 32.7044 5.15618 34.9759 7.95619 35.2826C14.9784 36.0523 22.0215 36.0523 29.0434 35.2826C31.8437 34.9759 34.0554 32.7044 34.354 29.8284C35.1035 22.6167 35.1035 15.3833 34.354 8.1713Z" fill="url(#paint1_linear)"/>
<path d="M0.554443 30.4152C0.579849 30.6778 0.606102 30.9405 0.633484 31.2032C0.970253 34.4438 3.46257 37.0035 6.61826 37.3494C14.5316 38.2168 22.4687 38.2168 30.3821 37.3494C33.5378 37.0035 36.0298 34.4438 36.3666 31.2032C36.394 30.9405 36.4202 30.6778 36.4459 30.4152H0.554443Z" fill="url(#paint2_linear)"/>
<path d="M30.3821 37.3494C33.5378 37.0035 36.0298 34.4438 36.3666 31.2029C36.7361 27.6491 36.9439 24.0906 36.9902 20.5313L28.9529 12.2771C28.5402 11.7517 28.167 11.703 27.3935 11.5479C26.7668 11.4221 26.1258 11.3363 25.4881 11.3105C23.4491 11.2279 21.4087 11.1493 19.3684 11.1293C16.3724 11.1 13.376 11.1102 10.3919 11.4662C9.10523 11.6195 7.74516 12.656 7.59922 14.0688C7.52442 14.7947 7.39456 15.5166 7.3542 16.2443C7.20656 18.8944 7.17579 21.5431 7.53655 24.1828C7.65737 25.0668 7.79033 25.4712 8.37043 25.9641L20.0783 37.9884C23.5146 37.9382 26.9506 37.7254 30.3821 37.3494Z" fill="url(#paint3_linear)"/>
<path d="M19.1339 27.1792C16.1473 27.0762 13.8357 27.0177 11.5268 26.9046C10.8223 26.8698 10.0971 26.7715 9.42973 26.5489C8.20149 26.1395 7.50086 25.217 7.31878 23.8848C6.95802 21.2451 6.98879 18.5965 7.13642 15.9463C7.17707 15.2186 7.30692 14.4967 7.38173 13.7708C7.52711 12.358 8.88745 11.3213 10.1741 11.1682C13.1585 10.8122 16.1547 10.802 19.1509 10.8313C21.1912 10.8513 23.2313 10.9299 25.2703 11.0125C25.908 11.0383 26.5491 11.1244 27.1757 11.25C28.5567 11.5268 29.3556 12.414 29.5989 13.8389C29.928 15.7669 30.0141 17.7134 29.945 19.6607C29.8928 21.1347 29.7448 22.6063 29.5961 24.0744C29.4318 25.6948 28.0658 26.6544 26.8356 26.7376C24.0474 26.9264 21.2562 27.0603 19.1339 27.1792Z" fill="url(#paint4_linear)"/>
<path d="M16.3176 22.5849C18.2457 21.3693 20.1265 20.1826 22.0639 18.9609C20.1305 17.7407 18.2499 16.5537 16.3176 15.3344V22.5849Z" fill="white"/>
<defs>
<linearGradient id="paint0_linear" x1="8.41695" y1="-0.950365" x2="36.2147" y2="51.1936" gradientUnits="userSpaceOnUse">
<stop stop-color="#FFFCF8"/>
<stop offset="0.1875" stop-color="#FAF8F6"/>
<stop offset="0.4041" stop-color="#ECEEF2"/>
<stop offset="0.6353" stop-color="#D5DCEA"/>
<stop offset="0.875" stop-color="#B5C4DF"/>
<stop offset="1" stop-color="#A1B5D8"/>
</linearGradient>
<linearGradient id="paint1_linear" x1="14.1909" y1="16.5107" x2="-49.2839" y2="-18.2543" gradientUnits="userSpaceOnUse">
<stop stop-color="#A1B5D8" stop-opacity="0"/>
<stop offset="0.3094" stop-color="#90A2BD" stop-opacity="0.309804"/>
<stop offset="0.7554" stop-color="#7C8B9C" stop-opacity="0.756863"/>
<stop offset="1" stop-color="#748290"/>
</linearGradient>
<linearGradient id="paint2_linear" x1="18.5001" y1="33.5443" x2="18.5001" y2="39.4676" gradientUnits="userSpaceOnUse">
<stop stop-color="#A1B5D8" stop-opacity="0"/>
<stop offset="0.3094" stop-color="#90A2BD" stop-opacity="0.309804"/>
<stop offset="0.7554" stop-color="#7C8B9C" stop-opacity="0.756863"/>
<stop offset="1" stop-color="#748290"/>
</linearGradient>
<linearGradient id="paint3_linear" x1="30.605" y1="31.3882" x2="4.54487" y2="6.01389" gradientUnits="userSpaceOnUse">
<stop stop-color="#A1B5D8" stop-opacity="0"/>
<stop offset="0.3094" stop-color="#90A2BD" stop-opacity="0.309804"/>
<stop offset="0.7554" stop-color="#7C8B9C" stop-opacity="0.756863"/>
<stop offset="1" stop-color="#748290"/>
</linearGradient>
<linearGradient id="paint4_linear" x1="17.1006" y1="14.8356" x2="20.664" y2="24.9385" gradientUnits="userSpaceOnUse">
<stop stop-color="#E52D27"/>
<stop offset="1" stop-color="#B31217"/>
</linearGradient>
</defs>
</svg>
