<svg width="38" height="38" viewBox="0 0 38 38" fill="none" xmlns="http://www.w3.org/2000/svg">
<g clip-path="url(#clip0)">
<path d="M31.2032 37.3494C23.0759 38.2169 14.9241 38.2169 6.79681 37.3494C3.55612 37.0036 0.996445 34.4439 0.650574 31.2029C-0.216858 23.0757 -0.216858 14.9241 0.650574 6.79681C0.996445 3.55612 3.55612 0.996445 6.79681 0.650574C14.9241 -0.216858 23.0757 -0.216858 31.2029 0.650574C34.4439 0.996445 37.0036 3.55612 37.3494 6.79681C38.2169 14.9241 38.2169 23.0757 37.3494 31.2029C37.0036 34.4439 34.4442 37.0036 31.2032 37.3494Z" fill="url(#paint0_linear)"/>
<path d="M35.2826 8.1713C34.9759 5.29562 32.7047 3.02412 29.8287 2.71709C22.6167 1.94765 15.3833 1.94765 8.1713 2.71709C5.29562 3.02412 3.02412 5.29562 2.71709 8.1713C1.94765 15.3833 1.94765 22.6167 2.71709 29.8284C3.02412 32.7044 5.29562 34.9759 8.1713 35.2826C15.3833 36.0523 22.6167 36.0523 29.8284 35.2826C32.7044 34.9759 34.9759 32.7044 35.2826 29.8284C36.0523 22.6167 36.0523 15.3833 35.2826 8.1713Z" fill="url(#paint1_linear)"/>
<path d="M0.569336 30.4152C0.595429 30.6778 0.622391 30.9405 0.650513 31.2032C0.996384 34.4438 3.55606 37.0035 6.79704 37.3494C14.9243 38.2168 23.0759 38.2168 31.2031 37.3494C34.4441 37.0035 37.0035 34.4438 37.3494 31.2032C37.3775 30.9405 37.4044 30.6778 37.4308 30.4152H0.569336Z" fill="url(#paint2_linear)"/>
<path d="M37.9919 17.6647L30.1041 9.77719C29.2202 10.2825 28.4412 10.5629 27.8544 10.7183C27.5245 10.8067 27.2551 10.8548 27.0615 10.8812C26.172 9.96941 24.93 9.4032 23.5552 9.4032C20.8503 9.4032 18.6571 11.5961 18.6571 14.3016C18.6571 14.3993 18.6597 14.4959 18.666 14.5921C18.6791 14.8267 18.709 15.0572 18.755 15.2813C17.6258 15.2645 13.9555 14.9629 10.455 11.9623C10.4547 11.9623 10.4547 11.962 10.4547 11.962H10.4544L8.80365 10.3109C8.80365 10.3109 6.867 13.6911 9.71428 16.256C9.83923 16.3954 9.97665 16.5331 10.1271 16.6685C10.139 16.6819 10.1515 16.6949 10.1634 16.7082C9.78966 16.683 8.66565 16.5711 8.01508 16.1116C8.01508 16.1116 7.88432 18.1775 9.60556 19.6984L10.9954 21.1002C10.5721 21.1353 10.1039 21.1269 9.77835 20.9842C9.77835 20.9842 10.0665 22.208 11.1804 23.1873L13.1275 25.1445C11.9594 25.825 9.91461 26.6765 7.22302 26.459L19.0345 38C23.0928 37.9989 27.151 37.782 31.2032 37.3495C34.4442 37.0036 37.0039 34.4439 37.3497 31.2032C37.8307 26.695 38.0444 22.1793 37.9919 17.6647Z" fill="url(#paint3_linear)"/>
<path d="M30.7773 11.6796C29.9365 12.1194 28.6701 12.3227 28.2503 12.3812C28.2469 12.3609 28.2434 12.3415 28.2399 12.3221C29.6672 11.4393 30.1041 9.77719 30.1041 9.77719C29.2201 10.2825 28.4411 10.5629 27.8543 10.7183C27.5244 10.8067 27.2551 10.8545 27.0614 10.8812C26.1719 9.96912 24.9299 9.4032 23.5551 9.4032C20.8502 9.4032 18.657 11.5958 18.657 14.3016C18.657 14.399 18.6596 14.4959 18.666 14.5918C18.679 14.8264 18.7089 15.0569 18.755 15.281C17.4457 15.2616 12.7198 14.86 8.80357 10.3109C8.80357 10.3109 6.62282 14.1158 10.2891 16.7149C10.2891 16.7149 8.80357 16.6685 8.015 16.1116C8.015 16.1116 7.78307 19.7779 12.0057 20.9375C12.0057 20.9375 10.521 21.3092 9.77799 20.9842C9.77799 20.9842 10.5208 24.1397 14.2331 24.3722C14.2331 24.3722 11.5705 26.8098 7.22266 26.459C9.36108 27.8129 11.8964 28.5966 14.6147 28.5966C22.2578 28.5966 28.4539 22.4008 28.4539 14.7577C28.4539 14.6623 28.453 14.5669 28.451 14.4715C28.453 14.415 28.4539 14.3587 28.4539 14.3016C28.4539 14.2619 28.453 14.2222 28.4524 14.1825C29.8655 13.2408 30.7773 11.6796 30.7773 11.6796Z" fill="white"/>
</g>
<defs>
<linearGradient id="paint0_linear" x1="12.6167" y1="5.34273" x2="22.228" y2="25.9064" gradientUnits="userSpaceOnUse">
<stop stop-color="#00C3FF"/>
<stop offset="1" stop-color="#00B0ED"/>
</linearGradient>
<linearGradient id="paint1_linear" x1="27.0366" y1="23.3111" x2="-28.1724" y2="-6.30505" gradientUnits="userSpaceOnUse">
<stop stop-color="#00B0ED" stop-opacity="0"/>
<stop offset="1" stop-color="#00A2CE"/>
</linearGradient>
<linearGradient id="paint2_linear" x1="19" y1="32.462" x2="19" y2="37.4412" gradientUnits="userSpaceOnUse">
<stop stop-color="#00B0ED" stop-opacity="0"/>
<stop offset="1" stop-color="#00A2CE"/>
</linearGradient>
<linearGradient id="paint3_linear" x1="36.3242" y1="35.7788" x2="17.7601" y2="17.2147" gradientUnits="userSpaceOnUse">
<stop stop-color="#00B0ED" stop-opacity="0"/>
<stop offset="1" stop-color="#00A2CE"/>
</linearGradient>
<clipPath id="clip0">
<rect width="38" height="38" fill="white"/>
</clipPath>
</defs>
</svg>
