<svg width="334" height="180" viewBox="0 0 334 180" fill="none" xmlns="http://www.w3.org/2000/svg">
<path fill-rule="evenodd" clip-rule="evenodd" d="M244.598 230.76C221.727 233.093 198.991 236.557 176.188 239.102H176.121C175.852 233.234 175.182 227.084 174.712 221.217C171.359 180.993 168.005 140.84 164.719 100.616C162.506 73.6823 160.225 46.8193 158.012 19.8856C157.811 17.5527 159.487 15.5027 161.701 15.2906C182.157 13.3819 274.778 4.89885 295.234 2.99017C297.448 2.77809 299.393 4.54539 299.594 6.87823C300.6 19.3907 301.673 31.9032 302.679 44.4157C304.825 70.5011 307.038 96.5158 309.185 122.601C310.057 132.781 310.325 143.243 311.8 153.423C314.751 174.206 315.422 195.626 317.635 216.622C317.702 217.046 317.702 217.541 317.434 217.824C317.233 218.036 316.965 218.106 316.629 218.177C292.954 222.631 268.474 228.357 244.598 230.76Z" fill="url(#paint0_linear)"/>
<path fill-rule="evenodd" clip-rule="evenodd" d="M305.63 177.67C306.77 186.577 308.112 195.414 309.453 204.25C309.52 204.675 309.587 205.099 309.319 205.452C309.051 205.876 308.514 205.947 308.045 206.018C301.539 206.725 183.968 224.398 183.901 222.489L167.402 23.3493L290.942 12.0386C290.875 12.0386 294.765 58.0591 294.966 60.8868C296.978 85.5584 299.058 110.159 301.07 134.831C302.277 149.252 303.819 163.461 305.63 177.67Z" fill="url(#paint1_linear)"/>
<path d="M216.764 148.262C216.563 146.142 217.435 145.223 218.844 145.152C220.252 145.011 221.191 145.718 221.392 147.838L222.734 163.885C222.935 166.006 222.063 166.925 220.654 166.996C219.246 167.137 218.307 166.43 218.106 164.31L216.764 148.262ZM213.612 164.38C214.015 169.117 216.63 171.591 220.923 171.237C225.282 170.813 227.428 167.915 227.026 163.179L225.752 147.768C225.349 143.031 222.734 140.557 218.441 140.91C214.082 141.335 211.935 144.233 212.338 148.969L213.612 164.38Z" fill="#2D3B46"/>
<path d="M234.537 139.709L228.032 140.274L230.513 169.965L234.94 169.541L234.001 158.371L236.08 158.159C240.506 157.735 242.451 154.978 242.049 150.242L241.714 146.354C241.378 141.688 238.964 139.284 234.537 139.709ZM234.94 143.95C236.348 143.809 237.153 144.445 237.354 146.566L237.757 151.019C237.958 153.14 237.22 153.918 235.812 153.988L233.733 154.2L232.928 144.162L234.94 143.95Z" fill="#2D3B46"/>
<path d="M248.018 142.748L255.664 142.042L255.329 137.8L243.256 138.931L245.738 168.622L257.81 167.491L257.475 163.249L249.829 163.956L249.091 155.261L255.195 154.695L254.859 150.454L248.756 151.019L248.018 142.748Z" fill="#2D3B46"/>
<path d="M269.95 166.359L274.51 165.935L272.029 136.245L268.072 136.598L269.547 154.342L263.511 137.022L257.944 137.517L260.426 167.208L264.383 166.854L262.572 145.364L269.95 166.359Z" fill="#2D3B46"/>
<path fill-rule="evenodd" clip-rule="evenodd" d="M262.371 1.92969C262.304 0.727925 261.298 -0.12038 260.158 0.0210038C250.165 0.940002 205.698 5.04015 195.705 5.95914C194.565 6.02984 193.76 7.09022 193.894 8.29198C194.229 12.5335 195.034 22.077 195.369 26.3892C195.437 27.5909 196.443 28.4392 197.583 28.2979C207.576 27.3789 252.043 23.2787 262.036 22.3597C263.176 22.289 263.981 21.2286 263.847 20.0269C263.511 15.7854 262.706 6.24191 262.371 1.92969Z" fill="url(#paint2_linear)"/>
<path fill-rule="evenodd" clip-rule="evenodd" d="M231.385 45.1228C248.555 43.5676 263.78 56.9284 265.255 75.0963C266.731 93.1935 254.055 109.241 236.818 110.796C219.648 112.351 204.424 98.9902 202.948 80.8224C201.473 62.6545 214.216 46.6781 231.385 45.1228Z" fill="url(#paint3_linear)"/>
<path fill-rule="evenodd" clip-rule="evenodd" d="M215.49 104.434C218.575 95.6678 226.221 89.1641 235.61 88.2451C244.665 87.3968 252.981 92.0625 257.609 99.6265C252.512 105.847 245.134 110.018 236.818 110.796C228.971 111.503 221.459 109.029 215.49 104.434Z" fill="url(#paint4_linear)"/>
<path fill-rule="evenodd" clip-rule="evenodd" d="M232.324 55.8681C238.964 55.2318 244.866 60.4631 245.469 67.5323C246.073 74.5308 241.11 80.7517 234.403 81.388C227.696 82.0242 221.861 76.793 221.258 69.7237C220.654 62.6545 225.617 56.4336 232.324 55.8681Z" fill="url(#paint5_linear)"/>
<path fill-rule="evenodd" clip-rule="evenodd" d="M47.2145 238.324L32.8618 235.143L49.8972 174.348L54.6591 209.058L47.2145 238.324Z" fill="#1F3A4D"/>
<path fill-rule="evenodd" clip-rule="evenodd" d="M47.2148 238.324L46.6782 237.97C46.6782 237.97 46.8794 187.496 53.5863 167.278C60.2932 147.06 90.2058 105.352 90.2058 105.352L114.216 111.714L118.576 141.264L96.9797 242.636C96.9797 242.636 95.6383 242.778 93.2909 242.919C78.1334 242.353 62.2381 241.081 47.2148 238.324Z" fill="url(#paint6_linear)"/>
<path fill-rule="evenodd" clip-rule="evenodd" d="M92.0836 96.3746C92.0836 96.3746 90.4069 107.261 87.8583 111.715C85.3097 116.168 97.2479 128.186 97.2479 128.186L114.216 111.715C114.216 111.715 113.546 98.2126 118.039 85.7708C122.6 73.329 96.376 81.0344 92.0836 96.3746Z" fill="#E87965"/>
<path fill-rule="evenodd" clip-rule="evenodd" d="M88.9312 34.5187C88.9312 34.5187 75.1821 53.6763 75.1821 74.7425C75.1821 91.2138 84.7059 94.0415 90.5408 95.8794C98.9915 98.5658 108.448 95.8794 116.765 84.8515C116.765 84.8515 121.594 89.3758 129.105 84.8515C136.617 80.3272 135.812 69.7941 130.313 68.2388C124.813 66.6836 121.057 73.6114 121.057 73.6114C121.057 73.6114 130.313 58.8368 130.313 52.3331C130.313 45.8294 146.476 21.1579 111.466 21.4406C76.5235 21.7941 88.9312 34.5187 88.9312 34.5187Z" fill="url(#paint7_linear)"/>
<path fill-rule="evenodd" clip-rule="evenodd" d="M121.057 73.6823C121.057 73.6823 118.24 51.2729 126.423 37.2758C126.423 37.2758 99.1256 45.1934 88.9312 34.5895L83.834 43.1433C83.834 43.1433 75.1821 34.2361 75.1821 22.3598C75.1821 22.3598 80.0111 24.1978 93.4918 17.8355C106.973 11.4732 113.478 10.6956 125.685 13.5233C137.891 16.351 143.726 26.8841 143.793 33.8119C143.793 40.2449 140.172 43.1433 140.172 43.1433C140.172 43.1433 151.171 56.0799 143.793 67.32C136.416 78.4893 123.472 88.8811 114.216 94.2537L121.057 73.6823Z" fill="url(#paint8_linear)"/>
<path fill-rule="evenodd" clip-rule="evenodd" d="M122.935 71.1374C124.544 69.3701 127.16 67.3908 130.379 68.3098C135.879 69.865 136.684 80.3274 129.172 84.9224C122.599 88.8812 118.039 85.9121 117.033 85.1345L116.832 84.9224L121.124 73.7531C121.057 73.6824 121.795 72.6927 122.935 71.1374Z" fill="url(#paint9_linear)"/>
<path fill-rule="evenodd" clip-rule="evenodd" d="M114.216 111.715C114.216 111.715 133.129 118.642 136.617 124.863C136.617 124.863 129.105 138.295 123.874 176.61C123.874 176.61 123.27 181.417 122.533 186.86C121.258 196.616 122.331 206.513 125.551 215.703C129.575 227.084 134.605 241.223 134.605 241.223L98.6562 263.349C98.6562 263.349 94.9003 229.488 96.7783 201.706C98.7232 173.853 114.216 111.715 114.216 111.715Z" fill="url(#paint10_linear)"/>
<path fill-rule="evenodd" clip-rule="evenodd" d="M72.2312 101.111C72.2312 101.111 20.186 138.295 13.0096 146.707C5.83331 155.12 8.71726 165.936 20.186 165.087C31.6547 164.239 53.7873 151.585 53.7873 151.585L72.2312 101.111Z" fill="url(#paint11_linear)"/>
<path fill-rule="evenodd" clip-rule="evenodd" d="M36.0146 65.2699C36.3499 65.4113 36.484 65.4113 36.7523 65.6234C37.2218 65.9768 37.4901 66.5424 37.5571 67.1079C37.6242 67.5321 37.5571 67.6028 37.4901 67.9562C37.4901 67.9562 37.2889 68.6631 37.0877 69.2994C36.484 72.1977 37.0877 75.3789 38.7644 77.8531C39.9716 79.6204 41.7154 80.9636 43.6604 81.6705C46.4102 82.6602 49.2271 83.6499 51.9769 84.6396C56.6046 86.2655 62.1042 84.4982 64.9882 80.186C65.6589 79.1963 66.1954 78.0652 66.5308 76.9341V76.8634L66.732 76.4393C67.1344 75.803 67.738 75.3789 68.4758 75.3789C69.6159 75.3789 70.6219 76.51 70.4878 77.7117C70.4878 77.9945 70.3537 78.2066 70.2866 78.4187C68.4758 83.862 63.9151 88.1035 58.4825 89.1639C55.8669 89.6587 53.1171 89.5173 50.5684 88.5983C47.8186 87.6086 45.0018 86.6189 42.2519 85.6293C38.0266 84.1447 34.6061 80.398 33.3318 75.8737C32.4599 72.834 32.527 69.5821 33.533 66.6131L33.7342 66.1889C34.0696 65.6941 34.5391 65.2699 35.0756 65.1992C35.478 65.1992 35.7463 65.2699 36.0146 65.2699Z" fill="url(#paint12_linear)"/>
<path fill-rule="evenodd" clip-rule="evenodd" d="M44.3306 107.473C44.3306 107.473 46.1415 103.373 49.2266 101.111C52.3788 98.9196 55.7323 100.263 58.3479 97.7885C60.8965 95.3143 63.5122 81.8828 60.8965 80.7517C58.3479 79.6206 46.678 73.0463 42.0503 73.6118C39.9711 73.8946 37.4225 74.4601 35.3434 81.5293C33.3314 88.5986 35.2763 89.7296 34.5386 94.2539C33.8008 98.7782 30.5815 101.111 30.5815 101.111L44.3306 107.473Z" fill="url(#paint13_linear)"/>
<path fill-rule="evenodd" clip-rule="evenodd" d="M29.4413 94.1829C29.4413 94.1829 41.4465 103.797 47.6168 108.745C47.6168 108.745 31.185 155.897 25.0818 160.492C18.9786 165.087 16.0946 163.744 12.6071 163.249C9.1195 162.754 1.54076 151.797 7.10744 134.972C12.6071 118.147 29.4413 94.1829 29.4413 94.1829Z" fill="url(#paint14_linear)"/>
<path fill-rule="evenodd" clip-rule="evenodd" d="M87.5229 120.127L89.4679 128.115C89.4679 128.115 91.48 129.882 94.8334 129.034C98.1868 128.115 102.815 122.742 102.815 122.742L94.8334 114.542L87.5229 120.127Z" fill="url(#paint15_linear)"/>
<path fill-rule="evenodd" clip-rule="evenodd" d="M90.2054 105.352L94.7661 114.613L84.0352 122.813L85.7789 111.714L90.2054 105.352Z" fill="url(#paint16_linear)"/>
<path fill-rule="evenodd" clip-rule="evenodd" d="M90.2057 105.352C90.2057 105.352 77.1944 100.969 72.2313 101.111C72.2313 101.111 60.8297 120.692 43.7943 158.089C27.8319 193.152 23.6737 206.371 26.5576 219.167L33.9352 252.109C33.9352 252.109 38.63 219.874 49.428 189.759C60.159 159.644 90.2057 105.352 90.2057 105.352Z" fill="url(#paint17_linear)"/>
<path fill-rule="evenodd" clip-rule="evenodd" d="M94.8335 114.613L101.54 127.196L112.607 118.43L114.216 111.715L94.8335 114.613Z" fill="url(#paint18_linear)"/>
<path fill-rule="evenodd" clip-rule="evenodd" d="M89.4008 128.115C89.4008 128.115 75.5847 171.52 68.7437 213.299C68.7437 213.299 71.1581 220.227 77.5967 230.336C77.5967 230.336 87.1875 224.327 91.7482 218.813C91.7482 218.813 88.0594 198.454 96.3089 128.398L89.4008 128.115Z" fill="url(#paint19_linear)"/>
<path fill-rule="evenodd" clip-rule="evenodd" d="M186.65 137.376C186.65 137.376 188.394 128.469 191.948 122.742C195.503 117.016 195.637 114.047 198.789 114.047C201.942 114.047 201.271 118.996 200.734 121.965C200.198 124.863 200.064 127.196 205.094 127.196C210.124 127.196 217.099 127.479 224.812 122.742C232.592 118.006 230.177 127.055 228.031 131.155C225.885 135.255 216.764 148.192 211.868 148.757C207.039 149.323 198.186 145.576 194.966 147.202C191.747 148.757 184.772 153.564 184.772 153.564L186.65 137.376Z" fill="url(#paint20_linear)"/>
<path fill-rule="evenodd" clip-rule="evenodd" d="M136.617 124.864L152.78 159.927L184.705 133.135L196.845 159.927C196.845 159.927 159.152 187.497 152.713 190.537C146.275 193.576 142.586 187.497 142.586 187.497L126.758 158.584C126.758 158.584 128.569 124.864 136.617 124.864Z" fill="url(#paint21_linear)"/>
<path fill-rule="evenodd" clip-rule="evenodd" d="M54.9276 33.8826C57.208 38.4069 59.5554 42.507 62.0369 45.3347C64.7867 48.4451 67.2683 50.9901 69.4815 52.9694C69.4815 52.9694 70.0851 69.5821 58.4152 74.9547L50.0316 71.5615C47.3489 70.5011 43.8613 69.8648 39.9043 69.5821C55.9337 55.2316 54.9276 33.8826 54.9276 33.8826Z" fill="#E2F9FF"/>
<path fill-rule="evenodd" clip-rule="evenodd" d="M5.09559 68.6632C-2.48316 64.5631 -1.47713 46.678 7.24178 28.8636C15.9607 11.0491 29.2403 -0.0495138 36.819 4.05063C36.819 4.05063 36.8861 4.05063 36.8861 4.12132C37.4897 4.47478 38.0263 4.89893 38.4957 5.39378C44.7331 10.9078 49.6962 23.5617 54.9275 33.8827C54.9275 33.8827 55.9336 55.3024 39.9042 69.5822C29.2403 68.7339 15.7595 70.0771 8.98556 69.5822C7.91247 69.6529 6.90644 69.4408 6.03455 69.1581C5.63213 68.946 5.29679 68.8046 5.09559 68.6632Z" fill="url(#paint22_linear)"/>
<path fill-rule="evenodd" clip-rule="evenodd" d="M35.4104 6.87826C41.849 10.4129 40.5747 26.46 32.5935 42.7192C24.6124 58.9783 12.9425 69.3701 6.50391 65.8355C0.0653319 62.3009 1.33963 46.2538 9.32078 29.9946C17.3019 13.7354 28.9719 3.41435 35.4104 6.87826Z" fill="url(#paint23_linear)"/>
<path fill-rule="evenodd" clip-rule="evenodd" d="M28.4354 50.1418L19.247 44.5571C16.4971 42.9312 15.5582 39.2552 17.1678 36.3568C17.7044 35.3672 18.2409 34.3775 18.7775 33.4585C20.3201 30.5601 23.8076 29.5704 26.5575 31.267L35.3435 36.5689C34.5386 38.619 33.6667 40.6691 32.6607 42.7191C31.3193 45.3347 29.9109 47.8797 28.4354 50.1418Z" fill="url(#paint24_linear)"/>
<path fill-rule="evenodd" clip-rule="evenodd" d="M23.1372 31.9741C24.0762 32.469 23.875 34.8725 22.7348 37.276C21.5276 39.6796 19.7838 41.2348 18.8448 40.74C17.9059 40.2451 18.1071 37.8416 19.2472 35.4381C20.4545 33.0345 22.1312 31.4793 23.1372 31.9741Z" fill="url(#paint25_linear)"/>
<path fill-rule="evenodd" clip-rule="evenodd" d="M69.4144 52.9695C74.9811 58.0593 78.5357 59.8973 78.5357 59.8973C81.1514 61.806 82.4257 66.5424 79.4747 72.9046C76.7249 78.9135 72.0301 81.317 69.8168 79.6204L58.3481 74.9547C70.0181 69.5821 69.4144 52.9695 69.4144 52.9695Z" fill="url(#paint26_linear)"/>
<path fill-rule="evenodd" clip-rule="evenodd" d="M276.321 178.377L267.065 188.062L319.915 243.768L329.171 234.012L276.321 178.377Z" fill="url(#paint27_linear)"/>
<path fill-rule="evenodd" clip-rule="evenodd" d="M210.057 118.218C227.629 99.6968 256.201 99.6968 273.773 118.218C291.344 136.739 291.344 166.854 273.773 185.376C256.201 203.897 227.629 203.897 210.057 185.376C192.485 166.854 192.485 136.81 210.057 118.218ZM215.02 123.449C229.91 107.756 253.987 107.756 268.876 123.449C283.766 139.143 283.766 164.521 268.876 180.215C253.987 195.909 229.91 195.909 215.02 180.215C200.131 164.592 200.131 139.143 215.02 123.449Z" fill="#2D3B46"/>
<path fill-rule="evenodd" clip-rule="evenodd" d="M215.02 123.45C229.91 107.756 253.987 107.756 268.877 123.45C283.766 139.143 283.766 164.522 268.877 180.215C253.987 195.909 229.91 195.909 215.02 180.215C200.131 164.592 200.131 139.143 215.02 123.45Z" fill="#E2F9FF" fill-opacity="0.5"/>
<path fill-rule="evenodd" clip-rule="evenodd" d="M240.037 114.33C243.726 114.118 247.482 114.543 251.104 115.532L267.066 178.378C264.316 181.205 261.298 183.538 258.079 185.305L240.037 114.33ZM215.49 126.702C215.893 126.207 216.295 125.783 216.765 125.288C222.465 119.279 229.575 115.744 236.952 114.684L255.262 186.648C247.482 189.9 238.897 190.254 230.983 187.567L215.49 126.702Z" fill="white" fill-opacity="0.5"/>
<defs>
<linearGradient id="paint0_linear" x1="237.815" y1="288.244" x2="237.815" y2="40.8336" gradientUnits="userSpaceOnUse">
<stop stop-color="#32546D"/>
<stop offset="1" stop-color="#588193"/>
</linearGradient>
<linearGradient id="paint1_linear" x1="237.71" y1="66.5383" x2="241.321" y2="288.147" gradientUnits="userSpaceOnUse">
<stop stop-color="#EFF8FF"/>
<stop offset="1" stop-color="#CAE9FF"/>
</linearGradient>
<linearGradient id="paint2_linear" x1="227.917" y1="3.00793" x2="229.971" y2="25.286" gradientUnits="userSpaceOnUse">
<stop stop-color="#F89F1E"/>
<stop offset="0.48" stop-color="#F08D16"/>
<stop offset="1" stop-color="#DB5D00"/>
</linearGradient>
<linearGradient id="paint3_linear" x1="236.856" y1="110.762" x2="230.807" y2="45.1654" gradientUnits="userSpaceOnUse">
<stop stop-color="#32546D"/>
<stop offset="1" stop-color="#588193"/>
</linearGradient>
<linearGradient id="paint4_linear" x1="235.453" y1="88.2526" x2="237.522" y2="110.697" gradientUnits="userSpaceOnUse">
<stop stop-color="#F89F1E"/>
<stop offset="0.48" stop-color="#F08D16"/>
<stop offset="1" stop-color="#DB5D00"/>
</linearGradient>
<linearGradient id="paint5_linear" x1="232.312" y1="56.0005" x2="234.628" y2="81.1177" gradientUnits="userSpaceOnUse">
<stop stop-color="#F89F1E"/>
<stop offset="0.48" stop-color="#F08D16"/>
<stop offset="1" stop-color="#DB5D00"/>
</linearGradient>
<linearGradient id="paint6_linear" x1="89.9559" y1="124.172" x2="68.8742" y2="253.303" gradientUnits="userSpaceOnUse">
<stop stop-color="#E2F9FF"/>
<stop offset="1" stop-color="#B5CACF"/>
</linearGradient>
<linearGradient id="paint7_linear" x1="101.715" y1="107.853" x2="108.779" y2="40.5197" gradientUnits="userSpaceOnUse">
<stop stop-color="#FE8C77"/>
<stop offset="1" stop-color="#FDCB9F"/>
</linearGradient>
<linearGradient id="paint8_linear" x1="136.297" y1="65.6817" x2="78.6392" y2="22.8906" gradientUnits="userSpaceOnUse">
<stop stop-color="#32546D"/>
<stop offset="1" stop-color="#588193"/>
</linearGradient>
<linearGradient id="paint9_linear" x1="122.876" y1="110.073" x2="129.94" y2="42.7399" gradientUnits="userSpaceOnUse">
<stop stop-color="#FE8C77"/>
<stop offset="1" stop-color="#FDCB9F"/>
</linearGradient>
<linearGradient id="paint10_linear" x1="94.4731" y1="212.106" x2="194.684" y2="190.749" gradientUnits="userSpaceOnUse">
<stop stop-color="#32546D"/>
<stop offset="1" stop-color="#588193"/>
</linearGradient>
<linearGradient id="paint11_linear" x1="52.5774" y1="147.248" x2="-2.72213" y2="75.7233" gradientUnits="userSpaceOnUse">
<stop stop-color="#32546D"/>
<stop offset="1" stop-color="#588193"/>
</linearGradient>
<linearGradient id="paint12_linear" x1="56.1" y1="83.1986" x2="50.4905" y2="57.588" gradientUnits="userSpaceOnUse">
<stop stop-color="#32546D"/>
<stop offset="1" stop-color="#588193"/>
</linearGradient>
<linearGradient id="paint13_linear" x1="38.3139" y1="109.221" x2="51.3819" y2="82.4073" gradientUnits="userSpaceOnUse">
<stop stop-color="#FE8C77"/>
<stop offset="1" stop-color="#FDCB9F"/>
</linearGradient>
<linearGradient id="paint14_linear" x1="13.8227" y1="153.869" x2="43.8013" y2="94.645" gradientUnits="userSpaceOnUse">
<stop stop-color="#32546D"/>
<stop offset="1" stop-color="#588193"/>
</linearGradient>
<linearGradient id="paint15_linear" x1="94.8705" y1="126.811" x2="94.9141" y2="114.645" gradientUnits="userSpaceOnUse">
<stop stop-color="#F89F1E"/>
<stop offset="0.48" stop-color="#F08D16"/>
<stop offset="1" stop-color="#DB5D00"/>
</linearGradient>
<linearGradient id="paint16_linear" x1="90.7759" y1="107.771" x2="89.1669" y2="124.247" gradientUnits="userSpaceOnUse">
<stop stop-color="#E2F9FF"/>
<stop offset="1" stop-color="#B5CACF"/>
</linearGradient>
<linearGradient id="paint17_linear" x1="23.7915" y1="231.805" x2="131.786" y2="140.171" gradientUnits="userSpaceOnUse">
<stop stop-color="#32546D"/>
<stop offset="1" stop-color="#588193"/>
</linearGradient>
<linearGradient id="paint18_linear" x1="104.473" y1="113.834" x2="104.299" y2="128.678" gradientUnits="userSpaceOnUse">
<stop stop-color="#E2F9FF"/>
<stop offset="1" stop-color="#B5CACF"/>
</linearGradient>
<linearGradient id="paint19_linear" x1="80.5571" y1="214.142" x2="97.1781" y2="132.712" gradientUnits="userSpaceOnUse">
<stop stop-color="#F89F1E"/>
<stop offset="0.48" stop-color="#F08D16"/>
<stop offset="1" stop-color="#DB5D00"/>
</linearGradient>
<linearGradient id="paint20_linear" x1="177.514" y1="142.254" x2="219.844" y2="127.278" gradientUnits="userSpaceOnUse">
<stop stop-color="#FE8C77"/>
<stop offset="1" stop-color="#FDCB9F"/>
</linearGradient>
<linearGradient id="paint21_linear" x1="154.031" y1="192.003" x2="159.674" y2="117.114" gradientUnits="userSpaceOnUse">
<stop stop-color="#32546D"/>
<stop offset="1" stop-color="#588193"/>
</linearGradient>
<linearGradient id="paint22_linear" x1="26.6675" y1="58.5007" x2="27.0548" y2="3.53252" gradientUnits="userSpaceOnUse">
<stop stop-color="#F89F1E"/>
<stop offset="0.48" stop-color="#F08D16"/>
<stop offset="1" stop-color="#DB5D00"/>
</linearGradient>
<linearGradient id="paint23_linear" x1="32.8233" y1="42.1285" x2="8.58929" y2="31.5165" gradientUnits="userSpaceOnUse">
<stop stop-color="#32546D"/>
<stop offset="1" stop-color="#588193"/>
</linearGradient>
<linearGradient id="paint24_linear" x1="34.0669" y1="44.8172" x2="13.2834" y2="33.059" gradientUnits="userSpaceOnUse">
<stop stop-color="#DB5D00"/>
<stop offset="0.52" stop-color="#F08D16"/>
<stop offset="1" stop-color="#F89F1E"/>
</linearGradient>
<linearGradient id="paint25_linear" x1="22.727" y1="37.2222" x2="19.1338" y2="35.6488" gradientUnits="userSpaceOnUse">
<stop stop-color="#32546D"/>
<stop offset="1" stop-color="#588193"/>
</linearGradient>
<linearGradient id="paint26_linear" x1="69.4725" y1="75.5577" x2="69.6234" y2="53.0934" gradientUnits="userSpaceOnUse">
<stop stop-color="#F89F1E"/>
<stop offset="0.48" stop-color="#F08D16"/>
<stop offset="1" stop-color="#DB5D00"/>
</linearGradient>
<linearGradient id="paint27_linear" x1="300.512" y1="213.552" x2="271.055" y2="185.912" gradientUnits="userSpaceOnUse">
<stop stop-color="#32546D"/>
<stop offset="1" stop-color="#588193"/>
</linearGradient>
</defs>
</svg>
