<svg width="1086" height="701" viewBox="0 0 1086 701" fill="none" xmlns="http://www.w3.org/2000/svg">
<g opacity="0.1">
<path opacity="0.3" d="M995.234 566.887C1011 589.236 1017.11 619.002 1015.41 652.783C1013.72 686.527 1004.26 723.813 989.429 760.638C959.72 834.423 908.974 905.172 858.207 940.98C756.539 1012.69 621.794 995.129 556.959 903.209C492.125 811.29 520.797 678.464 622.465 606.754C673.66 570.644 751.281 537.628 824.26 525.427C860.731 519.33 895.729 518.487 925.528 524.843C955.277 531.188 979.532 544.625 995.234 566.887Z" stroke="url(#paint0_linear)" stroke-width="11"/>
<path opacity="0.3" d="M1022.53 544.214C1040.4 569.541 1047.28 603.22 1045.37 641.338C1043.46 679.42 1032.79 721.468 1016.07 762.971C982.599 846.112 925.406 925.877 868.119 966.283C753.411 1047.19 601.285 1027.43 528.05 923.6C454.814 819.77 487.247 669.833 601.954 588.925C659.669 548.217 747.141 511.012 829.393 497.261C870.501 490.389 909.989 489.43 943.646 496.609C977.252 503.777 1004.73 518.975 1022.53 544.214Z" stroke="url(#paint1_linear)" stroke-width="11"/>
<path opacity="0.3" d="M1049.27 522.01C1069.19 550.253 1076.84 587.764 1074.71 630.13C1072.59 672.46 1060.73 719.172 1042.17 765.256C1005.01 857.559 941.5 946.154 877.828 991.064C750.35 1080.98 581.202 1059.06 499.74 943.569C418.277 828.074 454.392 661.38 581.869 571.465C645.969 526.253 743.09 484.946 834.422 469.678C880.07 462.046 923.957 460.974 961.391 468.959C998.775 476.933 1029.41 493.855 1049.27 522.01Z" stroke="url(#paint2_linear)" stroke-width="11"/>
<path opacity="0.3" d="M1083.36 493.698C1105.9 525.66 1114.52 568.056 1112.13 615.838C1109.73 663.585 1096.35 716.244 1075.44 768.169C1033.58 872.155 962.019 972.009 890.205 1022.66C746.445 1124.06 555.592 1099.4 463.639 969.031C371.686 838.663 412.496 650.601 556.256 549.202C628.497 498.247 737.922 451.71 840.833 434.505C892.27 425.906 941.766 424.69 984.016 433.702C1026.22 442.703 1060.88 461.825 1083.36 493.698Z" stroke="url(#paint3_linear)" stroke-width="11"/>
<path opacity="0.3" d="M1122.45 461.236C1148 497.461 1157.73 545.459 1155.02 599.452C1152.32 653.409 1137.2 712.887 1113.6 771.51C1066.33 888.891 985.547 1001.65 904.398 1058.89C741.968 1173.46 526.23 1145.65 422.248 998.226C318.266 850.805 364.46 638.243 526.89 523.675C608.466 466.136 731.996 413.601 848.183 394.178C906.259 384.469 962.185 383.087 1009.96 393.277C1057.68 403.456 1096.96 425.099 1122.45 461.236Z" stroke="url(#paint4_linear)" stroke-width="11"/>
<path opacity="0.3" d="M1165.73 425.286C1194.61 466.233 1205.58 520.435 1202.53 581.305C1199.48 642.14 1182.44 709.169 1155.85 775.209C1102.61 907.424 1011.6 1034.48 920.116 1099.01C737.01 1228.16 493.712 1196.87 376.409 1030.56C259.106 864.251 311.263 624.557 494.369 495.405C586.282 430.575 725.434 371.399 856.324 349.517C921.75 338.579 984.798 337.015 1038.69 348.509C1092.53 359.993 1136.91 384.428 1165.73 425.286Z" stroke="url(#paint5_linear)" stroke-width="11"/>
<path opacity="0.3" d="M1208.12 390.08C1240.27 435.65 1252.44 495.928 1249.05 563.533C1245.66 631.103 1226.74 705.528 1197.22 778.832C1138.14 925.575 1037.12 1066.64 935.508 1138.31C732.154 1281.74 461.866 1247.02 331.518 1062.22C201.17 877.418 259.166 611.153 462.519 467.72C564.557 395.749 719.008 330.069 864.296 305.78C936.922 293.639 1006.94 291.895 1066.82 304.667C1126.65 317.428 1176.04 344.598 1208.12 390.08Z" stroke="url(#paint6_linear)" stroke-width="11"/>
<path opacity="0.3" d="M1262.18 345.188C1298.48 396.654 1312.2 464.678 1308.38 540.872C1304.56 617.031 1283.23 700.886 1249.98 783.452C1183.44 948.719 1069.65 1107.63 955.135 1188.41C725.963 1350.05 421.26 1310.98 274.278 1102.59C127.295 894.209 192.736 594.063 421.909 432.419C536.856 351.343 710.814 277.368 874.462 250.011C956.267 236.335 1035.18 234.362 1102.7 248.763C1170.16 263.154 1225.94 293.81 1262.18 345.188Z" stroke="url(#paint7_linear)" stroke-width="11"/>
</g>
<defs>
<linearGradient id="paint0_linear" x1="818.102" y1="420.45" x2="520.296" y2="591.89" gradientUnits="userSpaceOnUse">
<stop stop-color="#00AAA6"/>
<stop offset="1" stop-color="#8DC63F"/>
</linearGradient>
<linearGradient id="paint1_linear" x1="822.576" y1="379.773" x2="487.344" y2="572.758" gradientUnits="userSpaceOnUse">
<stop stop-color="#00AAA6"/>
<stop offset="1" stop-color="#8DC63F"/>
</linearGradient>
<linearGradient id="paint2_linear" x1="826.958" y1="339.937" x2="455.075" y2="554.021" gradientUnits="userSpaceOnUse">
<stop stop-color="#00AAA6"/>
<stop offset="1" stop-color="#8DC63F"/>
</linearGradient>
<linearGradient id="paint3_linear" x1="832.545" y1="289.142" x2="413.926" y2="530.13" gradientUnits="userSpaceOnUse">
<stop stop-color="#00AAA6"/>
<stop offset="1" stop-color="#8DC63F"/>
</linearGradient>
<linearGradient id="paint4_linear" x1="838.951" y1="230.902" x2="366.747" y2="502.738" gradientUnits="userSpaceOnUse">
<stop stop-color="#00AAA6"/>
<stop offset="1" stop-color="#8DC63F"/>
</linearGradient>
<linearGradient id="paint5_linear" x1="846.045" y1="166.404" x2="314.498" y2="472.402" gradientUnits="userSpaceOnUse">
<stop stop-color="#00AAA6"/>
<stop offset="1" stop-color="#8DC63F"/>
</linearGradient>
<linearGradient id="paint6_linear" x1="852.993" y1="103.239" x2="263.329" y2="442.693" gradientUnits="userSpaceOnUse">
<stop stop-color="#00AAA6"/>
<stop offset="1" stop-color="#8DC63F"/>
</linearGradient>
<linearGradient id="paint7_linear" x1="861.852" y1="22.6978" x2="198.085" y2="404.812" gradientUnits="userSpaceOnUse">
<stop stop-color="#00AAA6"/>
<stop offset="1" stop-color="#8DC63F"/>
</linearGradient>
</defs>
</svg>
