<svg width="85" height="84" viewBox="0 0 85 84" fill="none" xmlns="http://www.w3.org/2000/svg">
<path d="M49.669 20.0883C49.669 16.0187 46.5243 12.689 42.5472 12.689C38.57 12.689 35.4253 16.0187 35.4253 20.0883C35.4253 24.158 38.57 27.4877 42.5472 27.4877C46.4318 27.4877 49.669 24.158 49.669 20.0883Z" fill="white"/>
<path d="M42.9162 39.7889H0V32.1121H42.4538C48.8357 32.1121 54.0152 26.7476 54.0152 20.0882C54.0152 13.4288 48.8357 8.06423 42.4538 8.06423C36.0718 8.06423 30.8923 13.4288 30.8923 20.0882C30.8923 21.1981 31.0773 22.308 31.3547 23.4179V23.6029C31.4472 23.8803 31.4472 24.2503 31.4472 24.5278C31.4472 26.6551 29.5974 27.95 27.7476 27.95C26.0827 27.95 24.6953 27.0251 24.2329 25.6377L24.1404 25.4527C23.5854 23.6029 23.4004 21.8455 23.4004 19.9957C23.4004 9.17413 31.9097 0.294922 42.4538 0.294922C52.9978 0.294922 61.5071 9.17413 61.5071 19.9957C61.5071 30.5397 53.1828 39.419 43.0087 39.6964L42.9162 39.7889Z" fill="white"/>
<path d="M85 44.7834H0V52.4603H85V44.7834Z" fill="white"/>
<path d="M17.4783 58.7496H7.95165C3.60453 58.7496 0.0898438 62.3568 0.0898438 66.6114V83.9074H6.37929V66.8889C6.37929 65.594 7.30421 65.0391 8.5991 65.0391H16.8309C17.9408 65.0391 19.0507 65.594 19.0507 66.8889V83.9074H25.3401V66.6114C25.1551 62.2643 21.8254 58.7496 17.4783 58.7496Z" fill="white"/>
<path d="M67.5159 58.5647C63.3538 58.5647 59.8391 61.9869 59.8391 66.2415V76.3231C59.8391 78.3579 60.2091 80.3003 61.319 81.5952C62.4289 82.9825 64.3712 83.815 67.3309 83.815H71.863V78.0805H67.8859C66.961 78.0805 66.0361 77.3405 66.0361 76.2306V66.704C66.0361 65.5941 67.0535 64.8541 67.9784 64.8541C69.0883 64.8541 69.9207 65.5941 69.9207 66.704V69.3862H74.5453V66.519C74.5453 65.5941 75.3777 64.9466 76.4876 64.8541C77.5975 64.8541 78.615 65.5941 78.615 66.704V83.9074H84.9044V66.2415C84.9044 61.8944 81.3897 58.5647 77.0426 58.5647C75.1927 58.5647 73.5279 59.3046 72.233 60.2295C71.0306 59.3046 69.3658 58.5647 67.5159 58.5647Z" fill="white"/>
<path d="M48.8376 83.9074H55.127V66.6114C55.127 62.2643 51.7048 58.7496 47.4502 58.7496H31.8191V65.0391H46.6178C47.7277 65.0391 48.8376 65.594 48.8376 66.8889V68.5538H38.201C33.8539 68.5538 29.9692 70.7736 29.9692 76.2306C29.9692 79.0054 30.8017 80.9477 32.189 82.2426C33.5764 83.445 35.5188 83.9999 37.6461 83.9999H43.658V78.4504H38.201C36.9061 78.4504 35.9812 77.3405 35.9812 76.2306C35.9812 74.9357 36.9061 74.0108 38.201 74.0108H48.8376V83.9074Z" fill="white"/>
</svg>
