<svg width="309" height="302" viewBox="0 0 309 302" fill="none" xmlns="http://www.w3.org/2000/svg">
<path d="M230.881 51.6987C232.075 55.536 233.268 59.425 234.462 63.2623C234.618 63.7808 234.774 64.3512 234.774 64.8697C234.722 66.4772 233.165 67.7736 231.504 68.0847C229.843 68.3958 228.13 67.9292 226.521 67.5143C226.105 69.1737 224.081 69.8996 222.316 70.2107C214.582 71.6108 206.381 70.6256 199.218 67.4106C202.28 63.1585 204.824 58.4917 206.64 53.6173C212.713 53.8766 218.787 54.1359 224.86 54.3952C225.95 54.447 227.04 54.4989 228.026 54.1359C229.012 53.7729 229.946 52.9432 229.998 51.9061" fill="#424344"/>
<path d="M189.927 90.4341C189.927 90.4341 183.906 102.827 182.037 102.931C169.06 103.657 154.89 99.5605 154.89 99.5605L151.412 106.561C151.412 106.561 188.37 118.435 196.156 107.39C204.409 95.6714 203.993 93.8046 203.993 93.8046L189.927 90.4341Z" fill="#FACBB6"/>
<path d="M194.079 189.113C201.138 220.589 247.802 249.886 247.802 249.886L255.744 240.449C255.744 240.449 218.268 208.092 216.658 193.728C215.049 179.364 227.507 156.808 227.507 156.808L214.634 151.519L194.079 189.113Z" fill="#424344"/>
<path d="M209.859 74.3073C210.067 73.011 209.548 67.5662 209.548 67.5662C209.548 67.5662 204.409 67.0477 204.097 62.1215C203.786 57.1954 204.097 45.8393 204.097 45.8393L213.441 41.4316L223.718 48.9505L222.161 73.5813L209.859 74.3073Z" fill="#FACBB6"/>
<path d="M222.991 52.7358C222.991 52.7358 214.582 51.958 213.129 44.5947L204.045 52.7358C204.045 52.7358 201.294 47.2911 206.329 42.2094C211.364 37.1277 214.842 38.1648 216.814 38.1648C218.683 38.1648 227.974 40.0834 230.777 50.3505C230.985 51.0765 231.14 52.9433 231.296 53.7729L222.991 52.7358Z" fill="#424344"/>
<path d="M209.6 67.5663C209.6 67.5663 213.025 67.6182 216.347 65.3884C216.347 65.3884 214.842 69.0182 209.703 68.8108L209.6 67.5663Z" fill="#EEC0AE"/>
<path d="M199.011 129.843C199.011 131.606 199.634 134.044 199.634 134.044L235.709 144.103C235.709 144.103 238.304 128.34 231.712 119.524C228.701 115.48 229.376 109.827 230.622 104.953L234.878 88.3598L229.221 72.8035L206.485 74.3072C206.485 74.3072 193.301 73.0627 188.733 89.8636L197.194 102.153L197.298 106.768L199.011 129.843Z" fill="#E83B5B"/>
<path d="M234.203 123.673C234.619 123.673 241.107 137.881 235.189 146.281C234.67 147.059 233.321 148.978 231.452 151.726C222.732 164.689 202.748 195.232 202.073 199.691C201.294 205.084 185.152 262.02 185.152 262.02L173.161 260.153L182.971 195.595L199.011 129.791L234.203 123.673Z" fill="#424344"/>
<path d="M213.389 44.0243C213.389 44.0243 211.52 47.4986 212.299 50.1431L204.15 52.1655C204.15 52.1655 202.281 42.1576 213.389 44.0243Z" fill="#424344"/>
<path d="M231.244 53.047C231.244 53.047 232.282 64.3512 222.368 66.4254L223.043 52.7358L231.244 53.047Z" fill="#424344"/>
<path d="M190.186 86.3894L184.528 99.8197L197.245 105.99L198.439 94.2194L190.186 86.3894Z" fill="#E83B5B"/>
<path d="M225.431 73.0627L223.303 70.5737L214.012 72.8035L215.154 75.4999L225.431 73.0627Z" fill="#FAB529"/>
<path d="M215.153 75.5001L211.468 82.3448L211.364 75.5001L211.728 73.374H214.271L215.153 75.5001Z" fill="#F6B69A"/>
<path d="M211.364 75.4998L211.883 72.8034L209.599 71.9219L206.952 74.2553L211.364 75.4998Z" fill="#FAB529"/>
<path d="M197.194 106.198C197.194 106.198 197.402 105.887 197.35 105.316C197.298 104.694 196.934 103.864 196.208 103.086C195.533 102.309 194.547 101.479 194.287 100.183C194.183 99.5604 194.183 98.8863 194.443 98.2122C194.651 97.5381 195.118 96.9677 195.741 96.5528C196.312 96.138 196.986 95.9306 197.661 95.8787H197.869L197.921 95.6713C198.284 93.0786 198.751 90.797 198.907 89.1376C199.063 87.4783 198.907 86.4412 198.855 86.4931C198.803 86.4931 198.803 87.4783 198.543 89.1376C198.336 90.797 197.817 93.0267 197.402 95.6194L197.661 95.412C196.882 95.4639 196.104 95.7232 195.481 96.1898C194.754 96.6565 194.235 97.3825 193.976 98.1085C193.716 98.8344 193.664 99.6641 193.82 100.338C193.976 101.064 194.339 101.686 194.754 102.153C195.17 102.62 195.585 103.035 195.948 103.398C196.675 104.124 197.038 104.85 197.142 105.42C197.246 105.887 197.142 106.198 197.194 106.198Z" fill="#FAB529"/>
<path d="M197.194 88.4116C197.09 88.5153 197.402 89.1375 197.765 89.9153C198.128 90.6931 198.336 91.3673 198.492 91.3154C198.647 91.3154 198.699 90.5376 198.284 89.7079C197.921 88.8264 197.35 88.3078 197.194 88.4116Z" fill="#FAB529"/>
<path d="M184.113 99.8714C184.061 100.027 186.916 101.583 190.601 103.19C194.287 104.849 197.401 105.938 197.453 105.783C197.505 105.627 194.494 104.331 190.809 102.672C187.175 101.064 184.165 99.7158 184.113 99.8714Z" fill="#FAB529"/>
<path d="M184.891 97.9528C184.839 98.1084 187.435 99.5603 190.705 101.272C193.975 102.983 196.726 104.227 196.778 104.072C196.83 103.916 194.235 102.464 190.964 100.753C187.642 99.0418 184.943 97.7973 184.891 97.9528Z" fill="#FAB529"/>
<path d="M201.969 88.8264C201.969 88.9819 202.747 89.1375 203.682 89.1894C204.668 89.2412 205.446 89.1894 205.446 89.0338C205.446 88.8782 204.668 88.7227 203.734 88.6708C202.799 88.619 201.969 88.6708 201.969 88.8264Z" fill="#FAB529"/>
<path d="M201.657 89.4488C201.606 89.6044 202.488 89.9155 203.63 90.2267C204.772 90.4859 205.706 90.5896 205.758 90.4341C205.81 90.2785 204.928 89.9674 203.786 89.6562C202.644 89.397 201.657 89.2933 201.657 89.4488Z" fill="#FAB529"/>
<path d="M172.071 260.205C172.071 260.205 161.534 262.953 164.129 263.731C166.776 264.509 185.047 262.59 185.047 262.59L185.67 260.568L172.071 260.205Z" fill="white"/>
<path d="M185.1 262.539L188.785 252.79H172.59L172.071 260.205L185.1 262.539Z" fill="white"/>
<path d="M247.907 250.56C247.907 250.56 245.26 260.827 247.232 258.961C249.205 257.094 256.368 240.708 256.368 240.708L254.863 239.204L247.907 250.56Z" fill="white"/>
<path d="M256.368 240.708L249.36 232.826L241.522 246.516L247.907 250.56L256.368 240.708Z" fill="white"/>
<path d="M212.662 40.8095C212.662 40.7576 211.676 40.7058 210.171 41.1206C208.665 41.5354 206.641 42.4688 204.98 44.18C203.319 45.8912 202.489 47.9654 202.177 49.4173C201.866 50.9211 202.021 51.8545 202.073 51.8545C202.177 51.8545 202.177 50.9211 202.592 49.521C202.956 48.1209 203.838 46.2023 205.395 44.543C206.953 42.8836 208.873 41.9503 210.326 41.4836C211.728 40.965 212.662 40.9132 212.662 40.8095Z" fill="#424344"/>
<path d="M224.341 58.9583C224.289 58.1286 224.289 57.299 224.601 56.5211C224.912 55.7433 225.587 55.0692 226.417 55.0174C227.404 54.9137 228.338 55.6915 228.494 56.6248C228.649 57.5582 228.078 58.5435 227.248 59.0102C226.417 59.4768 225.327 59.4768 224.445 59.062" fill="#FACBB6"/>
<path d="M218.579 130.466C218.579 130.466 218.112 84.9893 219.773 81.515C219.773 81.515 221.486 72.959 228.233 72.8035L225.223 73.0109C225.223 73.0109 219.098 72.5961 217.333 84.2633C215.568 95.9305 215.672 130.829 215.672 130.829L218.579 130.466Z" fill="#424344"/>
<path d="M205.498 132.073C205.498 132.073 203.682 79.8037 205.083 74.3071H203.266C203.266 74.3071 201.657 78.8185 201.969 91.3154C202.176 98.8343 201.969 132.073 201.969 132.073H205.498Z" fill="#424344"/>
<path d="M192.262 108.013C192.262 108.013 184.684 111.954 183.023 111.902C181.362 111.85 176.638 111.746 177.106 112.317C177.625 112.835 183.023 113.613 183.023 113.613L192.262 108.013Z" fill="#EDBFAE"/>
<path d="M192.781 116.309C192.781 116.309 228.7 124.191 233.632 111.435C238.874 97.9011 238.926 101.427 238.926 101.427L227.662 92.5601C227.662 92.5601 221.589 108.168 219.928 108.531C210.481 110.502 199.737 109.257 195.999 108.687C195.584 108.376 195.065 108.065 194.494 107.598C194.027 107.235 193.612 106.768 193.3 106.301C192.937 105.731 192.47 104.953 192.418 104.435C192.314 103.812 191.38 103.605 191.016 104.124C190.705 104.59 190.912 106.301 192.21 107.961C192.21 107.961 183.645 112.472 182.971 113.561L192.781 116.309Z" fill="#EDBFAE"/>
<path d="M229.22 72.8035C229.22 72.8035 238.771 74.5665 239.186 89.1376C239.601 103.709 233.476 114.806 233.476 114.806L217.281 106.613L229.22 72.8035Z" fill="#E83B5B"/>
<path d="M217.281 106.716C217.229 106.768 218.216 107.183 219.721 107.909C221.226 108.583 223.302 109.516 225.586 110.657C227.818 111.798 229.843 112.887 231.296 113.717C232.749 114.546 233.632 115.065 233.684 114.961C233.736 114.909 232.905 114.287 231.504 113.354C230.102 112.472 228.13 111.279 225.846 110.139C223.562 108.998 221.434 108.116 219.877 107.494C218.319 106.924 217.333 106.664 217.281 106.716Z" fill="#FAB529"/>
<path d="M217.956 105.679C217.956 105.731 218.89 106.094 220.396 106.664C221.901 107.235 223.977 108.065 226.261 109.153C228.493 110.191 230.466 111.28 231.867 112.057C233.268 112.835 234.151 113.354 234.203 113.302C234.255 113.25 233.424 112.628 232.075 111.746C230.725 110.865 228.753 109.724 226.469 108.687C224.185 107.65 222.057 106.82 220.499 106.353C218.994 105.783 218.008 105.576 217.956 105.679Z" fill="#FAB529"/>
<path d="M222.628 90.0191C222.784 90.0191 223.043 88.8264 222.939 87.2708C222.835 85.7152 222.316 84.5744 222.161 84.6262C222.005 84.6781 222.213 85.8707 222.368 87.3226C222.472 88.7746 222.42 89.9672 222.628 90.0191Z" fill="#FAB529"/>
<path d="M217.333 106.665C217.385 106.716 218.06 105.627 218.891 103.761C219.773 101.946 220.811 99.353 221.746 96.3973C222.628 93.4416 223.199 90.6934 223.51 88.7229C223.822 86.7006 223.874 85.4561 223.822 85.4561C223.718 85.4561 223.51 86.7006 223.147 88.6192C222.732 90.5896 222.109 93.2861 221.226 96.2418C220.344 99.1975 219.306 101.79 218.579 103.605C217.749 105.472 217.23 106.613 217.333 106.665Z" fill="#FAB529"/>
<path d="M128.106 142.651C128.573 143.066 129.403 142.807 129.767 142.236C130.13 141.718 130.13 141.044 130.182 140.37C130.286 133.473 129.819 126.473 128.521 119.732C127.379 122.584 128.21 127.043 128.21 130.154C128.158 134.355 128.158 138.503 128.106 142.651Z" fill="#9ED7EF"/>
<path d="M54.1897 145.711C53.9821 145.14 53.8782 144.57 54.034 144C54.1897 143.429 54.7607 143.014 55.3316 143.118C55.695 143.222 56.0064 143.533 56.214 143.844C56.8888 144.726 57.5117 145.659 58.0827 146.592C57.0965 144.985 56.4736 143.118 56.3698 141.251C56.3179 140.733 56.3698 140.162 56.785 139.851C57.4079 139.436 58.2384 140.059 58.7056 140.681C59.4322 141.718 60.0032 142.859 60.3666 144.051C60.0032 142.081 60.1589 140.007 60.7299 138.088C60.9375 137.466 61.1971 136.844 61.6642 136.481C62.6505 135.755 64.1557 136.325 64.8305 137.362C65.5053 138.399 65.5572 139.696 65.6091 140.888C65.8687 139.385 66.5434 137.933 67.5816 136.792C67.8411 136.481 68.2045 136.17 68.6197 136.17C69.2426 136.17 69.6579 136.844 69.8655 137.414C70.4364 138.918 70.5922 140.629 70.3326 142.237C70.696 140.577 71.7341 139.073 73.1356 138.14C73.6027 137.829 74.1218 137.621 74.6409 137.57C75.9385 137.57 76.9248 138.866 76.9767 140.162C77.0286 141.459 76.4576 142.703 75.8866 143.844C76.6652 141.718 78.2224 139.903 80.143 138.814C80.6101 138.555 81.1811 138.347 81.6483 138.607C81.9078 138.762 82.0116 139.073 82.1154 139.385C82.4269 140.733 82.0116 142.237 81.0254 143.222C81.6483 142.237 82.4788 141.096 83.6207 141.251C84.7627 141.355 85.3855 142.755 85.1779 143.844C84.9703 144.985 84.1398 145.866 83.3612 146.696C83.8284 145.866 85.2817 146.437 85.4375 147.37C85.5932 148.303 84.9703 149.185 84.3993 149.963C83.9322 150.585 83.465 151.207 82.7902 151.57C82.3231 151.83 81.8559 151.933 81.3368 152.037C75.9385 153.23 70.2807 153.333 64.8824 152.348C60.3666 151.57 55.9026 150.792 54.1897 145.711Z" fill="#FED17A"/>
<path d="M54.7094 147.681C54.6056 147.111 54.6056 146.488 54.8651 145.97C55.3842 144.985 56.7857 144.725 57.8238 145.088C58.8619 145.451 59.6924 146.281 60.471 147.111C60.6786 145.451 59.1734 143.74 59.952 142.288C60.1596 141.873 60.5748 141.562 60.9901 141.355C63.2221 140.214 66.3884 141.977 66.596 144.466C66.9593 143.014 67.4265 141.459 68.7242 140.733C69.7623 140.162 71.2157 140.421 71.9943 141.303C72.7729 142.185 72.8767 143.636 72.15 144.622C73.5515 143.222 75.4201 142.34 77.3926 142.133C77.8078 142.081 78.2231 142.081 78.5864 142.236C79.936 142.755 79.9879 144.674 79.7803 146.125C79.7803 145.036 80.9741 144.207 82.0642 144.466C83.1023 144.725 83.8809 145.762 83.9847 146.8C84.0885 147.888 83.7252 148.977 83.1542 149.859C82.687 150.585 82.1161 151.259 81.2856 151.518C80.8703 151.674 80.4032 151.674 79.936 151.674C74.953 151.778 69.9699 151.933 64.935 151.778C61.4053 151.726 55.5918 152.4 54.7094 147.681Z" fill="#E8B95E"/>
<path d="M148.764 129.792C148.764 129.843 148.764 129.895 148.764 129.999C148.764 136.584 148.972 143.326 145.857 149.133C142.691 154.941 138.331 160.023 135.32 165.882C133.659 169.149 132.413 172.623 130.233 175.579C135.476 174.231 139.628 170.186 142.691 165.675C149.75 155.304 152.034 141.874 148.764 129.792Z" fill="#FED17A"/>
<path d="M126.756 123.258C126.029 137.57 123.797 151.83 124.005 166.141C124.057 169.512 124.264 173.038 125.822 176.046C129.403 164.275 133.037 152.141 131.998 139.851C131.687 135.91 130.856 132.073 130.389 128.184C129.766 123.05 130.13 112.783 125.562 109.257C126.652 113.976 127.015 118.383 126.756 123.258Z" fill="#FED17A"/>
<path d="M122.759 177.134C124.057 175.475 123.849 173.09 123.59 171.016C121.514 154.837 119.489 138.658 117.413 122.48C116.946 118.85 116.479 115.117 114.714 111.902C111.859 129.117 113.52 147.111 119.489 163.497C121.202 168.267 123.33 173.038 123.226 178.068C120.372 179.312 116.946 178.483 114.402 176.668C111.859 174.853 110.042 172.26 108.433 169.616C105.319 164.482 96.235 152.089 97.4808 146.022C101.997 149.652 107.239 157.119 110.821 161.786C114.818 166.867 118.762 172.001 122.759 177.134Z" fill="#FED17A"/>
<path d="M114.505 111.539C115.128 132.643 116.114 154.318 124.731 173.556C128.883 151.829 132.932 128.754 125.198 108.012C139.68 126.524 141.289 154.111 129.143 174.23C135.839 168.889 141.756 162.46 145.545 154.785C149.335 147.111 150.892 138.192 148.868 129.895C153.902 142.651 152.241 157.845 144.611 169.252C140.199 175.838 133.14 181.438 125.198 181.127C116.789 180.764 110.145 174.023 104.955 167.386C100.127 161.215 95.5594 153.592 97.4281 145.97C101.736 153.178 103.916 161.682 109.47 168.008C112.066 171.016 117.983 176.253 122.032 175.579C120.734 170.808 116.426 166.037 114.505 161.215C112.377 155.978 110.976 150.429 110.249 144.829C108.796 133.629 110.145 122.013 114.505 111.539Z" fill="#E8B95E"/>
<path d="M62.2356 169.149H78.0671C79.5205 169.149 80.8182 168.008 81.0777 166.504L85.0226 152.763H55.332L59.2769 166.504C59.4846 168.008 60.7822 169.149 62.2356 169.149Z" fill="#424344"/>
<path d="M148.556 219.551H96.2861V232.826H148.556V219.551Z" fill="#424344"/>
<path d="M149.75 257.457H147.414V220.692H97.4284V257.457H95.1445V218.411H149.75V257.457Z" fill="#D9D9D9"/>
<path d="M148.556 262.798C148.556 262.798 143.677 263.109 148.556 255.072C153.435 262.85 148.556 262.798 148.556 262.798Z" fill="#C6C6C5"/>
<path d="M148.608 246.982H44.0166V249.264H148.608V246.982Z" fill="#D9D9D9"/>
<path d="M148.556 231.685H96.2861V233.967H148.556V231.685Z" fill="#D9D9D9"/>
<path d="M148.297 215.351H96.2861V223.803H148.297C150.632 223.803 152.501 221.937 152.501 219.603C152.501 217.218 150.632 215.351 148.297 215.351Z" fill="#2A94F4"/>
<path d="M96.2865 173.401H44.0166V186.676H96.2865V173.401Z" fill="#424344"/>
<path d="M97.428 257.457H95.1441V174.542H45.1581V257.457H42.8223V172.26H97.428V257.457Z" fill="#D9D9D9"/>
<path d="M44.0162 262.798C44.0162 262.798 39.137 263.109 44.0162 255.072C48.8954 262.85 44.0162 262.798 44.0162 262.798Z" fill="#C6C6C5"/>
<path d="M96.2867 262.798C96.2867 262.798 91.4075 263.109 96.2867 255.072C101.166 262.85 96.2867 262.798 96.2867 262.798Z" fill="#C6C6C5"/>
<path d="M96.2865 185.535H44.0166V187.816H96.2865V185.535Z" fill="#D9D9D9"/>
<path d="M44.6895 193.351L43.3096 195.169L95.5876 234.771L96.9675 232.953L44.6895 193.351Z" fill="#D9D9D9"/>
<path d="M95.5827 193.348L43.3047 232.949L44.6846 234.767L96.9626 195.166L95.5827 193.348Z" fill="#D9D9D9"/>
<path d="M96.1828 168.112H44.1205C41.7847 168.112 39.916 169.979 39.916 172.312C39.916 174.645 41.7847 176.512 44.1205 176.512H96.1828C98.5186 176.512 100.387 174.645 100.387 172.312C100.387 169.979 98.5186 168.112 96.1828 168.112Z" fill="#2A94F4"/>
<path d="M114.402 214.988H136.774C138.85 214.988 140.667 213.381 141.03 211.203L146.636 178.742H104.592L110.198 211.203C110.561 213.381 112.326 214.988 114.402 214.988Z" fill="#424344"/>
<path d="M146.584 182.216H104.592C103.294 182.216 102.204 181.127 102.204 179.831V177.601C102.204 176.305 103.294 175.216 104.592 175.216H146.584C147.882 175.216 148.972 176.305 148.972 177.601V179.831C148.972 181.127 147.934 182.216 146.584 182.216Z" fill="#424344"/>
<path d="M86.0094 155.356H54.2425C53.2563 155.356 52.4258 154.526 52.4258 153.541V151.83C52.4258 150.844 53.2563 150.015 54.2425 150.015H86.0094C86.9956 150.015 87.8261 150.844 87.8261 151.83V153.541C87.8261 154.526 86.9956 155.356 86.0094 155.356Z" fill="#424344"/>
<path d="M152.19 109.516C149.491 107.65 146.013 107.701 143.158 109.205C139.317 111.279 137.553 115.48 138.694 119.68C138.85 120.198 138.331 120.665 137.812 120.509C136.255 120.147 134.905 119.161 133.296 118.746C131.531 118.28 129.611 118.539 128.054 119.524C128.002 119.835 128.002 120.147 128.106 120.458C128.106 120.561 128.157 120.665 128.209 120.769C129.144 120.458 130.13 120.147 131.012 120.458C131.739 120.717 132.258 121.287 132.777 121.858C135.424 124.813 138.175 127.717 140.875 130.673C142.328 132.229 144.456 132.799 146.48 132.229L155.253 129.584C157.277 128.962 158.627 127.302 159.042 125.384C159.198 124.554 159.146 123.673 158.886 122.791L156.395 114.598C155.408 112.576 154.007 110.761 152.19 109.516ZM145.702 110.035C150.841 108.479 153.332 114.391 153.332 114.391L140.771 118.228C140.771 118.228 139.11 112.057 145.702 110.035Z" fill="#2A94F4"/>
<path d="M158.938 125.332C158.575 127.251 157.173 128.91 155.149 129.532L146.377 132.177C144.353 132.799 142.224 132.177 140.771 130.621C138.072 127.665 135.321 124.762 132.674 121.806C132.154 121.235 131.635 120.613 130.909 120.406C130.026 120.095 128.988 120.406 128.106 120.717C128.054 120.613 128.002 120.509 128.002 120.406C128.054 120.354 128.054 120.354 128.106 120.354C129.663 119.472 131.895 119.991 133.348 120.821C135.217 121.91 136.567 123.673 137.864 125.384C139.11 127.095 140.46 128.91 142.224 130.051C142.743 130.414 143.366 130.673 143.989 130.829C144.768 130.984 145.598 130.88 146.377 130.777C148.713 130.362 150.997 129.636 153.229 128.962C154.941 128.443 156.706 127.821 157.9 126.473C158.367 126.162 158.627 125.747 158.938 125.332Z" fill="#23557D"/>
<path d="M155.616 99.664C153.799 99.4047 151.982 99.1454 150.166 98.938C149.127 98.7825 148.089 98.6788 147.103 98.8862C144.663 99.4566 143.262 101.946 142.12 104.175C141.289 105.835 140.563 108.116 141.705 109.464C142.691 108.842 143.937 108.479 145.027 108.168C145.338 108.064 146.221 107.494 146.636 107.338C147.57 108.22 146.065 110.398 147.622 110.813C151.723 108.22 156.342 104.798 156.446 99.9233L155.616 99.664Z" fill="#FACBB6"/>
</svg>
