<svg width="124" height="144" viewBox="0 0 124 144" fill="none" xmlns="http://www.w3.org/2000/svg">
<path fill-rule="evenodd" clip-rule="evenodd" d="M32.0354 80.49C32.0354 79.2365 33.0628 78.198 34.3027 78.198C37.8099 78.198 44.5409 78.198 48.0482 78.198C49.2881 78.198 50.3155 79.2365 50.3155 80.49V81.5285H32.0354V80.49Z" fill="url(#paint0_linear)"/>
<path fill-rule="evenodd" clip-rule="evenodd" d="M15.7039 41.9561C15.7039 41.3473 16.1998 40.8459 16.8021 40.8459C22.7891 40.8459 51.6617 40.8459 59.1721 40.8459C59.6326 40.8459 60.0932 41.025 60.4474 41.3831C60.8017 41.7412 60.9788 42.171 60.9788 42.6724V70.0328C60.9788 70.4983 60.8017 70.9639 60.4474 71.322C60.0932 71.6801 59.6681 71.8592 59.1721 71.8592C51.6617 71.8592 22.7891 71.8592 16.8021 71.8592C16.1998 71.8592 15.7039 71.3578 15.7039 70.749V41.9561V41.9561Z" fill="url(#paint1_linear)"/>
<path fill-rule="evenodd" clip-rule="evenodd" d="M36.322 58.7878C36.322 58.4655 36.57 58.2148 36.8889 58.2148C38.3059 58.2148 42.0611 58.2148 44.293 58.2148C45.2495 58.2148 46.0289 59.0026 46.0289 59.9696C46.0289 64.84 46.0289 78.2337 46.0289 78.2337H36.2866V58.7878H36.322Z" fill="url(#paint2_linear)"/>
<path fill-rule="evenodd" clip-rule="evenodd" d="M36.322 58.6803C36.322 58.5371 36.3574 58.4296 36.4637 58.3222C36.57 58.2148 36.6763 58.179 36.818 58.179C36.9597 58.179 37.066 58.2148 37.1723 58.3222C37.2785 58.4296 37.314 58.5371 37.314 58.6803C37.314 61.796 37.314 78.1979 37.314 78.1979H36.322V58.6803V58.6803Z" fill="#999999"/>
<path fill-rule="evenodd" clip-rule="evenodd" d="M17.2272 41.6338C17.2272 41.419 17.1563 41.2399 17.0146 41.0966C16.8729 40.9534 16.6603 40.8818 16.4832 40.8818C16.2707 40.8818 16.0935 40.9534 15.9518 41.0966C15.8101 41.2399 15.7393 41.4548 15.7393 41.6338V70.3193C15.7393 71.1788 16.4124 71.8592 17.2626 71.8592H17.298V41.6338H17.2272Z" fill="#1E1E1E"/>
<path fill-rule="evenodd" clip-rule="evenodd" d="M73.2718 87.6882H1.8521C1.42698 85.6827 1.07272 83.6414 0.789307 81.5643H73.2718V87.6882Z" fill="url(#paint3_linear)"/>
<path fill-rule="evenodd" clip-rule="evenodd" d="M67.1429 143.34H55.8419C31.5394 143.34 8.44134 118.63 1.88745 87.6882H67.1429V143.34Z" fill="url(#paint4_linear)"/>
<path d="M75.8933 138.828C82.2912 138.828 87.4777 133.585 87.4777 127.117C87.4777 120.65 82.2912 115.407 75.8933 115.407C69.4954 115.407 64.3088 120.65 64.3088 127.117C64.3088 133.585 69.4954 138.828 75.8933 138.828Z" fill="url(#paint5_linear)"/>
<path fill-rule="evenodd" clip-rule="evenodd" d="M65.3008 123.393C64.734 123.142 64.3443 122.641 64.1672 122.068C63.99 121.495 64.0609 120.85 64.3797 120.313C66.7179 116.302 71.0045 113.616 75.8933 113.616C80.2862 113.616 84.1831 115.765 86.6275 119.059C87.336 120.026 87.1589 121.351 86.2378 122.103C85.7773 122.462 85.175 122.641 84.6082 122.569C84.0414 122.497 83.51 122.175 83.1557 121.71C81.5261 119.489 78.9046 118.021 75.9287 118.021C72.6341 118.021 69.7291 119.847 68.1703 122.533C67.5681 123.5 66.3282 123.894 65.3008 123.393Z" fill="url(#paint6_linear)"/>
<path fill-rule="evenodd" clip-rule="evenodd" d="M69.5164 115.263C69.7999 115.12 70.0833 115.084 70.4021 115.192C70.6855 115.299 70.9335 115.514 71.0398 115.801C71.2523 116.302 71.0398 116.875 70.5792 117.161C69.5873 117.734 68.6308 118.451 67.816 119.203C67.4617 119.561 66.8949 119.561 66.4698 119.239C66.2218 119.06 66.0801 118.773 66.0801 118.451C66.0801 118.164 66.1864 117.842 66.3989 117.627C67.32 116.696 68.3828 115.908 69.5164 115.263Z" fill="#FFCE87"/>
<path fill-rule="evenodd" clip-rule="evenodd" d="M72.4923 115.192C72.3861 114.941 72.4215 114.619 72.5632 114.368C72.7049 114.117 72.9175 113.938 73.2009 113.867C74.0865 113.688 74.9722 113.58 75.8933 113.58C78.5148 113.58 80.9592 114.332 83.014 115.657C83.4037 115.908 83.5808 116.409 83.4037 116.839C83.2974 117.126 83.0848 117.376 82.8014 117.484C82.518 117.591 82.1992 117.555 81.9158 117.376C79.9673 116.159 77.7354 115.371 75.8578 115.371C75.1493 115.371 74.4054 115.514 73.626 115.729C73.1654 115.908 72.6695 115.657 72.4923 115.192Z" fill="#FFCE87"/>
<path d="M81.7502 128.529C82.5145 125.256 80.5101 121.977 77.2731 121.205C74.0361 120.432 70.7924 122.458 70.028 125.73C69.2637 129.003 71.2681 132.282 74.5051 133.054C77.7421 133.827 80.9858 131.801 81.7502 128.529Z" fill="#B6B6B6"/>
<path d="M75.8933 132.274C78.7107 132.274 80.9947 129.965 80.9947 127.117C80.9947 124.269 78.7107 121.96 75.8933 121.96C73.0759 121.96 70.7919 124.269 70.7919 127.117C70.7919 129.965 73.0759 132.274 75.8933 132.274Z" fill="url(#paint7_linear)"/>
<path fill-rule="evenodd" clip-rule="evenodd" d="M120.318 54.2038C120.318 54.2038 119.716 60.3993 115.89 64.7326C111.284 69.9611 102.888 73.3633 96.4406 71.8234C84.6081 68.9942 111.001 60.1844 111.001 60.1844L120.318 54.2038Z" fill="#1F313E"/>
<path fill-rule="evenodd" clip-rule="evenodd" d="M82.6951 66.8812C82.6951 66.8812 82.1637 86.4346 81.9866 94.0268C81.9512 95.9965 82.1283 97.9661 82.5534 99.9C83.7225 105.343 86.1669 116.517 86.1669 116.517H94.4213C94.4213 116.517 92.7917 107.313 91.7643 101.547C91.2329 98.6107 91.2683 95.6383 91.8351 92.7017C93.571 83.498 94.6693 74.2585 95.0235 65.0548L82.6951 66.8812Z" fill="#243D4F"/>
<path fill-rule="evenodd" clip-rule="evenodd" d="M92.6499 66.8812C92.6499 66.8812 93.5001 86.7928 93.819 94.3133C93.8898 96.1755 94.1024 98.0736 94.4921 99.9C95.5195 105.272 97.7159 116.517 97.7159 116.517H105.722C105.722 116.517 104.659 106.382 103.951 99.7209C103.561 95.9607 103.738 92.2004 104.447 88.5117C104.624 87.5806 104.837 86.6137 105.014 85.6468C106.218 79.4871 106.75 73.1842 106.608 66.917H92.6499V66.8812Z" fill="url(#paint8_linear)"/>
<path fill-rule="evenodd" clip-rule="evenodd" d="M102.924 30.2097H79.0107C83.1202 42.8156 84.927 55.1349 82.7305 66.9529H106.608C108.592 54.741 107.246 42.4933 102.924 30.2097Z" fill="url(#paint9_linear)"/>
<path fill-rule="evenodd" clip-rule="evenodd" d="M90.985 18.3917H85.671V32.2868L88.328 35.9038L90.985 32.2868V18.3917Z" fill="#E87965"/>
<path fill-rule="evenodd" clip-rule="evenodd" d="M90.9848 10.3339H75.7869V20.2181C75.7869 22.1161 76.5308 23.9067 77.8416 25.2317C79.1524 26.5568 80.9591 27.3088 82.8013 27.3088H84.6435C88.1507 27.3088 90.9848 24.4439 90.9848 20.8985V10.3339Z" fill="url(#paint10_linear)"/>
<path fill-rule="evenodd" clip-rule="evenodd" d="M75.7516 10.334C75.7516 10.334 73.6968 8.615 74.7242 5.24866C75.7516 1.84651 79.0462 0.628906 84.5019 0.628906C84.5019 0.628906 83.3328 1.16609 83.3328 2.31207C83.3328 3.45806 84.5019 3.45806 84.5019 3.45806C84.5019 3.45806 94.2441 3.52968 95.4132 5.67841C96.6177 7.93457 94.811 9.43868 94.811 9.43868C94.811 9.43868 97.5388 9.7968 97.5388 12.3753C97.5388 13.7361 96.5823 14.5598 95.4132 14.6314C95.4132 14.6314 97.1845 15.8132 96.6177 17.1025C96.5114 17.3532 96.3343 17.568 96.1217 17.7471C95.0944 18.6066 94.4213 19.8242 94.2087 21.1492C93.9253 22.8682 93.1459 24.9095 90.9141 25.7332V17.0667C90.9141 17.0667 87.8674 15.4193 85.6001 10.334C85.671 10.2982 78.196 14.2733 75.7516 10.334Z" fill="url(#paint11_linear)"/>
<path fill-rule="evenodd" clip-rule="evenodd" d="M73.4134 54.0606C73.3425 54.7052 73.5197 55.3498 73.9448 55.8512C74.3699 56.3525 74.9721 56.6032 75.6098 56.6032C76.3892 56.6032 77.2394 56.6032 77.9834 56.6032C79.117 56.6032 80.0381 55.7795 80.1798 54.6335C80.7112 50.4077 82.022 40.3445 82.8014 34.543C82.9431 33.4328 82.6243 32.3226 81.8803 31.4989C81.1718 30.6753 80.109 30.1739 79.0108 30.1739C77.5583 30.1739 76.3538 31.2483 76.1766 32.6807C75.539 37.7661 74.0865 49.011 73.4134 54.0606Z" fill="url(#paint12_linear)"/>
<path fill-rule="evenodd" clip-rule="evenodd" d="M92.898 30.1739C92.898 30.1739 92.402 59.2533 106.537 64.7326C119.114 69.603 120.283 54.2038 120.283 54.2038C120.283 54.2038 115.146 55.8512 111.001 51.303C106.856 46.7549 102.888 30.1739 102.888 30.1739H92.898Z" fill="url(#paint13_linear)"/>
<path fill-rule="evenodd" clip-rule="evenodd" d="M84.1122 30.1739C82.6243 35.868 83.3682 45.215 83.6516 56.4241C79.4713 47.3995 77.7354 38.6613 78.6919 30.2097L84.1122 30.1739Z" fill="url(#paint14_linear)"/>
<path fill-rule="evenodd" clip-rule="evenodd" d="M86.4858 34.1132L87.8675 37.0139H89.32L90.6307 33.2537L88.328 31.8928L86.4858 34.1132Z" fill="url(#paint15_linear)"/>
<path fill-rule="evenodd" clip-rule="evenodd" d="M89.2845 37.0499C89.2845 37.0499 94.7402 49.1544 105.156 41.7054C113.552 35.7248 120.283 40.2013 120.283 40.2013L123.117 44.5704L117.484 47.7219C117.484 47.7219 113.197 42.5649 104.305 47.7219C95.4133 52.8788 87.3361 40.3088 87.7966 37.0857H89.2845V37.0499Z" fill="url(#paint16_linear)"/>
<path fill-rule="evenodd" clip-rule="evenodd" d="M88.3279 31.9287L90.9849 35.0801L92.8979 30.2097L90.9849 28.3475L88.3279 31.9287Z" fill="url(#paint17_linear)"/>
<path fill-rule="evenodd" clip-rule="evenodd" d="M85.6708 28.3475L84.1121 30.2455L85.6708 35.116L88.3278 31.9645L85.6708 28.3475Z" fill="url(#paint18_linear)"/>
<path fill-rule="evenodd" clip-rule="evenodd" d="M103.101 59.5398C104.341 59.11 105.191 57.9282 105.191 56.6032C105.191 55.5288 104.659 54.5261 103.809 53.9173C102.924 53.3085 101.825 53.1652 100.833 53.5591C94.9172 55.8511 84.9978 59.683 84.9978 59.683L87.6194 64.6967C87.6194 64.7683 98.4244 61.1155 103.101 59.5398Z" fill="url(#paint19_linear)"/>
<path fill-rule="evenodd" clip-rule="evenodd" d="M98.3181 56.6032C98.3181 57.8567 99.31 58.8594 100.55 58.8594H102.959C104.199 58.8594 105.191 57.8567 105.191 56.6032C105.191 51.6254 105.191 39.6283 105.191 33.6835C105.191 31.7855 103.667 30.2097 101.754 30.2097C99.8769 30.2097 98.3181 31.7496 98.3181 33.6835V56.6032V56.6032Z" fill="url(#paint20_linear)"/>
<path fill-rule="evenodd" clip-rule="evenodd" d="M78.4439 57.3195C79.365 56.8898 79.9318 55.9587 79.9318 54.9559C79.9318 53.8457 79.365 52.843 78.4085 52.27C77.452 51.697 76.3184 51.697 75.3618 52.1984C69.9416 55.1708 61.6873 59.7547 61.6873 59.7547L66.151 63.2285C66.151 63.2285 74.9013 59.0385 78.4439 57.3195Z" fill="url(#paint21_linear)"/>
<path d="M76.2121 64.1954H71.5358V106.776H76.2121V64.1954Z" fill="url(#paint22_linear)"/>
<path d="M105.935 124.968H82.7306V129.266H105.935V124.968Z" fill="url(#paint23_linear)"/>
<path fill-rule="evenodd" clip-rule="evenodd" d="M76.2121 106.812V118.415C76.2121 120.17 76.8852 121.817 78.1251 123.035C79.3296 124.252 80.9946 124.968 82.6951 124.968C84.0413 126.759 83.7933 128.12 82.6951 129.266C76.5309 129.266 71.5358 124.216 71.5358 117.985V106.812C73.0945 105.773 74.7242 105.845 76.2121 106.812Z" fill="url(#paint24_linear)"/>
<path fill-rule="evenodd" clip-rule="evenodd" d="M86.8045 116.481L79.1879 122.712V124.968H94.3858V116.517H86.8045V116.481Z" fill="url(#paint25_linear)"/>
<path d="M94.563 122.712H79.2234V124.968H94.563V122.712Z" fill="url(#paint26_linear)"/>
<path fill-rule="evenodd" clip-rule="evenodd" d="M98.1056 116.481L90.4889 122.712V124.968H105.687V116.517H98.1056V116.481Z" fill="url(#paint27_linear)"/>
<path d="M105.829 122.712H90.4889V124.968H105.829V122.712Z" fill="url(#paint28_linear)"/>
<path d="M93.6773 61.5095H55.8419V64.1954H93.6773V61.5095Z" fill="url(#paint29_linear)"/>
<path fill-rule="evenodd" clip-rule="evenodd" d="M68.4891 64.9474H56.0899C55.9836 64.9474 55.8773 64.9833 55.8065 64.9833C55.0271 64.9833 54.3894 64.0521 54.3894 62.9062C54.3894 61.7602 55.0271 60.829 55.8065 60.829H68.4891V64.9474Z" fill="url(#paint30_linear)"/>
<path fill-rule="evenodd" clip-rule="evenodd" d="M77.3103 61.581C77.3103 61.0439 76.8852 60.5783 76.3184 60.5783C75.0076 60.5783 72.7403 60.5783 71.4296 60.5783C70.8982 60.5783 70.4376 61.0081 70.4376 61.581C70.4376 61.9034 70.4376 62.2257 70.4376 62.6196C70.4376 64.3744 71.8547 65.8069 73.5906 65.8069H74.1574C75.8933 65.8069 77.3103 64.3744 77.3103 62.6196V61.581V61.581Z" fill="url(#paint31_linear)"/>
<path d="M93.6418 60.7574H79.0107V64.9116H93.6418V60.7574Z" fill="url(#paint32_linear)"/>
<path fill-rule="evenodd" clip-rule="evenodd" d="M89.4616 61.4378C89.4616 60.5067 88.7177 59.7546 87.7966 59.7546H82.1992C81.2781 59.7546 80.5342 60.5067 80.5342 61.4378V64.0879C80.5342 65.019 81.2781 65.7711 82.1992 65.7711H87.7966C88.7177 65.7711 89.4616 65.019 89.4616 64.0879V61.4378Z" fill="url(#paint33_linear)"/>
<path fill-rule="evenodd" clip-rule="evenodd" d="M67.0721 61.7601C67.0721 60.6499 66.1864 59.7546 65.0882 59.7546H61.0142C59.9159 59.7546 59.0303 60.6499 59.0303 61.7601V63.8014C59.0303 64.9116 59.9159 65.8069 61.0142 65.8069H65.0882C66.1864 65.8069 67.0721 64.9116 67.0721 63.8014V61.7601Z" fill="url(#paint34_linear)"/>
<path fill-rule="evenodd" clip-rule="evenodd" d="M93.6419 60.7574C94.4213 60.7574 95.0944 61.6886 95.0944 62.8345C95.0944 63.9805 94.4567 64.9116 93.6419 64.9116C92.8625 64.9116 92.1895 63.9805 92.1895 62.8345C92.2249 61.7244 92.8625 60.7574 93.6419 60.7574Z" fill="url(#paint35_linear)"/>
<path fill-rule="evenodd" clip-rule="evenodd" d="M94.3149 19.4302C94.3149 18.7856 94.0669 18.2126 93.6418 17.7471C93.2167 17.3173 92.6145 17.0667 91.9768 17.0667H90.4889V21.7938H91.9768C92.6145 21.7938 93.1813 21.5432 93.6418 21.1134C94.0669 20.6479 94.3149 20.0391 94.3149 19.4302Z" fill="url(#paint36_linear)"/>
<path d="M105.935 138.828C112.333 138.828 117.519 133.585 117.519 127.117C117.519 120.65 112.333 115.407 105.935 115.407C99.5369 115.407 94.3503 120.65 94.3503 127.117C94.3503 133.585 99.5369 138.828 105.935 138.828Z" fill="url(#paint37_linear)"/>
<path fill-rule="evenodd" clip-rule="evenodd" d="M95.3423 123.393C94.7755 123.142 94.3858 122.641 94.2087 122.068C94.0315 121.495 94.1024 120.85 94.4212 120.313C96.7594 116.302 101.046 113.616 105.935 113.616C110.328 113.616 114.225 115.765 116.669 119.059C117.378 120.026 117.2 121.351 116.279 122.103C115.819 122.462 115.217 122.641 114.65 122.569C114.083 122.497 113.552 122.175 113.197 121.71C111.568 119.489 108.946 118.021 105.97 118.021C102.676 118.021 99.7706 119.847 98.2119 122.533C97.5742 123.5 96.3697 123.894 95.3423 123.393Z" fill="url(#paint38_linear)"/>
<path fill-rule="evenodd" clip-rule="evenodd" d="M99.5581 115.263C99.8415 115.12 100.125 115.084 100.444 115.192C100.727 115.299 100.975 115.514 101.081 115.801C101.294 116.302 101.081 116.875 100.621 117.161C99.6289 117.734 98.6724 118.451 97.8576 119.203C97.5033 119.561 96.9365 119.561 96.5114 119.239C96.2634 119.06 96.1217 118.773 96.1217 118.451C96.1217 118.164 96.228 117.842 96.4406 117.627C97.3616 116.696 98.389 115.908 99.5581 115.263Z" fill="#FFCE87"/>
<path fill-rule="evenodd" clip-rule="evenodd" d="M102.534 115.192C102.428 114.941 102.463 114.619 102.605 114.368C102.746 114.117 102.959 113.938 103.242 113.867C104.128 113.688 105.014 113.58 105.935 113.58C108.556 113.58 111.001 114.332 113.055 115.657C113.445 115.908 113.622 116.409 113.445 116.839C113.339 117.126 113.126 117.376 112.843 117.484C112.56 117.591 112.241 117.555 111.957 117.376C110.009 116.159 107.777 115.371 105.899 115.371C105.191 115.371 104.447 115.514 103.667 115.729C103.207 115.908 102.711 115.657 102.534 115.192Z" fill="#FFCE87"/>
<path d="M105.935 133.205C109.261 133.205 111.957 130.48 111.957 127.117C111.957 123.755 109.261 121.029 105.935 121.029C102.609 121.029 99.9124 123.755 99.9124 127.117C99.9124 130.48 102.609 133.205 105.935 133.205Z" fill="#B6B6B6"/>
<path d="M105.935 132.274C108.752 132.274 111.036 129.965 111.036 127.117C111.036 124.269 108.752 121.96 105.935 121.96C103.117 121.96 100.833 124.269 100.833 127.117C100.833 129.965 103.117 132.274 105.935 132.274Z" fill="url(#paint39_linear)"/>
<path d="M51.0594 28.0252C57.3203 28.0252 62.3958 22.8944 62.3958 16.5653C62.3958 10.2362 57.3203 5.10547 51.0594 5.10547C44.7984 5.10547 39.7229 10.2362 39.7229 16.5653C39.7229 22.8944 44.7984 28.0252 51.0594 28.0252Z" fill="url(#paint40_linear)"/>
<path d="M51.0594 25.4108C55.8921 25.4108 59.8097 21.4505 59.8097 16.5653C59.8097 11.68 55.8921 7.71967 51.0594 7.71967C46.2267 7.71967 42.3091 11.68 42.3091 16.5653C42.3091 21.4505 46.2267 25.4108 51.0594 25.4108Z" fill="url(#paint41_linear)"/>
<path d="M51.0594 17.9978C50.7052 17.9978 50.3509 17.8546 50.0675 17.5681L46.702 14.1659C46.1351 13.5929 46.1351 12.6976 46.702 12.1605C47.2688 11.5875 48.1545 11.5875 48.6859 12.1605L52.0514 15.5626C52.6182 16.1356 52.6182 17.0309 52.0514 17.5681C51.8034 17.8546 51.4137 17.9978 51.0594 17.9978Z" fill="#40302D"/>
<path d="M51.0594 17.9979C50.28 17.9979 49.6423 17.3532 49.6423 16.5654V9.43877C49.6423 8.6509 50.28 8.00629 51.0594 8.00629C51.8388 8.00629 52.4764 8.6509 52.4764 9.43877V16.5654C52.4764 17.3532 51.8388 17.9979 51.0594 17.9979Z" fill="#40302D"/>
<defs>
<linearGradient id="paint0_linear" x1="41.3037" y1="78.606" x2="41.2983" y2="81.7877" gradientUnits="userSpaceOnUse">
<stop stop-color="#515151"/>
<stop offset="1" stop-color="#272727"/>
</linearGradient>
<linearGradient id="paint1_linear" x1="40.5604" y1="44.4275" x2="37.9913" y2="73.2408" gradientUnits="userSpaceOnUse">
<stop stop-color="#7D7D7D"/>
<stop offset="1" stop-color="#3B3B3B"/>
</linearGradient>
<linearGradient id="paint2_linear" x1="39.1744" y1="59.3792" x2="45.2811" y2="74.361" gradientUnits="userSpaceOnUse">
<stop stop-color="#E2F9FF"/>
<stop offset="1" stop-color="#B5CACF"/>
</linearGradient>
<linearGradient id="paint3_linear" x1="73.2584" y1="84.6138" x2="0.0169309" y2="84.6138" gradientUnits="userSpaceOnUse">
<stop stop-color="#F89F1E"/>
<stop offset="0.48" stop-color="#F08D16"/>
<stop offset="1" stop-color="#DB5D00"/>
</linearGradient>
<linearGradient id="paint4_linear" x1="34.4855" y1="138.833" x2="34.4855" y2="87.6705" gradientUnits="userSpaceOnUse">
<stop stop-color="#FFD2A5"/>
<stop offset="1" stop-color="#FF8E1E"/>
</linearGradient>
<linearGradient id="paint5_linear" x1="73.4546" y1="118.442" x2="79.3902" y2="139.105" gradientUnits="userSpaceOnUse">
<stop stop-color="#515151"/>
<stop offset="1" stop-color="#272727"/>
</linearGradient>
<linearGradient id="paint6_linear" x1="64.2782" y1="117.389" x2="87.3844" y2="121.251" gradientUnits="userSpaceOnUse">
<stop stop-color="#F89F1E"/>
<stop offset="0.48" stop-color="#F08D16"/>
<stop offset="1" stop-color="#DB5D00"/>
</linearGradient>
<linearGradient id="paint7_linear" x1="73.9741" y1="122.354" x2="77.8832" y2="131.856" gradientUnits="userSpaceOnUse">
<stop stop-color="#F89F1E"/>
<stop offset="0.48" stop-color="#F08D16"/>
<stop offset="1" stop-color="#DB5D00"/>
</linearGradient>
<linearGradient id="paint8_linear" x1="100.398" y1="67.1069" x2="96.1949" y2="147.961" gradientUnits="userSpaceOnUse">
<stop stop-color="#264358"/>
<stop offset="1" stop-color="#588193"/>
</linearGradient>
<linearGradient id="paint9_linear" x1="95.1967" y1="31.6164" x2="88.9403" y2="61.0082" gradientUnits="userSpaceOnUse">
<stop stop-color="#E2F9FF"/>
<stop offset="1" stop-color="#B5CACF"/>
</linearGradient>
<linearGradient id="paint10_linear" x1="83.3773" y1="28.8388" x2="83.3773" y2="10.3183" gradientUnits="userSpaceOnUse">
<stop stop-color="#FE8C77"/>
<stop offset="1" stop-color="#FDCB9F"/>
</linearGradient>
<linearGradient id="paint11_linear" x1="81.9984" y1="2.78869" x2="83.6595" y2="43.5554" gradientUnits="userSpaceOnUse">
<stop stop-color="#264358"/>
<stop offset="1" stop-color="#588193"/>
</linearGradient>
<linearGradient id="paint12_linear" x1="79.5797" y1="32.0471" x2="73.8664" y2="78.6684" gradientUnits="userSpaceOnUse">
<stop stop-color="#264358"/>
<stop offset="1" stop-color="#588193"/>
</linearGradient>
<linearGradient id="paint13_linear" x1="111.019" y1="59.968" x2="98.6494" y2="30.014" gradientUnits="userSpaceOnUse">
<stop stop-color="#264358"/>
<stop offset="1" stop-color="#588193"/>
</linearGradient>
<linearGradient id="paint14_linear" x1="83.8308" y1="54.3012" x2="80.1891" y2="25.7994" gradientUnits="userSpaceOnUse">
<stop stop-color="#264358"/>
<stop offset="1" stop-color="#588193"/>
</linearGradient>
<linearGradient id="paint15_linear" x1="88.5323" y1="31.9229" x2="88.5462" y2="37.0368" gradientUnits="userSpaceOnUse">
<stop stop-color="#F89F1E"/>
<stop offset="0.48" stop-color="#F08D16"/>
<stop offset="1" stop-color="#DB5D00"/>
</linearGradient>
<linearGradient id="paint16_linear" x1="120.083" y1="44.5485" x2="87.9217" y2="42.5804" gradientUnits="userSpaceOnUse">
<stop stop-color="#F89F1E"/>
<stop offset="0.48" stop-color="#F08D16"/>
<stop offset="1" stop-color="#DB5D00"/>
</linearGradient>
<linearGradient id="paint17_linear" x1="90.9505" y1="28.5151" x2="90.3225" y2="34.0883" gradientUnits="userSpaceOnUse">
<stop stop-color="#E2F9FF"/>
<stop offset="1" stop-color="#B5CACF"/>
</linearGradient>
<linearGradient id="paint18_linear" x1="86.5873" y1="28.5201" x2="85.7854" y2="34.0627" gradientUnits="userSpaceOnUse">
<stop stop-color="#E2F9FF"/>
<stop offset="1" stop-color="#B5CACF"/>
</linearGradient>
<linearGradient id="paint19_linear" x1="97.5917" y1="62.5022" x2="80.4439" y2="31.2901" gradientUnits="userSpaceOnUse">
<stop stop-color="#264358"/>
<stop offset="1" stop-color="#588193"/>
</linearGradient>
<linearGradient id="paint20_linear" x1="108.076" y1="56.7423" x2="90.9282" y2="25.5302" gradientUnits="userSpaceOnUse">
<stop stop-color="#264358"/>
<stop offset="1" stop-color="#588193"/>
</linearGradient>
<linearGradient id="paint21_linear" x1="73.9394" y1="31.356" x2="68.2262" y2="77.9772" gradientUnits="userSpaceOnUse">
<stop stop-color="#264358"/>
<stop offset="1" stop-color="#588193"/>
</linearGradient>
<linearGradient id="paint22_linear" x1="73.5256" y1="85.6314" x2="87.2221" y2="85.5658" gradientUnits="userSpaceOnUse">
<stop stop-color="#515151"/>
<stop offset="1" stop-color="#272727"/>
</linearGradient>
<linearGradient id="paint23_linear" x1="94.2345" y1="125.473" x2="94.2418" y2="129.557" gradientUnits="userSpaceOnUse">
<stop stop-color="#515151"/>
<stop offset="1" stop-color="#272727"/>
</linearGradient>
<linearGradient id="paint24_linear" x1="76.585" y1="133.291" x2="76.7597" y2="106.971" gradientUnits="userSpaceOnUse">
<stop stop-color="#F89F1E"/>
<stop offset="0.48" stop-color="#F08D16"/>
<stop offset="1" stop-color="#DB5D00"/>
</linearGradient>
<linearGradient id="paint25_linear" x1="86.8129" y1="116.501" x2="86.8129" y2="127.12" gradientUnits="userSpaceOnUse">
<stop stop-color="#9AB4BA"/>
<stop offset="1" stop-color="#778B90"/>
</linearGradient>
<linearGradient id="paint26_linear" x1="86.8743" y1="122.713" x2="86.8743" y2="128.47" gradientUnits="userSpaceOnUse">
<stop stop-color="#243D4F"/>
<stop offset="1" stop-color="#6B7D8A"/>
</linearGradient>
<linearGradient id="paint27_linear" x1="98.4916" y1="116.737" x2="98.4344" y2="123.818" gradientUnits="userSpaceOnUse">
<stop stop-color="#E2F9FF"/>
<stop offset="1" stop-color="#B5CACF"/>
</linearGradient>
<linearGradient id="paint28_linear" x1="98.1583" y1="122.716" x2="98.1583" y2="126.383" gradientUnits="userSpaceOnUse">
<stop stop-color="#264358"/>
<stop offset="1" stop-color="#588193"/>
</linearGradient>
<linearGradient id="paint29_linear" x1="74.7198" y1="61.837" x2="74.72" y2="64.3892" gradientUnits="userSpaceOnUse">
<stop stop-color="#515151"/>
<stop offset="1" stop-color="#272727"/>
</linearGradient>
<linearGradient id="paint30_linear" x1="61.4486" y1="60.7692" x2="61.4486" y2="65.0399" gradientUnits="userSpaceOnUse">
<stop stop-color="#F89F1E"/>
<stop offset="0.48" stop-color="#F08D16"/>
<stop offset="1" stop-color="#DB5D00"/>
</linearGradient>
<linearGradient id="paint31_linear" x1="73.9861" y1="60.7299" x2="73.8964" y2="65.0761" gradientUnits="userSpaceOnUse">
<stop stop-color="#E2F9FF"/>
<stop offset="1" stop-color="#B5CACF"/>
</linearGradient>
<linearGradient id="paint32_linear" x1="92.4589" y1="63.2593" x2="79.1299" y2="62.2998" gradientUnits="userSpaceOnUse">
<stop stop-color="#F89F1E"/>
<stop offset="0.48" stop-color="#F08D16"/>
<stop offset="1" stop-color="#DB5D00"/>
</linearGradient>
<linearGradient id="paint33_linear" x1="88.3136" y1="62.7672" x2="79.9404" y2="62.7672" gradientUnits="userSpaceOnUse">
<stop stop-color="#FE8C77"/>
<stop offset="1" stop-color="#FDCB9F"/>
</linearGradient>
<linearGradient id="paint34_linear" x1="59.048" y1="62.766" x2="67.0726" y2="62.766" gradientUnits="userSpaceOnUse">
<stop stop-color="#FE8C77"/>
<stop offset="1" stop-color="#FDCB9F"/>
</linearGradient>
<linearGradient id="paint35_linear" x1="93.1312" y1="61.5673" x2="95.4193" y2="64.2139" gradientUnits="userSpaceOnUse">
<stop stop-color="#515151"/>
<stop offset="1" stop-color="#272727"/>
</linearGradient>
<linearGradient id="paint36_linear" x1="92.4065" y1="28.8389" x2="92.4065" y2="10.3183" gradientUnits="userSpaceOnUse">
<stop stop-color="#FE8C77"/>
<stop offset="1" stop-color="#FDCB9F"/>
</linearGradient>
<linearGradient id="paint37_linear" x1="103.493" y1="118.441" x2="109.429" y2="139.104" gradientUnits="userSpaceOnUse">
<stop stop-color="#515151"/>
<stop offset="1" stop-color="#272727"/>
</linearGradient>
<linearGradient id="paint38_linear" x1="94.3244" y1="117.385" x2="117.423" y2="121.246" gradientUnits="userSpaceOnUse">
<stop stop-color="#F89F1E"/>
<stop offset="0.48" stop-color="#F08D16"/>
<stop offset="1" stop-color="#DB5D00"/>
</linearGradient>
<linearGradient id="paint39_linear" x1="104.01" y1="122.352" x2="107.92" y2="131.854" gradientUnits="userSpaceOnUse">
<stop stop-color="#F89F1E"/>
<stop offset="0.48" stop-color="#F08D16"/>
<stop offset="1" stop-color="#DB5D00"/>
</linearGradient>
<linearGradient id="paint40_linear" x1="47.3435" y1="5.85796" x2="54.6419" y2="26.4114" gradientUnits="userSpaceOnUse">
<stop stop-color="#F89F1E"/>
<stop offset="0.48" stop-color="#F08D16"/>
<stop offset="1" stop-color="#DB5D00"/>
</linearGradient>
<linearGradient id="paint41_linear" x1="46.7054" y1="8.98428" x2="60.1246" y2="31.8868" gradientUnits="userSpaceOnUse">
<stop stop-color="#E2F9FF"/>
<stop offset="1" stop-color="#B5CACF"/>
</linearGradient>
</defs>
</svg>
