<svg width="146" height="131" viewBox="0 0 146 131" fill="none" xmlns="http://www.w3.org/2000/svg">
<path fill-rule="evenodd" clip-rule="evenodd" d="M44.2547 9.28015C44.2547 8.65452 44.0112 8.06365 43.559 7.64656C43.1068 7.19472 42.5155 6.95142 41.9242 6.95142C41.2981 6.95142 40.7067 7.19472 40.2893 7.64656C39.8371 8.0984 39.5936 8.68928 39.5936 9.28015C39.5936 11.9912 39.5936 16.1621 39.5936 16.1621H44.2547V9.28015V9.28015ZM41.9242 8.51549C42.3764 8.51549 42.759 8.89782 42.759 9.34967C42.759 9.80151 42.3764 10.1838 41.9242 10.1838C41.472 10.1838 41.0894 9.80151 41.0894 9.34967C41.0894 8.89782 41.472 8.51549 41.9242 8.51549Z" fill="url(#paint0_linear)"/>
<path fill-rule="evenodd" clip-rule="evenodd" d="M129.441 9.28015C129.441 8.65452 129.198 8.06365 128.746 7.64656C128.294 7.19472 127.702 6.95142 127.111 6.95142C126.485 6.95142 125.893 7.19472 125.476 7.64656C125.024 8.0984 124.78 8.68928 124.78 9.28015C124.78 11.9912 124.78 16.1621 124.78 16.1621H129.441V9.28015ZM127.111 8.51549C127.563 8.51549 127.946 8.89782 127.946 9.34967C127.946 9.80151 127.563 10.1838 127.111 10.1838C126.659 10.1838 126.276 9.80151 126.276 9.34967C126.276 8.89782 126.659 8.51549 127.111 8.51549Z" fill="url(#paint1_linear)"/>
<path d="M145.06 11.6437H15.5229V86.2675H145.06V11.6437Z" fill="url(#paint2_linear)"/>
<path d="M143.147 13.729H17.4709V84.1819H143.147V13.729Z" fill="url(#paint3_linear)"/>
<path fill-rule="evenodd" clip-rule="evenodd" d="M95.805 19.8116L95.8746 19.8463L95.9094 19.9159V19.9854V28.1533C95.9094 28.2229 95.9094 28.2229 95.8746 28.2576L95.805 28.2924H95.7355H75.2127C75.1432 28.2924 75.1432 28.2924 75.1084 28.2576L75.0736 28.1881V28.1186V19.9506C75.0736 19.8811 75.0736 19.8811 75.1084 19.8463L75.178 19.8116H75.2475H95.7703C95.7703 19.7768 95.805 19.8116 95.805 19.8116ZM75.4215 20.1244V28.0143H95.5963V20.1244H75.4215Z" fill="black"/>
<path fill-rule="evenodd" clip-rule="evenodd" d="M134.763 48.7992C134.868 48.8687 134.868 48.9035 134.868 48.9382V57.1409C134.868 57.2105 134.798 57.28 134.694 57.3147H116.015C115.945 57.3147 115.945 57.3147 115.91 57.28L115.875 57.2105V57.1409V48.9382C115.875 48.8687 115.875 48.8687 115.91 48.834L115.98 48.7992H116.049H134.729C134.694 48.7992 134.729 48.7992 134.763 48.7992ZM116.189 49.112V57.0019H134.555V49.112H116.189Z" fill="black"/>
<path fill-rule="evenodd" clip-rule="evenodd" d="M108.606 48.7992L108.675 48.834L108.71 48.9035V48.973V57.1757C108.71 57.2452 108.71 57.2452 108.675 57.28L108.606 57.3147H108.536H89.8569C89.7874 57.3147 89.7873 57.3147 89.7526 57.28L89.7178 57.2105V57.1409V48.9382C89.7178 48.8687 89.7178 48.8687 89.7526 48.834L89.8221 48.7992H89.8917H108.571H108.606ZM90.0308 49.112V57.0019H108.397V49.112H90.0308Z" fill="black"/>
<path fill-rule="evenodd" clip-rule="evenodd" d="M105.649 68.6803C105.753 68.715 105.788 68.7498 105.788 68.8541V75.1451C105.788 75.2842 105.753 75.2842 105.614 75.3189H92.7788C92.6396 75.3189 92.6396 75.2842 92.6049 75.1451V68.8193C92.6049 68.6803 92.6396 68.6803 92.7788 68.6455L105.649 68.6803C105.649 68.6803 105.649 68.6455 105.649 68.6803ZM92.9527 68.9931V74.9366H105.44V68.9931H92.9527Z" fill="black"/>
<path fill-rule="evenodd" clip-rule="evenodd" d="M88.2916 68.6803C88.396 68.715 88.4308 68.7498 88.4308 68.8541V75.1451C88.4308 75.2842 88.396 75.2842 88.2568 75.3189H75.4215C75.2823 75.3189 75.2823 75.2842 75.2476 75.1451V68.8193C75.2476 68.6803 75.2823 68.6803 75.4215 68.6455L88.2916 68.6803C88.2569 68.6803 88.2569 68.6455 88.2916 68.6803ZM75.5954 68.9931V74.9366H88.0829V68.9931H75.5954Z" fill="black"/>
<path fill-rule="evenodd" clip-rule="evenodd" d="M116.641 63.0149C116.71 63.0496 116.71 63.0496 116.745 63.1191V63.1886V68.8193H116.397V63.3277H81.9608V68.8193H81.6129V63.1539V63.0844L81.6477 63.0149L81.7173 62.9801H81.7868H116.536C116.606 63.0149 116.641 63.0149 116.641 63.0149Z" fill="black"/>
<path fill-rule="evenodd" clip-rule="evenodd" d="M123.041 68.6803C123.146 68.715 123.18 68.7498 123.18 68.8541V75.1451C123.18 75.2842 123.146 75.2842 123.006 75.3189H110.171C110.032 75.3189 110.032 75.2842 109.997 75.1451V68.8193C109.997 68.6803 110.032 68.6803 110.171 68.6455L123.041 68.6803C123.041 68.6803 123.006 68.6455 123.041 68.6803ZM110.345 68.9931V74.9366H122.832V68.9931H110.345Z" fill="black"/>
<path fill-rule="evenodd" clip-rule="evenodd" d="M82.4827 48.7992L82.5523 48.834L82.587 48.9035V48.973V57.1757C82.587 57.2452 82.587 57.2452 82.5523 57.28L82.4827 57.3147H82.4131H63.734C63.6644 57.3147 63.6644 57.3147 63.6296 57.28L63.5948 57.2105V57.1409V48.9382C63.5948 48.8687 63.5949 48.8687 63.6296 48.834L63.6992 48.7992H63.7688H82.4479C82.4479 48.7992 82.4479 48.7992 82.4827 48.7992ZM63.9079 49.112V57.0019H82.274V49.112H63.9079Z" fill="black"/>
<path fill-rule="evenodd" clip-rule="evenodd" d="M56.3597 48.7992L56.4292 48.834L56.464 48.9035V48.973V57.1757C56.464 57.2452 56.464 57.2452 56.4292 57.28L56.3597 57.3147H56.2901H37.6109C37.5414 57.3147 37.5414 57.3147 37.5066 57.28L37.4718 57.2105V57.1409V48.9382C37.4718 48.8687 37.4718 48.8687 37.5066 48.834L37.5762 48.7992H37.6457H56.3249C56.3249 48.7992 56.3249 48.7992 56.3597 48.7992ZM37.7849 49.112V57.0019H56.151V49.112H37.7849Z" fill="black"/>
<path fill-rule="evenodd" clip-rule="evenodd" d="M125.406 37.6421C125.511 37.7116 125.511 37.7464 125.511 37.7811V48.9382H125.163V37.9549H47.107V48.9382H46.7592V37.7811C46.7592 37.7116 46.7592 37.7116 46.7939 37.6768L46.8635 37.6421H46.9331H125.337C125.372 37.6421 125.406 37.6421 125.406 37.6421Z" fill="black"/>
<path d="M99.3878 37.8158H99.0399V48.9729H99.3878V37.8158Z" fill="black"/>
<path d="M73.2648 37.8158H72.917V48.9729H73.2648V37.8158Z" fill="black"/>
<path d="M99.3878 57.1409H99.0399V68.6108H99.3878V57.1409Z" fill="black"/>
<path fill-rule="evenodd" clip-rule="evenodd" d="M62.4122 42.6124C62.6905 42.4386 67.3168 48.9382 65.508 59.5391C65.508 59.5391 62.5861 61.277 61.2991 60.1648L60.9513 62.8411C60.9513 62.8411 56.6032 67.3595 51.2117 65.5521L51.5595 57.5927C51.5247 57.6275 49.4377 41.3611 62.4122 42.6124Z" fill="url(#paint4_linear)"/>
<path fill-rule="evenodd" clip-rule="evenodd" d="M60.0816 55.9591C60.0816 55.9591 57.6467 54.9859 57.3336 52.4834C57.0205 49.9809 58.0641 49.529 58.5511 49.6333C59.038 49.7376 60.0816 51.0583 60.0816 51.0583C60.0816 51.0583 61.1251 50.2937 60.812 49.1815C60.499 48.0692 59.8033 46.5747 60.812 45.2191C61.8208 43.8636 64.8818 42.6819 64.2557 38.0591C63.6296 33.4017 60.6033 31.0382 58.5511 30.7601C58.5511 30.7601 58.4467 32.498 56.2553 33.5407C54.0987 34.5834 49.3332 34.931 46.5157 36.8079C43.6982 38.6848 42.0633 41.5349 41.5068 44.2459C40.9154 47.0613 40.5328 49.2162 41.6807 54.6383C42.7938 60.0605 46.9679 62.7368 51.1768 63.1191C54.4813 63.4319 59.3511 61.6245 60.0816 60.4776C60.812 59.3653 60.0816 55.9591 60.0816 55.9591Z" fill="url(#paint5_linear)"/>
<path fill-rule="evenodd" clip-rule="evenodd" d="M46.2027 71.0785C46.0636 70.5572 45.507 70.2443 44.9853 70.3834C41.7156 71.2523 31.0368 74.1024 27.8019 74.9713C27.2801 75.1104 26.967 75.6665 27.1062 76.1878C28.1845 80.2544 32.4282 96.069 33.5413 100.136C33.6804 100.657 34.2369 100.97 34.7587 100.831C38.0284 99.9618 48.7072 97.1117 51.9421 96.2428C52.4639 96.1037 52.777 95.5476 52.6378 95.0263C51.5247 90.9597 47.281 75.1451 46.2027 71.0785Z" fill="url(#paint6_linear)"/>
<path fill-rule="evenodd" clip-rule="evenodd" d="M44.5678 71.9127L28.9497 76.0836L35.0717 98.9191L50.6899 94.7482L44.5678 71.9127Z" fill="url(#paint7_linear)"/>
<path fill-rule="evenodd" clip-rule="evenodd" d="M42.446 72.8165C42.5156 73.0598 42.3765 73.3378 42.0982 73.4073C40.2546 73.8939 33.6456 75.6666 31.8021 76.1532C31.5586 76.2227 31.2803 76.0837 31.2107 75.8056C31.0368 75.1104 30.689 73.7897 30.4803 73.0945C30.4107 72.8512 30.5498 72.5732 30.8281 72.5037C32.6717 72.0171 39.2807 70.2444 41.1242 69.7578C41.3677 69.6883 41.646 69.8273 41.7156 70.1054C41.8895 70.8005 42.2721 72.1213 42.446 72.8165Z" fill="url(#paint8_linear)"/>
<path fill-rule="evenodd" clip-rule="evenodd" d="M39.6633 72.8164C39.6633 72.8164 37.8545 74.7628 37.124 80.2197C36.3935 85.6418 33.3673 89.4651 31.7325 93.497C30.0976 97.5288 26.3409 102.777 26.4452 107.33C26.5844 112.857 33.0195 114.56 36.7066 112.37C40.3937 110.111 46.4462 90.8902 39.6633 72.8164Z" fill="url(#paint9_linear)"/>
<path fill-rule="evenodd" clip-rule="evenodd" d="M90.7266 24.1911C90.6918 24.052 90.5526 23.9478 90.4135 23.9478C89.683 24.0868 87.7699 24.3996 87.7699 24.3996L87.8742 24.9557C87.8742 24.9557 89.7874 24.6081 90.5179 24.5039C90.657 24.5039 90.7613 24.3648 90.7266 24.1911Z" fill="black"/>
<path fill-rule="evenodd" clip-rule="evenodd" d="M88.7438 24.0868L89.6134 23.9478L89.7873 24.8514L88.9177 24.9905L88.7438 24.0868Z" fill="url(#paint10_linear)"/>
<path fill-rule="evenodd" clip-rule="evenodd" d="M89.1265 23.7045L87.8743 23.913L88.1525 25.4423L89.4047 25.2338L89.1265 23.7045Z" fill="url(#paint11_linear)"/>
<path fill-rule="evenodd" clip-rule="evenodd" d="M82.4827 24.4343L88.4308 23.3916L88.8482 25.7551L82.9001 26.7978C83.1088 26.5893 83.4566 26.2765 83.4566 25.4423C83.4566 24.6081 82.4827 24.4691 82.4827 24.4691V24.4343Z" fill="url(#paint12_linear)"/>
<path fill-rule="evenodd" clip-rule="evenodd" d="M80.2912 35.2786C80.2912 35.2786 81.0913 32.5676 80.2912 31.6639C79.4912 30.7949 78.4129 28.8833 78.7607 27.0064C79.1086 25.0947 80.9521 25.6856 80.9521 25.6856C80.9521 25.6856 80.2912 23.0441 82.0304 22.1751C83.387 21.5148 85.2306 22.1751 86.4828 23.6697C87.7698 25.199 88.5699 26.8674 88.3264 28.2229C88.0829 29.5784 86.6915 31.4206 86.4828 33.4017C86.2741 35.2786 86.3437 37.0165 86.3437 37.0165L80.2912 35.2786Z" fill="url(#paint13_linear)"/>
<path fill-rule="evenodd" clip-rule="evenodd" d="M82.4827 24.4343C82.4827 24.4343 83.2827 24.5734 83.4566 25.4423C83.6305 26.2765 83.1088 26.5893 82.9001 26.7978L74.4475 28.2924C74.3083 28.3271 74.1344 28.2924 74.0301 28.1881C73.8909 28.1186 73.8214 27.9796 73.7866 27.8058C73.717 27.4234 73.6474 26.9368 73.5779 26.5545C73.5431 26.4155 73.5779 26.2417 73.6822 26.1374C73.7518 25.9984 73.8909 25.9289 74.0648 25.8941L82.4827 24.4343Z" fill="url(#paint14_linear)"/>
<path fill-rule="evenodd" clip-rule="evenodd" d="M75.0737 51.1974C77.2651 46.2966 77.2651 35.2786 77.2651 35.2786H87.596C87.596 35.2786 87.9439 40.5269 87.0742 47.0265V47.1308C86.5873 50.9193 85.6829 55.0902 84.0828 58.9482C80.0478 68.715 71.4909 76.6744 71.4909 76.6744C71.4909 76.6744 75.0737 93.775 75.0737 104.272C75.0737 114.699 77.2303 130.479 77.2651 130.618C62.9687 131.591 48.8811 130.861 37.5414 128.011C37.124 127.42 37.124 127.003 37.124 127.003C37.124 127.003 42.1677 91.8633 39.6285 72.8511C39.6285 72.8511 44.9505 69.3406 49.2985 68.0199C53.6466 66.6991 64.3253 65.0308 64.3253 65.0308C64.3253 65.0308 71.4213 59.3653 75.0737 51.1974Z" fill="url(#paint15_linear)"/>
<path fill-rule="evenodd" clip-rule="evenodd" d="M49.3332 68.0894C49.3332 68.0894 49.2984 65.7607 49.7159 65.4826C50.0985 65.2045 58.3424 63.6057 60.499 62.9106C62.6208 62.1807 63.8383 64.3009 64.36 65.0308C64.36 64.996 57.5423 69.0973 49.3332 68.0894Z" fill="url(#paint16_linear)"/>
<path fill-rule="evenodd" clip-rule="evenodd" d="M0.322266 7.2295C0.322266 3.23242 3.5572 0 7.55739 0H30.8976C34.8978 0 38.1328 3.23242 38.1328 7.2295V21.6885C38.1328 25.6856 34.8978 28.918 30.8976 28.918H25.8539L30.5846 37.7811L20.1841 28.918H7.55739C3.5572 28.918 0.322266 25.6856 0.322266 21.6885V7.2295Z" fill="url(#paint17_linear)"/>
<path fill-rule="evenodd" clip-rule="evenodd" d="M20.6015 22.2794H17.8535V22.6617C17.8535 22.8703 17.9231 23.0788 18.097 23.2179C18.2361 23.3569 18.4449 23.4612 18.6536 23.4612C19.0362 23.4612 19.4536 23.4612 19.8362 23.4612C20.0449 23.4612 20.2536 23.3917 20.3928 23.2179C20.5319 23.0788 20.6363 22.8703 20.6363 22.6617C20.6015 22.4532 20.6015 22.2794 20.6015 22.2794Z" fill="url(#paint18_linear)"/>
<path fill-rule="evenodd" clip-rule="evenodd" d="M21.3319 18.7689H17.1578V21.9666C17.1578 22.3837 17.5057 22.766 17.9579 22.766C18.6883 22.766 19.8014 22.766 20.5667 22.766C20.9841 22.766 21.3667 22.4184 21.3667 21.9666C21.3319 20.8196 21.3319 18.7689 21.3319 18.7689Z" fill="url(#paint19_linear)"/>
<path fill-rule="evenodd" clip-rule="evenodd" d="M16.4622 17.7262C16.4622 16.6139 15.9752 15.5712 15.1404 14.8413C13.8534 13.6943 13.0533 12.0607 13.0533 10.1839C13.0533 6.77765 15.8361 3.99707 19.2449 3.99707C22.6538 3.99707 25.4365 6.77765 25.4365 10.1839C25.4365 12.026 24.6365 13.6943 23.3495 14.8413C22.5147 15.5712 22.0277 16.6139 22.0277 17.7262C22.0277 17.7957 22.0277 17.8304 22.0277 17.8304C22.0277 18.4561 21.5407 18.9427 20.9146 18.9427C19.9406 18.9427 18.5493 18.9427 17.5753 18.9427C16.9492 18.9427 16.4622 18.4561 16.4622 17.8304V17.7262Z" fill="url(#paint20_linear)"/>
<path fill-rule="evenodd" clip-rule="evenodd" d="M22.0624 19.7769C22.0624 19.6379 21.9928 19.4641 21.8885 19.3598C21.7841 19.2555 21.645 19.186 21.4711 19.186C20.3928 19.186 18.0622 19.186 16.9839 19.186C16.8448 19.186 16.6709 19.2555 16.5665 19.3598C16.4621 19.4641 16.3926 19.6031 16.3926 19.7769C16.3926 19.9159 16.4621 20.0897 16.5665 20.194C16.6709 20.2983 16.81 20.3678 16.9839 20.3678C18.0622 20.3678 20.3928 20.3678 21.4711 20.3678C21.6102 20.3678 21.7841 20.2983 21.8885 20.194C21.9928 20.055 22.0624 19.9159 22.0624 19.7769Z" fill="url(#paint21_linear)"/>
<path fill-rule="evenodd" clip-rule="evenodd" d="M22.0624 21.2018C22.0624 21.0628 21.9928 20.889 21.8885 20.7847C21.7841 20.6805 21.645 20.611 21.4711 20.611C20.3928 20.611 18.0622 20.611 16.9839 20.611C16.8448 20.611 16.6709 20.6805 16.5665 20.7847C16.4621 20.889 16.3926 21.028 16.3926 21.2018C16.3926 21.3409 16.4621 21.5147 16.5665 21.6189C16.6709 21.7232 16.81 21.7927 16.9839 21.7927C18.0622 21.7927 20.3928 21.7927 21.4711 21.7927C21.6102 21.7927 21.7841 21.7232 21.8885 21.6189C21.9928 21.5147 22.0624 21.3756 22.0624 21.2018Z" fill="url(#paint22_linear)"/>
<path fill-rule="evenodd" clip-rule="evenodd" d="M20.1146 16.5445C20.1146 16.4402 20.0798 16.3707 20.0102 16.3012C19.9407 16.2317 19.8363 16.1969 19.7667 16.1969C19.4537 16.1969 19.0363 16.1969 18.758 16.1969C18.6536 16.1969 18.5841 16.2317 18.5145 16.3012C18.4449 16.3707 18.4102 16.475 18.4102 16.5445C18.4102 17.3091 18.4102 18.9427 18.4102 18.9427H20.1494V16.5445H20.1146Z" fill="url(#paint23_linear)"/>
<path fill-rule="evenodd" clip-rule="evenodd" d="M18.2014 11.4698C18.6536 11.4698 19.071 11.8869 19.071 12.3388V12.9644H19.4536C19.4536 12.5126 19.4188 12.0607 19.6971 11.7827C20.0102 11.4351 20.6363 11.4003 20.9493 11.7479C21.1928 12.026 21.2624 12.4431 21.1232 12.7559C20.9841 13.0687 20.6363 13.2772 20.2884 13.2772H19.8014V16.1621H19.4536V13.2772H19.071V16.1621H18.7231V13.2772C18.4449 13.2772 18.1666 13.312 17.9231 13.2425C17.4361 13.0687 17.1578 12.4778 17.4013 11.9912C17.5057 11.6784 17.8187 11.4698 18.2014 11.4698C18.1666 11.4698 18.1666 11.4698 18.2014 11.4698ZM18.1666 11.7827C17.784 11.7827 17.5057 12.2693 17.7144 12.6516C17.8187 12.8254 17.9927 12.9297 18.2014 12.9297H18.6883C18.6883 12.6516 18.7579 12.3388 18.6536 12.1302C18.584 11.9217 18.4101 11.7827 18.1666 11.7827ZM20.2884 11.7827C20.0102 11.7827 19.7667 12.026 19.7667 12.3388V12.9644C20.0797 12.9644 20.3928 13.0339 20.6363 12.8254C20.9841 12.5473 20.845 11.8174 20.2884 11.7827Z" fill="#FFFFFE"/>
<defs>
<linearGradient id="paint0_linear" x1="41.9333" y1="6.95211" x2="41.9333" y2="16.0601" gradientUnits="userSpaceOnUse">
<stop stop-color="#7A8D9F"/>
<stop offset="1" stop-color="#2E557A"/>
</linearGradient>
<linearGradient id="paint1_linear" x1="127.107" y1="6.95211" x2="127.107" y2="16.0601" gradientUnits="userSpaceOnUse">
<stop stop-color="#7A8D9F"/>
<stop offset="1" stop-color="#2E557A"/>
</linearGradient>
<linearGradient id="paint2_linear" x1="80.3005" y1="11.638" x2="80.3005" y2="85.5515" gradientUnits="userSpaceOnUse">
<stop stop-color="#7A8D9F"/>
<stop offset="1" stop-color="#2E557A"/>
</linearGradient>
<linearGradient id="paint3_linear" x1="80.2948" y1="14.4765" x2="80.2948" y2="94.777" gradientUnits="userSpaceOnUse">
<stop stop-color="#F1F9FD"/>
<stop offset="1" stop-color="#CDCDCD"/>
</linearGradient>
<linearGradient id="paint4_linear" x1="60.3065" y1="45.4687" x2="56.7471" y2="66.3352" gradientUnits="userSpaceOnUse">
<stop stop-color="#FFCAAF"/>
<stop offset="1" stop-color="#FF9D87"/>
</linearGradient>
<linearGradient id="paint5_linear" x1="52.075" y1="32.6958" x2="53.2817" y2="56.7717" gradientUnits="userSpaceOnUse">
<stop stop-color="#4E8E9E"/>
<stop offset="1" stop-color="#28465D"/>
</linearGradient>
<linearGradient id="paint6_linear" x1="36.4924" y1="72.7092" x2="43.5196" y2="99.6719" gradientUnits="userSpaceOnUse">
<stop stop-color="#9FB6C2"/>
<stop offset="1" stop-color="#3583AB"/>
</linearGradient>
<linearGradient id="paint7_linear" x1="35.7511" y1="75.0144" x2="44.1074" y2="96.447" gradientUnits="userSpaceOnUse">
<stop stop-color="#FDFDFD"/>
<stop offset="1" stop-color="#B2B3B2"/>
</linearGradient>
<linearGradient id="paint8_linear" x1="36.1147" y1="71.0945" x2="37.1311" y2="76.4498" gradientUnits="userSpaceOnUse">
<stop stop-color="#838F96"/>
<stop offset="1" stop-color="#355D73"/>
</linearGradient>
<linearGradient id="paint9_linear" x1="21.9462" y1="93.4763" x2="35.2462" y2="93.0673" gradientUnits="userSpaceOnUse">
<stop stop-color="#4E8E9E"/>
<stop offset="1" stop-color="#28465D"/>
</linearGradient>
<linearGradient id="paint10_linear" x1="89.691" y1="24.2481" x2="88.9885" y2="24.6315" gradientUnits="userSpaceOnUse">
<stop stop-color="#FFFFFE"/>
<stop offset="1" stop-color="#B4B4B4"/>
</linearGradient>
<linearGradient id="paint11_linear" x1="89.2636" y1="24.4703" x2="88.5206" y2="24.6133" gradientUnits="userSpaceOnUse">
<stop stop-color="#FFFFFE"/>
<stop offset="1" stop-color="#B4B4B4"/>
</linearGradient>
<linearGradient id="paint12_linear" x1="88.6436" y1="24.6098" x2="84.7087" y2="25.2776" gradientUnits="userSpaceOnUse">
<stop stop-color="#FFFFFE"/>
<stop offset="1" stop-color="#B4B4B4"/>
</linearGradient>
<linearGradient id="paint13_linear" x1="84.8322" y1="27.7096" x2="82.3036" y2="32.3957" gradientUnits="userSpaceOnUse">
<stop stop-color="#FFCAAF"/>
<stop offset="1" stop-color="#FF9D87"/>
</linearGradient>
<linearGradient id="paint14_linear" x1="77.7159" y1="26.3321" x2="86.4035" y2="27.0511" gradientUnits="userSpaceOnUse">
<stop stop-color="#FFFFFE"/>
<stop offset="1" stop-color="#B4B4B4"/>
</linearGradient>
<linearGradient id="paint15_linear" x1="70.5585" y1="34.2717" x2="58.1518" y2="103.511" gradientUnits="userSpaceOnUse">
<stop stop-color="#4E8E9E"/>
<stop offset="1" stop-color="#28465D"/>
</linearGradient>
<linearGradient id="paint16_linear" x1="56.8372" y1="60.0306" x2="56.8372" y2="67.8241" gradientUnits="userSpaceOnUse">
<stop stop-color="#4E8E9E"/>
<stop offset="1" stop-color="#28465D"/>
</linearGradient>
<linearGradient id="paint17_linear" x1="19.2366" y1="-0.00429825" x2="19.2366" y2="37.8004" gradientUnits="userSpaceOnUse">
<stop stop-color="#DBF2FF"/>
<stop offset="1" stop-color="#BFBFBF"/>
</linearGradient>
<linearGradient id="paint18_linear" x1="19.2408" y1="22.2882" x2="19.2408" y2="23.4309" gradientUnits="userSpaceOnUse">
<stop stop-color="#7A8D9F"/>
<stop offset="1" stop-color="#2E557A"/>
</linearGradient>
<linearGradient id="paint19_linear" x1="19.2408" y1="18.8401" x2="19.2408" y2="22.7543" gradientUnits="userSpaceOnUse">
<stop stop-color="#7A8D9F"/>
<stop offset="1" stop-color="#2E557A"/>
</linearGradient>
<linearGradient id="paint20_linear" x1="19.2392" y1="6.95099" x2="19.2392" y2="18.9561" gradientUnits="userSpaceOnUse">
<stop stop-color="#FFD652"/>
<stop offset="1" stop-color="#FF9500"/>
</linearGradient>
<linearGradient id="paint21_linear" x1="19.2405" y1="19.1948" x2="19.2405" y2="20.3331" gradientUnits="userSpaceOnUse">
<stop stop-color="#7A8D9F"/>
<stop offset="1" stop-color="#2E557A"/>
</linearGradient>
<linearGradient id="paint22_linear" x1="19.2407" y1="20.6527" x2="19.2407" y2="21.7833" gradientUnits="userSpaceOnUse">
<stop stop-color="#7A8D9F"/>
<stop offset="1" stop-color="#2E557A"/>
</linearGradient>
<linearGradient id="paint23_linear" x1="19.2413" y1="16.1797" x2="19.2413" y2="19.0648" gradientUnits="userSpaceOnUse">
<stop stop-color="#FFBD00"/>
<stop offset="1" stop-color="#EB6F00"/>
</linearGradient>
</defs>
</svg>
