<svg width="27" height="27" viewBox="0 0 27 27" fill="none" xmlns="http://www.w3.org/2000/svg">
  <path fill-rule="evenodd" clip-rule="evenodd"
        d="M13.0307 1.41663C6.61649 1.41663 1.41675 6.50153 1.41675 12.7741C1.41675 19.0466 6.61649 24.1315 13.0307 24.1315C15.774 24.1315 18.2952 23.2014 20.2824 21.646L24.0573 25.3279L24.1577 25.4125C24.5082 25.6661 25.005 25.6372 25.3222 25.3263C25.671 24.9843 25.6703 24.4305 25.3205 24.0893L21.59 20.4507C23.4869 18.4293 24.6446 15.7339 24.6446 12.7741C24.6446 6.50153 19.4449 1.41663 13.0307 1.41663ZM13.0307 3.16598C18.4569 3.16598 22.8558 7.46767 22.8558 12.7741C22.8558 18.0805 18.4569 22.3822 13.0307 22.3822C7.60446 22.3822 3.20561 18.0805 3.20561 12.7741C3.20561 7.46767 7.60446 3.16598 13.0307 3.16598Z"
        fill="#005288"/>
  <path
    d="M20.2824 21.646L20.6315 21.2881L20.3185 20.9828L19.9742 21.2523L20.2824 21.646ZM24.0573 25.3279L23.7081 25.6859L23.7212 25.6986L23.7352 25.7104L24.0573 25.3279ZM24.1577 25.4125L23.8356 25.795L23.8497 25.8068L23.8646 25.8176L24.1577 25.4125ZM25.3222 25.3263L25.6722 25.6833V25.6833L25.3222 25.3263ZM25.3205 24.0893L25.6696 23.7314L25.3205 24.0893ZM21.59 20.4507L21.2254 20.1086L20.8898 20.4662L21.2409 20.8087L21.59 20.4507ZM1.91675 12.7741C1.91675 6.78814 6.88204 1.91663 13.0307 1.91663V0.916626C6.35093 0.916626 0.916748 6.21491 0.916748 12.7741H1.91675ZM13.0307 23.6315C6.88204 23.6315 1.91675 18.76 1.91675 12.7741H0.916748C0.916748 19.3332 6.35093 24.6315 13.0307 24.6315V23.6315ZM19.9742 21.2523C18.0726 22.7406 15.6594 23.6315 13.0307 23.6315V24.6315C15.8886 24.6315 18.5177 23.6621 20.5905 22.0397L19.9742 21.2523ZM24.4064 24.97L20.6315 21.2881L19.9333 22.0039L23.7081 25.6859L24.4064 24.97ZM24.4797 25.03L24.3793 24.9454L23.7352 25.7104L23.8356 25.795L24.4797 25.03ZM24.9721 24.9693C24.8324 25.1063 24.6077 25.121 24.4508 25.0074L23.8646 25.8176C24.4086 26.2113 25.1777 26.1682 25.6722 25.6833L24.9721 24.9693ZM24.9714 24.4473C25.1204 24.5926 25.1206 24.8237 24.9721 24.9693L25.6722 25.6833C26.2214 25.1449 26.2202 24.2684 25.6696 23.7314L24.9714 24.4473ZM21.2409 20.8087L24.9714 24.4473L25.6696 23.7314L21.9392 20.0928L21.2409 20.8087ZM24.1446 12.7741C24.1446 15.6004 23.0397 18.1751 21.2254 20.1086L21.9546 20.7929C23.934 18.6834 25.1446 15.8674 25.1446 12.7741H24.1446ZM13.0307 1.91663C19.1793 1.91663 24.1446 6.78814 24.1446 12.7741H25.1446C25.1446 6.21491 19.7105 0.916626 13.0307 0.916626V1.91663ZM23.3558 12.7741C23.3558 7.18106 18.7225 2.66598 13.0307 2.66598V3.66598C18.1914 3.66598 22.3558 7.75428 22.3558 12.7741H23.3558ZM13.0307 22.8822C18.7225 22.8822 23.3558 18.3671 23.3558 12.7741H22.3558C22.3558 17.7939 18.1914 21.8822 13.0307 21.8822V22.8822ZM2.70561 12.7741C2.70561 18.3671 7.3389 22.8822 13.0307 22.8822V21.8822C7.87001 21.8822 3.70561 17.7939 3.70561 12.7741H2.70561ZM13.0307 2.66598C7.3389 2.66598 2.70561 7.18106 2.70561 12.7741H3.70561C3.70561 7.75428 7.87001 3.66598 13.0307 3.66598V2.66598Z"
    fill="#005288"/>
</svg>
