<svg width="57" height="56" viewBox="0 0 57 56" fill="none" xmlns="http://www.w3.org/2000/svg">
<path d="M33.2288 13.2423C33.2288 10.5196 31.1249 8.29199 28.4641 8.29199C25.8033 8.29199 23.6995 10.5196 23.6995 13.2423C23.6995 15.9649 25.8033 18.1926 28.4641 18.1926C31.063 18.1926 33.2288 15.9649 33.2288 13.2423Z" fill="#00AAA6"/>
<path d="M28.7116 26.4221H0V21.2862H28.4022C32.6719 21.2862 36.1371 17.6973 36.1371 13.242C36.1371 8.78675 32.6719 5.19779 28.4022 5.19779C24.1326 5.19779 20.6674 8.78675 20.6674 13.242C20.6674 13.9845 20.7912 14.7271 20.9768 15.4696V15.5934C21.0387 15.779 21.0387 16.0265 21.0387 16.2122C21.0387 17.6354 19.8011 18.5017 18.5636 18.5017C17.4497 18.5017 16.5216 17.8829 16.2122 16.9547L16.1503 16.831C15.779 15.5934 15.6553 14.4177 15.6553 13.1801C15.6553 5.94033 21.3481 0 28.4022 0C35.4564 0 41.1492 5.94033 41.1492 13.1801C41.1492 20.2343 35.5802 26.1746 28.7735 26.3602L28.7116 26.4221Z" fill="#8DC63F"/>
<path d="M56.8664 29.7637H0V34.8996H56.8664V29.7637Z" fill="#00AAA6"/>
<path d="M11.6932 39.1072H5.31973C2.41144 39.1072 0.0600586 41.5204 0.0600586 44.3669V55.9381H4.2678V44.5525C4.2678 43.6862 4.88659 43.3149 5.75289 43.3149H11.2601C12.0026 43.3149 12.7452 43.6862 12.7452 44.5525V55.9381H16.9529V44.3669C16.8291 41.4586 14.6015 39.1072 11.6932 39.1072Z" fill="#005288"/>
<path d="M45.1712 38.9834C42.3867 38.9834 40.0353 41.2729 40.0353 44.1193V50.8641C40.0353 52.2254 40.2828 53.5248 41.0253 54.3911C41.7679 55.3193 43.0673 55.8762 45.0474 55.8762H48.0795V52.0398H45.4187C44.7999 52.0398 44.1811 51.5447 44.1811 50.8022V44.4287C44.1811 43.6862 44.8618 43.1911 45.4806 43.1911C46.2231 43.1911 46.78 43.6862 46.78 44.4287V46.2232H49.874V44.305C49.874 43.6862 50.4309 43.253 51.1734 43.1911C51.916 43.1911 52.5966 43.6862 52.5966 44.4287V55.9381H56.8044V44.1193C56.8044 41.211 54.453 38.9834 51.5447 38.9834C50.3071 38.9834 49.1933 39.4784 48.327 40.0972C47.5226 39.4784 46.4088 38.9834 45.1712 38.9834Z" fill="#005288"/>
<path d="M32.673 55.9381H36.8808V44.3669C36.8808 41.4586 34.5913 39.1072 31.7448 39.1072H21.2874V43.3149H31.1879C31.9305 43.3149 32.673 43.6862 32.673 44.5525V45.6663H25.557C22.6487 45.6663 20.0498 47.1514 20.0498 50.8022C20.0498 52.6586 20.6067 53.958 21.5349 54.8243C22.4631 55.6288 23.7625 56 25.1857 56H29.2078V52.2873H25.557C24.6907 52.2873 24.0719 51.5448 24.0719 50.8022C24.0719 49.9359 24.6907 49.3171 25.557 49.3171H32.673V55.9381Z" fill="#005288"/>
</svg>
