<svg width="337" height="405" viewBox="0 0 337 405" fill="none" xmlns="http://www.w3.org/2000/svg">
<g clip-path="url(#clip0)">
<path fill-rule="evenodd" clip-rule="evenodd" d="M104.893 110.707C103.651 110.23 90.4335 139.853 106 180.84C106 180.84 118.971 185.502 123.198 180.045L126.696 190.477C126.696 190.477 147.527 205.144 167.495 193.691L159.817 162.125C159.982 162.237 155.395 95.5364 104.893 110.707Z" fill="url(#paint0_linear)"/>
<path fill-rule="evenodd" clip-rule="evenodd" d="M124.703 162.268C124.703 162.268 133.597 156.467 132.859 146.212C132.122 135.957 127.623 134.967 125.772 135.765C123.922 136.564 120.826 142.665 120.826 142.665C120.826 142.665 116.079 140.424 116.442 135.73C116.804 131.035 118.383 124.512 113.307 119.88C108.231 115.249 95.1477 112.92 93.975 93.9384C92.7748 74.8179 102.915 62.9929 110.84 60.2727C110.84 60.2727 112.629 67.1424 122.151 69.5963C131.535 72.0774 150.722 69.7339 163.389 75.0339C176.056 80.3339 184.799 90.4534 189.153 100.862C193.727 111.66 196.951 119.98 196.686 142.568C196.558 165.128 182.11 179.104 165.709 183.931C152.842 187.771 132.085 184.357 128.279 180.342C124.5 176.465 124.703 162.268 124.703 162.268Z" fill="url(#paint1_linear)"/>
<path fill-rule="evenodd" clip-rule="evenodd" d="M103.713 218.095C103.15 215.969 100.898 214.694 98.7874 215.261C85.56 218.804 42.3599 230.425 29.2733 233.968C27.1625 234.534 25.8961 236.802 26.4589 238.928C30.8211 255.509 47.9886 319.99 52.4916 336.571C53.0544 338.697 55.3059 339.973 57.4166 339.406C70.644 335.863 113.844 324.242 126.931 320.699C129.042 320.132 130.308 317.865 129.745 315.739C125.242 299.158 108.075 234.676 103.713 218.095Z" fill="url(#paint2_linear)"/>
<path fill-rule="evenodd" clip-rule="evenodd" d="M97.0979 221.496L33.916 238.502L58.6822 331.611L121.864 314.605L97.0979 221.496Z" fill="url(#paint3_linear)"/>
<path fill-rule="evenodd" clip-rule="evenodd" d="M88.5145 225.181C88.796 226.173 88.2331 227.307 87.1074 227.591C79.6493 229.575 52.9131 236.802 45.4551 238.786C44.4701 239.07 43.3443 238.503 43.0629 237.369C42.3593 234.535 40.9522 229.149 40.1079 226.315C39.8264 225.323 40.3893 224.189 41.515 223.906C48.973 221.922 75.7093 214.694 83.1673 212.71C84.1523 212.427 85.278 212.994 85.5595 214.127C86.2631 216.962 87.8109 222.347 88.5145 225.181Z" fill="url(#paint4_linear)"/>
<path fill-rule="evenodd" clip-rule="evenodd" d="M77.2574 225.181C77.2574 225.181 69.9401 233.117 66.9851 255.367C64.03 277.475 51.7876 293.064 45.1739 309.503C38.5602 325.943 23.3628 347.342 23.785 365.907C24.3479 388.44 50.3805 395.384 65.2964 386.456C80.2124 377.244 104.697 298.874 77.2574 225.181Z" fill="url(#paint5_linear)"/>
<path d="M220.508 353.436C220.508 310.637 206.014 240.912 206.014 240.912C201.588 217.075 184.845 199.33 177.026 193.437C177.026 193.437 133.826 200.239 116.236 205.624C98.6467 211.01 77.117 225.323 77.117 225.323C87.3893 302.843 66.9854 446.119 66.9854 446.119C66.9854 446.119 66.9853 447.82 68.674 450.229C114.548 461.85 171.538 464.826 229.373 460.858C229.232 460.291 220.508 395.951 220.508 353.436Z" fill="url(#paint6_linear)"/>
<path fill-rule="evenodd" clip-rule="evenodd" d="M116.376 205.907C116.376 205.907 116.235 196.412 117.924 195.279C119.472 194.145 152.822 187.626 161.546 184.792C170.13 181.815 175.055 190.46 177.166 193.436C177.166 193.295 149.585 210.017 116.376 205.907Z" fill="url(#paint7_linear)"/>
<path fill-rule="evenodd" clip-rule="evenodd" d="M320.494 42.8013C320.494 32.8409 311.824 24.7859 301.102 24.7859H238.545C227.824 24.7859 219.153 32.8409 219.153 42.8013V78.8322C219.153 88.7926 227.824 96.8476 238.545 96.8476H252.064L239.384 118.934L267.26 96.8476H301.102C311.824 96.8476 320.494 88.7926 320.494 78.8322V42.8013Z" fill="url(#paint8_linear)"/>
<path fill-rule="evenodd" clip-rule="evenodd" d="M266.143 80.3047H273.508V81.2574C273.508 81.7771 273.321 82.2968 272.855 82.6432C272.482 82.9897 271.923 83.2495 271.364 83.2495C270.338 83.2495 269.219 83.2495 268.194 83.2495C267.634 83.2495 267.075 83.0763 266.702 82.6432C266.329 82.2968 266.049 81.7771 266.049 81.2574C266.143 80.7378 266.143 80.3047 266.143 80.3047Z" fill="url(#paint9_linear)"/>
<path fill-rule="evenodd" clip-rule="evenodd" d="M264.184 71.5568H275.371V79.5251C275.371 80.5645 274.439 81.5172 273.227 81.5172C271.269 81.5172 268.286 81.5172 266.235 81.5172C265.116 81.5172 264.09 80.6511 264.09 79.5251C264.184 76.6669 264.184 71.5568 264.184 71.5568Z" fill="url(#paint10_linear)"/>
<path fill-rule="evenodd" clip-rule="evenodd" d="M277.236 68.9583C277.236 66.1867 278.541 63.5883 280.778 61.7695C284.228 58.9113 286.372 54.8405 286.372 50.1634C286.372 41.6753 278.914 34.7463 269.777 34.7463C260.641 34.7463 253.182 41.6753 253.182 50.1634C253.182 54.7539 255.327 58.9113 258.776 61.7695C261.014 63.5883 262.319 66.1867 262.319 68.9583C262.319 69.1316 262.319 69.2182 262.319 69.2182C262.319 70.7772 263.624 71.9898 265.302 71.9898C267.913 71.9898 271.642 71.9898 274.252 71.9898C275.93 71.9898 277.236 70.7772 277.236 69.2182V68.9583Z" fill="url(#paint11_linear)"/>
<path fill-rule="evenodd" clip-rule="evenodd" d="M262.225 74.0686C262.225 73.7222 262.412 73.2891 262.692 73.0293C262.971 72.7694 263.344 72.5962 263.81 72.5962C266.7 72.5962 272.947 72.5962 275.837 72.5962C276.21 72.5962 276.676 72.7694 276.956 73.0293C277.235 73.2891 277.422 73.6355 277.422 74.0686C277.422 74.4151 277.235 74.8481 276.956 75.1079C276.676 75.3678 276.303 75.541 275.837 75.541C272.947 75.541 266.7 75.541 263.81 75.541C263.437 75.541 262.971 75.3678 262.692 75.1079C262.412 74.7615 262.225 74.4151 262.225 74.0686Z" fill="url(#paint12_linear)"/>
<path fill-rule="evenodd" clip-rule="evenodd" d="M262.225 77.6195C262.225 77.2731 262.412 76.84 262.692 76.5802C262.971 76.3203 263.344 76.1471 263.81 76.1471C266.7 76.1471 272.947 76.1471 275.837 76.1471C276.21 76.1471 276.676 76.3203 276.956 76.5802C277.235 76.84 277.422 77.1865 277.422 77.6195C277.422 77.966 277.235 78.399 276.956 78.6589C276.676 78.9187 276.303 79.0919 275.837 79.0919C272.947 79.0919 266.7 79.0919 263.81 79.0919C263.437 79.0919 262.971 78.9187 262.692 78.6589C262.412 78.399 262.225 78.0526 262.225 77.6195Z" fill="url(#paint13_linear)"/>
<path fill-rule="evenodd" clip-rule="evenodd" d="M267.446 66.0136C267.446 65.7537 267.54 65.5805 267.726 65.4073C267.913 65.2341 268.192 65.1475 268.379 65.1475C269.218 65.1475 270.337 65.1475 271.082 65.1475C271.362 65.1475 271.549 65.2341 271.735 65.4073C271.921 65.5805 272.015 65.8404 272.015 66.0136C272.015 67.9191 272.015 71.9898 272.015 71.9898H267.353V66.0136H267.446Z" fill="url(#paint14_linear)"/>
<path fill-rule="evenodd" clip-rule="evenodd" d="M272.574 53.368C271.362 53.368 270.244 54.4074 270.244 55.5334V57.0924H269.218C269.218 55.9664 269.311 54.8405 268.565 54.1476C267.726 53.2814 266.048 53.1948 265.209 54.0609C264.557 54.7538 264.37 55.7932 264.743 56.5727C265.116 57.3522 266.048 57.8719 266.981 57.8719H268.286V65.0608H269.218V57.8719H270.244V65.0608H271.176V57.8719C271.922 57.8719 272.668 57.9585 273.32 57.7853C274.625 57.3522 275.371 55.8798 274.719 54.6672C274.439 53.8877 273.6 53.368 272.574 53.368C272.668 53.368 272.668 53.368 272.574 53.368ZM272.668 54.1476C273.693 54.1476 274.439 55.3601 273.88 56.3129C273.6 56.7459 273.134 57.0058 272.574 57.0058H271.269C271.269 56.3129 271.083 55.5334 271.362 55.0137C271.549 54.494 272.015 54.1476 272.668 54.1476ZM266.981 54.1476C267.726 54.1476 268.379 54.7538 268.379 55.5334V57.0924C267.54 57.0924 266.701 57.2656 266.048 56.7459C265.116 56.053 265.489 54.2342 266.981 54.1476Z" fill="#FFFFFE"/>
</g>
<defs>
<linearGradient id="paint0_linear" x1="115.51" y1="120.483" x2="146.33" y2="201.089" gradientUnits="userSpaceOnUse">
<stop stop-color="#FFCAAF"/>
<stop offset="1" stop-color="#FF9D87"/>
</linearGradient>
<linearGradient id="paint1_linear" x1="138.072" y1="62.9415" x2="152.22" y2="160.207" gradientUnits="userSpaceOnUse">
<stop stop-color="#4E8E9E"/>
<stop offset="1" stop-color="#28465D"/>
</linearGradient>
<linearGradient id="paint2_linear" x1="64.43" y1="224.744" x2="93.2798" y2="334.57" gradientUnits="userSpaceOnUse">
<stop stop-color="#9FB6C2"/>
<stop offset="1" stop-color="#3583AB"/>
</linearGradient>
<linearGradient id="paint3_linear" x1="61.4306" y1="234.143" x2="95.6993" y2="321.349" gradientUnits="userSpaceOnUse">
<stop stop-color="#FDFDFD"/>
<stop offset="1" stop-color="#B2B3B2"/>
</linearGradient>
<linearGradient id="paint4_linear" x1="62.9018" y1="218.16" x2="67.0763" y2="239.984" gradientUnits="userSpaceOnUse">
<stop stop-color="#838F96"/>
<stop offset="1" stop-color="#355D73"/>
</linearGradient>
<linearGradient id="paint5_linear" x1="5.58464" y1="309.419" x2="59.3892" y2="307.778" gradientUnits="userSpaceOnUse">
<stop stop-color="#4E8E9E"/>
<stop offset="1" stop-color="#28465D"/>
</linearGradient>
<linearGradient id="paint6_linear" x1="148.081" y1="59.6378" x2="148.081" y2="441.699" gradientUnits="userSpaceOnUse">
<stop stop-color="#4E8E9E"/>
<stop offset="1" stop-color="#28465D"/>
</linearGradient>
<linearGradient id="paint7_linear" x1="146.733" y1="173.049" x2="146.733" y2="204.826" gradientUnits="userSpaceOnUse">
<stop stop-color="#4E8E9E"/>
<stop offset="1" stop-color="#28465D"/>
</linearGradient>
<linearGradient id="paint8_linear" x1="269.799" y1="24.7752" x2="269.799" y2="118.982" gradientUnits="userSpaceOnUse">
<stop stop-color="#DBF2FF"/>
<stop offset="1" stop-color="#BFBFBF"/>
</linearGradient>
<linearGradient id="paint9_linear" x1="269.79" y1="80.3266" x2="269.79" y2="83.1741" gradientUnits="userSpaceOnUse">
<stop stop-color="#7A8D9F"/>
<stop offset="1" stop-color="#2E557A"/>
</linearGradient>
<linearGradient id="paint10_linear" x1="269.788" y1="71.7341" x2="269.788" y2="81.4881" gradientUnits="userSpaceOnUse">
<stop stop-color="#7A8D9F"/>
<stop offset="1" stop-color="#2E557A"/>
</linearGradient>
<linearGradient id="paint11_linear" x1="269.793" y1="42.1073" x2="269.793" y2="72.0231" gradientUnits="userSpaceOnUse">
<stop stop-color="#FFD652"/>
<stop offset="1" stop-color="#FF9500"/>
</linearGradient>
<linearGradient id="paint12_linear" x1="269.789" y1="72.6181" x2="269.789" y2="75.4547" gradientUnits="userSpaceOnUse">
<stop stop-color="#7A8D9F"/>
<stop offset="1" stop-color="#2E557A"/>
</linearGradient>
<linearGradient id="paint13_linear" x1="269.788" y1="76.251" x2="269.788" y2="79.0684" gradientUnits="userSpaceOnUse">
<stop stop-color="#7A8D9F"/>
<stop offset="1" stop-color="#2E557A"/>
</linearGradient>
<linearGradient id="paint14_linear" x1="269.787" y1="65.1047" x2="269.787" y2="72.294" gradientUnits="userSpaceOnUse">
<stop stop-color="#FFBD00"/>
<stop offset="1" stop-color="#EB6F00"/>
</linearGradient>
<clipPath id="clip0">
<rect width="337" height="410" fill="white"/>
</clipPath>
</defs>
</svg>
