<svg width="183" height="131" viewBox="0 0 183 131" fill="none" xmlns="http://www.w3.org/2000/svg">
<g clip-path="url(#clip0)">
<path fill-rule="evenodd" clip-rule="evenodd" d="M49.4632 54.6383C34.0537 52.97 23.0967 50.5022 12.0005 57.975C0.904338 65.4478 -1.63491 79.2812 0.904338 90.5425C5.00888 108.686 19.0617 117.271 35.4103 124.848C60.2811 136.353 111.066 130.757 136.111 116.402C161.99 101.561 179.522 86.9973 182.235 62.7368C184.948 38.4762 175.66 25.5465 167.799 19.464C159.938 13.3815 148.981 15.5017 136.111 28.0143C123.275 40.4921 63.516 56.1676 49.4632 54.6383ZM146.372 127.663C140.911 119.078 150.894 110.632 158.894 106.183C166.895 101.734 174.965 98.641 180.356 103.646C185.748 108.651 182.096 117.723 176.217 122.728C170.339 127.733 150.825 134.684 146.372 127.663Z" fill="#F1F2F0"/>
<path fill-rule="evenodd" clip-rule="evenodd" d="M53.2546 9.28015C53.2546 8.65452 53.0111 8.06365 52.5589 7.64656C52.1067 7.19472 51.5154 6.95142 50.9241 6.95142C50.2979 6.95142 49.7066 7.19472 49.2892 7.64656C48.837 8.0984 48.5935 8.68928 48.5935 9.28015C48.5935 11.9912 48.5935 16.1621 48.5935 16.1621H53.2546V9.28015ZM50.9241 8.51549C51.3763 8.51549 51.7589 8.89782 51.7589 9.34967C51.7589 9.80151 51.3763 10.1838 50.9241 10.1838C50.4719 10.1838 50.0892 9.80151 50.0892 9.34967C50.0892 8.89782 50.4719 8.51549 50.9241 8.51549Z" fill="url(#paint0_linear)"/>
<path fill-rule="evenodd" clip-rule="evenodd" d="M138.441 9.28015C138.441 8.65452 138.198 8.06365 137.746 7.64656C137.293 7.19472 136.702 6.95142 136.111 6.95142C135.485 6.95142 134.893 7.19472 134.476 7.64656C134.024 8.0984 133.78 8.68928 133.78 9.28015C133.78 11.9912 133.78 16.1621 133.78 16.1621H138.441V9.28015ZM136.111 8.51549C136.563 8.51549 136.946 8.89782 136.946 9.34967C136.946 9.80151 136.563 10.1838 136.111 10.1838C135.659 10.1838 135.276 9.80151 135.276 9.34967C135.276 8.89782 135.659 8.51549 136.111 8.51549Z" fill="url(#paint1_linear)"/>
<path d="M154.059 11.6437H24.5228V86.2675H154.059V11.6437Z" fill="url(#paint2_linear)"/>
<path d="M152.146 13.729H26.4708V84.1819H152.146V13.729Z" fill="url(#paint3_linear)"/>
<path fill-rule="evenodd" clip-rule="evenodd" d="M104.805 19.8116L104.874 19.8463L104.909 19.9159V19.9854V28.1533C104.909 28.2229 104.909 28.2229 104.874 28.2576L104.805 28.2924H104.735H84.2126C84.1431 28.2924 84.1431 28.2924 84.1083 28.2576L84.0735 28.1881V28.1186V19.9506C84.0735 19.8811 84.0735 19.8811 84.1083 19.8463L84.1778 19.8116H84.2474H104.77C104.77 19.7768 104.805 19.8116 104.805 19.8116ZM84.4213 20.1244V28.0143H104.596V20.1244H84.4213Z" fill="black"/>
<path fill-rule="evenodd" clip-rule="evenodd" d="M143.763 48.7992C143.868 48.8687 143.868 48.9035 143.868 48.9382V57.1409C143.868 57.2105 143.798 57.28 143.694 57.3147H125.015C124.945 57.3147 124.945 57.3147 124.91 57.28L124.875 57.2105V57.1409V48.9382C124.875 48.8687 124.875 48.8687 124.91 48.834L124.98 48.7992H125.049H143.728C143.694 48.7992 143.728 48.7992 143.763 48.7992ZM125.188 49.112V57.0019H143.555V49.112H125.188Z" fill="black"/>
<path fill-rule="evenodd" clip-rule="evenodd" d="M117.606 48.7992L117.675 48.834L117.71 48.9035V48.973V57.1757C117.71 57.2452 117.71 57.2452 117.675 57.28L117.606 57.3147H117.536H98.8568C98.7872 57.3147 98.7872 57.3147 98.7524 57.28L98.7177 57.2105V57.1409V48.9382C98.7177 48.8687 98.7177 48.8687 98.7524 48.834L98.822 48.7992H98.8916H117.571H117.606ZM99.0307 49.112V57.0019H117.397V49.112H99.0307Z" fill="black"/>
<path fill-rule="evenodd" clip-rule="evenodd" d="M114.649 68.6803C114.753 68.715 114.788 68.7498 114.788 68.8541V75.1451C114.788 75.2842 114.753 75.2842 114.614 75.3189H101.779C101.64 75.3189 101.64 75.2842 101.605 75.1451V68.8193C101.605 68.6803 101.64 68.6803 101.779 68.6455L114.649 68.6803C114.649 68.6455 114.649 68.6803 114.649 68.6803ZM101.953 68.9931V74.9366H114.44V68.9931H101.953Z" fill="black"/>
<path fill-rule="evenodd" clip-rule="evenodd" d="M97.2915 68.6803C97.3959 68.715 97.4306 68.7498 97.4306 68.8541V75.1451C97.4306 75.2842 97.3959 75.2842 97.2567 75.3189H84.4214C84.2822 75.3189 84.2822 75.2842 84.2474 75.1451V68.8193C84.2474 68.6803 84.2822 68.6803 84.4214 68.6455L97.2915 68.6803C97.2567 68.6455 97.2567 68.6803 97.2915 68.6803ZM84.5953 68.9931V74.9366H97.0828V68.9931H84.5953Z" fill="black"/>
<path fill-rule="evenodd" clip-rule="evenodd" d="M125.641 63.0149C125.71 63.0496 125.71 63.0496 125.745 63.1191V63.1886V68.8193H125.397V63.3277H90.9606V68.8193H90.6128V63.1539V63.0844L90.6476 63.0149L90.7171 62.9801H90.7867H125.536C125.606 63.0149 125.641 63.0149 125.641 63.0149Z" fill="black"/>
<path fill-rule="evenodd" clip-rule="evenodd" d="M132.041 68.6803C132.145 68.715 132.18 68.7498 132.18 68.8541V75.1451C132.18 75.2842 132.145 75.2842 132.006 75.3189H119.171C119.032 75.3189 119.032 75.2842 118.997 75.1451V68.8193C118.997 68.6803 119.032 68.6803 119.171 68.6455L132.041 68.6803C132.006 68.6455 132.041 68.6803 132.041 68.6803ZM119.345 68.9931V74.9366H131.832V68.9931H119.345Z" fill="black"/>
<path fill-rule="evenodd" clip-rule="evenodd" d="M91.4826 48.7992L91.5521 48.834L91.5869 48.9035V48.973V57.1757C91.5869 57.2452 91.5869 57.2452 91.5521 57.28L91.4826 57.3147H91.413H72.7339C72.6643 57.3147 72.6643 57.3147 72.6295 57.28L72.5947 57.2105V57.1409V48.9382C72.5947 48.8687 72.5947 48.8687 72.6295 48.834L72.6991 48.7992H72.7686H91.4478C91.4478 48.7992 91.4478 48.7992 91.4826 48.7992ZM72.9078 49.112V57.0019H91.2739V49.112H72.9078Z" fill="black"/>
<path fill-rule="evenodd" clip-rule="evenodd" d="M65.3595 48.7992L65.4291 48.834L65.4639 48.9035V48.973V57.1757C65.4639 57.2452 65.4639 57.2452 65.4291 57.28L65.3595 57.3147H65.29H46.6108C46.5412 57.3147 46.5412 57.3147 46.5065 57.28L46.4717 57.2105V57.1409V48.9382C46.4717 48.8687 46.4717 48.8687 46.5065 48.834L46.576 48.7992H46.6456H65.3248C65.3248 48.7992 65.3248 48.7992 65.3595 48.7992ZM46.7847 49.112V57.0019H65.1508V49.112H46.7847Z" fill="black"/>
<path fill-rule="evenodd" clip-rule="evenodd" d="M134.406 37.6421C134.511 37.7116 134.511 37.7464 134.511 37.7811V48.9382H134.163V37.9549H56.1069V48.9382H55.759V37.7811C55.759 37.7116 55.759 37.7116 55.7938 37.6768L55.8634 37.6421H55.933H134.337C134.372 37.6421 134.406 37.6421 134.406 37.6421Z" fill="black"/>
<path d="M108.388 37.8158H108.04V48.9729H108.388V37.8158Z" fill="black"/>
<path d="M82.2647 37.8158H81.9169V48.9729H82.2647V37.8158Z" fill="black"/>
<path d="M108.388 57.1409H108.04V68.6108H108.388V57.1409Z" fill="black"/>
<path fill-rule="evenodd" clip-rule="evenodd" d="M71.4121 42.6124C71.6903 42.4386 76.3166 48.9382 74.5079 59.5391C74.5079 59.5391 71.586 61.277 70.299 60.1648L69.9511 62.8411C69.9511 62.8411 65.6031 67.3595 60.2115 65.5521L60.5594 57.5927C60.5246 57.6275 58.4376 41.3611 71.4121 42.6124Z" fill="url(#paint4_linear)"/>
<path fill-rule="evenodd" clip-rule="evenodd" d="M69.0814 55.9591C69.0814 55.9591 66.6465 54.9859 66.3335 52.4834C66.0204 49.9809 67.064 49.529 67.5509 49.6333C68.0379 49.7376 69.0814 51.0583 69.0814 51.0583C69.0814 51.0583 70.125 50.2937 69.8119 49.1815C69.4988 48.0692 68.8032 46.5747 69.8119 45.2191C70.8207 43.8636 73.8817 42.6819 73.2556 38.0591C72.6294 33.4017 69.6032 31.0382 67.5509 30.7601C67.5509 30.7601 67.4466 32.498 65.2552 33.5407C63.0985 34.5834 58.3331 34.931 55.5156 36.8079C52.6981 38.6848 51.0632 41.5349 50.5066 44.2459C49.9153 47.0613 49.5327 49.2162 50.6806 54.6383C51.7937 60.0605 55.9678 62.7368 60.1767 63.1191C63.4812 63.4319 68.351 61.6245 69.0814 60.4776C69.8119 59.3653 69.0814 55.9591 69.0814 55.9591Z" fill="url(#paint5_linear)"/>
<path fill-rule="evenodd" clip-rule="evenodd" d="M55.2026 71.0785C55.0635 70.5572 54.5069 70.2443 53.9852 70.3834C50.7154 71.2523 40.0367 74.1024 36.8017 74.9713C36.28 75.1104 35.9669 75.6665 36.1061 76.1878C37.1844 80.2544 41.428 96.069 42.5411 100.136C42.6803 100.657 43.2368 100.97 43.7586 100.831C47.0283 99.9618 57.7071 97.1117 60.942 96.2428C61.4638 96.1037 61.7768 95.5476 61.6377 95.0263C60.5246 90.9597 56.2809 75.1451 55.2026 71.0785Z" fill="url(#paint6_linear)"/>
<path fill-rule="evenodd" clip-rule="evenodd" d="M53.5677 71.9127L37.9496 76.0836L44.0716 98.9191L59.6897 94.7482L53.5677 71.9127Z" fill="url(#paint7_linear)"/>
<path fill-rule="evenodd" clip-rule="evenodd" d="M51.4459 72.8165C51.5155 73.0598 51.3763 73.3378 51.0981 73.4073C49.2545 73.8939 42.6455 75.6666 40.8019 76.1532C40.5584 76.2227 40.2802 76.0837 40.2106 75.8056C40.0367 75.1104 39.6888 73.7897 39.4801 73.0945C39.4106 72.8512 39.5497 72.5732 39.828 72.5037C41.6715 72.0171 48.2806 70.2444 50.1241 69.7578C50.3676 69.6883 50.6459 69.8273 50.7154 70.1054C50.8894 70.8005 51.272 72.1213 51.4459 72.8165Z" fill="url(#paint8_linear)"/>
<path fill-rule="evenodd" clip-rule="evenodd" d="M48.6631 72.8164C48.6631 72.8164 46.8544 74.7628 46.1239 80.2197C45.3934 85.6418 42.3672 89.4651 40.7323 93.497C39.0975 97.5288 35.3408 102.777 35.4451 107.33C35.5843 112.857 42.0193 114.56 45.7065 112.37C49.3936 110.111 55.4461 90.8902 48.6631 72.8164Z" fill="url(#paint9_linear)"/>
<path fill-rule="evenodd" clip-rule="evenodd" d="M99.7264 24.1911C99.6917 24.052 99.5525 23.9478 99.4134 23.9478C98.6829 24.0868 96.7698 24.3996 96.7698 24.3996L96.8741 24.9557C96.8741 24.9557 98.7873 24.6081 99.5177 24.5039C99.6569 24.5039 99.7612 24.3648 99.7264 24.1911Z" fill="black"/>
<path fill-rule="evenodd" clip-rule="evenodd" d="M97.7437 24.0868L98.6133 23.9478L98.7872 24.8514L97.9176 24.9905L97.7437 24.0868Z" fill="url(#paint10_linear)"/>
<path fill-rule="evenodd" clip-rule="evenodd" d="M98.1264 23.7045L96.8741 23.913L97.1524 25.4423L98.4046 25.2338L98.1264 23.7045Z" fill="url(#paint11_linear)"/>
<path fill-rule="evenodd" clip-rule="evenodd" d="M91.4825 24.4343L97.4306 23.3916L97.8481 25.7551L91.9 26.7978C92.1087 26.5893 92.4565 26.2765 92.4565 25.4423C92.4565 24.6081 91.4825 24.4691 91.4825 24.4691V24.4343Z" fill="url(#paint12_linear)"/>
<path fill-rule="evenodd" clip-rule="evenodd" d="M89.2911 35.2786C89.2911 35.2786 90.0911 32.5676 89.2911 31.6639C88.4911 30.7949 87.4128 28.8833 87.7606 27.0064C88.1084 25.0947 89.952 25.6856 89.952 25.6856C89.952 25.6856 89.2911 23.0441 91.0303 22.1751C92.3869 21.5148 94.2305 22.1751 95.4827 23.6697C96.7697 25.199 97.5697 26.8674 97.3263 28.2229C97.0828 29.5784 95.6914 31.4206 95.4827 33.4017C95.274 35.2786 95.3436 37.0165 95.3436 37.0165L89.2911 35.2786Z" fill="url(#paint13_linear)"/>
<path fill-rule="evenodd" clip-rule="evenodd" d="M91.4825 24.4343C91.4825 24.4343 92.2826 24.5734 92.4565 25.4423C92.6304 26.2765 92.1087 26.5893 91.9 26.7978L83.4474 28.2924C83.3082 28.3271 83.1343 28.2924 83.0299 28.1881C82.8908 28.1186 82.8212 27.9796 82.7864 27.8058C82.7169 27.4234 82.6473 26.9368 82.5777 26.5545C82.543 26.4155 82.5777 26.2417 82.6821 26.1374C82.7517 25.9984 82.8908 25.9289 83.0647 25.8941L91.4825 24.4343Z" fill="url(#paint14_linear)"/>
<path fill-rule="evenodd" clip-rule="evenodd" d="M84.0735 51.1974C86.265 46.2966 86.265 35.2786 86.265 35.2786H96.5959C96.5959 35.2786 96.9437 40.5269 96.0741 47.0265V47.1308C95.5871 50.9193 94.6828 55.0902 93.0827 58.9482C89.0477 68.715 80.4908 76.6744 80.4908 76.6744C80.4908 76.6744 84.0735 93.775 84.0735 104.272C84.0735 114.699 86.2302 130.479 86.265 130.618C71.9686 131.591 57.881 130.861 46.5413 128.011C46.1239 127.42 46.1239 127.003 46.1239 127.003C46.1239 127.003 51.1676 91.8633 48.6284 72.8511C48.6284 72.8511 53.9504 69.3406 58.2984 68.0199C62.6464 66.6991 73.3252 65.0308 73.3252 65.0308C73.3252 65.0308 80.4212 59.3653 84.0735 51.1974Z" fill="url(#paint15_linear)"/>
<path fill-rule="evenodd" clip-rule="evenodd" d="M58.3331 68.0894C58.3331 68.0894 58.2983 65.7607 58.7157 65.4826C59.0984 65.2045 67.3422 63.6057 69.4989 62.9106C71.6207 62.1807 72.8382 64.3009 73.3599 65.0308C73.3599 64.996 66.5422 69.0973 58.3331 68.0894Z" fill="url(#paint16_linear)"/>
<path fill-rule="evenodd" clip-rule="evenodd" d="M9.32227 7.2295C9.32227 3.23242 12.5572 0 16.5574 0H39.8976C43.8978 0 47.1328 3.23242 47.1328 7.2295V21.6885C47.1328 25.6856 43.8978 28.918 39.8976 28.918H34.8539L39.5846 37.7811L29.1841 28.918H16.5574C12.5572 28.918 9.32227 25.6856 9.32227 21.6885V7.2295Z" fill="url(#paint17_linear)"/>
<path fill-rule="evenodd" clip-rule="evenodd" d="M29.6015 22.2794H26.8535V22.6617C26.8535 22.8703 26.9231 23.0788 27.097 23.2179C27.2361 23.3569 27.4449 23.4612 27.6536 23.4612C28.0362 23.4612 28.4536 23.4612 28.8362 23.4612C29.0449 23.4612 29.2536 23.3917 29.3928 23.2179C29.5319 23.0788 29.6363 22.8703 29.6363 22.6617C29.6015 22.4532 29.6015 22.2794 29.6015 22.2794Z" fill="url(#paint18_linear)"/>
<path fill-rule="evenodd" clip-rule="evenodd" d="M30.3319 18.7689H26.1578V21.9666C26.1578 22.3837 26.5057 22.766 26.9579 22.766C27.6883 22.766 28.8014 22.766 29.5667 22.766C29.9841 22.766 30.3667 22.4184 30.3667 21.9666C30.3319 20.8196 30.3319 18.7689 30.3319 18.7689Z" fill="url(#paint19_linear)"/>
<path fill-rule="evenodd" clip-rule="evenodd" d="M25.4622 17.7262C25.4622 16.6139 24.9752 15.5712 24.1404 14.8413C22.8534 13.6943 22.0533 12.0607 22.0533 10.1839C22.0533 6.77765 24.8361 3.99707 28.2449 3.99707C31.6538 3.99707 34.4365 6.77765 34.4365 10.1839C34.4365 12.026 33.6365 13.6943 32.3495 14.8413C31.5147 15.5712 31.0277 16.6139 31.0277 17.7262C31.0277 17.7957 31.0277 17.8304 31.0277 17.8304C31.0277 18.4561 30.5407 18.9427 29.9146 18.9427C28.9406 18.9427 27.5493 18.9427 26.5753 18.9427C25.9492 18.9427 25.4622 18.4561 25.4622 17.8304V17.7262Z" fill="url(#paint20_linear)"/>
<path fill-rule="evenodd" clip-rule="evenodd" d="M31.0624 19.7769C31.0624 19.6379 30.9928 19.4641 30.8885 19.3598C30.7841 19.2555 30.645 19.186 30.4711 19.186C29.3928 19.186 27.0622 19.186 25.9839 19.186C25.8448 19.186 25.6709 19.2555 25.5665 19.3598C25.4621 19.4641 25.3926 19.6031 25.3926 19.7769C25.3926 19.9159 25.4621 20.0897 25.5665 20.194C25.6709 20.2983 25.81 20.3678 25.9839 20.3678C27.0622 20.3678 29.3928 20.3678 30.4711 20.3678C30.6102 20.3678 30.7841 20.2983 30.8885 20.194C30.9928 20.055 31.0624 19.9159 31.0624 19.7769Z" fill="url(#paint21_linear)"/>
<path fill-rule="evenodd" clip-rule="evenodd" d="M31.0624 21.2018C31.0624 21.0628 30.9928 20.889 30.8885 20.7847C30.7841 20.6805 30.645 20.611 30.4711 20.611C29.3928 20.611 27.0622 20.611 25.9839 20.611C25.8448 20.611 25.6709 20.6805 25.5665 20.7847C25.4621 20.889 25.3926 21.028 25.3926 21.2018C25.3926 21.3409 25.4621 21.5147 25.5665 21.6189C25.6709 21.7232 25.81 21.7927 25.9839 21.7927C27.0622 21.7927 29.3928 21.7927 30.4711 21.7927C30.6102 21.7927 30.7841 21.7232 30.8885 21.6189C30.9928 21.5147 31.0624 21.3756 31.0624 21.2018Z" fill="url(#paint22_linear)"/>
<path fill-rule="evenodd" clip-rule="evenodd" d="M29.1146 16.5445C29.1146 16.4402 29.0798 16.3707 29.0102 16.3012C28.9407 16.2317 28.8363 16.1969 28.7667 16.1969C28.4537 16.1969 28.0363 16.1969 27.758 16.1969C27.6536 16.1969 27.5841 16.2317 27.5145 16.3012C27.4449 16.3707 27.4102 16.475 27.4102 16.5445C27.4102 17.3091 27.4102 18.9427 27.4102 18.9427H29.1494V16.5445H29.1146Z" fill="url(#paint23_linear)"/>
<path fill-rule="evenodd" clip-rule="evenodd" d="M27.2014 11.4698C27.6536 11.4698 28.071 11.8869 28.071 12.3388V12.9644H28.4536C28.4536 12.5126 28.4188 12.0607 28.6971 11.7827C29.0102 11.4351 29.6363 11.4003 29.9493 11.7479C30.1928 12.026 30.2624 12.4431 30.1232 12.7559C29.9841 13.0687 29.6363 13.2772 29.2884 13.2772H28.8014V16.1621H28.4536V13.2772H28.071V16.1621H27.7231V13.2772C27.4449 13.2772 27.1666 13.312 26.9231 13.2425C26.4361 13.0687 26.1578 12.4778 26.4013 11.9912C26.5057 11.6784 26.8187 11.4698 27.2014 11.4698C27.1666 11.4698 27.1666 11.4698 27.2014 11.4698ZM27.1666 11.7827C26.784 11.7827 26.5057 12.2693 26.7144 12.6516C26.8187 12.8254 26.9927 12.9297 27.2014 12.9297H27.6883C27.6883 12.6516 27.7579 12.3388 27.6536 12.1302C27.584 11.9217 27.4101 11.7827 27.1666 11.7827ZM29.2884 11.7827C29.0102 11.7827 28.7667 12.026 28.7667 12.3388V12.9644C29.0797 12.9644 29.3928 13.0339 29.6363 12.8254C29.9841 12.5473 29.845 11.8174 29.2884 11.7827Z" fill="#FFFFFE"/>
</g>
<defs>
<linearGradient id="paint0_linear" x1="50.9332" y1="6.95211" x2="50.9332" y2="16.0601" gradientUnits="userSpaceOnUse">
<stop stop-color="#7A8D9F"/>
<stop offset="1" stop-color="#2E557A"/>
</linearGradient>
<linearGradient id="paint1_linear" x1="136.107" y1="6.95211" x2="136.107" y2="16.0601" gradientUnits="userSpaceOnUse">
<stop stop-color="#7A8D9F"/>
<stop offset="1" stop-color="#2E557A"/>
</linearGradient>
<linearGradient id="paint2_linear" x1="89.3004" y1="11.638" x2="89.3004" y2="85.5515" gradientUnits="userSpaceOnUse">
<stop stop-color="#7A8D9F"/>
<stop offset="1" stop-color="#2E557A"/>
</linearGradient>
<linearGradient id="paint3_linear" x1="89.2947" y1="14.4765" x2="89.2947" y2="94.777" gradientUnits="userSpaceOnUse">
<stop stop-color="#F1F9FD"/>
<stop offset="1" stop-color="#CDCDCD"/>
</linearGradient>
<linearGradient id="paint4_linear" x1="69.3064" y1="45.4687" x2="65.7469" y2="66.3352" gradientUnits="userSpaceOnUse">
<stop stop-color="#FFCAAF"/>
<stop offset="1" stop-color="#FF9D87"/>
</linearGradient>
<linearGradient id="paint5_linear" x1="61.0749" y1="32.6958" x2="62.2816" y2="56.7717" gradientUnits="userSpaceOnUse">
<stop stop-color="#4E8E9E"/>
<stop offset="1" stop-color="#28465D"/>
</linearGradient>
<linearGradient id="paint6_linear" x1="45.4922" y1="72.7092" x2="52.5195" y2="99.6719" gradientUnits="userSpaceOnUse">
<stop stop-color="#9FB6C2"/>
<stop offset="1" stop-color="#3583AB"/>
</linearGradient>
<linearGradient id="paint7_linear" x1="44.751" y1="75.0144" x2="53.1072" y2="96.447" gradientUnits="userSpaceOnUse">
<stop stop-color="#FDFDFD"/>
<stop offset="1" stop-color="#B2B3B2"/>
</linearGradient>
<linearGradient id="paint8_linear" x1="45.1146" y1="71.0945" x2="46.131" y2="76.4498" gradientUnits="userSpaceOnUse">
<stop stop-color="#838F96"/>
<stop offset="1" stop-color="#355D73"/>
</linearGradient>
<linearGradient id="paint9_linear" x1="30.9461" y1="93.4763" x2="44.2461" y2="93.0673" gradientUnits="userSpaceOnUse">
<stop stop-color="#4E8E9E"/>
<stop offset="1" stop-color="#28465D"/>
</linearGradient>
<linearGradient id="paint10_linear" x1="98.6909" y1="24.2481" x2="97.9884" y2="24.6315" gradientUnits="userSpaceOnUse">
<stop stop-color="#FFFFFE"/>
<stop offset="1" stop-color="#B4B4B4"/>
</linearGradient>
<linearGradient id="paint11_linear" x1="98.2635" y1="24.4703" x2="97.5204" y2="24.6133" gradientUnits="userSpaceOnUse">
<stop stop-color="#FFFFFE"/>
<stop offset="1" stop-color="#B4B4B4"/>
</linearGradient>
<linearGradient id="paint12_linear" x1="97.6435" y1="24.6098" x2="93.7085" y2="25.2776" gradientUnits="userSpaceOnUse">
<stop stop-color="#FFFFFE"/>
<stop offset="1" stop-color="#B4B4B4"/>
</linearGradient>
<linearGradient id="paint13_linear" x1="93.832" y1="27.7096" x2="91.3035" y2="32.3957" gradientUnits="userSpaceOnUse">
<stop stop-color="#FFCAAF"/>
<stop offset="1" stop-color="#FF9D87"/>
</linearGradient>
<linearGradient id="paint14_linear" x1="86.7158" y1="26.3321" x2="95.4034" y2="27.0511" gradientUnits="userSpaceOnUse">
<stop stop-color="#FFFFFE"/>
<stop offset="1" stop-color="#B4B4B4"/>
</linearGradient>
<linearGradient id="paint15_linear" x1="79.5584" y1="34.2717" x2="67.1517" y2="103.511" gradientUnits="userSpaceOnUse">
<stop stop-color="#4E8E9E"/>
<stop offset="1" stop-color="#28465D"/>
</linearGradient>
<linearGradient id="paint16_linear" x1="65.8371" y1="60.0306" x2="65.8371" y2="67.8241" gradientUnits="userSpaceOnUse">
<stop stop-color="#4E8E9E"/>
<stop offset="1" stop-color="#28465D"/>
</linearGradient>
<linearGradient id="paint17_linear" x1="28.2366" y1="-0.00429825" x2="28.2366" y2="37.8004" gradientUnits="userSpaceOnUse">
<stop stop-color="#DBF2FF"/>
<stop offset="1" stop-color="#BFBFBF"/>
</linearGradient>
<linearGradient id="paint18_linear" x1="28.2408" y1="22.2882" x2="28.2408" y2="23.4309" gradientUnits="userSpaceOnUse">
<stop stop-color="#7A8D9F"/>
<stop offset="1" stop-color="#2E557A"/>
</linearGradient>
<linearGradient id="paint19_linear" x1="28.2408" y1="18.8401" x2="28.2408" y2="22.7543" gradientUnits="userSpaceOnUse">
<stop stop-color="#7A8D9F"/>
<stop offset="1" stop-color="#2E557A"/>
</linearGradient>
<linearGradient id="paint20_linear" x1="28.2392" y1="6.95099" x2="28.2392" y2="18.9561" gradientUnits="userSpaceOnUse">
<stop stop-color="#FFD652"/>
<stop offset="1" stop-color="#FF9500"/>
</linearGradient>
<linearGradient id="paint21_linear" x1="28.2405" y1="19.1948" x2="28.2405" y2="20.3331" gradientUnits="userSpaceOnUse">
<stop stop-color="#7A8D9F"/>
<stop offset="1" stop-color="#2E557A"/>
</linearGradient>
<linearGradient id="paint22_linear" x1="28.2407" y1="20.6527" x2="28.2407" y2="21.7833" gradientUnits="userSpaceOnUse">
<stop stop-color="#7A8D9F"/>
<stop offset="1" stop-color="#2E557A"/>
</linearGradient>
<linearGradient id="paint23_linear" x1="28.2413" y1="16.1797" x2="28.2413" y2="19.0648" gradientUnits="userSpaceOnUse">
<stop stop-color="#FFBD00"/>
<stop offset="1" stop-color="#EB6F00"/>
</linearGradient>
<clipPath id="clip0">
<rect width="183" height="131" fill="white"/>
</clipPath>
</defs>
</svg>
