<svg width="190" height="168" viewBox="0 0 190 168" fill="none" xmlns="http://www.w3.org/2000/svg">
<path fill-rule="evenodd" clip-rule="evenodd" d="M169.701 134.108C171.649 134.108 173.243 135.72 173.243 137.689C173.243 139.659 171.649 141.271 169.701 141.271H135.124C133.282 141.271 131.759 142.703 131.582 144.53V144.565V144.601V144.637V144.673C131.582 146.642 133.176 148.254 135.124 148.254H159.71C161.623 148.29 163.182 149.901 163.182 151.835C163.182 153.805 161.588 155.416 159.64 155.416H144.335C143.521 155.416 142.706 156.133 142.104 156.921C141.147 158.138 141.147 159.893 142.104 161.111C142.741 161.898 143.521 162.615 144.335 162.615H149.649C144.229 165.48 131.476 167.127 125.099 167.127H55.8047C23.0353 167.342 -7.57315 122.362 1.67314 77.7041C10.9194 33.0823 32.7421 27.4598 64.9447 17.2891C93.3567 8.30031 113.408 -1.69126 145.894 0.242588C183.482 2.46294 193.72 54.7486 187.095 88.2687C183.836 104.778 181.923 112.585 178.274 112.585H163.678C161.836 112.585 160.313 114.018 160.136 115.844V115.88V115.916V115.951V115.987C160.136 117.957 161.73 119.568 163.678 119.568H176.68C178.522 119.712 179.974 121.252 179.974 123.15C179.974 125.119 178.38 126.731 176.432 126.731H141.82C139.978 126.731 138.455 128.163 138.277 129.99V130.026V130.061V130.097V130.133V130.169V130.205V130.24V130.276V130.312V130.348V130.384V130.42V130.455V130.491V130.527V130.563V130.599V130.634C138.455 132.461 139.978 133.893 141.82 133.893L169.701 134.108ZM179.974 155.667H168.284C166.335 155.667 164.741 154.056 164.741 152.086C164.741 150.116 166.335 148.505 168.284 148.505H179.974C181.923 148.505 183.517 150.116 183.517 152.086C183.517 154.056 181.923 155.667 179.974 155.667ZM184.828 141.306H179.974C178.026 141.306 176.432 139.695 176.432 137.725C176.432 135.756 178.026 134.144 179.974 134.144H184.863C186.812 134.144 188.406 135.756 188.406 137.725C188.406 139.695 186.812 141.306 184.828 141.306ZM128.039 126.946H113.373C111.53 126.946 110.007 128.378 109.83 130.205V130.24V130.276V130.312V130.348C109.83 132.318 111.424 133.929 113.373 133.929H128.039H128.075C130.023 133.929 131.617 132.318 131.617 130.348V130.312V130.276V130.24V130.205C131.405 128.378 129.881 126.946 128.039 126.946ZM151.952 112.585H121.344C119.501 112.585 117.978 114.018 117.801 115.844V115.88V115.916V115.951V115.987C117.801 117.957 119.395 119.568 121.344 119.568H151.952H151.987C153.936 119.568 155.53 117.957 155.53 115.987V115.951V115.916V115.88V115.844C155.318 114.018 153.794 112.585 151.952 112.585Z" fill="#F1F2F0"/>
<path fill-rule="evenodd" clip-rule="evenodd" d="M32.0354 104.49C32.0354 103.237 33.0628 102.198 34.3027 102.198C37.8099 102.198 44.5409 102.198 48.0482 102.198C49.2881 102.198 50.3155 103.237 50.3155 104.49V105.529H32.0354V104.49Z" fill="url(#paint0_linear)"/>
<path fill-rule="evenodd" clip-rule="evenodd" d="M15.7039 65.9561C15.7039 65.3473 16.1998 64.8459 16.8021 64.8459C22.7891 64.8459 51.6617 64.8459 59.1721 64.8459C59.6326 64.8459 60.0932 65.025 60.4474 65.3831C60.8017 65.7412 60.9788 66.171 60.9788 66.6724V94.0328C60.9788 94.4983 60.8017 94.9639 60.4474 95.322C60.0932 95.6801 59.6681 95.8592 59.1721 95.8592C51.6617 95.8592 22.7891 95.8592 16.8021 95.8592C16.1998 95.8592 15.7039 95.3578 15.7039 94.749V65.9561Z" fill="url(#paint1_linear)"/>
<path fill-rule="evenodd" clip-rule="evenodd" d="M36.322 82.7878C36.322 82.4655 36.57 82.2148 36.8889 82.2148C38.3059 82.2148 42.0611 82.2148 44.293 82.2148C45.2495 82.2148 46.0289 83.0026 46.0289 83.9696C46.0289 88.84 46.0289 102.234 46.0289 102.234H36.2866V82.7878H36.322Z" fill="url(#paint2_linear)"/>
<path fill-rule="evenodd" clip-rule="evenodd" d="M36.322 82.6803C36.322 82.5371 36.3574 82.4296 36.4637 82.3222C36.57 82.2148 36.6763 82.179 36.818 82.179C36.9597 82.179 37.066 82.2148 37.1723 82.3222C37.2785 82.4296 37.314 82.5371 37.314 82.6803C37.314 85.796 37.314 102.198 37.314 102.198H36.322V82.6803Z" fill="#999999"/>
<path fill-rule="evenodd" clip-rule="evenodd" d="M17.2272 65.6338C17.2272 65.419 17.1563 65.2399 17.0146 65.0966C16.8729 64.9534 16.6603 64.8818 16.4832 64.8818C16.2707 64.8818 16.0935 64.9534 15.9518 65.0966C15.8101 65.2399 15.7393 65.4548 15.7393 65.6338V94.3193C15.7393 95.1788 16.4124 95.8592 17.2626 95.8592H17.298V65.6338H17.2272Z" fill="#1E1E1E"/>
<path fill-rule="evenodd" clip-rule="evenodd" d="M73.2718 111.688H1.8521C1.42698 109.683 1.07272 107.641 0.789307 105.564H73.2718V111.688Z" fill="url(#paint3_linear)"/>
<path fill-rule="evenodd" clip-rule="evenodd" d="M67.1429 167.34H55.8419C31.5394 167.34 8.44134 142.63 1.88745 111.688H67.1429V167.34Z" fill="url(#paint4_linear)"/>
<path fill-rule="evenodd" clip-rule="evenodd" d="M179.02 23.3397C189.081 42.0694 191.029 68.463 187.132 88.2671C183.873 104.776 181.96 112.583 178.311 112.583H163.68C161.838 112.583 160.314 114.016 160.137 115.842V115.878V115.914V115.95V115.986C160.137 117.955 161.731 119.567 163.68 119.567H176.681C178.524 119.71 179.976 121.25 179.976 123.148C179.976 125.118 178.382 126.729 176.433 126.729H141.822C139.98 126.729 138.456 128.162 138.279 129.988V130.024V130.06V130.096V130.131V130.167V130.203V130.239V130.275V130.31V130.346V130.382V130.418V130.454V130.49V130.525V130.561V130.597V130.633C138.456 132.459 139.98 133.892 141.822 133.892H169.702C171.651 133.892 173.245 135.503 173.245 137.473C173.245 139.443 171.651 141.054 169.702 141.054H135.126C133.284 141.054 131.761 142.487 131.584 144.313V144.349V144.385V144.42V144.456C131.584 146.426 133.178 148.037 135.126 148.037H159.712C161.625 148.073 163.184 149.685 163.184 151.619C163.184 153.588 161.59 155.2 159.641 155.2H144.337C143.522 155.2 142.707 155.916 142.105 156.704C141.149 157.922 141.149 159.676 142.105 160.894C142.743 161.682 143.522 162.398 144.337 162.398H149.651C149.226 162.613 148.765 162.828 148.269 163.043H126.128V133.713H128.041H128.076C130.025 133.713 131.619 132.101 131.619 130.131V130.096V130.06V130.024V129.988C131.442 128.162 129.919 126.729 128.076 126.729H126.128V119.567H151.954H151.989C153.938 119.567 155.532 117.955 155.532 115.986V115.95V115.914V115.878V115.842C155.355 114.016 153.831 112.583 151.989 112.583H126.128V23.3397H179.02ZM179.976 155.665H168.285C166.337 155.665 164.743 154.054 164.743 152.084C164.743 150.115 166.337 148.503 168.285 148.503H179.976C181.925 148.503 183.519 150.115 183.519 152.084C183.519 154.054 181.925 155.665 179.976 155.665ZM184.829 141.305H179.976C178.028 141.305 176.433 139.693 176.433 137.724C176.433 135.754 178.028 134.142 179.976 134.142H184.865C186.813 134.142 188.408 135.754 188.408 137.724C188.408 139.693 186.813 141.305 184.829 141.305Z" fill="url(#paint5_linear)"/>
<path fill-rule="evenodd" clip-rule="evenodd" d="M131.832 146.211C132.363 147.536 133.638 148.467 135.126 148.467H159.712C161.625 148.503 163.184 150.115 163.184 152.048C163.184 154.018 161.59 155.63 159.641 155.63H144.337C143.522 155.63 142.707 156.346 142.105 157.134C141.149 158.351 141.149 160.106 142.105 161.324C142.743 162.112 143.522 162.828 144.337 162.828H149.651C149.226 163.043 148.765 163.258 148.269 163.472H131.832V146.211ZM179.976 155.665H168.285C166.337 155.665 164.743 154.054 164.743 152.084C164.743 150.115 166.337 148.503 168.285 148.503H179.976C181.464 148.503 182.775 149.434 183.271 150.795V153.409C182.739 154.698 181.464 155.665 179.976 155.665ZM181.96 29.6068C182.42 30.717 182.846 31.8272 183.271 32.9731V105.278C181.783 110.184 180.33 112.583 178.276 112.583H163.68C161.838 112.583 160.314 114.016 160.137 115.842V115.878V115.914V115.95V115.986C160.137 117.955 161.731 119.567 163.68 119.567H176.681C178.524 119.71 179.976 121.25 179.976 123.148C179.976 125.118 178.382 126.729 176.433 126.729H141.822C139.98 126.729 138.456 128.162 138.279 129.988V130.024V130.06V130.096V130.131V130.167V130.203V130.239V130.275V130.31V130.346V130.382V130.418V130.454V130.489V130.525V130.561V130.597V130.633C138.456 132.459 139.98 133.892 141.822 133.892H169.702C171.651 133.892 173.245 135.503 173.245 137.473C173.245 139.443 171.651 141.054 169.702 141.054H135.126C133.638 141.054 132.363 141.985 131.832 143.31V119.531H151.954H151.989C153.938 119.531 155.532 117.919 155.532 115.95V115.914V115.878V115.842V115.807C155.355 113.98 153.831 112.548 151.989 112.548H131.867V29.6068H181.96ZM183.271 134.106V141.269H179.976C178.028 141.269 176.433 139.657 176.433 137.688C176.433 135.718 178.028 134.106 179.976 134.106H183.271Z" fill="url(#paint6_linear)"/>
<path d="M173.139 38.9539H141.999V90.8456H173.139V38.9539Z" fill="url(#paint7_linear)"/>
<path d="M75.8933 162.828C82.2912 162.828 87.4777 157.585 87.4777 151.117C87.4777 144.65 82.2912 139.407 75.8933 139.407C69.4954 139.407 64.3088 144.65 64.3088 151.117C64.3088 157.585 69.4954 162.828 75.8933 162.828Z" fill="url(#paint8_linear)"/>
<path fill-rule="evenodd" clip-rule="evenodd" d="M65.3008 147.393C64.734 147.142 64.3443 146.641 64.1672 146.068C63.99 145.495 64.0609 144.85 64.3797 144.313C66.7179 140.302 71.0045 137.616 75.8933 137.616C80.2862 137.616 84.1831 139.765 86.6275 143.059C87.336 144.026 87.1589 145.351 86.2378 146.103C85.7773 146.462 85.175 146.641 84.6082 146.569C84.0414 146.497 83.51 146.175 83.1557 145.71C81.5261 143.489 78.9046 142.021 75.9287 142.021C72.6341 142.021 69.7291 143.847 68.1703 146.533C67.5681 147.5 66.3282 147.894 65.3008 147.393Z" fill="url(#paint9_linear)"/>
<path fill-rule="evenodd" clip-rule="evenodd" d="M69.5164 139.263C69.7999 139.12 70.0833 139.084 70.4021 139.192C70.6855 139.299 70.9335 139.514 71.0398 139.801C71.2523 140.302 71.0398 140.875 70.5792 141.161C69.5873 141.734 68.6308 142.451 67.816 143.203C67.4617 143.561 66.8949 143.561 66.4698 143.239C66.2218 143.06 66.0801 142.773 66.0801 142.451C66.0801 142.164 66.1864 141.842 66.3989 141.627C67.32 140.696 68.3828 139.908 69.5164 139.263Z" fill="#FFCE87"/>
<path fill-rule="evenodd" clip-rule="evenodd" d="M72.4923 139.192C72.3861 138.941 72.4215 138.619 72.5632 138.368C72.7049 138.117 72.9175 137.938 73.2009 137.867C74.0865 137.688 74.9722 137.58 75.8933 137.58C78.5148 137.58 80.9592 138.332 83.014 139.657C83.4037 139.908 83.5808 140.409 83.4037 140.839C83.2974 141.126 83.0848 141.376 82.8014 141.484C82.518 141.591 82.1992 141.555 81.9158 141.376C79.9673 140.159 77.7354 139.371 75.8578 139.371C75.1493 139.371 74.4054 139.514 73.626 139.729C73.1654 139.908 72.6695 139.657 72.4923 139.192Z" fill="#FFCE87"/>
<path d="M81.7502 152.529C82.5145 149.256 80.5101 145.977 77.2731 145.205C74.0361 144.432 70.7924 146.458 70.028 149.73C69.2637 153.003 71.2681 156.282 74.5051 157.054C77.7421 157.827 80.9858 155.801 81.7502 152.529Z" fill="#B6B6B6"/>
<path d="M75.8933 156.274C78.7107 156.274 80.9947 153.965 80.9947 151.117C80.9947 148.269 78.7107 145.96 75.8933 145.96C73.0759 145.96 70.7919 148.269 70.7919 151.117C70.7919 153.965 73.0759 156.274 75.8933 156.274Z" fill="url(#paint10_linear)"/>
<path fill-rule="evenodd" clip-rule="evenodd" d="M120.318 78.2038C120.318 78.2038 119.716 84.3993 115.89 88.7326C111.284 93.9611 102.888 97.3633 96.4406 95.8234C84.6081 92.9942 111.001 84.1844 111.001 84.1844L120.318 78.2038Z" fill="#1F313E"/>
<path fill-rule="evenodd" clip-rule="evenodd" d="M82.6951 90.8812C82.6951 90.8812 82.1637 110.435 81.9866 118.027C81.9512 119.996 82.1283 121.966 82.5534 123.9C83.7225 129.343 86.1669 140.517 86.1669 140.517H94.4213C94.4213 140.517 92.7917 131.313 91.7643 125.547C91.2329 122.611 91.2683 119.638 91.8351 116.702C93.571 107.498 94.6693 98.2585 95.0235 89.0548L82.6951 90.8812Z" fill="#243D4F"/>
<path fill-rule="evenodd" clip-rule="evenodd" d="M92.6499 90.8812C92.6499 90.8812 93.5001 110.793 93.819 118.313C93.8898 120.176 94.1024 122.074 94.4921 123.9C95.5195 129.272 97.7159 140.517 97.7159 140.517H105.722C105.722 140.517 104.659 130.382 103.951 123.721C103.561 119.961 103.738 116.2 104.447 112.512C104.624 111.581 104.837 110.614 105.014 109.647C106.218 103.487 106.75 97.1842 106.608 90.917H92.6499V90.8812Z" fill="url(#paint11_linear)"/>
<path fill-rule="evenodd" clip-rule="evenodd" d="M102.924 54.2097H79.0107C83.1202 66.8156 84.927 79.1349 82.7305 90.9529H106.608C108.592 78.741 107.246 66.4933 102.924 54.2097Z" fill="url(#paint12_linear)"/>
<path fill-rule="evenodd" clip-rule="evenodd" d="M90.985 42.3917H85.671V56.2868L88.328 59.9038L90.985 56.2868V42.3917Z" fill="#E87965"/>
<path fill-rule="evenodd" clip-rule="evenodd" d="M90.9848 34.3339H75.7869V44.2181C75.7869 46.1161 76.5308 47.9067 77.8416 49.2317C79.1524 50.5568 80.9591 51.3088 82.8013 51.3088H84.6435C88.1507 51.3088 90.9848 48.4439 90.9848 44.8985V34.3339Z" fill="url(#paint13_linear)"/>
<path fill-rule="evenodd" clip-rule="evenodd" d="M75.7516 34.334C75.7516 34.334 73.6968 32.615 74.7242 29.2487C75.7516 25.8465 79.0462 24.6289 84.5019 24.6289C84.5019 24.6289 83.3328 25.1661 83.3328 26.3121C83.3328 27.4581 84.5019 27.4581 84.5019 27.4581C84.5019 27.4581 94.2441 27.5297 95.4132 29.6784C96.6177 31.9346 94.811 33.4387 94.811 33.4387C94.811 33.4387 97.5388 33.7968 97.5388 36.3753C97.5388 37.7361 96.5823 38.5598 95.4132 38.6314C95.4132 38.6314 97.1845 39.8132 96.6177 41.1025C96.5114 41.3531 96.3343 41.568 96.1217 41.7471C95.0944 42.6066 94.4213 43.8242 94.2087 45.1492C93.9253 46.8682 93.1459 48.9095 90.9141 49.7332V41.0667C90.9141 41.0667 87.8674 39.4193 85.6001 34.334C85.671 34.2982 78.196 38.2733 75.7516 34.334Z" fill="url(#paint14_linear)"/>
<path fill-rule="evenodd" clip-rule="evenodd" d="M73.4134 78.0606C73.3425 78.7052 73.5197 79.3498 73.9448 79.8512C74.3699 80.3525 74.9721 80.6032 75.6098 80.6032C76.3892 80.6032 77.2394 80.6032 77.9834 80.6032C79.117 80.6032 80.0381 79.7795 80.1798 78.6335C80.7112 74.4077 82.022 64.3445 82.8014 58.543C82.9431 57.4328 82.6243 56.3226 81.8803 55.4989C81.1718 54.6753 80.109 54.1739 79.0108 54.1739C77.5583 54.1739 76.3538 55.2483 76.1766 56.6807C75.539 61.7661 74.0865 73.011 73.4134 78.0606Z" fill="url(#paint15_linear)"/>
<path fill-rule="evenodd" clip-rule="evenodd" d="M92.898 54.1739C92.898 54.1739 92.402 83.2533 106.537 88.7326C119.114 93.603 120.283 78.2038 120.283 78.2038C120.283 78.2038 115.146 79.8512 111.001 75.303C106.856 70.7549 102.888 54.1739 102.888 54.1739H92.898Z" fill="url(#paint16_linear)"/>
<path fill-rule="evenodd" clip-rule="evenodd" d="M84.1122 54.1739C82.6243 59.868 83.3682 69.215 83.6516 80.4241C79.4713 71.3995 77.7354 62.6613 78.6919 54.2097L84.1122 54.1739Z" fill="url(#paint17_linear)"/>
<path fill-rule="evenodd" clip-rule="evenodd" d="M86.4858 58.1132L87.8675 61.0139H89.32L90.6307 57.2537L88.328 55.8928L86.4858 58.1132Z" fill="url(#paint18_linear)"/>
<path fill-rule="evenodd" clip-rule="evenodd" d="M89.2845 61.0499C89.2845 61.0499 94.7402 73.1544 105.156 65.7054C113.552 59.7248 120.283 64.2013 120.283 64.2013L123.117 68.5704L117.484 71.7219C117.484 71.7219 113.197 66.5649 104.305 71.7219C95.4133 76.8788 87.3361 64.3088 87.7966 61.0857H89.2845V61.0499Z" fill="url(#paint19_linear)"/>
<path fill-rule="evenodd" clip-rule="evenodd" d="M88.3279 55.9287L90.9849 59.0801L92.8979 54.2097L90.9849 52.3475L88.3279 55.9287Z" fill="url(#paint20_linear)"/>
<path fill-rule="evenodd" clip-rule="evenodd" d="M85.6708 52.3475L84.1121 54.2455L85.6708 59.116L88.3278 55.9645L85.6708 52.3475Z" fill="url(#paint21_linear)"/>
<path fill-rule="evenodd" clip-rule="evenodd" d="M103.101 83.5398C104.341 83.11 105.191 81.9282 105.191 80.6032C105.191 79.5288 104.659 78.5261 103.809 77.9173C102.924 77.3085 101.825 77.1652 100.833 77.5591C94.9172 79.8511 84.9978 83.683 84.9978 83.683L87.6194 88.6967C87.6194 88.7683 98.4244 85.1155 103.101 83.5398Z" fill="url(#paint22_linear)"/>
<path fill-rule="evenodd" clip-rule="evenodd" d="M98.3181 80.6032C98.3181 81.8567 99.31 82.8594 100.55 82.8594H102.959C104.199 82.8594 105.191 81.8567 105.191 80.6032C105.191 75.6254 105.191 63.6283 105.191 57.6835C105.191 55.7855 103.667 54.2097 101.754 54.2097C99.8769 54.2097 98.3181 55.7496 98.3181 57.6835V80.6032Z" fill="url(#paint23_linear)"/>
<path fill-rule="evenodd" clip-rule="evenodd" d="M78.4439 81.3195C79.365 80.8898 79.9319 79.9587 79.9319 78.9559C79.9319 77.8457 79.365 76.843 78.4085 76.27C77.452 75.697 76.3184 75.697 75.3618 76.1984C69.9416 79.1708 61.6873 83.7547 61.6873 83.7547L66.151 87.2285C66.151 87.2285 74.9013 83.0385 78.4439 81.3195Z" fill="url(#paint24_linear)"/>
<path d="M76.2121 88.1954H71.5358V130.776H76.2121V88.1954Z" fill="url(#paint25_linear)"/>
<path d="M105.935 148.968H82.7306V153.266H105.935V148.968Z" fill="url(#paint26_linear)"/>
<path fill-rule="evenodd" clip-rule="evenodd" d="M76.2121 130.812V142.415C76.2121 144.17 76.8852 145.817 78.1251 147.035C79.3296 148.252 80.9946 148.968 82.6951 148.968C84.0413 150.759 83.7933 152.12 82.6951 153.266C76.5309 153.266 71.5358 148.216 71.5358 141.985V130.812C73.0945 129.773 74.7242 129.845 76.2121 130.812Z" fill="url(#paint27_linear)"/>
<path fill-rule="evenodd" clip-rule="evenodd" d="M86.8045 140.481L79.1879 146.712V148.968H94.3858V140.517H86.8045V140.481Z" fill="url(#paint28_linear)"/>
<path d="M94.563 146.712H79.2234V148.968H94.563V146.712Z" fill="url(#paint29_linear)"/>
<path fill-rule="evenodd" clip-rule="evenodd" d="M98.1056 140.481L90.4889 146.712V148.968H105.687V140.517H98.1056V140.481Z" fill="url(#paint30_linear)"/>
<path d="M105.829 146.712H90.4889V148.968H105.829V146.712Z" fill="url(#paint31_linear)"/>
<path d="M93.6773 85.5095H55.8419V88.1954H93.6773V85.5095Z" fill="url(#paint32_linear)"/>
<path fill-rule="evenodd" clip-rule="evenodd" d="M68.4891 88.9474H56.0899C55.9836 88.9474 55.8773 88.9833 55.8065 88.9833C55.0271 88.9833 54.3894 88.0521 54.3894 86.9062C54.3894 85.7602 55.0271 84.829 55.8065 84.829H68.4891V88.9474Z" fill="url(#paint33_linear)"/>
<path fill-rule="evenodd" clip-rule="evenodd" d="M77.3103 85.581C77.3103 85.0439 76.8852 84.5783 76.3184 84.5783C75.0076 84.5783 72.7403 84.5783 71.4296 84.5783C70.8982 84.5783 70.4376 85.0081 70.4376 85.581C70.4376 85.9034 70.4376 86.2257 70.4376 86.6196C70.4376 88.3744 71.8547 89.8069 73.5906 89.8069H74.1574C75.8933 89.8069 77.3103 88.3744 77.3103 86.6196V85.581Z" fill="url(#paint34_linear)"/>
<path d="M93.6418 84.7574H79.0107V88.9116H93.6418V84.7574Z" fill="url(#paint35_linear)"/>
<path fill-rule="evenodd" clip-rule="evenodd" d="M89.4616 85.4378C89.4616 84.5067 88.7177 83.7546 87.7966 83.7546H82.1992C81.2781 83.7546 80.5342 84.5067 80.5342 85.4378V88.0879C80.5342 89.019 81.2781 89.7711 82.1992 89.7711H87.7966C88.7177 89.7711 89.4616 89.019 89.4616 88.0879V85.4378Z" fill="url(#paint36_linear)"/>
<path fill-rule="evenodd" clip-rule="evenodd" d="M67.0721 85.7601C67.0721 84.6499 66.1864 83.7546 65.0882 83.7546H61.0142C59.9159 83.7546 59.0303 84.6499 59.0303 85.7601V87.8014C59.0303 88.9116 59.9159 89.8069 61.0142 89.8069H65.0882C66.1864 89.8069 67.0721 88.9116 67.0721 87.8014V85.7601Z" fill="url(#paint37_linear)"/>
<path fill-rule="evenodd" clip-rule="evenodd" d="M93.6419 84.7574C94.4213 84.7574 95.0944 85.6886 95.0944 86.8345C95.0944 87.9805 94.4567 88.9116 93.6419 88.9116C92.8625 88.9116 92.1895 87.9805 92.1895 86.8345C92.2249 85.7244 92.8625 84.7574 93.6419 84.7574Z" fill="url(#paint38_linear)"/>
<path fill-rule="evenodd" clip-rule="evenodd" d="M94.3149 43.4302C94.3149 42.7856 94.0669 42.2126 93.6418 41.7471C93.2167 41.3173 92.6145 41.0667 91.9768 41.0667H90.4889V45.7938H91.9768C92.6145 45.7938 93.1813 45.5432 93.6418 45.1134C94.0669 44.6479 94.3149 44.0391 94.3149 43.4302Z" fill="url(#paint39_linear)"/>
<path d="M105.935 162.828C112.333 162.828 117.519 157.585 117.519 151.117C117.519 144.65 112.333 139.407 105.935 139.407C99.5369 139.407 94.3503 144.65 94.3503 151.117C94.3503 157.585 99.5369 162.828 105.935 162.828Z" fill="url(#paint40_linear)"/>
<path fill-rule="evenodd" clip-rule="evenodd" d="M95.3423 147.393C94.7755 147.142 94.3858 146.641 94.2087 146.068C94.0315 145.495 94.1024 144.85 94.4212 144.313C96.7594 140.302 101.046 137.616 105.935 137.616C110.328 137.616 114.225 139.765 116.669 143.059C117.378 144.026 117.2 145.351 116.279 146.103C115.819 146.462 115.217 146.641 114.65 146.569C114.083 146.497 113.552 146.175 113.197 145.71C111.568 143.489 108.946 142.021 105.97 142.021C102.676 142.021 99.7706 143.847 98.2119 146.533C97.5742 147.5 96.3697 147.894 95.3423 147.393Z" fill="url(#paint41_linear)"/>
<path fill-rule="evenodd" clip-rule="evenodd" d="M99.5581 139.263C99.8415 139.12 100.125 139.084 100.444 139.192C100.727 139.299 100.975 139.514 101.081 139.801C101.294 140.302 101.081 140.875 100.621 141.161C99.6289 141.734 98.6724 142.451 97.8576 143.203C97.5033 143.561 96.9365 143.561 96.5114 143.239C96.2634 143.06 96.1217 142.773 96.1217 142.451C96.1217 142.164 96.228 141.842 96.4406 141.627C97.3616 140.696 98.389 139.908 99.5581 139.263Z" fill="#FFCE87"/>
<path fill-rule="evenodd" clip-rule="evenodd" d="M102.534 139.192C102.428 138.941 102.463 138.619 102.605 138.368C102.746 138.117 102.959 137.938 103.242 137.867C104.128 137.688 105.014 137.58 105.935 137.58C108.556 137.58 111.001 138.332 113.055 139.657C113.445 139.908 113.622 140.409 113.445 140.839C113.339 141.126 113.126 141.376 112.843 141.484C112.56 141.591 112.241 141.555 111.957 141.376C110.009 140.159 107.777 139.371 105.899 139.371C105.191 139.371 104.447 139.514 103.667 139.729C103.207 139.908 102.711 139.657 102.534 139.192Z" fill="#FFCE87"/>
<path d="M105.935 157.205C109.261 157.205 111.957 154.48 111.957 151.117C111.957 147.755 109.261 145.029 105.935 145.029C102.609 145.029 99.9124 147.755 99.9124 151.117C99.9124 154.48 102.609 157.205 105.935 157.205Z" fill="#B6B6B6"/>
<path d="M105.935 156.274C108.752 156.274 111.036 153.965 111.036 151.117C111.036 148.269 108.752 145.96 105.935 145.96C103.117 145.96 100.833 148.269 100.833 151.117C100.833 153.965 103.117 156.274 105.935 156.274Z" fill="url(#paint42_linear)"/>
<path d="M51.0594 52.0252C57.3203 52.0252 62.3958 46.8944 62.3958 40.5653C62.3958 34.2362 57.3203 29.1055 51.0594 29.1055C44.7984 29.1055 39.7229 34.2362 39.7229 40.5653C39.7229 46.8944 44.7984 52.0252 51.0594 52.0252Z" fill="url(#paint43_linear)"/>
<path d="M51.0594 49.4108C55.8921 49.4108 59.8097 45.4505 59.8097 40.5653C59.8097 35.68 55.8921 31.7197 51.0594 31.7197C46.2267 31.7197 42.3091 35.68 42.3091 40.5653C42.3091 45.4505 46.2267 49.4108 51.0594 49.4108Z" fill="url(#paint44_linear)"/>
<path d="M51.0594 41.9978C50.7052 41.9978 50.3509 41.8546 50.0675 41.5681L46.702 38.1659C46.1351 37.5929 46.1351 36.6976 46.702 36.1605C47.2688 35.5875 48.1545 35.5875 48.6859 36.1605L52.0514 39.5626C52.6182 40.1356 52.6182 41.0309 52.0514 41.5681C51.8034 41.8546 51.4137 41.9978 51.0594 41.9978Z" fill="#40302D"/>
<path d="M51.0594 41.9979C50.28 41.9979 49.6423 41.3532 49.6423 40.5654V33.4388C49.6423 32.6509 50.28 32.0063 51.0594 32.0063C51.8388 32.0063 52.4764 32.6509 52.4764 33.4388V40.5654C52.4764 41.3532 51.8388 41.9979 51.0594 41.9979Z" fill="#40302D"/>
<defs>
<linearGradient id="paint0_linear" x1="41.3037" y1="102.606" x2="41.2983" y2="105.788" gradientUnits="userSpaceOnUse">
<stop stop-color="#515151"/>
<stop offset="1" stop-color="#272727"/>
</linearGradient>
<linearGradient id="paint1_linear" x1="40.5604" y1="68.4275" x2="37.9913" y2="97.2408" gradientUnits="userSpaceOnUse">
<stop stop-color="#7D7D7D"/>
<stop offset="1" stop-color="#3B3B3B"/>
</linearGradient>
<linearGradient id="paint2_linear" x1="39.1744" y1="83.3792" x2="45.2811" y2="98.361" gradientUnits="userSpaceOnUse">
<stop stop-color="#E2F9FF"/>
<stop offset="1" stop-color="#B5CACF"/>
</linearGradient>
<linearGradient id="paint3_linear" x1="73.2584" y1="108.614" x2="0.0169309" y2="108.614" gradientUnits="userSpaceOnUse">
<stop stop-color="#F89F1E"/>
<stop offset="0.48" stop-color="#F08D16"/>
<stop offset="1" stop-color="#DB5D00"/>
</linearGradient>
<linearGradient id="paint4_linear" x1="34.4855" y1="162.833" x2="34.4855" y2="111.671" gradientUnits="userSpaceOnUse">
<stop stop-color="#FFD2A5"/>
<stop offset="1" stop-color="#FF8E1E"/>
</linearGradient>
<linearGradient id="paint5_linear" x1="157.564" y1="47.5151" x2="157.564" y2="197.929" gradientUnits="userSpaceOnUse">
<stop stop-color="#FFD2A5"/>
<stop offset="1" stop-color="#FF8E1E"/>
</linearGradient>
<linearGradient id="paint6_linear" x1="157.541" y1="51.4182" x2="157.541" y2="171.399" gradientUnits="userSpaceOnUse">
<stop stop-color="#CC8C4B"/>
<stop offset="1" stop-color="#C3703F"/>
</linearGradient>
<linearGradient id="paint7_linear" x1="157.569" y1="41.1693" x2="157.569" y2="89.2113" gradientUnits="userSpaceOnUse">
<stop stop-color="#E2F9FF"/>
<stop offset="1" stop-color="#88C2D1"/>
</linearGradient>
<linearGradient id="paint8_linear" x1="73.4546" y1="142.442" x2="79.3902" y2="163.105" gradientUnits="userSpaceOnUse">
<stop stop-color="#515151"/>
<stop offset="1" stop-color="#272727"/>
</linearGradient>
<linearGradient id="paint9_linear" x1="64.2782" y1="141.389" x2="87.3844" y2="145.251" gradientUnits="userSpaceOnUse">
<stop stop-color="#F89F1E"/>
<stop offset="0.48" stop-color="#F08D16"/>
<stop offset="1" stop-color="#DB5D00"/>
</linearGradient>
<linearGradient id="paint10_linear" x1="73.9741" y1="146.354" x2="77.8832" y2="155.856" gradientUnits="userSpaceOnUse">
<stop stop-color="#F89F1E"/>
<stop offset="0.48" stop-color="#F08D16"/>
<stop offset="1" stop-color="#DB5D00"/>
</linearGradient>
<linearGradient id="paint11_linear" x1="100.398" y1="91.1069" x2="96.1949" y2="171.961" gradientUnits="userSpaceOnUse">
<stop stop-color="#264358"/>
<stop offset="1" stop-color="#588193"/>
</linearGradient>
<linearGradient id="paint12_linear" x1="95.1967" y1="55.6164" x2="88.9403" y2="85.0082" gradientUnits="userSpaceOnUse">
<stop stop-color="#E2F9FF"/>
<stop offset="1" stop-color="#B5CACF"/>
</linearGradient>
<linearGradient id="paint13_linear" x1="83.3773" y1="52.8388" x2="83.3773" y2="34.3183" gradientUnits="userSpaceOnUse">
<stop stop-color="#FE8C77"/>
<stop offset="1" stop-color="#FDCB9F"/>
</linearGradient>
<linearGradient id="paint14_linear" x1="81.9984" y1="26.7887" x2="83.6595" y2="67.5554" gradientUnits="userSpaceOnUse">
<stop stop-color="#264358"/>
<stop offset="1" stop-color="#588193"/>
</linearGradient>
<linearGradient id="paint15_linear" x1="79.5797" y1="56.0471" x2="73.8664" y2="102.668" gradientUnits="userSpaceOnUse">
<stop stop-color="#264358"/>
<stop offset="1" stop-color="#588193"/>
</linearGradient>
<linearGradient id="paint16_linear" x1="111.019" y1="83.968" x2="98.6494" y2="54.014" gradientUnits="userSpaceOnUse">
<stop stop-color="#264358"/>
<stop offset="1" stop-color="#588193"/>
</linearGradient>
<linearGradient id="paint17_linear" x1="83.8308" y1="78.3012" x2="80.1891" y2="49.7994" gradientUnits="userSpaceOnUse">
<stop stop-color="#264358"/>
<stop offset="1" stop-color="#588193"/>
</linearGradient>
<linearGradient id="paint18_linear" x1="88.5323" y1="55.9229" x2="88.5462" y2="61.0368" gradientUnits="userSpaceOnUse">
<stop stop-color="#F89F1E"/>
<stop offset="0.48" stop-color="#F08D16"/>
<stop offset="1" stop-color="#DB5D00"/>
</linearGradient>
<linearGradient id="paint19_linear" x1="120.083" y1="68.5485" x2="87.9217" y2="66.5804" gradientUnits="userSpaceOnUse">
<stop stop-color="#F89F1E"/>
<stop offset="0.48" stop-color="#F08D16"/>
<stop offset="1" stop-color="#DB5D00"/>
</linearGradient>
<linearGradient id="paint20_linear" x1="90.9505" y1="52.5151" x2="90.3225" y2="58.0883" gradientUnits="userSpaceOnUse">
<stop stop-color="#E2F9FF"/>
<stop offset="1" stop-color="#B5CACF"/>
</linearGradient>
<linearGradient id="paint21_linear" x1="86.5873" y1="52.5201" x2="85.7854" y2="58.0627" gradientUnits="userSpaceOnUse">
<stop stop-color="#E2F9FF"/>
<stop offset="1" stop-color="#B5CACF"/>
</linearGradient>
<linearGradient id="paint22_linear" x1="97.5917" y1="86.5022" x2="80.4439" y2="55.2901" gradientUnits="userSpaceOnUse">
<stop stop-color="#264358"/>
<stop offset="1" stop-color="#588193"/>
</linearGradient>
<linearGradient id="paint23_linear" x1="108.076" y1="80.7423" x2="90.9282" y2="49.5302" gradientUnits="userSpaceOnUse">
<stop stop-color="#264358"/>
<stop offset="1" stop-color="#588193"/>
</linearGradient>
<linearGradient id="paint24_linear" x1="73.9394" y1="55.356" x2="68.2262" y2="101.977" gradientUnits="userSpaceOnUse">
<stop stop-color="#264358"/>
<stop offset="1" stop-color="#588193"/>
</linearGradient>
<linearGradient id="paint25_linear" x1="73.5256" y1="109.631" x2="87.2221" y2="109.566" gradientUnits="userSpaceOnUse">
<stop stop-color="#515151"/>
<stop offset="1" stop-color="#272727"/>
</linearGradient>
<linearGradient id="paint26_linear" x1="94.2345" y1="149.473" x2="94.2418" y2="153.557" gradientUnits="userSpaceOnUse">
<stop stop-color="#515151"/>
<stop offset="1" stop-color="#272727"/>
</linearGradient>
<linearGradient id="paint27_linear" x1="76.585" y1="157.291" x2="76.7597" y2="130.971" gradientUnits="userSpaceOnUse">
<stop stop-color="#F89F1E"/>
<stop offset="0.48" stop-color="#F08D16"/>
<stop offset="1" stop-color="#DB5D00"/>
</linearGradient>
<linearGradient id="paint28_linear" x1="86.8129" y1="140.501" x2="86.8129" y2="151.12" gradientUnits="userSpaceOnUse">
<stop stop-color="#9AB4BA"/>
<stop offset="1" stop-color="#778B90"/>
</linearGradient>
<linearGradient id="paint29_linear" x1="86.8743" y1="146.713" x2="86.8743" y2="152.47" gradientUnits="userSpaceOnUse">
<stop stop-color="#243D4F"/>
<stop offset="1" stop-color="#6B7D8A"/>
</linearGradient>
<linearGradient id="paint30_linear" x1="98.4916" y1="140.737" x2="98.4344" y2="147.818" gradientUnits="userSpaceOnUse">
<stop stop-color="#E2F9FF"/>
<stop offset="1" stop-color="#B5CACF"/>
</linearGradient>
<linearGradient id="paint31_linear" x1="98.1583" y1="146.716" x2="98.1583" y2="150.383" gradientUnits="userSpaceOnUse">
<stop stop-color="#264358"/>
<stop offset="1" stop-color="#588193"/>
</linearGradient>
<linearGradient id="paint32_linear" x1="74.7198" y1="85.837" x2="74.72" y2="88.3892" gradientUnits="userSpaceOnUse">
<stop stop-color="#515151"/>
<stop offset="1" stop-color="#272727"/>
</linearGradient>
<linearGradient id="paint33_linear" x1="61.4486" y1="84.7692" x2="61.4486" y2="89.0399" gradientUnits="userSpaceOnUse">
<stop stop-color="#F89F1E"/>
<stop offset="0.48" stop-color="#F08D16"/>
<stop offset="1" stop-color="#DB5D00"/>
</linearGradient>
<linearGradient id="paint34_linear" x1="73.9861" y1="84.7299" x2="73.8964" y2="89.0761" gradientUnits="userSpaceOnUse">
<stop stop-color="#E2F9FF"/>
<stop offset="1" stop-color="#B5CACF"/>
</linearGradient>
<linearGradient id="paint35_linear" x1="92.4589" y1="87.2593" x2="79.1299" y2="86.2998" gradientUnits="userSpaceOnUse">
<stop stop-color="#F89F1E"/>
<stop offset="0.48" stop-color="#F08D16"/>
<stop offset="1" stop-color="#DB5D00"/>
</linearGradient>
<linearGradient id="paint36_linear" x1="88.3136" y1="86.7672" x2="79.9404" y2="86.7672" gradientUnits="userSpaceOnUse">
<stop stop-color="#FE8C77"/>
<stop offset="1" stop-color="#FDCB9F"/>
</linearGradient>
<linearGradient id="paint37_linear" x1="59.048" y1="86.766" x2="67.0726" y2="86.766" gradientUnits="userSpaceOnUse">
<stop stop-color="#FE8C77"/>
<stop offset="1" stop-color="#FDCB9F"/>
</linearGradient>
<linearGradient id="paint38_linear" x1="93.1312" y1="85.5673" x2="95.4193" y2="88.2139" gradientUnits="userSpaceOnUse">
<stop stop-color="#515151"/>
<stop offset="1" stop-color="#272727"/>
</linearGradient>
<linearGradient id="paint39_linear" x1="92.4065" y1="52.8389" x2="92.4065" y2="34.3183" gradientUnits="userSpaceOnUse">
<stop stop-color="#FE8C77"/>
<stop offset="1" stop-color="#FDCB9F"/>
</linearGradient>
<linearGradient id="paint40_linear" x1="103.493" y1="142.441" x2="109.429" y2="163.104" gradientUnits="userSpaceOnUse">
<stop stop-color="#515151"/>
<stop offset="1" stop-color="#272727"/>
</linearGradient>
<linearGradient id="paint41_linear" x1="94.3244" y1="141.385" x2="117.423" y2="145.246" gradientUnits="userSpaceOnUse">
<stop stop-color="#F89F1E"/>
<stop offset="0.48" stop-color="#F08D16"/>
<stop offset="1" stop-color="#DB5D00"/>
</linearGradient>
<linearGradient id="paint42_linear" x1="104.01" y1="146.352" x2="107.92" y2="155.854" gradientUnits="userSpaceOnUse">
<stop stop-color="#F89F1E"/>
<stop offset="0.48" stop-color="#F08D16"/>
<stop offset="1" stop-color="#DB5D00"/>
</linearGradient>
<linearGradient id="paint43_linear" x1="47.3435" y1="29.858" x2="54.6419" y2="50.4114" gradientUnits="userSpaceOnUse">
<stop stop-color="#F89F1E"/>
<stop offset="0.48" stop-color="#F08D16"/>
<stop offset="1" stop-color="#DB5D00"/>
</linearGradient>
<linearGradient id="paint44_linear" x1="46.7054" y1="32.9843" x2="60.1246" y2="55.8868" gradientUnits="userSpaceOnUse">
<stop stop-color="#E2F9FF"/>
<stop offset="1" stop-color="#B5CACF"/>
</linearGradient>
</defs>
</svg>
