<svg width="208" height="137" viewBox="0 0 208 137" fill="none" xmlns="http://www.w3.org/2000/svg">
<path fill-rule="evenodd" clip-rule="evenodd" d="M137.258 38.3719C98.4548 26.9567 102.749 12.2635 74.644 2.9694C54.4757 -3.66374 36.4546 0.655516 16.1713 17.0456C-4.11199 33.397 -1.27463 63.8632 5.55037 76.9753C12.3754 90.0873 32.8504 118.51 49.2611 129.462C65.7101 140.453 169.274 136.905 183.691 129.462C198.108 122.019 207.693 105.05 207.923 92.2855C208.153 79.5205 209.074 59.6597 185.876 49.7871C162.641 39.8759 165.67 46.779 137.258 38.3719Z" fill="#F1F2F0"/>
<path fill-rule="evenodd" clip-rule="evenodd" d="M121.767 68.6454C122.074 64.9432 125.18 62.0894 128.899 62.0894H188.944L183.154 128.575H116.553C116.553 128.575 120.31 85.4211 121.767 68.6454Z" fill="url(#paint0_linear)"/>
<path fill-rule="evenodd" clip-rule="evenodd" d="M195.079 69.2238C195.232 67.3727 194.618 65.5602 193.391 64.2104C192.164 62.8607 190.401 62.0894 188.56 62.0894C185.57 62.0894 183.077 64.3647 182.847 67.3727C181.467 83.1072 177.518 128.575 177.518 128.575H189.941C189.902 128.575 193.583 86.4237 195.079 69.2238Z" fill="url(#paint1_linear)"/>
<path fill-rule="evenodd" clip-rule="evenodd" d="M133.117 60.2766C133.117 60.2766 133.73 63.2075 133.117 65.56C132.503 67.951 139.558 73.0416 139.558 73.0416L150.639 62.4362C150.639 62.4362 149.604 58.6569 150.294 51.2525C151.023 43.4238 136.951 53.6435 136.951 53.6435L133.117 60.2766Z" fill="#F9917A"/>
<path fill-rule="evenodd" clip-rule="evenodd" d="M129.896 125.181H146.038L151.406 63.0149L140.018 67.2185L139.597 67.9512L138.945 67.2185L132.082 65.5216L126.215 112.262L129.896 125.181Z" fill="url(#paint2_linear)"/>
<path fill-rule="evenodd" clip-rule="evenodd" d="M122.496 41.6498C122.496 41.6498 121.499 39.953 120.195 40.223C118.892 40.5315 118.201 42.5368 118.892 44.2722C119.62 46.0077 121.116 49.517 122.304 49.7099C123.493 49.9027 123.915 49.7099 123.915 49.7099C123.915 49.7099 124.26 47.0875 122.496 41.6498Z" fill="url(#paint3_linear)"/>
<path fill-rule="evenodd" clip-rule="evenodd" d="M122.687 42.9225C122.687 42.9225 119.543 41.9198 118.355 36.4822C117.128 31.0445 115.287 25.4141 121.461 21.4419H127.557L125.563 27.9979L122.687 42.9225Z" fill="url(#paint4_linear)"/>
<path fill-rule="evenodd" clip-rule="evenodd" d="M125.563 28.0365C125.563 28.0365 120.195 23.5244 121.422 17.2769C122.649 11.0294 129.666 9.79537 136.989 8.67699C144.313 7.55861 149.374 9.56398 152.748 14.8474C156.122 20.1307 161.644 28.8464 160.378 33.1271C159.113 37.4078 157.771 41.8813 157.771 41.8813C156.659 46.162 153.4 48.8615 150.869 50.944L150.141 43.8095L127.557 32.2015L125.563 28.0365Z" fill="url(#paint5_linear)"/>
<path fill-rule="evenodd" clip-rule="evenodd" d="M122.074 38.7961C122.074 38.7961 123.723 51.9467 125.563 54.3377C127.404 56.7673 133.27 62.2049 135.149 62.282C137.028 62.3592 147.687 57.8085 149.106 55.726C150.563 53.6435 151.368 48.2059 151.368 48.2059C151.368 48.2059 152.94 50.0184 154.244 48.8615C155.586 47.7431 159.113 45.7763 157.848 42.9611C156.582 40.1459 154.282 38.7961 152.288 42.5754C152.288 42.5754 149.681 38.7575 149.106 36.9064C149.106 36.9064 138.37 38.7961 125.525 28.0365C125.563 28.0365 125.103 33.6284 122.074 38.7961Z" fill="url(#paint6_linear)"/>
<path fill-rule="evenodd" clip-rule="evenodd" d="M137.871 73.2344L133.193 112.378L137.871 122.597L142.434 112.378L141.744 71.499L137.871 73.2344Z" fill="url(#paint7_linear)"/>
<path fill-rule="evenodd" clip-rule="evenodd" d="M136.031 71.1135C136.031 71.1135 137.258 73.8516 138.408 74.2373C139.558 74.5843 140.67 74.2373 140.67 74.2373L143.699 71.7305L142.664 67.4113C142.664 67.4113 140.632 68.5296 136.836 67.9897C133.078 67.4113 136.031 71.1135 136.031 71.1135Z" fill="url(#paint8_linear)"/>
<path fill-rule="evenodd" clip-rule="evenodd" d="M139.558 67.951C139.558 67.951 140.747 67.1026 141.859 68.9537C142.971 70.7662 145.962 76.8595 145.962 76.8595L150.639 67.9896L150.448 61.7806C151.406 62.7062 140.594 66.7941 139.558 67.951Z" fill="url(#paint9_linear)"/>
<path fill-rule="evenodd" clip-rule="evenodd" d="M139.328 68.1054C139.213 67.7969 139.213 67.4112 138.638 67.1413C136.721 66.2543 133.692 65.483 133.078 63.7861L131.775 65.9843L132.695 76.8596C132.695 76.8596 136.836 69.7637 137.718 68.2597C137.833 68.1054 138.024 67.9897 138.216 67.9897C138.638 68.0283 139.328 68.1054 139.328 68.1054Z" fill="url(#paint10_linear)"/>
<path fill-rule="evenodd" clip-rule="evenodd" d="M172.226 76.0883C172.226 76.0883 171.46 73.1573 152.633 63.4776L150.524 62.5906L146.077 109.91V125.143L162.564 122.597L172.226 76.0883Z" fill="url(#paint11_linear)"/>
<path fill-rule="evenodd" clip-rule="evenodd" d="M119.965 70.9207L100.525 119.898L112.105 124.14L122.649 99.5357L126.483 74.4301L119.965 70.9207Z" fill="url(#paint12_linear)"/>
<path fill-rule="evenodd" clip-rule="evenodd" d="M129.896 109.678V125.181H120.77L119.965 70.9207L132.388 65.5602L129.896 109.678Z" fill="url(#paint13_linear)"/>
<path fill-rule="evenodd" clip-rule="evenodd" d="M150.332 60.7009C150.332 65.9072 147.265 95.1393 146.038 109.678L155.432 83.4156L151.559 79.3663L155.432 79.9062L152.441 62.4363L150.332 60.7009Z" fill="url(#paint14_linear)"/>
<path fill-rule="evenodd" clip-rule="evenodd" d="M117.665 115.154C117.665 115.154 114.712 115.347 113.754 115.656C112.833 115.964 111.07 116.311 111.031 117.16C110.993 118.008 113.025 118.972 114.751 118.278C116.476 117.622 117.665 115.154 117.665 115.154Z" fill="url(#paint15_linear)"/>
<path fill-rule="evenodd" clip-rule="evenodd" d="M133.078 115.656C129.896 114.46 125.448 113.342 120.579 113.959C116.744 114.46 107.657 123.06 107.657 123.06C107.657 123.06 116.783 127.148 119.965 125.644C123.148 124.14 123.416 122.906 125.448 123.06C127.442 123.214 126.905 125.066 129.359 124.95C131.775 124.834 135.149 124.988 137.258 124.024C139.328 123.06 136.069 116.813 133.078 115.656Z" fill="url(#paint16_linear)"/>
<path fill-rule="evenodd" clip-rule="evenodd" d="M172.226 76.0883C175.064 78.7878 171.306 109.061 168.584 122.867C167.97 126.068 165.056 128.266 161.835 128.035C152.326 127.341 133.768 125.953 133.768 125.953C133.768 125.953 135.226 118.432 131.008 114.152C131.008 114.152 137.104 113.149 141.859 114.152C144.619 114.73 148.837 115 151.866 115.077C152.863 115.116 153.86 114.73 154.55 114.036C155.279 113.342 155.701 112.378 155.701 111.375C155.739 104.896 155.931 91.8613 156.812 86.1537C157.771 80.0604 169.005 73.0802 172.226 76.0883Z" fill="url(#paint17_linear)"/>
<path fill-rule="evenodd" clip-rule="evenodd" d="M132.618 64.5961L131.008 65.5216L124.106 75.5099L127.864 78.7879L124.106 81.9117L129.896 109.64C131.391 91.2443 131.89 71.692 132.618 64.5961Z" fill="url(#paint18_linear)"/>
<path fill-rule="evenodd" clip-rule="evenodd" d="M100.947 84.4183C100.832 84.0327 100.909 83.647 101.177 83.3385C101.407 83.03 101.752 82.8372 102.136 82.8372H102.174C102.711 82.8372 103.209 83.2228 103.363 83.7627C105.012 89.9331 114.406 125.143 114.406 125.143H111.837C111.798 125.181 102.979 92.0541 100.947 84.4183Z" fill="#CDCDCD"/>
<path fill-rule="evenodd" clip-rule="evenodd" d="M38.3717 92.0542C35.6494 91.7843 31.0866 95.0623 27.7891 100.037C24.4917 104.973 23.4947 110.025 25.1051 111.954C27.8275 112.224 32.3903 108.946 35.6877 103.971C38.9852 99.0344 40.0205 93.9824 38.3717 92.0542Z" fill="url(#paint19_linear)"/>
<path fill-rule="evenodd" clip-rule="evenodd" d="M10.9184 92.0542C9.30797 93.9824 10.3049 99.0344 13.6024 103.971C16.8998 108.907 21.4243 112.185 24.185 111.954C25.7953 110.025 24.7984 104.973 21.501 100.037C18.2035 95.0623 13.679 91.7843 10.9184 92.0542Z" fill="url(#paint20_linear)"/>
<path fill-rule="evenodd" clip-rule="evenodd" d="M24.6451 82.8757C21.6927 83.9941 19.2771 89.6631 19.2771 96.3734C19.2771 103.084 21.6927 108.753 24.6451 109.871C27.5975 108.753 30.0131 103.084 30.0131 96.3734C30.0131 89.6631 27.5975 83.9941 24.6451 82.8757Z" fill="url(#paint21_linear)"/>
<path fill-rule="evenodd" clip-rule="evenodd" d="M13.564 108.753C13.564 108.058 14.1008 107.519 14.7909 107.519H34.5374C35.2276 107.519 35.7644 108.058 35.7644 108.753V109.177V109.215C35.6494 109.871 33.6939 122.559 33.0421 126.955C32.927 127.804 32.1602 128.459 31.3166 128.459C28.2109 128.459 21.1558 128.459 18.0501 128.459C17.1682 128.459 16.4397 127.842 16.3246 126.955C15.6345 122.559 13.679 109.871 13.6023 109.215V109.177C13.564 109.1 13.564 108.945 13.564 108.753Z" fill="url(#paint22_linear)"/>
<path fill-rule="evenodd" clip-rule="evenodd" d="M103.516 84.4569C103.248 83.5313 102.404 82.8757 101.445 82.8757H46.462C45.8102 82.8757 45.1584 83.1843 44.7749 83.7242C44.3532 84.2641 44.2382 84.9582 44.3915 85.6138C46.4237 93.2111 52.0984 114.537 54.1689 122.328C54.629 124.024 56.1627 125.22 57.9265 125.22C69.9661 125.22 114.367 125.22 114.367 125.22C114.367 125.22 105.548 92.1699 103.516 84.4569Z" fill="url(#paint23_linear)"/>
<path fill-rule="evenodd" clip-rule="evenodd" d="M119.16 125.181H57.1597V126.338C57.1597 127.572 58.1566 128.575 59.3835 128.575H119.16V125.181Z" fill="url(#paint24_linear)"/>
<path fill-rule="evenodd" clip-rule="evenodd" d="M114.367 125.181L147.648 126.492C147.648 127.032 147.418 127.572 147.035 127.958C146.651 128.344 146.115 128.575 145.578 128.575C139.865 128.575 123.838 128.575 117.243 128.575C116.476 128.575 115.747 128.266 115.21 127.727C114.674 127.187 114.367 126.454 114.367 125.683V125.181Z" fill="#CDCDCD"/>
<path fill-rule="evenodd" clip-rule="evenodd" d="M76.5228 99.2272C79.6286 99.2272 82.581 101.772 83.1178 104.858C83.6546 107.981 81.5841 110.488 78.4783 110.488C75.3725 110.488 72.4201 107.943 71.8833 104.858C71.3465 101.772 73.4554 99.2272 76.5228 99.2272Z" fill="white"/>
<path fill-rule="evenodd" clip-rule="evenodd" d="M54.4756 39.0661C54.4756 29.1935 62.4509 21.172 72.2666 21.172H89.8659C99.6816 21.172 107.657 29.1935 107.657 39.0661C107.657 48.9386 99.6816 56.9601 89.8659 56.9601C91.3229 60.7395 92.8183 62.9762 96.9593 65.5215C89.3675 64.3646 84.3062 61.5108 81.8906 56.9601H72.2666C62.4509 56.9987 54.4756 48.9772 54.4756 39.0661Z" fill="white"/>
<path fill-rule="evenodd" clip-rule="evenodd" d="M83.4626 33.1656C83.4626 32.8957 83.3475 32.6257 83.1558 32.4329C82.9641 32.2401 82.6957 32.1244 82.4273 32.1244C79.2832 32.1244 70.081 32.1244 66.9752 32.1244C66.7068 32.1244 66.4384 32.2401 66.2467 32.4329C66.055 32.6257 65.9399 32.8957 65.9399 33.1656C65.9399 33.4356 66.055 33.7055 66.2467 33.8984C66.4384 34.0912 66.7068 34.2069 66.9752 34.2069C70.1193 34.2069 79.3216 34.2069 82.4273 34.2069C82.6957 34.2069 82.9641 34.0912 83.1558 33.8984C83.3475 33.7055 83.4626 33.4356 83.4626 33.1656Z" fill="url(#paint25_linear)"/>
<path fill-rule="evenodd" clip-rule="evenodd" d="M96.2307 40.1844C96.2307 39.9145 96.1157 39.6445 95.924 39.4517C95.7323 39.2589 95.4639 39.1432 95.1955 39.1432C90.5176 39.1432 71.653 39.1432 66.9752 39.1432C66.7068 39.1432 66.4384 39.2589 66.2467 39.4517C66.055 39.6445 65.9399 39.9145 65.9399 40.1844C65.9399 40.4544 66.055 40.7244 66.2467 40.9172C66.4384 41.11 66.7068 41.2257 66.9752 41.2257C71.653 41.2257 90.5176 41.2257 95.1955 41.2257C95.4639 41.2257 95.7323 41.11 95.924 40.9172C96.1157 40.7244 96.2307 40.4544 96.2307 40.1844Z" fill="url(#paint26_linear)"/>
<path fill-rule="evenodd" clip-rule="evenodd" d="M88.102 47.2031C88.102 46.9332 87.987 46.6632 87.7953 46.4704C87.6036 46.2776 87.3352 46.1619 87.0668 46.1619C83.3475 46.1619 70.6944 46.1619 66.9752 46.1619C66.7068 46.1619 66.4384 46.2776 66.2467 46.4704C66.055 46.6632 65.9399 46.9332 65.9399 47.2031C65.9399 47.4731 66.055 47.743 66.2467 47.9359C66.4384 48.1287 66.7068 48.2444 66.9752 48.2444C70.6944 48.2444 83.3475 48.2444 87.0668 48.2444C87.3352 48.2444 87.6036 48.1287 87.7953 47.9359C87.987 47.743 88.102 47.4731 88.102 47.2031Z" fill="url(#paint27_linear)"/>
<defs>
<linearGradient id="paint0_linear" x1="155.75" y1="61.6647" x2="149.771" y2="127.606" gradientUnits="userSpaceOnUse">
<stop stop-color="#93E0BA"/>
<stop offset="1" stop-color="#54BC9E"/>
</linearGradient>
<linearGradient id="paint1_linear" x1="188.025" y1="69.4104" x2="183.901" y2="138.478" gradientUnits="userSpaceOnUse">
<stop stop-color="#6BD7A7"/>
<stop offset="1" stop-color="#1DAA91"/>
</linearGradient>
<linearGradient id="paint2_linear" x1="138.538" y1="71.8288" x2="140.087" y2="121.849" gradientUnits="userSpaceOnUse">
<stop stop-color="#D0C6E1"/>
<stop offset="0.47" stop-color="#EEE8F7"/>
<stop offset="1" stop-color="#F7F2FE"/>
</linearGradient>
<linearGradient id="paint3_linear" x1="119.376" y1="43.4048" x2="125.516" y2="44.8541" gradientUnits="userSpaceOnUse">
<stop stop-color="#FFCAAF"/>
<stop offset="1" stop-color="#FF9D87"/>
</linearGradient>
<linearGradient id="paint4_linear" x1="119.531" y1="24.5796" x2="126.017" y2="34.3251" gradientUnits="userSpaceOnUse">
<stop stop-color="#4E8E9E"/>
<stop offset="1" stop-color="#28465D"/>
</linearGradient>
<linearGradient id="paint5_linear" x1="132.877" y1="10.8388" x2="148.382" y2="37.8556" gradientUnits="userSpaceOnUse">
<stop stop-color="#4E8E9E"/>
<stop offset="1" stop-color="#28465D"/>
</linearGradient>
<linearGradient id="paint6_linear" x1="123.696" y1="32.3999" x2="152.602" y2="57.9507" gradientUnits="userSpaceOnUse">
<stop stop-color="#FFCAAF"/>
<stop offset="1" stop-color="#FF9D87"/>
</linearGradient>
<linearGradient id="paint7_linear" x1="137.9" y1="107.501" x2="138.414" y2="78.6241" gradientUnits="userSpaceOnUse">
<stop stop-color="#4E8E9E"/>
<stop offset="1" stop-color="#28465D"/>
</linearGradient>
<linearGradient id="paint8_linear" x1="139.086" y1="82.8638" x2="139.316" y2="71.5207" gradientUnits="userSpaceOnUse">
<stop stop-color="#4E8E9E"/>
<stop offset="1" stop-color="#28465D"/>
</linearGradient>
<linearGradient id="paint9_linear" x1="145.071" y1="63.9387" x2="145.134" y2="76.0834" gradientUnits="userSpaceOnUse">
<stop stop-color="#D0C6E1"/>
<stop offset="0.47" stop-color="#EEE8F7"/>
<stop offset="1" stop-color="#F7F2FE"/>
</linearGradient>
<linearGradient id="paint10_linear" x1="135.534" y1="65.4119" x2="135.647" y2="76.1678" gradientUnits="userSpaceOnUse">
<stop stop-color="#D0C6E1"/>
<stop offset="0.47" stop-color="#EEE8F7"/>
<stop offset="1" stop-color="#F7F2FE"/>
</linearGradient>
<linearGradient id="paint11_linear" x1="149.441" y1="61.2177" x2="163.764" y2="108.661" gradientUnits="userSpaceOnUse">
<stop stop-color="#4E8E9E"/>
<stop offset="1" stop-color="#28465D"/>
</linearGradient>
<linearGradient id="paint12_linear" x1="94.6586" y1="132.788" x2="113.748" y2="101.648" gradientUnits="userSpaceOnUse">
<stop stop-color="#4E8E9E"/>
<stop offset="1" stop-color="#28465D"/>
</linearGradient>
<linearGradient id="paint13_linear" x1="117.59" y1="77.1799" x2="147.818" y2="89.4828" gradientUnits="userSpaceOnUse">
<stop stop-color="#4E8E9E"/>
<stop offset="1" stop-color="#28465D"/>
</linearGradient>
<linearGradient id="paint14_linear" x1="154.377" y1="55.7148" x2="150.519" y2="97.5232" gradientUnits="userSpaceOnUse">
<stop stop-color="#4E8E9E"/>
<stop offset="1" stop-color="#28465D"/>
</linearGradient>
<linearGradient id="paint15_linear" x1="114.054" y1="115.492" x2="114.423" y2="119.231" gradientUnits="userSpaceOnUse">
<stop stop-color="#FFCAAF"/>
<stop offset="1" stop-color="#FF9D87"/>
</linearGradient>
<linearGradient id="paint16_linear" x1="116.438" y1="116.908" x2="135.106" y2="128.206" gradientUnits="userSpaceOnUse">
<stop stop-color="#FFCAAF"/>
<stop offset="1" stop-color="#FF9D87"/>
</linearGradient>
<linearGradient id="paint17_linear" x1="146.993" y1="142.006" x2="154.772" y2="82.5842" gradientUnits="userSpaceOnUse">
<stop stop-color="#4E8E9E"/>
<stop offset="1" stop-color="#28465D"/>
</linearGradient>
<linearGradient id="paint18_linear" x1="128.71" y1="55.6996" x2="127.65" y2="98.3512" gradientUnits="userSpaceOnUse">
<stop stop-color="#4E8E9E"/>
<stop offset="1" stop-color="#28465D"/>
</linearGradient>
<linearGradient id="paint19_linear" x1="38.8132" y1="91.8083" x2="28.1065" y2="107.097" gradientUnits="userSpaceOnUse">
<stop stop-color="#6BD7A7"/>
<stop offset="1" stop-color="#1DAA91"/>
</linearGradient>
<linearGradient id="paint20_linear" x1="12.3935" y1="93.5675" x2="20.7182" y2="107.012" gradientUnits="userSpaceOnUse">
<stop stop-color="#6BD7A7"/>
<stop offset="1" stop-color="#1DAA91"/>
</linearGradient>
<linearGradient id="paint21_linear" x1="24.4229" y1="81.0968" x2="24.7009" y2="99.2299" gradientUnits="userSpaceOnUse">
<stop stop-color="#6BD7A7"/>
<stop offset="1" stop-color="#1DAA91"/>
</linearGradient>
<linearGradient id="paint22_linear" x1="24.656" y1="109.181" x2="24.656" y2="134.534" gradientUnits="userSpaceOnUse">
<stop stop-color="#F1F9FD"/>
<stop offset="1" stop-color="#CDCDCD"/>
</linearGradient>
<linearGradient id="paint23_linear" x1="74.254" y1="86.2312" x2="74.254" y2="137.463" gradientUnits="userSpaceOnUse">
<stop stop-color="#F1F9FD"/>
<stop offset="1" stop-color="#CDCDCD"/>
</linearGradient>
<linearGradient id="paint24_linear" x1="88.1585" y1="125.45" x2="88.1585" y2="129.562" gradientUnits="userSpaceOnUse">
<stop stop-color="#F1F9FD"/>
<stop offset="1" stop-color="#CDCDCD"/>
</linearGradient>
<linearGradient id="paint25_linear" x1="92.0682" y1="27.075" x2="74.8172" y2="33.0383" gradientUnits="userSpaceOnUse">
<stop stop-color="#4E8E9E"/>
<stop offset="1" stop-color="#28465D"/>
</linearGradient>
<linearGradient id="paint26_linear" x1="94.9241" y1="35.3367" x2="77.6731" y2="41.3" gradientUnits="userSpaceOnUse">
<stop stop-color="#4E8E9E"/>
<stop offset="1" stop-color="#28465D"/>
</linearGradient>
<linearGradient id="paint27_linear" x1="96.6536" y1="40.3397" x2="79.4025" y2="46.303" gradientUnits="userSpaceOnUse">
<stop stop-color="#4E8E9E"/>
<stop offset="1" stop-color="#28465D"/>
</linearGradient>
</defs>
</svg>
