<svg width="171" height="194" viewBox="0 0 171 194" fill="none" xmlns="http://www.w3.org/2000/svg">
<path fill-rule="evenodd" clip-rule="evenodd" d="M113.914 193C136.016 193 160.465 175.729 167.183 150.968C173.9 126.17 161.765 74.7203 136.016 58.9763C110.267 43.2324 86.5399 49.7045 71.4442 61.6306C56.3485 73.5204 56.4568 110.862 47.32 119.916C38.1831 129.006 24.3515 131.333 15.3952 140.278C7.41397 148.204 2.53857 153.986 2.53857 168.966C2.53857 176.856 4.34428 193 24.3515 193H113.914Z" fill="#F1F2F0"/>
<path fill-rule="evenodd" clip-rule="evenodd" d="M65.1242 152.279C65.4493 151.988 65.8826 151.879 66.316 151.915C66.7494 151.952 67.1466 152.17 67.4355 152.497C71.8775 157.842 89.1039 178.495 93.546 183.84C93.8349 184.167 93.9432 184.603 93.9071 185.039C93.871 185.476 93.6543 185.876 93.3293 186.167C91.3791 187.839 87.5871 191.003 85.637 192.675C85.312 192.966 84.8786 193.075 84.4452 193.039C84.0119 193.002 83.6146 192.784 83.3257 192.457C78.8837 187.112 61.6573 166.459 57.2153 161.114C56.9263 160.787 56.818 160.351 56.8541 159.915C56.8902 159.478 57.1069 159.078 57.4319 158.787C59.4182 157.115 63.1741 153.915 65.1242 152.279Z" fill="#FFE612"/>
<path fill-rule="evenodd" clip-rule="evenodd" d="M57.143 159.112L85.2759 192.855C85.0231 192.964 84.7703 193 84.4814 193C84.048 192.964 83.6508 192.745 83.3618 192.418L57.2514 161.076C56.9625 160.748 56.8541 160.312 56.8902 159.876C56.8902 159.621 56.9986 159.33 57.143 159.112Z" fill="#E1B000"/>
<path fill-rule="evenodd" clip-rule="evenodd" d="M65.5215 152.022L74.6945 163.039L66.2799 170.129L57.1069 159.112C57.1792 159.039 57.2153 158.93 57.2875 158.858L65.2326 152.167C65.3409 152.095 65.4493 152.058 65.5215 152.022Z" fill="#F0B40E"/>
<path fill-rule="evenodd" clip-rule="evenodd" d="M65.5215 152.022L93.6543 185.764C93.5821 185.91 93.4738 186.019 93.3293 186.128C91.3792 187.8 87.5872 190.964 85.637 192.636C85.5287 192.745 85.3842 192.818 85.2398 192.891L57.1069 159.149C57.1792 159.003 57.2875 158.894 57.432 158.785L59.8877 156.712L65.1243 152.313C65.2687 152.167 65.377 152.095 65.5215 152.022Z" fill="#FAC60E"/>
<path fill-rule="evenodd" clip-rule="evenodd" d="M93.6542 185.764C93.582 185.91 93.4737 186.019 93.3292 186.128C91.3791 187.801 87.5871 190.964 85.6369 192.636C85.5286 192.746 85.3841 192.818 85.2397 192.891L83.2534 190.491L91.668 183.401L93.6542 185.764Z" fill="#FBCB07"/>
<path fill-rule="evenodd" clip-rule="evenodd" d="M91.6682 183.365L86.8289 177.547L78.4143 184.637L83.2536 190.455L91.6682 183.365Z" fill="#FDCB0A"/>
<path fill-rule="evenodd" clip-rule="evenodd" d="M86.8288 177.547L79.5699 168.82L71.1553 175.947L78.4142 184.674L86.8288 177.547Z" fill="#EEB40D"/>
<path fill-rule="evenodd" clip-rule="evenodd" d="M90.0791 183.765L91.018 184.892L84.8787 190.091L83.9397 188.964L90.0791 183.765Z" fill="#FFE612"/>
<path fill-rule="evenodd" clip-rule="evenodd" d="M87.6594 180.856L88.5984 181.983L82.459 187.182L81.52 186.055L87.6594 180.856Z" fill="#FFE612"/>
<path fill-rule="evenodd" clip-rule="evenodd" d="M85.2397 177.947L86.1787 179.074L80.0393 184.274L79.1003 183.146L85.2397 177.947Z" fill="#FFE612"/>
<path fill-rule="evenodd" clip-rule="evenodd" d="M82.8201 175.038L83.759 176.165L77.6196 181.365L76.6807 180.238L82.8201 175.038Z" fill="#FFE612"/>
<path fill-rule="evenodd" clip-rule="evenodd" d="M80.4004 172.129L81.3393 173.256L75.1999 178.456L74.261 177.329L80.4004 172.129Z" fill="#FFE612"/>
<path fill-rule="evenodd" clip-rule="evenodd" d="M77.9807 169.22L78.9197 170.348L72.7803 175.547L71.8413 174.42L77.9807 169.22Z" fill="#FFE612"/>
<path fill-rule="evenodd" clip-rule="evenodd" d="M75.5613 166.348L76.5002 167.475L70.3608 172.675L69.4219 171.547L75.5613 166.348Z" fill="#FFE612"/>
<path fill-rule="evenodd" clip-rule="evenodd" d="M73.1416 163.439L74.0806 164.566L67.9412 169.766L67.0022 168.639L73.1416 163.439Z" fill="#FFE612"/>
<path fill-rule="evenodd" clip-rule="evenodd" d="M70.6858 160.53L71.6247 161.658L65.4854 166.857L64.5464 165.73L70.6858 160.53Z" fill="#FFE612"/>
<path fill-rule="evenodd" clip-rule="evenodd" d="M68.2661 157.622L69.2051 158.749L63.0657 163.948L62.1267 162.821L68.2661 157.622Z" fill="#FFE612"/>
<path fill-rule="evenodd" clip-rule="evenodd" d="M65.8464 154.713L66.7854 155.84L60.646 161.039L59.707 159.912L65.8464 154.713Z" fill="#FFE612"/>
<path fill-rule="evenodd" clip-rule="evenodd" d="M80.7272 189.255L57.2531 161.076C56.9642 160.748 56.8558 160.312 56.892 159.876C56.9281 159.44 57.1448 159.04 57.4698 158.749L65.1621 152.24C65.3788 152.058 65.6316 151.949 65.9205 151.877L80.7272 189.255Z" fill="#FF6900" fill-opacity="0.5"/>
<path fill-rule="evenodd" clip-rule="evenodd" d="M60.3226 181.256C60.3226 180.819 60.1421 180.419 59.8532 180.092C59.5643 179.801 59.1309 179.619 58.6975 179.619C51.7997 179.619 24.967 179.619 18.0692 179.619C17.6359 179.619 17.2386 179.801 16.9136 180.092C16.6247 180.383 16.4441 180.819 16.4441 181.256C16.4441 183.837 16.4441 188.782 16.4441 191.364C16.4441 191.8 16.6247 192.2 16.9136 192.527C17.2025 192.818 17.6359 193 18.0692 193C24.967 193 51.7997 193 58.6975 193C59.1309 193 59.5281 192.818 59.8532 192.527C60.1421 192.236 60.3226 191.8 60.3226 191.364C60.3226 188.782 60.3226 183.837 60.3226 181.256Z" fill="#FFEA0A"/>
<path fill-rule="evenodd" clip-rule="evenodd" d="M60.2487 180.783C60.2848 180.892 60.2848 181.001 60.3209 181.074V191.509C60.3209 191.618 60.2848 191.727 60.2487 191.8H53.4954V180.747H60.2487V180.783Z" fill="#FECA04"/>
<path fill-rule="evenodd" clip-rule="evenodd" d="M60.2487 180.783C60.2848 180.928 60.3209 181.074 60.3209 181.256C60.3209 183.837 60.3209 188.782 60.3209 191.364C60.3209 191.509 60.2848 191.691 60.2487 191.836H16.4785C16.4424 191.691 16.4062 191.546 16.4062 191.364C16.4062 188.782 16.4062 183.837 16.4062 181.256C16.4062 181.11 16.4424 180.928 16.4785 180.783H60.2487Z" fill="#FCD808"/>
<path fill-rule="evenodd" clip-rule="evenodd" d="M37.1357 191.836H16.4785C16.4424 191.691 16.4062 191.546 16.4062 191.364V181.256C16.4062 181.11 16.4424 180.928 16.4785 180.783H37.1357V191.836Z" fill="#FECA04"/>
<path d="M20.3066 182.274H18.8621V190.382H20.3066V182.274Z" fill="#FFEA0A"/>
<path d="M24.0986 182.274H22.6541V190.382H24.0986V182.274Z" fill="#FFEA0A"/>
<path d="M27.8545 182.274H26.4099V190.382H27.8545V182.274Z" fill="#FFEA0A"/>
<path d="M31.6103 182.274H30.1658V190.382H31.6103V182.274Z" fill="#FFEA0A"/>
<path d="M35.4023 182.274H33.9578V190.382H35.4023V182.274Z" fill="#FFEA0A"/>
<path d="M39.1582 182.274H37.7136V190.382H39.1582V182.274Z" fill="#FFEA0A"/>
<path d="M42.9138 182.274H41.4692V190.382H42.9138V182.274Z" fill="#FFEA0A"/>
<path d="M46.6699 182.274H45.2253V190.382H46.6699V182.274Z" fill="#FFEA0A"/>
<path d="M50.4619 182.274H49.0173V190.382H50.4619V182.274Z" fill="#FFEA0A"/>
<path d="M54.2178 182.274H52.7732V190.382H54.2178V182.274Z" fill="#FFEA0A"/>
<path d="M57.9736 182.274H56.5291V190.382H57.9736V182.274Z" fill="#FFEA0A"/>
<path fill-rule="evenodd" clip-rule="evenodd" d="M46.6338 179.619H58.6959C59.1292 179.619 59.5265 179.801 59.8515 180.092C60.1404 180.383 60.321 180.819 60.321 181.256C60.321 183.837 60.321 188.782 60.321 191.364C60.321 191.8 60.1404 192.2 59.8515 192.527C59.7793 192.6 59.7071 192.636 59.6348 192.709L46.6338 179.619Z" fill="#FF6900" fill-opacity="0.4"/>
<path fill-rule="evenodd" clip-rule="evenodd" d="M12.9756 154.458C12.9756 154.022 13.1562 153.622 13.4451 153.295C13.734 153.004 14.1673 152.822 14.6007 152.822C21.4985 152.822 48.3312 152.822 55.229 152.822C55.6624 152.822 56.0596 153.004 56.3847 153.295C56.6736 153.585 56.8541 154.022 56.8541 154.458C56.8541 157.04 56.8541 161.985 56.8541 164.566C56.8541 165.003 56.6736 165.403 56.3847 165.73C56.0958 166.021 55.6624 166.202 55.229 166.202H14.6007C14.1673 166.202 13.7701 166.021 13.4451 165.73C13.1562 165.439 12.9756 165.003 12.9756 164.566C12.9756 161.985 12.9756 157.04 12.9756 154.458Z" fill="#FFEA0A"/>
<path fill-rule="evenodd" clip-rule="evenodd" d="M56.8179 153.985C56.854 154.131 56.8901 154.276 56.8901 154.458V164.566C56.8901 164.712 56.854 164.894 56.8179 165.039H36.1606V153.985H56.8179Z" fill="#FECA04"/>
<path fill-rule="evenodd" clip-rule="evenodd" d="M56.818 153.985C56.8541 154.131 56.8903 154.276 56.8903 154.458C56.8903 157.04 56.8903 161.985 56.8903 164.566C56.8903 164.712 56.8541 164.894 56.818 165.039H13.0478C13.0117 164.894 12.9756 164.748 12.9756 164.566C12.9756 161.985 12.9756 157.04 12.9756 154.458C12.9756 154.313 13.0117 154.131 13.0478 153.985H56.818Z" fill="#FCD808"/>
<path fill-rule="evenodd" clip-rule="evenodd" d="M19.8011 165.039H13.0478C13.0117 164.93 13.0117 164.821 12.9756 164.748V154.313C12.9756 154.204 13.0117 154.095 13.0478 154.022H19.8011V165.039Z" fill="#FECA04"/>
<path d="M54.3984 155.476H52.9539V163.585H54.3984V155.476Z" fill="#FFEA0A"/>
<path d="M50.6425 155.476H49.198V163.585H50.6425V155.476Z" fill="#FFEA0A"/>
<path d="M46.8867 155.476H45.4421V163.585H46.8867V155.476Z" fill="#FFEA0A"/>
<path d="M43.0947 155.476H41.6501V163.585H43.0947V155.476Z" fill="#FFEA0A"/>
<path d="M39.3388 155.476H37.8943V163.585H39.3388V155.476Z" fill="#FFEA0A"/>
<path d="M35.583 155.476H34.1384V163.585H35.583V155.476Z" fill="#FFEA0A"/>
<path d="M31.791 155.476H30.3464V163.585H31.791V155.476Z" fill="#FFEA0A"/>
<path d="M28.0351 155.476H26.5906V163.585H28.0351V155.476Z" fill="#FFEA0A"/>
<path d="M24.2793 155.476H22.8347V163.585H24.2793V155.476Z" fill="#FFEA0A"/>
<path d="M20.5234 155.476H19.0789V163.585H20.5234V155.476Z" fill="#FFEA0A"/>
<path d="M16.7314 155.476H15.2869V163.585H16.7314V155.476Z" fill="#FFEA0A"/>
<path fill-rule="evenodd" clip-rule="evenodd" d="M50.1731 152.822H55.2652C55.6985 152.822 56.0958 153.004 56.4208 153.295C56.7097 153.585 56.8903 154.022 56.8903 154.458C56.8903 157.04 56.8903 161.985 56.8903 164.566C56.8903 165.003 56.7097 165.403 56.4208 165.73L43.6003 152.822H50.1731Z" fill="#FB7B22" fill-opacity="0.5"/>
<path fill-rule="evenodd" clip-rule="evenodd" d="M51.0775 167.877C51.0775 167.44 50.897 167.04 50.6081 166.713C50.3191 166.422 49.8858 166.241 49.4524 166.241C42.5546 166.241 15.7219 166.241 8.82411 166.241C8.39074 166.241 7.99348 166.422 7.66846 166.713C7.37955 167.004 7.19897 167.44 7.19897 167.877C7.19897 170.458 7.19897 175.403 7.19897 177.985C7.19897 178.421 7.37955 178.821 7.66846 179.148C7.95737 179.439 8.39074 179.621 8.82411 179.621H49.4524C49.8858 179.621 50.283 179.439 50.6081 179.148C50.897 178.858 51.0775 178.421 51.0775 177.985C51.0775 175.403 51.0775 170.422 51.0775 167.877Z" fill="#FFE612"/>
<path fill-rule="evenodd" clip-rule="evenodd" d="M51.0036 167.402C51.0397 167.548 51.0758 167.693 51.0758 167.875C51.0758 170.457 51.0758 175.402 51.0758 177.983C51.0758 178.129 51.0397 178.311 51.0036 178.456H7.23336C7.19725 178.311 7.16113 178.165 7.16113 177.983V172.82V167.875C7.16113 167.73 7.19725 167.548 7.23336 167.402H51.0036Z" fill="#FAC60E"/>
<path d="M17.8869 167.402H10.3391V178.456H17.8869V167.402Z" fill="#FDCB0A"/>
<path d="M29.1907 167.402H17.887V178.456H29.1907V167.402Z" fill="#EEB40D"/>
<path fill-rule="evenodd" clip-rule="evenodd" d="M51.0036 167.403C51.0397 167.512 51.0397 167.621 51.0758 167.693V178.129C51.0758 178.238 51.0397 178.347 51.0036 178.42H36.7385V167.366H51.0036V167.403Z" fill="#F0B40E"/>
<path d="M11.0615 168.857H9.61694V176.965H11.0615V168.857Z" fill="#FFE612"/>
<path d="M14.8174 168.857H13.3728V176.965H14.8174V168.857Z" fill="#FFE612"/>
<path d="M18.6094 168.857H17.1648V176.965H18.6094V168.857Z" fill="#FFE612"/>
<path d="M22.3652 168.857H20.9207V176.965H22.3652V168.857Z" fill="#FFE612"/>
<path d="M26.1211 168.857H24.6765V176.965H26.1211V168.857Z" fill="#FFE612"/>
<path d="M29.9131 168.857H28.4685V176.965H29.9131V168.857Z" fill="#FFE612"/>
<path d="M33.6689 168.857H32.2244V176.965H33.6689V168.857Z" fill="#FFE612"/>
<path d="M37.4248 168.857H35.9802V176.965H37.4248V168.857Z" fill="#FFE612"/>
<path d="M41.2168 168.857H39.7722V176.965H41.2168V168.857Z" fill="#FFE612"/>
<path d="M44.9726 168.857H43.5281V176.965H44.9726V168.857Z" fill="#FFE612"/>
<path d="M48.7285 168.857H47.2839V176.965H48.7285V168.857Z" fill="#FFE612"/>
<path fill-rule="evenodd" clip-rule="evenodd" d="M33.3079 166.203H49.4147C49.8481 166.203 50.2454 166.384 50.5704 166.675C50.8593 166.966 51.0399 167.402 51.0399 167.839C51.0399 170.42 51.0399 175.365 51.0399 177.947C51.0399 178.383 50.8593 178.783 50.5704 179.11C50.2815 179.401 49.8481 179.583 49.4147 179.583H46.5978L33.3079 166.203Z" fill="#FF6900" fill-opacity="0.45"/>
<path fill-rule="evenodd" clip-rule="evenodd" d="M51.0036 178.456C50.9314 178.711 50.7869 178.965 50.6064 179.147C50.3175 179.438 49.8841 179.62 49.4507 179.62H8.7863C8.35293 179.62 7.95568 179.438 7.63065 179.147C7.45008 178.965 7.30563 178.711 7.2334 178.456H51.0036Z" fill="#E1B000"/>
<path fill-rule="evenodd" clip-rule="evenodd" d="M14.9258 141.078C14.9258 140.641 15.1064 140.241 15.3953 139.914C15.6842 139.623 16.1175 139.441 16.5509 139.441C23.4487 139.441 50.2814 139.441 57.1792 139.441C57.6126 139.441 58.0098 139.623 58.3349 139.914C58.6238 140.205 58.8043 140.641 58.8043 141.078C58.8043 143.659 58.8043 148.604 58.8043 151.186C58.8043 151.622 58.6238 152.022 58.3349 152.349C58.0459 152.64 57.6126 152.822 57.1792 152.822H16.5509C16.1175 152.822 15.7203 152.64 15.3953 152.349C15.1064 152.058 14.9258 151.622 14.9258 151.186C14.9258 148.604 14.9258 143.659 14.9258 141.078Z" fill="#FFE612"/>
<path fill-rule="evenodd" clip-rule="evenodd" d="M58.7683 151.659C58.696 151.913 58.5516 152.168 58.371 152.349C58.0821 152.64 57.6487 152.822 57.2154 152.822H16.551C16.1176 152.822 15.7203 152.64 15.3953 152.349C15.2147 152.168 15.0703 151.913 14.998 151.659H58.7683Z" fill="#E1B000"/>
<path fill-rule="evenodd" clip-rule="evenodd" d="M58.7681 140.605C58.8043 140.75 58.8404 140.896 58.8404 141.078C58.8404 143.659 58.8404 148.604 58.8404 151.186C58.8404 151.331 58.8043 151.513 58.7681 151.658H55.6262V140.605H58.7681Z" fill="#FBCB07"/>
<path fill-rule="evenodd" clip-rule="evenodd" d="M58.7682 140.605C58.8043 140.75 58.8405 140.896 58.8405 141.078C58.8405 143.659 58.8405 148.604 58.8405 151.186C58.8405 151.331 58.8043 151.513 58.7682 151.658H14.998C14.9619 151.513 14.9258 151.368 14.9258 151.186C14.9258 148.604 14.9258 143.659 14.9258 141.078C14.9258 140.932 14.9619 140.75 14.998 140.605H58.7682Z" fill="#FAC60E"/>
<path fill-rule="evenodd" clip-rule="evenodd" d="M29.2631 151.658H14.998C14.9619 151.549 14.9619 151.44 14.9258 151.368V140.932C14.9258 140.823 14.9619 140.714 14.998 140.641H29.2631V151.658Z" fill="#F0B40E"/>
<path d="M55.6623 140.605H48.1145V151.658H55.6623V140.605Z" fill="#FDCB0A"/>
<path d="M48.1147 140.605H36.811V151.658H48.1147V140.605Z" fill="#EEB40D"/>
<path d="M56.3486 142.096H54.9041V150.204H56.3486V142.096Z" fill="#FFE612"/>
<path d="M52.5928 142.096H51.1482V150.204H52.5928V142.096Z" fill="#FFE612"/>
<path d="M48.8369 142.096H47.3923V150.204H48.8369V142.096Z" fill="#FFE612"/>
<path d="M45.0449 142.096H43.6003V150.204H45.0449V142.096Z" fill="#FFE612"/>
<path d="M41.289 142.096H39.8445V150.204H41.289V142.096Z" fill="#FFE612"/>
<path d="M37.5332 142.096H36.0886V150.204H37.5332V142.096Z" fill="#FFE612"/>
<path d="M33.7773 142.096H32.3328V150.204H33.7773V142.096Z" fill="#FFE612"/>
<path d="M29.9853 142.096H28.5408V150.204H29.9853V142.096Z" fill="#FFE612"/>
<path d="M26.2295 142.096H24.7849V150.204H26.2295V142.096Z" fill="#FFE612"/>
<path d="M22.4736 142.096H21.0291V150.204H22.4736V142.096Z" fill="#FFE612"/>
<path d="M18.6816 142.096H17.2371V150.204H18.6816V142.096Z" fill="#FFE612"/>
<path fill-rule="evenodd" clip-rule="evenodd" d="M18.1036 148.204C18.1036 148.204 18.862 149.004 19.5843 149.731C20.3066 150.495 21.39 150.786 22.4012 150.495C23.3763 150.204 24.4236 149.913 24.4236 149.913C24.4236 149.913 23.6291 150.677 22.9068 151.404C22.1484 152.131 21.8595 153.222 22.1484 154.24C22.4373 155.222 22.7262 156.276 22.7262 156.276C22.7262 156.276 21.9678 155.476 21.2455 154.749C20.5233 153.986 19.4398 153.695 18.4286 153.986C17.4536 154.276 16.4062 154.567 16.4062 154.567C16.4062 154.567 17.2008 153.804 17.923 153.076C18.6814 152.349 18.9703 151.258 18.6814 150.24C18.3925 149.259 18.1036 148.204 18.1036 148.204Z" fill="white"/>
<path fill-rule="evenodd" clip-rule="evenodd" d="M52.5204 131.988C52.5204 131.988 54.7955 134.315 56.2401 135.805C56.9624 136.569 58.0458 136.86 59.057 136.569C61.0433 136.024 64.1852 135.115 64.1852 135.115C64.1852 135.115 61.8739 137.405 60.3932 138.86C59.6348 139.587 59.3459 140.678 59.6348 141.696C60.1765 143.696 61.0794 146.859 61.0794 146.859C61.0794 146.859 58.8042 144.532 57.3596 143.041C56.6374 142.277 55.5539 141.987 54.5427 142.277C52.5565 142.823 49.4146 143.732 49.4146 143.732C49.4146 143.732 51.7258 141.441 53.2065 139.987C53.9649 139.26 54.2538 138.169 53.9649 137.151C53.3871 135.115 52.5204 131.988 52.5204 131.988Z" fill="white"/>
<path d="M141.289 100.281L144.358 101.118L142.769 107.154C155.012 112.462 159.707 121.152 156.782 132.206L156.096 134.751L139.122 130.17L140.025 126.788C141.578 120.97 138.869 117.88 133.163 116.353C127.421 114.826 123.593 116.135 122.04 121.952C117.598 138.678 152.52 148.968 146.345 172.166C143.42 183.183 134.824 188.455 121.607 186.855L121.029 188.964L126.915 193L120.018 192.745L105.319 188.782L106.908 182.856C94.485 177.511 89.8263 168.675 92.7876 157.658L94.2683 152.095L98.0603 147.441L103.947 154.713L111.242 156.676L109.545 163.076C107.992 168.893 111.025 171.947 116.767 173.475C122.509 175.002 126.663 173.911 128.179 168.093C132.621 151.368 97.6991 141.078 103.875 117.88C104.561 115.335 105.5 113.117 106.764 111.226L112.759 100.645L111.892 106.099C115.973 103.481 121.426 102.463 128.107 103.19L129.696 97.1545L137.75 85.8828L141.289 100.281Z" fill="url(#paint0_linear)"/>
<path fill-rule="evenodd" clip-rule="evenodd" d="M112.145 181.947L106.836 182.892L105.247 188.819L110.375 188.564L112.145 181.947Z" fill="#003F26"/>
<path fill-rule="evenodd" clip-rule="evenodd" d="M156.06 134.715L167.291 127.952L148.259 122.825L139.05 130.133L156.06 134.715Z" fill="url(#paint1_linear)"/>
<path d="M108.786 109.117C101.852 135.115 141 146.677 136.016 165.403C134.283 171.911 129.624 173.147 123.196 171.438C116.767 169.693 113.373 166.275 115.106 159.767L117.02 152.604L97.9881 147.477L96.3269 153.731C93.0405 166.093 98.2409 175.983 112.181 181.947L110.411 188.564L126.879 193L128.649 186.382C143.492 188.164 153.098 182.274 156.385 169.911C163.318 143.914 124.171 132.351 129.155 113.626C130.888 107.117 135.222 105.626 141.614 107.372C148.042 109.117 151.04 112.571 149.306 119.08L148.295 122.861L167.327 127.988L168.085 125.115C171.372 112.753 166.135 103.008 152.412 97.0818L154.218 90.3188L137.75 85.8828L135.944 92.6458C121.246 91.0096 112.036 96.9 108.786 109.117Z" fill="url(#paint2_linear)"/>
<path fill-rule="evenodd" clip-rule="evenodd" d="M156.276 96.9727C156.276 96.9727 156.276 98.6816 156.24 100.1C156.24 101.154 156.782 102.136 157.685 102.645C158.876 103.336 160.393 104.172 160.393 104.172C160.393 104.172 158.696 104.172 157.287 104.136C156.24 104.136 155.265 104.681 154.759 105.59C154.073 106.79 153.242 108.317 153.242 108.317C153.242 108.317 153.242 106.608 153.279 105.19C153.279 104.136 152.737 103.154 151.834 102.645C150.642 101.954 149.125 101.118 149.125 101.118C149.125 101.118 150.823 101.118 152.231 101.154C153.279 101.154 154.254 100.609 154.759 99.6997C155.409 98.4998 156.276 96.9727 156.276 96.9727Z" fill="white"/>
<path fill-rule="evenodd" clip-rule="evenodd" d="M110.447 150.022C110.447 150.022 110.917 150.822 111.35 151.622C111.856 152.531 112.831 153.113 113.878 153.076C114.781 153.076 115.72 153.076 115.72 153.076C115.72 153.076 114.926 153.549 114.131 153.985C113.228 154.495 112.65 155.476 112.686 156.531C112.686 157.44 112.686 158.385 112.686 158.385C112.686 158.385 112.217 157.585 111.784 156.785C111.278 155.876 110.303 155.294 109.256 155.331C108.353 155.331 107.414 155.331 107.414 155.331C107.414 155.331 108.208 154.858 109.003 154.422C109.906 153.913 110.484 152.931 110.447 151.877C110.447 150.968 110.447 150.022 110.447 150.022Z" fill="white"/>
<path fill-rule="evenodd" clip-rule="evenodd" d="M117.634 43.7413C117.634 43.7413 119.296 43.7049 120.234 43.4504C121.173 43.1595 121.679 43.1595 121.896 43.4504C122.149 43.7413 121.932 44.6139 121.173 44.6139C120.415 44.6139 119.368 45.5593 119.368 45.5593L117.634 43.7413Z" fill="#E87965"/>
<path fill-rule="evenodd" clip-rule="evenodd" d="M79.3171 70.4297C79.3171 70.4297 80.7978 72.2477 83.5425 73.2294C86.2871 74.2111 90.5847 72.2477 90.5847 72.2477L92.282 67.0845C92.3182 67.0845 81.9535 64.4302 79.3171 70.4297Z" fill="url(#paint3_linear)"/>
<path fill-rule="evenodd" clip-rule="evenodd" d="M113.914 44.723C113.914 44.723 114.962 43.4504 116.37 43.4504C117.779 43.4504 119.368 44.9775 121.137 45.7047C122.943 46.4319 125.868 46.6501 126.879 46.7955C127.89 46.941 127.927 48.1408 126.879 48.2136C125.832 48.2863 122.329 48.3226 119.801 47.7772C117.309 47.2318 116.334 47.7772 116.334 47.7772L113.914 44.723Z" fill="url(#paint4_linear)"/>
<path fill-rule="evenodd" clip-rule="evenodd" d="M83.1813 114.498L102.177 115.662L92.3543 76.6108C92.3543 76.6108 89.2846 77.0108 83.4702 77.6289C77.6559 78.2471 82.0979 94.6455 82.0979 94.6455L83.1813 114.498Z" fill="url(#paint5_linear)"/>
<path fill-rule="evenodd" clip-rule="evenodd" d="M83.1814 72.284C83.1814 72.284 84.4454 74.9383 84.012 77.6289C83.5787 80.3196 89.1041 80.3196 89.1041 80.3196L92.3183 76.6472C92.3183 76.6472 90.7654 75.8109 90.5487 71.3386C90.2959 66.7936 83.1814 72.284 83.1814 72.284Z" fill="#E87965"/>
<path fill-rule="evenodd" clip-rule="evenodd" d="M78.3059 66.6845C78.3059 66.6845 75.7418 65.7391 75.0918 66.6845C74.4417 67.6299 74.2973 69.3388 75.7418 70.1751C77.1864 71.0114 80.7256 70.1751 80.7256 70.1751L78.3059 66.6845Z" fill="url(#paint6_linear)"/>
<path fill-rule="evenodd" clip-rule="evenodd" d="M88.779 50.7951C88.779 50.7951 90.8736 51.486 92.0653 53.6676C93.4377 56.2128 93.9433 59.9942 93.9433 59.9942L92.8599 61.5941L84.8425 52.2859L88.779 50.7951Z" fill="url(#paint7_linear)"/>
<path fill-rule="evenodd" clip-rule="evenodd" d="M93.3293 60.9397C93.3293 60.9397 93.546 59.2671 94.3044 59.3035C95.0628 59.3399 95.749 60.2489 95.6407 61.8487C95.5323 63.4486 94.3044 63.994 94.3044 63.994L93.3293 60.9397Z" fill="url(#paint8_linear)"/>
<path fill-rule="evenodd" clip-rule="evenodd" d="M77.1504 57.7036C75.6336 60.2852 75.8503 62.1032 77.1504 64.7939C78.4505 67.4845 80.5451 70.7933 82.0981 71.8114C83.6148 72.8295 87.6957 72.6113 89.5014 71.8114C91.3071 71.0115 93.4379 69.448 93.9435 67.3754C94.4852 65.3029 94.4852 64.1394 93.3295 60.9033C92.1378 57.7036 91.3433 54.8312 88.9236 53.1586C86.5762 51.5951 79.0284 54.5039 77.1504 57.7036Z" fill="url(#paint9_linear)"/>
<path fill-rule="evenodd" clip-rule="evenodd" d="M76.1031 66.2846C76.1031 66.2846 71.7333 61.7395 73.1778 56.6491C74.6224 51.5587 76.7531 51.6314 78.2338 49.4134C79.7145 47.1955 81.2312 43.8503 83.2175 43.4867C85.2399 43.1231 88.8874 44.2139 89.7903 48.5044C90.6931 52.7949 80.5451 54.722 79.1366 55.6674C77.6921 56.6128 76.1392 60.3942 78.7394 67.6299L76.1031 66.2846Z" fill="url(#paint10_linear)"/>
<path fill-rule="evenodd" clip-rule="evenodd" d="M96.4714 180.601C96.4714 180.601 100.624 187.473 107.269 188.491C107.269 188.491 108.606 191.291 108.606 193H89.7903V190.527C89.7903 190.527 89.6097 183.51 90.2959 180.601C91.0181 177.692 96.4714 180.601 96.4714 180.601Z" fill="url(#paint11_linear)"/>
<path fill-rule="evenodd" clip-rule="evenodd" d="M76.6446 179.292C76.6446 179.292 77.5114 187.182 78.7031 189.873V193.036H64.1853V189.873C64.1853 189.873 67.255 179.074 68.9885 177.329C70.7581 175.547 76.6446 179.292 76.6446 179.292Z" fill="url(#paint12_linear)"/>
<path fill-rule="evenodd" clip-rule="evenodd" d="M83.1814 114.498L102.177 115.662L101.563 119.916L79.895 118.534L83.1814 114.498Z" fill="url(#paint13_linear)"/>
<path fill-rule="evenodd" clip-rule="evenodd" d="M76.1031 123.407C76.1031 123.407 73.539 157.512 66.894 177.256C66.894 177.256 67.5441 179.656 77.656 179.147C77.656 179.147 85.4928 144.677 88.3097 129.77C88.3819 129.297 88.7069 128.861 89.1042 128.606C89.5376 128.352 90.0432 128.315 90.5126 128.461C90.9821 128.606 91.3071 129.079 91.3071 129.588C91.2349 134.933 90.9099 164.13 89.3931 180.601H97.7716C97.7716 180.601 104.164 141.15 103.044 124.752V119.189C103.044 119.189 84.0482 117.916 79.3173 117.734C74.5863 117.516 76.1031 123.407 76.1031 123.407Z" fill="url(#paint14_linear)"/>
<path fill-rule="evenodd" clip-rule="evenodd" d="M86.2871 81.3014C86.2871 81.3014 88.2373 82.6104 88.8512 82.974C89.4651 83.3012 90.4402 82.6467 90.4402 82.6467C90.4402 82.6467 92.3182 80.4288 92.3182 79.9197C92.3182 79.3743 89.3929 78.2835 89.3929 78.2835L88.4178 78.4289L85.8176 78.8289L86.2871 81.3014Z" fill="url(#paint15_linear)"/>
<path fill-rule="evenodd" clip-rule="evenodd" d="M88.4541 78.3925L84.951 83.1557L83.2175 77.0108L84.0843 75.5564C84.6621 76.6108 85.89 77.2653 88.4541 78.3925Z" fill="url(#paint16_linear)"/>
<path fill-rule="evenodd" clip-rule="evenodd" d="M88.4541 78.3926L93.0406 81.7377L92.3544 76.611L91.1627 74.7566C91.1265 74.7566 91.1627 76.8655 88.4541 78.3926Z" fill="url(#paint17_linear)"/>
<path fill-rule="evenodd" clip-rule="evenodd" d="M88.4541 82.7194L89.1042 108.826L92.3544 112.244L95.6408 108.826L90.7654 81.7377L88.4541 82.7194Z" fill="url(#paint18_linear)"/>
<path fill-rule="evenodd" clip-rule="evenodd" d="M91.1265 74.7565C91.1265 74.7565 107.233 47.9954 113.048 44.4321C113.048 44.4321 116.479 45.2321 117.779 48.0318C117.779 48.0318 103.658 64.8666 98.4576 78.3198C98.4576 78.3198 105.03 109.59 104.669 124.243L98.4576 126.206C98.4937 126.17 94.5212 81.4468 91.1265 74.7565Z" fill="url(#paint19_linear)"/>
<path fill-rule="evenodd" clip-rule="evenodd" d="M44.395 51.3769C44.395 51.3769 42.0115 51.3042 40.928 50.1043C39.8085 48.9044 39.014 49.2316 38.6529 49.4862C38.2917 49.7407 37.75 50.3588 39.014 51.7041C40.278 53.0495 40.278 52.1768 40.603 53.4131C40.8919 54.6493 44.395 51.3769 44.395 51.3769Z" fill="#E87965"/>
<path fill-rule="evenodd" clip-rule="evenodd" d="M50.1731 52.7586C50.1731 52.7586 48.0785 50.8315 46.2006 50.8315C44.3227 50.8315 41.3613 53.3403 39.0861 53.3403C36.8471 53.3403 34.3191 52.7222 33.9941 53.3403C33.6329 53.9585 33.1995 54.8675 36.2331 56.2491C39.9168 57.9217 43.9254 55.7037 45.0449 56.2491C46.2006 56.7946 48.873 59.0125 48.873 59.0125L50.1731 52.7586Z" fill="url(#paint20_linear)"/>
<path fill-rule="evenodd" clip-rule="evenodd" d="M83.1813 77.011C83.1813 77.011 85.2037 80.6834 86.1066 92.6822C87.0094 104.717 84.1203 127.588 84.1203 127.588L73.6472 122.134C73.6472 122.134 78.2698 101.409 77.6198 83.8467C77.6198 83.8467 65.1965 68.8299 45.0088 58.1764C45.0088 58.1764 48.8008 55.3039 50.137 52.7587C50.137 52.7587 71.1915 65.8484 81.7368 77.0473C81.7729 77.011 82.2424 77.6655 83.1813 77.011Z" fill="url(#paint21_linear)"/>
<path fill-rule="evenodd" clip-rule="evenodd" d="M79.1005 190.964C79.1005 190.673 78.8477 190.418 78.5587 190.418C76.1752 190.418 66.7856 190.418 64.4021 190.418C64.1131 190.418 63.8604 190.673 63.8604 190.964C63.8604 191.4 63.8604 192.018 63.8604 192.455C63.8604 192.745 64.1131 193 64.4021 193C66.7856 193 76.1752 193 78.5587 193C78.8477 193 79.1005 192.745 79.1005 192.455C79.1005 192.018 79.1005 191.4 79.1005 190.964Z" fill="url(#paint22_linear)"/>
<path fill-rule="evenodd" clip-rule="evenodd" d="M108.606 190.964C108.606 190.818 108.534 190.673 108.461 190.564C108.353 190.455 108.209 190.418 108.064 190.418C105.283 190.418 92.7517 190.418 89.9709 190.418C89.8265 190.418 89.682 190.491 89.5737 190.564C89.4653 190.673 89.4292 190.818 89.4292 190.964C89.4292 191.4 89.4292 192.018 89.4292 192.455C89.4292 192.6 89.5014 192.746 89.5737 192.855C89.682 192.964 89.8265 193 89.9709 193C92.7517 193 105.283 193 108.064 193C108.209 193 108.353 192.927 108.461 192.855C108.57 192.746 108.606 192.6 108.606 192.455C108.606 192.018 108.606 191.4 108.606 190.964Z" fill="url(#paint23_linear)"/>
<path fill-rule="evenodd" clip-rule="evenodd" d="M45.0449 32.2514L47.0673 35.7784C47.0673 35.7784 51.3288 30.288 58.696 32.2514C58.696 32.2514 60.1767 28.1427 56.3847 24.5794C56.3847 24.5431 50.1009 26.2156 45.0449 32.2514Z" fill="url(#paint24_linear)"/>
<path fill-rule="evenodd" clip-rule="evenodd" d="M84.4816 0L81.8813 5.49039C81.8813 5.49039 84.626 12.0352 91.0182 14.7986C91.0182 14.7986 92.6072 8.47193 92.3183 6.10852C92.3183 6.10852 86.504 6.90844 84.4816 0Z" fill="url(#paint25_linear)"/>
<path fill-rule="evenodd" clip-rule="evenodd" d="M115.901 19.1981C115.901 19.1981 116.767 13.6714 126.265 9.05362L127.06 3.56323C127.024 3.56323 117.129 9.45359 115.901 19.1981Z" fill="url(#paint26_linear)"/>
<path fill-rule="evenodd" clip-rule="evenodd" d="M134.5 31.4153C134.5 31.4153 134.825 32.3243 137.822 31.1244C140.856 29.9245 149.053 25.8885 149.053 25.8885L150.751 33.197C150.751 33.197 139.7 37.4875 138.761 37.7056C137.822 37.9238 137.244 38.0692 136.847 37.4875C136.45 36.8693 134.68 33.2697 134.5 31.4153Z" fill="url(#paint27_linear)"/>
<path fill-rule="evenodd" clip-rule="evenodd" d="M152.412 52.2496C152.412 52.2496 155.445 52.7586 156.565 50.7952C156.565 50.7952 156.493 56.1765 158.696 58.1763C160.935 60.2125 164.474 58.1763 164.474 58.1763L160.935 63.9212C160.935 63.9212 155.807 63.0486 154.109 59.6307C152.412 56.2128 152.412 52.2496 152.412 52.2496Z" fill="url(#paint28_linear)"/>
<path fill-rule="evenodd" clip-rule="evenodd" d="M134.499 66.5027C134.499 66.5027 137.208 70.1388 139.592 70.9387C139.592 70.9387 139.772 79.047 132.477 83.9193C132.477 83.9193 128.829 80.756 127.71 76.6473C127.71 76.6109 133.885 73.1567 134.499 66.5027Z" fill="url(#paint29_linear)"/>
<path fill-rule="evenodd" clip-rule="evenodd" d="M36.233 77.3745C36.233 77.3745 35.4385 83.7739 44.467 82.9376C44.467 82.9376 45.8032 85.5556 44.467 90.1733C44.467 90.1733 35.6191 90.3551 32.9466 83.5194C32.9105 83.5194 33.7773 79.4107 36.233 77.3745Z" fill="url(#paint30_linear)"/>
<path fill-rule="evenodd" clip-rule="evenodd" d="M3.15265 73.9203L0.0107278 76.1383C0.0107278 76.1383 -0.458755 84.5375 4.8139 89.6643C4.8139 89.6643 7.63079 89.1916 9.61707 85.6283C9.65318 85.6283 3.69436 83.5557 3.15265 73.9203Z" fill="url(#paint31_linear)"/>
<path fill-rule="evenodd" clip-rule="evenodd" d="M36.1609 117.225C36.1609 117.225 40.0973 116.462 44.3588 110.317L47.6451 114.535C47.6451 114.535 44.1421 121.443 38.0749 120.68L36.1609 117.225Z" fill="url(#paint32_linear)"/>
<path fill-rule="evenodd" clip-rule="evenodd" d="M59.5627 118.789C59.5627 118.789 65.016 121.879 69.8552 117.698L70.5775 124.207C70.5775 124.207 67.7245 126.315 64.3298 125.952C60.9351 125.588 59.5627 123.843 59.5627 123.843V118.789Z" fill="url(#paint33_linear)"/>
<path fill-rule="evenodd" clip-rule="evenodd" d="M18.0317 114.025C19.2596 114.753 19.4762 116.68 18.5012 118.352C17.5261 120.025 15.7565 120.825 14.5286 120.098C14.4564 120.061 14.3842 119.989 14.3119 119.952L13.6619 119.48L13.7702 119.261C13.3007 118.352 13.373 116.971 14.0591 115.771C14.7453 114.535 15.901 113.807 16.9122 113.771L17.1288 113.407L18.0317 114.025Z" fill="#EFA419"/>
<path fill-rule="evenodd" clip-rule="evenodd" d="M17.1288 113.407C18.3567 114.135 18.5733 116.062 17.5983 117.734C16.6232 119.407 14.8536 120.207 13.6257 119.48C12.3978 118.752 12.1812 116.825 13.1562 115.153C14.1313 113.48 15.9009 112.68 17.1288 113.407Z" fill="#FEE001"/>
<path fill-rule="evenodd" clip-rule="evenodd" d="M16.8398 113.916C17.851 114.498 18.0315 116.134 17.237 117.516C16.4425 118.898 14.9618 119.589 13.9506 118.971C12.9395 118.389 12.7589 116.753 13.5534 115.371C14.3479 113.989 15.8286 113.335 16.8398 113.916Z" fill="#EFA419"/>
<path fill-rule="evenodd" clip-rule="evenodd" d="M14.3118 114.789L16.9843 117.48C16.7315 117.916 16.3703 118.28 16.0092 118.534L13.5173 116.025C13.5896 115.843 13.6618 115.662 13.7701 115.516C13.9146 115.225 14.0952 114.971 14.3118 114.789ZM15.2147 114.171L17.4177 116.389C17.3454 116.68 17.2732 116.934 17.1287 117.225L14.5285 114.607C14.7452 114.389 14.9619 114.28 15.2147 114.171Z" fill="#FEE001"/>
<path fill-rule="evenodd" clip-rule="evenodd" d="M105.825 24.216C107.306 25.0886 107.558 27.4157 106.403 29.4155C105.247 31.4516 103.116 32.397 101.636 31.5244C101.527 31.4516 101.455 31.4153 101.347 31.3426L100.552 30.7972L100.697 30.5426C100.119 29.4155 100.227 27.7793 101.058 26.3249C101.889 24.8704 103.261 23.9614 104.489 23.8887L104.742 23.4524L105.825 24.216Z" fill="#EFA419"/>
<path fill-rule="evenodd" clip-rule="evenodd" d="M104.741 23.4887C106.222 24.3613 106.475 26.6884 105.319 28.6882C104.164 30.7244 102.033 31.6698 100.552 30.7971C99.0716 29.9245 98.8188 27.5974 99.9744 25.5976C101.13 23.5614 103.261 22.6161 104.741 23.4887Z" fill="#FEE001"/>
<path fill-rule="evenodd" clip-rule="evenodd" d="M104.38 24.107C105.608 24.8342 105.825 26.7612 104.85 28.4338C103.875 30.1064 102.105 30.9063 100.877 30.1791C99.6493 29.4519 99.4326 27.5248 100.408 25.8522C101.383 24.1797 103.152 23.3797 104.38 24.107Z" fill="#EFA419"/>
<path fill-rule="evenodd" clip-rule="evenodd" d="M101.347 25.1249L104.561 28.361C104.236 28.9064 103.802 29.3063 103.369 29.5972L100.372 26.5793C100.444 26.3612 100.552 26.143 100.661 25.9612C100.877 25.6703 101.094 25.3794 101.347 25.1249ZM102.43 24.3977L105.103 27.0884C105.03 27.4156 104.922 27.7428 104.777 28.0701L101.636 24.9067C101.852 24.6886 102.141 24.5068 102.43 24.3977Z" fill="#FEE001"/>
<path fill-rule="evenodd" clip-rule="evenodd" d="M19.4761 32.2152C17.8871 33.1242 17.6343 35.633 18.8622 37.8146C20.1262 39.9963 22.4014 41.0143 23.9904 40.069C24.0987 39.9963 24.2071 39.9235 24.2793 39.8508L25.146 39.2691L25.0016 38.9782C25.6155 37.7783 25.5072 36.033 24.6043 34.4331C23.7015 32.8697 22.2569 31.8879 20.9207 31.8152L20.6679 31.3425L19.4761 32.2152Z" fill="#EFA419"/>
<path fill-rule="evenodd" clip-rule="evenodd" d="M20.6316 31.4153C19.0426 32.3243 18.7898 34.8331 20.0177 37.0147C21.2817 39.1964 23.5569 40.2144 25.1459 39.2691C26.7349 38.3601 26.9877 35.8512 25.7598 33.6696C24.532 31.5243 22.2207 30.5063 20.6316 31.4153Z" fill="#FEE001"/>
<path fill-rule="evenodd" clip-rule="evenodd" d="M21.029 32.1062C19.7289 32.8698 19.4761 34.9423 20.5234 36.7603C21.5707 38.5783 23.4847 39.4146 24.7848 38.6511C26.0849 37.8875 26.3377 35.815 25.2904 33.9969C24.2431 32.1789 22.3291 31.3426 21.029 32.1062Z" fill="#EFA419"/>
<path fill-rule="evenodd" clip-rule="evenodd" d="M24.3153 33.197L20.8483 36.6876C21.2095 37.2694 21.6428 37.7057 22.1484 38.0329L25.3626 34.7969C25.2904 34.5787 25.182 34.3605 25.0376 34.106C24.8209 33.7788 24.5681 33.4879 24.3153 33.197ZM23.1235 32.3971L20.2705 35.2696C20.3427 35.6332 20.4511 35.9968 20.6316 36.324L23.9903 32.9425C23.7375 32.7243 23.4485 32.5425 23.1235 32.3971Z" fill="#FEE001"/>
<path fill-rule="evenodd" clip-rule="evenodd" d="M163.824 87.9917C163.174 89.337 164.113 91.3732 165.919 92.6095C167.724 93.8094 169.711 93.7366 170.361 92.3913C170.397 92.3186 170.433 92.2095 170.469 92.1004L170.794 91.3005L170.577 91.1551C170.469 89.9915 169.602 88.6462 168.302 87.7735C167.002 86.9009 165.594 86.7191 164.655 87.1918L164.257 86.9373L163.824 87.9917Z" fill="#EFA419"/>
<path fill-rule="evenodd" clip-rule="evenodd" d="M164.257 86.9373C163.607 88.2826 164.546 90.3188 166.352 91.555C168.158 92.7549 170.144 92.6822 170.794 91.3369C171.444 89.9916 170.505 87.9554 168.699 86.7192C166.894 85.4829 164.907 85.592 164.257 86.9373Z" fill="#FEE001"/>
<path fill-rule="evenodd" clip-rule="evenodd" d="M164.799 87.3009C164.257 88.4281 165.052 90.137 166.532 91.1187C168.049 92.1368 169.71 92.0277 170.252 90.9369C170.794 89.8098 169.999 88.1008 168.519 87.1191C167.002 86.101 165.341 86.1737 164.799 87.3009Z" fill="#EFA419"/>
<path fill-rule="evenodd" clip-rule="evenodd" d="M167.508 86.8645L166.749 90.9369C167.255 91.2641 167.76 91.4459 168.23 91.4823L168.916 87.7008C168.772 87.5554 168.591 87.4099 168.41 87.3009C168.085 87.1191 167.797 86.9736 167.508 86.8645ZM166.352 86.7191L165.738 90.0642C165.955 90.3188 166.171 90.5369 166.46 90.7551L167.183 86.7918C166.894 86.7191 166.605 86.6827 166.352 86.7191Z" fill="#FEE001"/>
<path fill-rule="evenodd" clip-rule="evenodd" d="M113.12 66.612C111.784 67.3756 111.567 69.4845 112.614 71.3025C113.662 73.1205 115.576 73.9568 116.876 73.1932C116.948 73.1569 117.056 73.0842 117.129 73.0114L117.851 72.5024L117.706 72.2842C118.212 71.3025 118.14 69.8117 117.381 68.5028C116.623 67.1938 115.395 66.3939 114.312 66.3212L114.095 65.9212L113.12 66.612Z" fill="#EFA419"/>
<path fill-rule="evenodd" clip-rule="evenodd" d="M114.059 65.9211C112.723 66.6847 112.506 68.7935 113.553 70.6116C114.601 72.4296 116.515 73.2659 117.815 72.5023C119.151 71.7387 119.368 69.6298 118.32 67.8118C117.309 66.0302 115.395 65.1575 114.059 65.9211Z" fill="#FEE001"/>
<path fill-rule="evenodd" clip-rule="evenodd" d="M114.384 66.5028C113.301 67.1573 113.084 68.8663 113.951 70.3934C114.817 71.8842 116.406 72.6114 117.49 71.9569C118.573 71.3024 118.79 69.5935 117.923 68.0663C117.093 66.5392 115.467 65.8484 114.384 66.5028Z" fill="#EFA419"/>
<path fill-rule="evenodd" clip-rule="evenodd" d="M117.129 67.4118L114.239 70.3206C114.528 70.7933 114.89 71.1933 115.323 71.4478L117.995 68.7571C117.923 68.5753 117.851 68.3935 117.743 68.1754C117.562 67.8845 117.345 67.63 117.129 67.4118ZM116.154 66.7573L113.77 69.1571C113.842 69.448 113.914 69.7389 114.059 70.0297L116.876 67.1936C116.659 67.0118 116.406 66.8664 116.154 66.7573Z" fill="#FEE001"/>
<defs>
<linearGradient id="paint0_linear" x1="112.468" y1="123.168" x2="124.402" y2="143.739" gradientUnits="userSpaceOnUse">
<stop stop-color="#33946D"/>
<stop offset="1" stop-color="#0E5E3E"/>
</linearGradient>
<linearGradient id="paint1_linear" x1="155.848" y1="124.349" x2="147.563" y2="138.923" gradientUnits="userSpaceOnUse">
<stop stop-color="#33946D"/>
<stop offset="1" stop-color="#0E5E3E"/>
</linearGradient>
<linearGradient id="paint2_linear" x1="149.39" y1="90.2025" x2="99.7848" y2="233.788" gradientUnits="userSpaceOnUse">
<stop stop-color="#74D5CE"/>
<stop offset="0.23" stop-color="#40B889"/>
<stop offset="1" stop-color="#14817B"/>
</linearGradient>
<linearGradient id="paint3_linear" x1="56.8622" y1="70.0055" x2="92.3281" y2="70.0055" gradientUnits="userSpaceOnUse">
<stop stop-color="#683957"/>
<stop offset="1" stop-color="#331C3C"/>
</linearGradient>
<linearGradient id="paint4_linear" x1="115.429" y1="45.5478" x2="122.749" y2="45.9821" gradientUnits="userSpaceOnUse">
<stop stop-color="#FE8C77"/>
<stop offset="1" stop-color="#FDCB9F"/>
</linearGradient>
<linearGradient id="paint5_linear" x1="89.6517" y1="80.5003" x2="92.6681" y2="115.495" gradientUnits="userSpaceOnUse">
<stop stop-color="#EFE3FE"/>
<stop offset="1" stop-color="#B3A2BF"/>
</linearGradient>
<linearGradient id="paint6_linear" x1="74.5958" y1="68.4125" x2="95.628" y2="68.4125" gradientUnits="userSpaceOnUse">
<stop stop-color="#FE8C77"/>
<stop offset="1" stop-color="#FDCB9F"/>
</linearGradient>
<linearGradient id="paint7_linear" x1="86.9966" y1="49.9334" x2="90.964" y2="58.0595" gradientUnits="userSpaceOnUse">
<stop stop-color="#683957"/>
<stop offset="1" stop-color="#331C3C"/>
</linearGradient>
<linearGradient id="paint8_linear" x1="94.8478" y1="63.7879" x2="94.2075" y2="59.2264" gradientUnits="userSpaceOnUse">
<stop stop-color="#FE8C77"/>
<stop offset="1" stop-color="#FDCB9F"/>
</linearGradient>
<linearGradient id="paint9_linear" x1="86.1119" y1="73.0233" x2="84.2915" y2="53.7073" gradientUnits="userSpaceOnUse">
<stop stop-color="#FE8C77"/>
<stop offset="1" stop-color="#FDCB9F"/>
</linearGradient>
<linearGradient id="paint10_linear" x1="83.3994" y1="46.2768" x2="77.542" y2="66.703" gradientUnits="userSpaceOnUse">
<stop stop-color="#683957"/>
<stop offset="1" stop-color="#331C3C"/>
</linearGradient>
<linearGradient id="paint11_linear" x1="99.7774" y1="178.234" x2="99.0771" y2="191.802" gradientUnits="userSpaceOnUse">
<stop stop-color="#EFE3FE"/>
<stop offset="1" stop-color="#B3A2BF"/>
</linearGradient>
<linearGradient id="paint12_linear" x1="72.193" y1="176.81" x2="71.4927" y2="190.378" gradientUnits="userSpaceOnUse">
<stop stop-color="#EFE3FE"/>
<stop offset="1" stop-color="#B3A2BF"/>
</linearGradient>
<linearGradient id="paint13_linear" x1="91.0269" y1="114.505" x2="91.0269" y2="121.172" gradientUnits="userSpaceOnUse">
<stop stop-color="#5A3B4E"/>
<stop offset="1" stop-color="#321226"/>
</linearGradient>
<linearGradient id="paint14_linear" x1="82.8758" y1="180.462" x2="88.514" y2="118.23" gradientUnits="userSpaceOnUse">
<stop stop-color="#683957"/>
<stop offset="1" stop-color="#331C3C"/>
</linearGradient>
<linearGradient id="paint15_linear" x1="88.677" y1="78.3329" x2="90.0342" y2="83.1004" gradientUnits="userSpaceOnUse">
<stop stop-color="#683957"/>
<stop offset="1" stop-color="#331C3C"/>
</linearGradient>
<linearGradient id="paint16_linear" x1="85.3578" y1="74.9744" x2="87.1509" y2="85.6242" gradientUnits="userSpaceOnUse">
<stop stop-color="#EFE3FE"/>
<stop offset="1" stop-color="#B3A2BF"/>
</linearGradient>
<linearGradient id="paint17_linear" x1="90.1107" y1="74.8927" x2="91.3142" y2="84.7269" gradientUnits="userSpaceOnUse">
<stop stop-color="#EFE3FE"/>
<stop offset="1" stop-color="#B3A2BF"/>
</linearGradient>
<linearGradient id="paint18_linear" x1="92.0915" y1="106.631" x2="89.1256" y2="82.345" gradientUnits="userSpaceOnUse">
<stop stop-color="#683957"/>
<stop offset="1" stop-color="#331C3C"/>
</linearGradient>
<linearGradient id="paint19_linear" x1="105.457" y1="69.4921" x2="111.817" y2="122.515" gradientUnits="userSpaceOnUse">
<stop stop-color="#683957"/>
<stop offset="1" stop-color="#331C3C"/>
</linearGradient>
<linearGradient id="paint20_linear" x1="49.6094" y1="55.4404" x2="39.7715" y2="53.2447" gradientUnits="userSpaceOnUse">
<stop stop-color="#FE8C77"/>
<stop offset="1" stop-color="#FDCB9F"/>
</linearGradient>
<linearGradient id="paint21_linear" x1="65.0191" y1="70.6782" x2="73.3858" y2="124.903" gradientUnits="userSpaceOnUse">
<stop stop-color="#683957"/>
<stop offset="1" stop-color="#331C3C"/>
</linearGradient>
<linearGradient id="paint22_linear" x1="71.4505" y1="188.873" x2="71.4505" y2="193.007" gradientUnits="userSpaceOnUse">
<stop stop-color="#683957"/>
<stop offset="1" stop-color="#331C3C"/>
</linearGradient>
<linearGradient id="paint23_linear" x1="98.9016" y1="188.298" x2="99.0496" y2="192.932" gradientUnits="userSpaceOnUse">
<stop stop-color="#683957"/>
<stop offset="1" stop-color="#331C3C"/>
</linearGradient>
<linearGradient id="paint24_linear" x1="52.2193" y1="24.7005" x2="52.1029" y2="40.7404" gradientUnits="userSpaceOnUse">
<stop stop-color="#74D5CE"/>
<stop offset="0.23" stop-color="#40B889"/>
<stop offset="1" stop-color="#14817B"/>
</linearGradient>
<linearGradient id="paint25_linear" x1="87.4618" y1="0.164474" x2="86.6389" y2="21.3115" gradientUnits="userSpaceOnUse">
<stop stop-color="#74D5CE"/>
<stop offset="0.23" stop-color="#40B889"/>
<stop offset="1" stop-color="#14817B"/>
</linearGradient>
<linearGradient id="paint26_linear" x1="121.888" y1="3.75104" x2="121.029" y2="26.0861" gradientUnits="userSpaceOnUse">
<stop stop-color="#74D5CE"/>
<stop offset="0.23" stop-color="#40B889"/>
<stop offset="1" stop-color="#14817B"/>
</linearGradient>
<linearGradient id="paint27_linear" x1="142.813" y1="26.0272" x2="142.721" y2="43.1635" gradientUnits="userSpaceOnUse">
<stop stop-color="#74D5CE"/>
<stop offset="0.23" stop-color="#40B889"/>
<stop offset="1" stop-color="#14817B"/>
</linearGradient>
<linearGradient id="paint28_linear" x1="158.63" y1="50.9649" x2="158.294" y2="69.76" gradientUnits="userSpaceOnUse">
<stop stop-color="#74D5CE"/>
<stop offset="0.23" stop-color="#40B889"/>
<stop offset="1" stop-color="#14817B"/>
</linearGradient>
<linearGradient id="paint29_linear" x1="134.067" y1="66.6851" x2="132.984" y2="91.5525" gradientUnits="userSpaceOnUse">
<stop stop-color="#74D5CE"/>
<stop offset="0.23" stop-color="#40B889"/>
<stop offset="1" stop-color="#14817B"/>
</linearGradient>
<linearGradient id="paint30_linear" x1="39.3031" y1="77.5088" x2="39.0034" y2="95.8556" gradientUnits="userSpaceOnUse">
<stop stop-color="#74D5CE"/>
<stop offset="0.23" stop-color="#40B889"/>
<stop offset="1" stop-color="#14817B"/>
</linearGradient>
<linearGradient id="paint31_linear" x1="5.27638" y1="74.0872" x2="3.91956" y2="96.5345" gradientUnits="userSpaceOnUse">
<stop stop-color="#74D5CE"/>
<stop offset="0.23" stop-color="#40B889"/>
<stop offset="1" stop-color="#14817B"/>
</linearGradient>
<linearGradient id="paint32_linear" x1="42.1197" y1="110.427" x2="41.9662" y2="125.351" gradientUnits="userSpaceOnUse">
<stop stop-color="#74D5CE"/>
<stop offset="0.23" stop-color="#40B889"/>
<stop offset="1" stop-color="#14817B"/>
</linearGradient>
<linearGradient id="paint33_linear" x1="65.1728" y1="117.815" x2="65.104" y2="129.726" gradientUnits="userSpaceOnUse">
<stop stop-color="#74D5CE"/>
<stop offset="0.23" stop-color="#40B889"/>
<stop offset="1" stop-color="#14817B"/>
</linearGradient>
</defs>
</svg>
