<svg width="209" height="158" viewBox="0 0 209 158" fill="none" xmlns="http://www.w3.org/2000/svg">
<path d="M49.1769 51.4214C48.7345 51.4214 48.3553 51.1526 48.2131 50.7416L46.7753 46.6788C44.8004 46.1888 42.9044 45.43 41.1349 44.3866L37.2798 46.3152C36.8848 46.5049 36.4108 46.4417 36.0948 46.1255L32.1133 42.205C31.7973 41.8889 31.7183 41.4304 31.9079 41.0194L33.7722 37.1305C32.7137 35.3758 31.9079 33.4946 31.4023 31.5344L27.3102 30.159C26.8994 30.0168 26.615 29.6374 26.615 29.1947L26.5676 23.5985C26.5676 23.1559 26.8362 22.7607 27.247 22.6184L31.3075 21.1798C31.7973 19.2038 32.5557 17.3068 33.5985 15.5362L31.6551 11.6632C31.4655 11.268 31.5287 10.7937 31.8447 10.4775L35.763 6.49382C36.0632 6.17765 36.5372 6.09861 36.948 6.28831L40.8347 8.15371C42.5884 7.09454 44.4686 6.28831 46.4277 5.78244L47.8023 1.68806C47.9445 1.27704 48.3237 0.992493 48.7661 0.992493L54.3591 0.945068C54.3591 0.945068 54.3591 0.945068 54.3749 0.945068C54.8173 0.945068 55.1965 1.21381 55.3387 1.62483L56.7765 5.68759C58.7514 6.17765 60.6474 6.93646 62.417 7.97981L66.2721 6.05119C66.667 5.86149 67.141 5.92472 67.457 6.24089L71.4543 10.1614C71.7703 10.4617 71.8493 10.936 71.6597 11.347L69.7954 15.2359C70.8539 16.9906 71.6597 18.8718 72.1653 20.8321L76.2574 22.2074C76.6682 22.3497 76.9526 22.7291 76.9526 23.1717L77 28.7679C77 29.2105 76.7314 29.6057 76.3206 29.748L72.2601 31.1866C71.7703 33.1626 71.0119 35.0596 69.9692 36.8302L71.8967 40.6874C72.0863 41.0826 72.0231 41.5569 71.7071 41.8731L67.7888 45.8568C67.4886 46.173 67.0146 46.252 66.6039 46.0623L62.7171 44.1969C60.9634 45.2561 59.0832 46.0623 57.1241 46.5682L55.7495 50.6625C55.6073 51.0736 55.2281 51.3581 54.7857 51.3581L49.1769 51.4214C49.1927 51.4214 49.1927 51.4214 49.1769 51.4214ZM41.1981 42.9164L41.4983 43.1061C43.331 44.2285 45.3218 45.0348 47.4073 45.4932L47.7549 45.5722L49.3665 50.1251L54.5803 50.0776L56.1129 45.4932L56.4605 45.4142C58.546 44.9083 60.521 44.0704 62.3222 42.9164L62.6223 42.7267L66.983 44.8134L70.6486 41.0826L68.5156 36.7669L68.7052 36.4666C69.827 34.6328 70.6328 32.6409 71.0909 30.5542L71.1699 30.2065L75.7202 28.594L75.6728 23.3772L71.0909 21.8438L71.0119 21.496C70.5064 19.4251 69.669 17.4491 68.5156 15.6311L68.326 15.3307L70.4116 10.9676L66.6828 7.30005L62.3538 9.45L62.0536 9.2603C60.2208 8.1379 58.2301 7.33167 56.1445 6.87322L55.7969 6.79418L54.1854 2.24136L48.9715 2.28878L47.4389 6.87322L47.0913 6.95227C45.0058 7.45814 43.0466 8.29598 41.2297 9.45L40.9295 9.6397L36.553 7.53718L32.8875 11.268L35.0362 15.5995L34.8466 15.8998C33.7249 17.7336 32.9191 19.7255 32.4609 21.8122L32.3819 22.16L27.8316 23.7724L27.879 28.9892L32.4609 30.5226L32.5399 30.8704C33.0455 32.9571 33.8828 34.9332 35.0362 36.7353L35.2258 37.0357L33.1403 41.3988L36.869 45.0664L41.1981 42.9164ZM51.7048 40.4187C47.9761 40.4187 44.4528 38.9801 41.7827 36.3559C39.0809 33.7001 37.58 30.159 37.5642 26.3808C37.5326 22.6026 38.9703 19.0299 41.6247 16.3425C44.279 13.6392 47.8181 12.1532 51.5942 12.1216C52.6054 12.1058 53.6166 12.2165 54.5961 12.422C54.9437 12.501 55.1649 12.833 55.1017 13.1808C55.0227 13.5286 54.6909 13.7499 54.3433 13.6867C53.4586 13.497 52.5422 13.4021 51.6258 13.4179C48.1973 13.4495 44.9742 14.8091 42.5726 17.2594C40.1711 19.7097 38.8597 22.9504 38.8755 26.3808C38.9071 29.8112 40.2659 33.0362 42.7148 35.439C45.1638 37.8419 48.3869 39.1698 51.8312 39.1382C55.2597 39.1066 58.4828 37.7471 60.8844 35.2968C63.2859 32.8465 64.5973 29.6057 64.5815 26.1753C64.5657 23.8357 63.9179 21.5592 62.7013 19.5832C62.5117 19.2828 62.6065 18.8876 62.9225 18.6979C63.2227 18.5082 63.6177 18.6031 63.8073 18.9192C65.1345 21.1008 65.8455 23.5985 65.8771 26.1753C65.9087 29.9535 64.4709 33.5262 61.8166 36.2136C59.1622 38.9169 55.6231 40.4187 51.847 40.4345C51.7838 40.4187 51.7364 40.4187 51.7048 40.4187Z" fill="#005288" fill-opacity="0.46"/>
<path d="M51.7679 31.8031C50.7883 31.8031 49.8088 31.5343 48.9398 31.0285C47.6442 30.2697 46.7278 29.0524 46.3486 27.598C45.9695 26.1437 46.1749 24.6261 46.9332 23.3456C47.6916 22.0493 48.9082 21.1324 50.3617 20.753C53.3637 19.9784 56.4288 21.7647 57.2188 24.7683C57.598 26.2227 57.3926 27.7403 56.6342 29.0208C55.8758 30.3171 54.6592 31.234 53.2057 31.6134C52.7317 31.7398 52.2419 31.8031 51.7679 31.8031ZM50.6935 21.9861C49.5718 22.2706 48.6396 22.982 48.055 23.9779C47.4704 24.9738 47.3124 26.1437 47.5968 27.2503C47.8812 28.3727 48.5922 29.3054 49.5876 29.8903C50.5829 30.4752 51.7521 30.6333 52.8581 30.3487C53.9799 30.0642 54.912 29.3528 55.4966 28.3568C56.0812 27.3609 56.2392 26.1911 55.9548 25.0845C55.3544 22.7765 53.0003 21.3853 50.6935 21.9861Z" fill="#005288" fill-opacity="0.46"/>
<path d="M27.3578 72.4465C27.1524 72.4465 26.947 72.3517 26.8206 72.1778L25.6514 70.5811C24.7192 70.6286 23.7871 70.5337 22.8707 70.3282L21.4329 71.6877C21.2275 71.8774 20.9115 71.9248 20.6587 71.7984L18.273 70.5495C18.0202 70.423 17.878 70.1385 17.9254 69.8539L18.2256 67.8937C17.5304 67.2614 16.93 66.55 16.4402 65.7438L14.4495 65.6963C14.1651 65.6805 13.9123 65.4908 13.8333 65.2221L13.0275 62.6453C12.9485 62.3766 13.0433 62.0762 13.2645 61.9023L14.8603 60.7325C14.8129 59.7998 14.9077 58.8671 15.1131 57.9502L13.7543 56.5116C13.5647 56.3061 13.5173 55.99 13.6437 55.737L14.9077 53.3658C15.0341 53.1128 15.3185 52.9706 15.6029 53.018L17.562 53.3183C18.194 52.6228 18.905 52.0221 19.695 51.532L19.7582 49.5559C19.774 49.2714 19.9477 49.0185 20.2321 48.9394L22.8075 48.1332C23.0761 48.0541 23.3763 48.149 23.5501 48.3703L24.7192 49.967C25.6514 49.9195 26.5836 50.0144 27.5 50.2199L28.9377 48.8604C29.1431 48.6707 29.4591 48.6232 29.7119 48.7497L32.0977 49.9986C32.3504 50.125 32.4926 50.4096 32.4452 50.6941L32.1451 52.6544C32.8402 53.2867 33.4406 53.9981 33.9304 54.7885L35.9054 54.8518C36.1898 54.8518 36.4426 55.0415 36.5215 55.326L37.3273 57.9028C37.4063 58.1715 37.3115 58.4719 37.0903 58.6458L35.4946 59.8156C35.542 60.7483 35.4472 61.681 35.2418 62.5979L36.6005 64.0364C36.7901 64.242 36.8375 64.5581 36.7111 64.8111L35.463 67.1981C35.3366 67.4511 35.0522 67.5933 34.7678 67.5459L32.8086 67.2456C32.1767 67.9411 31.4657 68.5418 30.6599 69.0319L30.5967 71.0079C30.5809 71.2925 30.4071 71.5454 30.1227 71.6245L27.5474 72.4307C27.5 72.4465 27.421 72.4465 27.3578 72.4465ZM26.1096 69.5852L27.4684 71.4348L29.6329 70.755L29.6961 68.4628L29.9331 68.3205C30.8021 67.8147 31.5763 67.1507 32.2398 66.3919L32.4136 66.1864L34.6888 66.5342L35.7316 64.5265L34.1516 62.8508L34.2148 62.5979C34.4676 61.6178 34.5624 60.606 34.4834 59.5943L34.4676 59.3255L36.3162 57.966L35.6368 55.8003L33.3458 55.737L33.2036 55.4999C32.698 54.6304 32.0345 53.8558 31.2761 53.1919L31.0707 53.018L31.4183 50.7416L29.4117 49.6982L27.737 51.2791L27.4842 51.2158C26.5046 50.9629 25.4934 50.868 24.4822 50.9471L24.2136 50.9629L22.8549 49.1133L20.6903 49.7931L20.6271 52.0853L20.3901 52.2276C19.5212 52.7334 18.747 53.3974 18.0834 54.1562L17.9096 54.3617L15.6345 54.0139L14.5917 56.0216L16.1716 57.6973L16.1084 57.9502C15.8556 58.9303 15.7608 59.9421 15.8398 60.9538L15.8556 61.2225L14.0071 62.5821L14.6865 64.7478L16.9774 64.8111L17.1196 65.0482C17.6252 65.9176 18.2888 66.6923 19.0472 67.3562L19.2526 67.5301L18.905 69.8065L20.9115 70.8499L22.5863 69.269L22.8391 69.3323C23.8187 69.5852 24.8298 69.68 25.841 69.601L26.1096 69.5852ZM25.1616 67.3088C22.1913 67.3088 19.4264 65.396 18.4942 62.4082C17.3408 58.7406 19.3948 54.8043 23.0761 53.6661C23.5501 53.5239 24.0398 53.4132 24.5296 53.3816C24.7982 53.3658 25.0352 53.5555 25.051 53.8242C25.0826 54.093 24.8772 54.3301 24.6086 54.3459C24.182 54.3775 23.7713 54.4724 23.3605 54.5988C20.2005 55.5948 18.431 58.9619 19.4106 62.1236C20.4059 65.2853 23.7713 67.0559 26.9312 66.0757C30.0911 65.0798 31.8607 61.7126 30.8811 58.5509C30.5493 57.5076 29.9489 56.5749 29.1431 55.8635C28.9377 55.6896 28.9219 55.3734 29.0957 55.1837C29.2695 54.9782 29.5855 54.9624 29.7751 55.1521C30.7073 55.99 31.4183 57.0649 31.7817 58.2822C32.935 61.9497 30.8811 65.886 27.1998 67.0242C26.552 67.1981 25.841 67.3088 25.1616 67.3088Z" fill="#005288" fill-opacity="0.46"/>
<path fill-rule="evenodd" clip-rule="evenodd" d="M186.734 157.587C190.076 158.401 205.609 156.346 204.795 141.486C203.762 122.649 193.917 121.712 190.514 109.077C186.734 94.983 191.838 80.1104 184.06 66.8309C173.559 48.8451 135.882 37.0127 121.321 39.3597C87.5086 44.7956 88.9063 71.2088 54.9359 86.0814C34.1648 95.1776 19.6772 100.686 10.0512 108.822C-4.80094 121.372 -4.80094 157.015 20.9898 157.015C38.9413 157.015 141.168 157.587 186.734 157.587Z" fill="#F1F2F0"/>
<path d="M126.973 50.9247L95.1535 31.662C92.0543 29.7893 88.3837 29.7893 85.2845 31.662L53.4653 50.9247L16.7117 73.1667L53.4653 95.3601L90.219 117.553L126.973 95.3357L163.726 73.1667L126.973 50.9247Z" fill="#B8E0FF"/>
<path d="M135.444 37.037H32.7429C30.932 37.037 29.437 38.6058 29.437 40.4177V123.804H150.175V52.0191L135.444 37.037Z" fill="#005288"/>
<path d="M150.114 52.0191L136.635 52.1407C136.283 52.1407 136.003 52.0069 135.748 51.7516C135.493 51.4962 135.469 51.1557 135.469 50.803V37.1465L150.114 52.0191Z" fill="#1E85C9"/>
<path d="M116.435 76.2676C116.435 79.4051 115.937 82.275 114.928 84.8774C113.932 87.4798 112.51 89.5228 110.687 90.9943C108.863 92.4779 106.736 93.2197 104.318 93.2197C102.713 93.2197 101.279 92.8306 100.04 92.0644C98.7999 91.2862 97.9127 90.2768 97.3657 89.0121H96.8431C94.4974 91.8212 91.5075 93.2197 87.8735 93.2197C84.0206 93.2197 80.9821 92.0644 78.7701 89.7417C76.5581 87.419 75.4399 84.2451 75.4399 80.2199C75.4399 75.6231 76.8984 71.9262 79.8154 69.1171C82.7323 66.308 86.5365 64.9095 91.2401 64.9095C93.1118 64.9095 95.178 65.0919 97.4265 65.4445C99.675 65.8094 101.535 66.235 102.993 66.7336L102.239 82.7007C102.239 85.7287 103.066 87.2366 104.719 87.2366C106.117 87.2366 107.223 86.2151 108.049 84.1843C108.876 82.1534 109.289 79.4902 109.289 76.1947C109.289 72.6924 108.56 69.5914 107.101 66.9038C105.643 64.2163 103.589 62.1611 100.951 60.7505C98.3137 59.3398 95.2874 58.6224 91.8964 58.6224C87.4967 58.6224 83.6803 59.5222 80.4352 61.3342C77.1901 63.1462 74.7107 65.7486 72.9727 69.1536C71.2346 72.5586 70.3839 76.4987 70.3839 80.9617C70.3839 86.9691 71.9882 91.578 75.1968 94.7884C78.4055 97.9989 83.0605 99.6041 89.1496 99.6041C91.4589 99.6041 93.9869 99.3487 96.758 98.838C99.517 98.3272 102.239 97.5854 104.913 96.6004V102.875C100.258 104.858 95.0929 105.843 89.4049 105.843C81.1401 105.843 74.6864 103.666 70.0679 99.3123C65.4493 94.9587 63.1279 88.9026 63.1279 81.1562C63.1279 75.7812 64.3069 70.8926 66.6647 66.5147C69.0226 62.1246 72.3893 58.6832 76.7526 56.1902C81.1158 53.6972 86.1354 52.4568 91.8114 52.4568C96.6 52.4568 100.878 53.4419 104.634 55.3997C108.402 57.3576 111.306 60.1424 113.348 63.7542C115.414 67.3781 116.435 71.5371 116.435 76.2676ZM83.024 80.3536C83.024 84.9504 84.8957 87.2488 88.6392 87.2488C90.596 87.2488 92.0909 86.5556 93.1118 85.1693C94.1328 83.783 94.7526 81.5332 94.9714 78.4201L95.3968 71.2087C94.2908 70.9655 93.0389 70.8439 91.6412 70.8439C88.9187 70.8439 86.8039 71.6952 85.2968 73.3855C83.7776 75.088 83.024 77.4107 83.024 80.3536Z" fill="white"/>
<path d="M16.8574 73.1423V147.736C16.8574 153.221 21.6704 157.672 27.6259 157.672H152.824C158.767 157.672 163.593 153.221 163.593 147.736V73.1423L90.225 117L16.8574 73.1423Z" fill="url(#paint0_linear)"/>
<path d="M19.7379 154.449C19.6772 154.449 19.6164 154.425 19.5678 154.388C19.4584 154.291 19.4462 154.133 19.5435 154.024L65.3883 102.413C65.4855 102.304 65.6436 102.292 65.7529 102.389C65.8623 102.486 65.8745 102.644 65.7772 102.754L19.9324 154.364C19.8716 154.425 19.7987 154.449 19.7379 154.449Z" fill="white"/>
<path d="M160.7 154.449C160.627 154.449 160.554 154.425 160.506 154.364L114.673 102.766C114.576 102.656 114.588 102.498 114.697 102.401C114.807 102.304 114.965 102.316 115.062 102.425L160.907 154.036C161.004 154.145 160.992 154.303 160.882 154.401C160.822 154.437 160.761 154.449 160.7 154.449Z" fill="white"/>
<path fill-rule="evenodd" clip-rule="evenodd" d="M126 157.745C126.17 152.37 127.604 146.07 130.436 139.881C131.506 137.546 132.709 135.345 134.009 133.314L135.492 131.125C140.463 124.23 146.467 119.742 151.329 119.146C153.407 122.247 154.222 127.306 153.638 133.192C153.638 133.192 151.341 144.21 149.372 148.527C147.816 151.932 145.969 155.033 143.964 157.745H126Z" fill="#679725"/>
<path fill-rule="evenodd" clip-rule="evenodd" d="M137.826 157.745C139.771 154.145 142.675 150.412 146.37 147.092C147.962 145.657 149.615 144.38 151.28 143.261L153.14 142.082C159.217 138.47 165.294 137.035 169.208 138.19C169.767 141.243 168.709 145.377 166.303 149.682C166.303 149.682 162.948 154.425 160.08 157.733L137.826 157.745Z" fill="#679725"/>
<mask id="mask0" mask-type="alpha" maskUnits="userSpaceOnUse" x="147" y="138" width="23" height="20">
<path fill-rule="evenodd" clip-rule="evenodd" d="M147.488 157.745L169.207 138.202C169.767 141.255 168.709 145.389 166.303 149.694C166.303 149.694 162.948 154.437 160.08 157.745H147.488Z" fill="url(#paint1_linear)"/>
</mask>
<g mask="url(#mask0)">
<path fill-rule="evenodd" clip-rule="evenodd" d="M147.488 157.745L169.207 138.202C169.767 141.255 168.709 145.389 166.303 149.694C166.303 149.694 162.948 154.437 160.08 157.745H147.488Z" fill="#8DC63F"/>
</g>
<mask id="mask1" mask-type="alpha" maskUnits="userSpaceOnUse" x="133" y="119" width="21" height="39">
<path fill-rule="evenodd" clip-rule="evenodd" d="M133.73 157.745L151.329 119.146C153.407 122.247 154.222 127.306 153.638 133.192C153.638 133.192 151.341 144.21 149.372 148.527C147.816 151.932 145.969 155.033 143.964 157.745H133.73Z" fill="url(#paint2_linear)"/>
</mask>
<g mask="url(#mask1)">
<path fill-rule="evenodd" clip-rule="evenodd" d="M133.73 157.745L151.329 119.146C153.407 122.247 154.222 127.306 153.638 133.192C153.638 133.192 151.341 144.21 149.372 148.527C147.816 151.932 145.969 155.033 143.964 157.745H133.73Z" fill="#8DC63F"/>
</g>
<path fill-rule="evenodd" clip-rule="evenodd" d="M45.3538 157.745C45.1836 152.37 43.7494 146.07 40.9176 139.881C39.848 137.546 38.6448 135.345 37.3443 133.314L35.8615 131.125C30.8905 124.23 24.8864 119.742 20.0249 119.146C17.9465 122.247 17.1322 127.306 17.7156 133.192C17.7156 133.192 20.0127 144.21 21.9816 148.527C23.5374 151.932 25.3848 155.033 27.3902 157.745H45.3538Z" fill="#679725"/>
<path fill-rule="evenodd" clip-rule="evenodd" d="M33.5281 157.745C31.5834 154.145 28.6786 150.412 24.9838 147.092C23.3916 145.657 21.7387 144.38 20.0736 143.261L18.214 142.082C12.137 138.47 6.06003 137.035 2.14644 138.19C1.58736 141.243 2.64475 145.377 5.05124 149.682C5.05124 149.682 8.40575 154.425 11.2741 157.733L33.5281 157.745Z" fill="#679725"/>
<mask id="mask2" mask-type="alpha" maskUnits="userSpaceOnUse" x="2" y="138" width="22" height="20">
<path fill-rule="evenodd" clip-rule="evenodd" d="M23.8656 157.745L2.14644 138.202C1.58736 141.255 2.64475 145.389 5.05124 149.694C5.05124 149.694 8.40575 154.437 11.2741 157.745H23.8656Z" fill="url(#paint3_linear)"/>
</mask>
<g mask="url(#mask2)">
<path fill-rule="evenodd" clip-rule="evenodd" d="M23.8656 157.745L2.14644 138.202C1.58736 141.255 2.64475 145.389 5.05124 149.694C5.05124 149.694 8.40575 154.437 11.2741 157.745H23.8656Z" fill="#8DC63F"/>
</g>
<mask id="mask3" mask-type="alpha" maskUnits="userSpaceOnUse" x="17" y="119" width="21" height="39">
<path fill-rule="evenodd" clip-rule="evenodd" d="M37.6238 157.745L20.0249 119.134C17.9465 122.235 17.1322 127.294 17.7156 133.18C17.7156 133.18 20.0127 144.198 21.9816 148.515C23.5374 151.92 25.3848 155.021 27.3902 157.733H37.6238V157.745Z" fill="url(#paint4_linear)"/>
</mask>
<g mask="url(#mask3)">
<path fill-rule="evenodd" clip-rule="evenodd" d="M37.6238 157.745L20.0249 119.134C17.9465 122.235 17.1322 127.294 17.7156 133.18C17.7156 133.18 20.0127 144.198 21.9816 148.515C23.5374 151.92 25.3848 155.021 27.3902 157.733H37.6238V157.745Z" fill="#8DC63F"/>
</g>
<path fill-rule="evenodd" clip-rule="evenodd" d="M163.824 65.2378C162.657 65.2378 161.575 65.8337 160.943 66.8065C158.44 70.6858 152.144 80.4266 152.144 80.4266L140.038 77.3378L138.884 83.3695C138.884 83.3695 148.4 86.8231 152.691 88.3797C153.894 88.8175 155.243 88.3676 155.936 87.2853C159.023 82.5182 167.045 70.1143 167.045 70.1143L164.067 65.2378H163.824Z" fill="url(#paint5_linear)"/>
<path fill-rule="evenodd" clip-rule="evenodd" d="M179.284 66.916C179.308 66.4782 179.15 66.0526 178.858 65.7364C178.554 65.4202 178.141 65.2378 177.704 65.2378H164.687C163.386 65.2378 162.305 66.2715 162.256 67.5727C161.952 74.5894 161.089 94.983 161.089 94.983H177.631C177.631 94.983 178.919 73.2153 179.284 66.916Z" fill="url(#paint6_linear)"/>
<path fill-rule="evenodd" clip-rule="evenodd" d="M161.077 94.983L158.208 149.974H165.161L168.989 104.128H170.849L178.627 149.974H186.284L177.618 94.983H161.077Z" fill="url(#paint7_linear)"/>
<path fill-rule="evenodd" clip-rule="evenodd" d="M172.526 54.3904H167.069V65.1527L169.123 67.9254L172.526 65.1527V54.3904Z" fill="#E87965"/>
<path fill-rule="evenodd" clip-rule="evenodd" d="M174.799 46.3522L163.739 44.4064C163.739 44.4064 162.39 50.5841 161.308 55.4849C160.968 57.0415 161.271 58.6589 162.159 59.9722C163.046 61.2856 164.419 62.1976 165.987 62.4652C168.819 62.9638 171.554 61.1397 172.174 58.3184C173.267 53.3081 174.799 46.3522 174.799 46.3522Z" fill="url(#paint8_linear)"/>
<path fill-rule="evenodd" clip-rule="evenodd" d="M168.977 67.3416L171.165 69.64L173.535 65.2257L172.526 63.9974L168.977 67.3416Z" fill="url(#paint9_linear)"/>
<path fill-rule="evenodd" clip-rule="evenodd" d="M168.977 67.3416L166.437 69.64L166.048 65.2257L167.069 63.9974L168.977 67.3416Z" fill="url(#paint10_linear)"/>
<path fill-rule="evenodd" clip-rule="evenodd" d="M167.069 69.0685L167.944 71.6344H169.172L170.861 69.3117L168.977 67.3295L167.069 69.0685Z" fill="url(#paint11_linear)"/>
<path fill-rule="evenodd" clip-rule="evenodd" d="M167.944 71.6344L164.188 95.6519L167.069 100.528L170.472 95.6519L169.184 71.6344H167.944Z" fill="url(#paint12_linear)"/>
<path fill-rule="evenodd" clip-rule="evenodd" d="M173.547 65.2378L170.861 74.9664L174.3 105.672L180.134 101.866L178.007 88.4649C178.007 88.4649 178.968 72.2667 179.284 66.9281C179.308 66.4904 179.15 66.0647 178.858 65.7485C178.554 65.4324 178.141 65.25 177.704 65.25C175.978 65.2378 173.547 65.2378 173.547 65.2378Z" fill="url(#paint13_linear)"/>
<path fill-rule="evenodd" clip-rule="evenodd" d="M160.518 46.0238C160.518 46.0238 159.497 47.4588 159.788 48.6992C160.08 49.9396 161.952 52.5176 161.952 52.5176L163.143 47.1061L160.518 46.0238Z" fill="url(#paint14_linear)"/>
<path fill-rule="evenodd" clip-rule="evenodd" d="M173.085 54.0986C173.085 54.0986 170.46 50.3409 170.849 47.2399C170.849 47.2399 164.881 49.7815 161.356 46.9724C160.287 46.1211 159.412 44.5767 159.728 42.9836C159.728 42.9836 163.034 40.5636 166.522 40.2839C169.998 40.0043 174.981 39.9313 177.254 43.3728C179.113 46.1941 177.716 48.6992 177.716 48.6992C177.716 48.6992 179.49 51.3746 178.092 54.3783C176.573 57.6495 172.514 60.5438 172.514 60.5438L172.076 58.6953L173.085 54.0986Z" fill="url(#paint15_linear)"/>
<path fill-rule="evenodd" clip-rule="evenodd" d="M172.465 53.9526C172.465 53.9526 173.109 54.1107 173.839 54.2931C174.373 54.4269 174.835 54.7796 175.115 55.2538C175.394 55.7403 175.467 56.3118 175.309 56.8469C175.005 57.8805 173.948 58.4886 172.903 58.2332C172.088 58.0386 171.323 57.8441 171.323 57.8441L172.465 53.9526Z" fill="url(#paint16_linear)"/>
<path fill-rule="evenodd" clip-rule="evenodd" d="M166.048 65.2378V74.9664L162.329 105.672L157.868 103.447L159.788 93.9858C159.788 93.9858 161.283 74.1152 161.794 67.4146C161.891 66.1863 162.912 65.2378 164.14 65.2378H166.048Z" fill="url(#paint17_linear)"/>
<path fill-rule="evenodd" clip-rule="evenodd" d="M140.038 77.3256C140.038 77.3256 136.757 73.7747 135.298 72.1938C135.116 71.9992 134.861 71.8776 134.593 71.8776C134.326 71.8654 134.071 71.9627 133.876 72.1573C133.524 72.4856 133.475 73.0329 133.755 73.422C134.241 74.1152 134.934 75.1002 134.934 75.1002C134.934 75.1002 132.029 74.3949 130.133 73.9328C129.756 73.8355 129.355 73.9328 129.051 74.1881C128.747 74.4435 128.589 74.8205 128.614 75.2096C128.686 76.45 128.796 78.1161 128.857 79.2349C128.905 79.9402 129.379 80.5604 130.072 80.755C132.685 81.5332 138.896 83.3695 138.896 83.3695L140.038 77.3256Z" fill="url(#paint18_linear)"/>
<path fill-rule="evenodd" clip-rule="evenodd" d="M158.221 149.974L150.564 156.079V157.988H165.173V149.974H158.221Z" fill="url(#paint19_linear)"/>
<path fill-rule="evenodd" clip-rule="evenodd" d="M178.627 149.974V157.988H191.267V155.665L186.284 149.974H178.627Z" fill="url(#paint20_linear)"/>
<path fill-rule="evenodd" clip-rule="evenodd" d="M177.606 65.2378C178.712 65.2378 179.745 65.7972 180.353 66.7336C182.638 70.248 188.18 78.7849 188.18 78.7849L197.685 72.3397L200.869 76.6203C200.869 76.6203 193.504 83.8073 189.566 87.6501C188.97 88.2216 188.156 88.5013 187.342 88.404C186.527 88.3068 185.798 87.8447 185.36 87.1393C182.784 83.0168 178.007 75.3434 174.835 70.2724C174.203 69.263 174.167 67.9861 174.75 66.9403C175.321 65.8823 176.415 65.2378 177.606 65.2378Z" fill="url(#paint21_linear)"/>
<path fill-rule="evenodd" clip-rule="evenodd" d="M197.685 72.3276C197.685 72.3276 201.367 69.2023 202.911 67.9011C203.081 67.7551 203.3 67.6943 203.518 67.7187C203.737 67.743 203.932 67.8646 204.053 68.047C204.053 68.047 204.053 68.0592 204.065 68.0592C204.284 68.3753 204.236 68.801 203.968 69.0563C203.482 69.5184 202.801 70.1873 202.801 70.1873C202.801 70.1873 205.901 70.844 207.906 71.2696C208.319 71.3547 208.66 71.6223 208.854 71.9992C209.036 72.3762 209.049 72.814 208.878 73.191C208.502 74.0179 208.052 75.0029 207.712 75.7204C207.42 76.3528 206.776 76.7541 206.083 76.7419C204.248 76.6933 200.881 76.596 200.881 76.596L197.685 72.3276Z" fill="url(#paint22_linear)"/>
<defs>
<linearGradient id="paint0_linear" x1="90.2171" y1="73.1349" x2="90.2171" y2="157.678" gradientUnits="userSpaceOnUse">
<stop stop-color="white"/>
<stop offset="1" stop-color="#B0DCFF"/>
</linearGradient>
<linearGradient id="paint1_linear" x1="153.807" y1="157.72" x2="167.312" y2="143.702" gradientUnits="userSpaceOnUse">
<stop stop-color="white"/>
<stop offset="1"/>
</linearGradient>
<linearGradient id="paint2_linear" x1="138.365" y1="158.001" x2="156.613" y2="121.284" gradientUnits="userSpaceOnUse">
<stop stop-color="white"/>
<stop offset="1"/>
</linearGradient>
<linearGradient id="paint3_linear" x1="17.554" y1="157.718" x2="4.04933" y2="143.7" gradientUnits="userSpaceOnUse">
<stop stop-color="white"/>
<stop offset="1"/>
</linearGradient>
<linearGradient id="paint4_linear" x1="32.9904" y1="158.006" x2="14.7428" y2="121.29" gradientUnits="userSpaceOnUse">
<stop stop-color="white"/>
<stop offset="1"/>
</linearGradient>
<linearGradient id="paint5_linear" x1="161.24" y1="76.3207" x2="150.953" y2="78.5925" gradientUnits="userSpaceOnUse">
<stop stop-color="#32546D"/>
<stop offset="1" stop-color="#588193"/>
</linearGradient>
<linearGradient id="paint6_linear" x1="160.701" y1="79.0303" x2="177.385" y2="81.7285" gradientUnits="userSpaceOnUse">
<stop stop-color="#E2F9FF"/>
<stop offset="1" stop-color="#B5CACF"/>
</linearGradient>
<linearGradient id="paint7_linear" x1="172.253" y1="96.2257" x2="172.253" y2="149.988" gradientUnits="userSpaceOnUse">
<stop stop-color="#294458"/>
<stop offset="1" stop-color="#588193"/>
</linearGradient>
<linearGradient id="paint8_linear" x1="169.231" y1="64.2186" x2="167.822" y2="48.4326" gradientUnits="userSpaceOnUse">
<stop stop-color="#FE8C77"/>
<stop offset="1" stop-color="#FDCB9F"/>
</linearGradient>
<linearGradient id="paint9_linear" x1="168.976" y1="66.822" x2="173.162" y2="66.822" gradientUnits="userSpaceOnUse">
<stop stop-color="#E2F9FF"/>
<stop offset="1" stop-color="#B5CACF"/>
</linearGradient>
<linearGradient id="paint10_linear" x1="166.045" y1="66.822" x2="168.975" y2="66.822" gradientUnits="userSpaceOnUse">
<stop stop-color="#E2F9FF"/>
<stop offset="1" stop-color="#B5CACF"/>
</linearGradient>
<linearGradient id="paint11_linear" x1="169.04" y1="66.8768" x2="168.894" y2="71.1506" gradientUnits="userSpaceOnUse">
<stop stop-color="#F89F1E"/>
<stop offset="0.48" stop-color="#F08D16"/>
<stop offset="1" stop-color="#DB5D00"/>
</linearGradient>
<linearGradient id="paint12_linear" x1="168.933" y1="68.9791" x2="167.082" y2="99.6502" gradientUnits="userSpaceOnUse">
<stop stop-color="#F89F1E"/>
<stop offset="0.48" stop-color="#F08D16"/>
<stop offset="1" stop-color="#DB5D00"/>
</linearGradient>
<linearGradient id="paint13_linear" x1="175.422" y1="107.806" x2="175.559" y2="66.3632" gradientUnits="userSpaceOnUse">
<stop stop-color="#32546D"/>
<stop offset="1" stop-color="#588193"/>
</linearGradient>
<linearGradient id="paint14_linear" x1="161.996" y1="49.4988" x2="157.191" y2="35.2028" gradientUnits="userSpaceOnUse">
<stop stop-color="#32546D"/>
<stop offset="1" stop-color="#588193"/>
</linearGradient>
<linearGradient id="paint15_linear" x1="176.635" y1="56.4888" x2="164.9" y2="38.7063" gradientUnits="userSpaceOnUse">
<stop stop-color="#32546D"/>
<stop offset="1" stop-color="#588193"/>
</linearGradient>
<linearGradient id="paint16_linear" x1="173.883" y1="64.9373" x2="171.819" y2="48.6544" gradientUnits="userSpaceOnUse">
<stop stop-color="#FE8C77"/>
<stop offset="1" stop-color="#FDCB9F"/>
</linearGradient>
<linearGradient id="paint17_linear" x1="159.893" y1="110.939" x2="163.604" y2="66.3287" gradientUnits="userSpaceOnUse">
<stop stop-color="#32546D"/>
<stop offset="1" stop-color="#588193"/>
</linearGradient>
<linearGradient id="paint18_linear" x1="135.084" y1="87.7679" x2="134.08" y2="72.6804" gradientUnits="userSpaceOnUse">
<stop stop-color="#FE8C77"/>
<stop offset="1" stop-color="#FDCB9F"/>
</linearGradient>
<linearGradient id="paint19_linear" x1="157.987" y1="150.028" x2="157.956" y2="158.007" gradientUnits="userSpaceOnUse">
<stop stop-color="#F89F1E"/>
<stop offset="0.48" stop-color="#F08D16"/>
<stop offset="1" stop-color="#DB5D00"/>
</linearGradient>
<linearGradient id="paint20_linear" x1="185.017" y1="150.055" x2="184.986" y2="158.035" gradientUnits="userSpaceOnUse">
<stop stop-color="#F89F1E"/>
<stop offset="0.48" stop-color="#F08D16"/>
<stop offset="1" stop-color="#DB5D00"/>
</linearGradient>
<linearGradient id="paint21_linear" x1="161.958" y1="76.8271" x2="182.406" y2="76.8271" gradientUnits="userSpaceOnUse">
<stop stop-color="#32546D"/>
<stop offset="1" stop-color="#588193"/>
</linearGradient>
<linearGradient id="paint22_linear" x1="204.12" y1="77.7006" x2="203.813" y2="68.6688" gradientUnits="userSpaceOnUse">
<stop stop-color="#FE8C77"/>
<stop offset="1" stop-color="#FDCB9F"/>
</linearGradient>
</defs>
</svg>
