<svg width="196" height="151" viewBox="0 0 196 151" fill="none" xmlns="http://www.w3.org/2000/svg">
<path fill-rule="evenodd" clip-rule="evenodd" d="M144.195 0.00710895C168.99 -0.461641 188.528 22.3268 190.993 45.8725C193.458 69.4182 194.292 89.1057 176.457 111.317C160.145 131.654 109.07 139.983 80.8677 139.839C52.6295 139.695 11.994 138.505 2.89547 113.264C-6.2031 88.0239 7.93412 72.6273 20.5126 67.2187C33.0911 61.81 58.7194 56.8701 77.2065 38.0119C95.6937 19.1898 116.102 0.547974 144.195 0.00710895Z" fill="#F1F2F0"/>
<path fill-rule="evenodd" clip-rule="evenodd" d="M110.666 137.638L100.842 25.8229C100.734 24.633 101.64 23.5873 102.836 23.4791C113.892 22.5056 163.952 18.1787 175.008 17.2051C176.205 17.0969 177.256 17.9984 177.365 19.1883L184.433 99.4166C182.331 103.347 179.685 107.313 176.458 111.352C165.004 125.595 136.439 133.96 110.666 137.638Z" fill="url(#paint0_linear)"/>
<path fill-rule="evenodd" clip-rule="evenodd" d="M180.12 106.376C178.996 107.998 177.763 109.657 176.422 111.315C171.891 116.977 164.641 121.736 155.941 125.594L114.835 129.164L105.917 27.6256L172.688 21.8203L180.12 106.376Z" fill="url(#paint1_linear)"/>
<path d="M125.347 89.1208C125.202 87.6424 125.818 86.9934 126.869 86.9213C127.921 86.8131 128.646 87.354 128.754 88.8323L129.733 100.118C129.878 101.597 129.262 102.246 128.211 102.318C127.159 102.426 126.434 101.885 126.326 100.407L125.347 89.1208ZM123.027 100.479C123.317 103.832 125.274 105.563 128.501 105.311C131.727 105.022 133.358 102.967 133.032 99.6136L132.089 88.7602C131.799 85.4068 129.842 83.6761 126.616 83.9285C123.389 84.2169 121.758 86.2722 122.084 89.6256L123.027 100.479Z" fill="#2D3B46"/>
<path d="M138.65 83.1351L133.793 83.5678L135.642 104.445L138.94 104.157L138.252 96.2961L139.81 96.1519C143.109 95.8634 144.559 93.9163 144.269 90.5629L144.015 87.8586C143.725 84.5052 141.949 82.8466 138.65 83.1351ZM138.904 86.1278C139.955 86.0197 140.572 86.4524 140.717 87.9668L141.007 91.1038C141.152 92.5822 140.608 93.123 139.557 93.2312L137.998 93.3755L137.382 86.3081L138.904 86.1278Z" fill="#2D3B46"/>
<path d="M148.655 85.2625L154.346 84.7577L154.093 81.7649L145.103 82.5582L146.952 103.436L155.941 102.642L155.688 99.6495L149.996 100.154L149.453 94.0245L153.984 93.6279L153.73 90.6351L149.199 91.0317L148.655 85.2625Z" fill="#2D3B46"/>
<path d="M165.04 101.885L168.411 101.597L166.562 80.7192L163.626 80.9716L164.714 93.4837L160.219 81.2601L156.086 81.6207L157.935 102.498L160.908 102.246L159.566 87.1015L165.04 101.885Z" fill="#2D3B46"/>
<path fill-rule="evenodd" clip-rule="evenodd" d="M157.246 16.7002C157.21 16.0872 156.666 15.6545 156.05 15.7266C150.649 16.1953 126.616 18.2867 121.214 18.7554C120.598 18.7915 120.163 19.3324 120.236 19.9454C120.417 22.1088 120.852 26.9766 121.033 29.1761C121.069 29.7891 121.613 30.2218 122.229 30.1497C127.631 29.6809 151.664 27.5896 157.065 27.1208C157.681 27.0848 158.116 26.5439 158.044 25.9309C157.862 23.7314 157.427 18.8636 157.246 16.7002Z" fill="url(#paint2_linear)"/>
<path fill-rule="evenodd" clip-rule="evenodd" d="M140.535 38.6954C149.815 37.9021 158.044 44.717 158.841 53.9838C159.639 63.2146 152.788 71.3997 143.472 72.193C134.192 72.9862 125.963 66.1713 125.166 56.9045C124.368 47.6737 131.256 39.4886 140.535 38.6954Z" fill="url(#paint3_linear)"/>
<path fill-rule="evenodd" clip-rule="evenodd" d="M131.944 68.9478C133.612 64.4766 137.744 61.1593 142.819 60.6906C147.713 60.2579 152.208 62.6377 154.709 66.4959C151.954 69.6689 147.967 71.7963 143.472 72.193C139.194 72.5536 135.134 71.2915 131.944 68.9478Z" fill="url(#paint4_linear)"/>
<path fill-rule="evenodd" clip-rule="evenodd" d="M141.006 44.176C144.631 43.8515 147.785 46.5198 148.111 50.1255C148.438 53.6953 145.755 56.8683 142.13 57.1929C138.542 57.5174 135.352 54.8491 135.025 51.2433C134.735 47.6376 137.418 44.4645 141.006 44.176Z" fill="url(#paint5_linear)"/>
<path fill-rule="evenodd" clip-rule="evenodd" d="M40.9585 137.241L33.2012 135.618L42.4085 104.609L44.9822 122.313L40.9585 137.241Z" fill="#1F3A4D"/>
<path fill-rule="evenodd" clip-rule="evenodd" d="M40.9585 137.241L40.6685 137.061C40.6685 137.061 40.7772 111.316 44.4021 101.003C48.0271 90.6905 64.1943 69.4165 64.1943 69.4165L77.1715 72.6617L79.5277 87.7338L67.8554 139.441C67.8554 139.441 67.1305 139.513 65.8617 139.585C57.7056 139.296 49.1145 138.647 40.9585 137.241Z" fill="url(#paint6_linear)"/>
<path fill-rule="evenodd" clip-rule="evenodd" d="M65.2454 64.8371C65.2454 64.8371 64.3391 70.39 62.9617 72.6616C61.5842 74.9333 68.0366 81.0631 68.0366 81.0631L77.2077 72.6616C77.2077 72.6616 76.8452 65.7746 79.2739 59.4285C81.7388 53.0823 67.5291 57.0126 65.2454 64.8371Z" fill="#E87965"/>
<path fill-rule="evenodd" clip-rule="evenodd" d="M63.5056 33.2866C63.5056 33.2866 56.0745 43.0583 56.0745 53.8035C56.0745 62.2049 61.2219 63.6472 64.3756 64.5847C68.943 65.9549 74.0541 64.5847 78.549 58.9597C78.549 58.9597 81.159 61.2674 85.2189 58.9597C89.2788 56.652 88.8438 51.2794 85.8714 50.4862C82.8989 49.6929 80.869 53.2265 80.869 53.2265C80.869 53.2265 85.8714 45.6905 85.8714 42.3732C85.8714 39.0559 94.6074 26.4717 75.6853 26.616C56.8357 26.7963 63.5056 33.2866 63.5056 33.2866Z" fill="url(#paint7_linear)"/>
<path fill-rule="evenodd" clip-rule="evenodd" d="M80.869 53.2626C80.869 53.2626 79.3465 41.8323 83.7689 34.6929C83.7689 34.6929 69.0155 38.7313 63.5056 33.3227L60.7506 37.7217C60.7506 37.7217 56.0745 33.1784 56.0745 27.1207C56.0745 27.1207 58.6844 28.0582 65.9705 24.8131C73.2566 21.5679 76.7728 21.1712 83.3702 22.6135C89.9675 24.0558 93.1212 29.4284 93.1575 32.9621C93.1575 36.2433 91.2 37.7217 91.2 37.7217C91.2 37.7217 97.1449 44.3203 93.1575 50.0534C89.1701 55.7506 82.1739 61.051 77.1715 63.7914L80.869 53.2626Z" fill="url(#paint8_linear)"/>
<path fill-rule="evenodd" clip-rule="evenodd" d="M81.8839 51.9645C82.7539 51.0631 84.1676 50.0535 85.9076 50.5222C88.88 51.3155 89.315 56.652 85.2551 58.9958C81.7026 61.015 79.2377 59.5006 78.694 59.1039L78.5852 58.9958L80.9052 53.2987C80.8689 53.2626 81.3039 52.7578 81.8839 51.9645Z" fill="url(#paint9_linear)"/>
<path fill-rule="evenodd" clip-rule="evenodd" d="M77.1715 72.6616C77.1715 72.6616 87.3938 76.1953 89.2788 79.3684C89.2788 79.3684 85.2189 86.2193 82.3914 105.763C82.3914 105.763 82.0652 108.215 81.6665 110.991C80.9777 115.967 81.5577 121.015 83.2977 125.702C85.4726 131.508 88.1913 138.719 88.1913 138.719L68.798 150.005C68.798 150.005 66.768 132.734 67.783 118.563C68.798 104.356 77.1715 72.6616 77.1715 72.6616Z" fill="url(#paint10_linear)"/>
<path fill-rule="evenodd" clip-rule="evenodd" d="M54.5157 67.2529C54.5157 67.2529 26.3862 86.2193 22.5075 90.5101C18.6289 94.801 20.1876 100.318 26.3862 99.8852C32.5849 99.4525 44.5471 92.9981 44.5471 92.9981L54.5157 67.2529Z" fill="url(#paint11_linear)"/>
<path fill-rule="evenodd" clip-rule="evenodd" d="M34.941 48.9717C35.1222 49.0438 35.1947 49.0438 35.3397 49.152C35.5935 49.3323 35.7385 49.6208 35.7747 49.9092C35.811 50.1256 35.7747 50.1616 35.7385 50.3419C35.7385 50.3419 35.6297 50.7025 35.521 51.027C35.1947 52.5054 35.521 54.128 36.4272 55.39C37.0797 56.2914 38.0222 56.9765 39.0734 57.3371C40.5596 57.8419 42.0821 58.3467 43.5683 58.8515C46.0695 59.6809 49.042 58.7794 50.6007 56.5799C50.9632 56.0751 51.2532 55.4982 51.4344 54.9213V54.8852L51.5432 54.6688C51.7607 54.3443 52.0869 54.128 52.4857 54.128C53.1019 54.128 53.6456 54.7049 53.5731 55.3179C53.5731 55.4621 53.5006 55.5703 53.4644 55.6785C52.4857 58.4549 50.0207 60.6184 47.0845 61.1592C45.6708 61.4116 44.1846 61.3395 42.8071 60.8708C41.3209 60.366 39.7984 59.8612 38.3122 59.3564C36.0285 58.5991 34.1798 56.6881 33.491 54.3804C33.0198 52.8299 33.056 51.1712 33.5998 49.6568L33.7085 49.4405C33.8898 49.1881 34.1435 48.9717 34.4335 48.9357C34.651 48.9717 34.796 48.9717 34.941 48.9717Z" fill="url(#paint12_linear)"/>
<path fill-rule="evenodd" clip-rule="evenodd" d="M39.436 70.4983C39.436 70.4983 40.4147 68.407 42.0822 67.2531C43.7859 66.1353 45.5984 66.8204 47.0121 65.5584C48.3896 64.2964 49.8033 57.4454 48.3896 56.8685C47.0121 56.2916 40.7047 52.9382 38.2035 53.2267C37.0798 53.3709 35.7023 53.6594 34.5786 57.2651C33.4911 60.8709 34.5423 61.4478 34.1436 63.7555C33.7448 66.0632 32.0049 67.2531 32.0049 67.2531L39.436 70.4983Z" fill="url(#paint13_linear)"/>
<path fill-rule="evenodd" clip-rule="evenodd" d="M31.3524 63.7554C31.3524 63.7554 37.841 68.6592 41.1759 71.1832C41.1759 71.1832 32.2948 95.2337 28.9961 97.5775C25.6975 99.9212 24.1387 99.2361 22.2538 98.9837C20.3688 98.7313 16.2726 93.1424 19.2813 84.5606C22.2538 75.9429 31.3524 63.7554 31.3524 63.7554Z" fill="url(#paint14_linear)"/>
<path fill-rule="evenodd" clip-rule="evenodd" d="M62.7444 76.9525L63.7956 81.027C63.7956 81.027 64.8831 81.9285 66.6956 81.4958C68.508 81.027 71.0092 78.2866 71.0092 78.2866L66.6956 74.14L62.7444 76.9525Z" fill="url(#paint15_linear)"/>
<path fill-rule="evenodd" clip-rule="evenodd" d="M64.2304 69.4165L66.6954 74.1401L60.8955 78.3228L61.838 72.6617L64.2304 69.4165Z" fill="url(#paint16_linear)"/>
<path fill-rule="evenodd" clip-rule="evenodd" d="M64.2306 69.4165C64.2306 69.4165 57.1982 67.1809 54.5158 67.2531C54.5158 67.2531 48.3534 77.241 39.1461 96.3155C30.5187 114.2 28.2713 120.943 29.83 127.469L33.8174 144.272C33.8174 144.272 36.3549 127.83 42.191 112.469C47.9547 97.1088 64.2306 69.4165 64.2306 69.4165Z" fill="url(#paint17_linear)"/>
<path fill-rule="evenodd" clip-rule="evenodd" d="M66.6956 74.14L70.3205 80.5583L76.3016 76.0871L77.1716 72.6616L66.6956 74.14Z" fill="url(#paint18_linear)"/>
<path fill-rule="evenodd" clip-rule="evenodd" d="M63.7956 81.0271C63.7956 81.0271 56.3283 103.167 52.6309 124.477C52.6309 124.477 53.9358 128.01 57.4158 133.166C57.4158 133.166 62.5994 130.102 65.0644 127.289C65.0644 127.289 63.0707 116.904 67.5293 81.1713L63.7956 81.0271Z" fill="url(#paint19_linear)"/>
<path fill-rule="evenodd" clip-rule="evenodd" d="M116.357 85.7505C116.357 85.7505 117.299 81.2072 119.221 78.2865C121.142 75.3659 121.214 73.8514 122.918 73.8514C124.622 73.8514 124.259 76.3755 123.969 77.8899C123.679 79.3683 123.607 80.5582 126.326 80.5582C129.044 80.5582 132.814 80.7024 136.983 78.2865C141.188 75.8707 139.883 80.4861 138.723 82.5774C137.563 84.6688 132.633 91.2673 129.987 91.5558C127.377 91.8442 122.592 89.9332 120.852 90.7625C119.112 91.5558 115.342 94.0077 115.342 94.0077L116.357 85.7505Z" fill="url(#paint20_linear)"/>
<path fill-rule="evenodd" clip-rule="evenodd" d="M89.3151 79.3684L98.0512 97.253L115.306 83.5872L121.867 97.253C121.867 97.253 101.495 111.316 98.0149 112.866C94.535 114.416 92.5413 111.316 92.5413 111.316L83.9502 96.604C83.9864 96.5679 84.9289 79.3684 89.3151 79.3684Z" fill="url(#paint21_linear)"/>
<path fill-rule="evenodd" clip-rule="evenodd" d="M45.1272 32.962C46.3597 35.2697 47.6284 37.3611 48.9696 38.8034C50.4558 40.3899 51.797 41.688 52.9933 42.6976C52.9933 42.6976 53.3195 51.1712 47.0121 53.9115L42.481 52.1808C41.031 51.6399 39.146 51.3154 37.0073 51.1712C45.7072 43.8515 45.1272 32.962 45.1272 32.962Z" fill="#E2F9FF"/>
<path fill-rule="evenodd" clip-rule="evenodd" d="M18.2301 50.7025C14.134 48.5751 14.6414 39.4886 19.3901 30.4021C24.1025 21.3155 31.2799 15.6545 35.376 17.7458C35.376 17.7458 35.4123 17.7458 35.4123 17.7819C35.7385 17.9621 36.0285 18.1785 36.2823 18.4309C39.6535 21.2434 42.3359 27.6977 45.1634 32.9621C45.1634 32.9621 45.7071 43.8876 37.0435 51.1713C31.2799 50.7386 23.9938 51.4237 20.3326 51.1713C19.7526 51.2073 19.2089 51.0992 18.7376 50.9549C18.4839 50.8468 18.3389 50.7746 18.2301 50.7025Z" fill="url(#paint22_linear)"/>
<path fill-rule="evenodd" clip-rule="evenodd" d="M34.6149 19.1882C38.0948 20.9911 37.4061 29.1762 33.0924 37.4694C28.7788 45.7627 22.4714 51.0632 18.9915 49.2603C15.5115 47.4574 16.2003 39.2723 20.5139 30.979C24.8276 22.6858 31.135 17.4214 34.6149 19.1882Z" fill="url(#paint23_linear)"/>
<path fill-rule="evenodd" clip-rule="evenodd" d="M30.8448 41.2554L25.8787 38.4068C24.3925 37.5775 23.885 35.7025 24.7549 34.2241C25.0449 33.7193 25.3349 33.2145 25.6249 32.7457C26.4587 31.2674 28.3436 30.7626 29.8299 31.6279L34.5785 34.3323C34.1435 35.3779 33.6723 36.4236 33.1285 37.4693C32.3673 38.8034 31.6423 40.1015 30.8448 41.2554Z" fill="url(#paint24_linear)"/>
<path fill-rule="evenodd" clip-rule="evenodd" d="M27.9449 31.9886C28.4524 32.241 28.3436 33.467 27.7274 34.6929C27.0749 35.9189 26.1324 36.7122 25.625 36.4598C25.1175 36.2074 25.2262 34.9814 25.8425 33.7554C26.4949 32.5295 27.4374 31.7362 27.9449 31.9886Z" fill="url(#paint25_linear)"/>
<path fill-rule="evenodd" clip-rule="evenodd" d="M52.9932 42.6976C56.0019 45.2938 57.9232 46.2313 57.9232 46.2313C59.3369 47.2049 60.0256 49.6207 58.4306 52.8659C56.9444 55.9308 54.407 57.1568 53.2107 56.2914L47.0483 53.9116C53.3195 51.1712 52.9932 42.6976 52.9932 42.6976Z" fill="url(#paint26_linear)"/>
<path fill-rule="evenodd" clip-rule="evenodd" d="M164.822 106.664L159.82 111.64L188.384 140.053L193.387 135.078L164.822 106.664Z" fill="url(#paint27_linear)"/>
<path fill-rule="evenodd" clip-rule="evenodd" d="M173.957 114.2C172.435 112.686 169.934 112.686 168.411 114.2C168.085 114.525 167.759 114.849 167.432 115.174C165.91 116.688 165.91 119.176 167.432 120.691C172.399 125.63 182.802 135.979 188.131 141.279C189.001 142.145 190.161 142.614 191.393 142.614C192.626 142.614 193.786 142.145 194.656 141.279C195.526 140.414 195.997 139.26 195.997 138.034C195.997 136.808 195.526 135.654 194.656 134.789C189.327 129.489 178.923 119.14 173.957 114.2Z" fill="url(#paint28_linear)"/>
<path fill-rule="evenodd" clip-rule="evenodd" d="M129.008 76.0151C138.505 66.568 153.948 66.568 163.445 76.0151C172.942 85.4623 172.942 100.823 163.445 110.27C153.948 119.717 138.505 119.717 129.008 110.27C119.511 100.823 119.511 85.4623 129.008 76.0151ZM131.654 78.6474C139.702 70.6426 152.715 70.6426 160.762 78.6474C168.81 86.6522 168.81 99.5969 160.762 107.602C152.715 115.606 139.702 115.606 131.654 107.602C123.643 99.6329 123.643 86.6522 131.654 78.6474Z" fill="#2D3B46"/>
<path fill-rule="evenodd" clip-rule="evenodd" d="M131.654 78.6473C139.702 70.6425 152.715 70.6425 160.762 78.6473C168.81 86.6521 168.81 99.5968 160.762 107.602C152.715 115.606 139.702 115.606 131.654 107.602C123.643 99.6328 123.643 86.6521 131.654 78.6473Z" fill="#E2F9FF" fill-opacity="0.5"/>
<path fill-rule="evenodd" clip-rule="evenodd" d="M145.211 73.996C147.205 73.8878 149.235 74.1041 151.193 74.6089L159.82 106.664C158.334 108.107 156.702 109.296 154.963 110.198L145.211 73.996ZM131.908 80.3061C132.125 80.0537 132.343 79.8373 132.597 79.5849C135.678 76.52 139.52 74.7171 143.508 74.1763L153.404 110.919C149.199 112.578 144.559 112.758 140.282 111.388L131.908 80.3061Z" fill="white" fill-opacity="0.5"/>
<defs>
<linearGradient id="paint0_linear" x1="142.629" y1="162.758" x2="142.629" y2="36.4366" gradientUnits="userSpaceOnUse">
<stop stop-color="#32546D"/>
<stop offset="1" stop-color="#588193"/>
</linearGradient>
<linearGradient id="paint1_linear" x1="142.76" y1="49.6165" x2="144.497" y2="162.58" gradientUnits="userSpaceOnUse">
<stop stop-color="#EFF8FF"/>
<stop offset="1" stop-color="#CAE9FF"/>
</linearGradient>
<linearGradient id="paint2_linear" x1="138.645" y1="17.2131" x2="139.635" y2="28.5945" gradientUnits="userSpaceOnUse">
<stop stop-color="#F89F1E"/>
<stop offset="0.48" stop-color="#F08D16"/>
<stop offset="1" stop-color="#DB5D00"/>
</linearGradient>
<linearGradient id="paint3_linear" x1="143.47" y1="72.1782" x2="140.556" y2="38.6888" gradientUnits="userSpaceOnUse">
<stop stop-color="#32546D"/>
<stop offset="1" stop-color="#588193"/>
</linearGradient>
<linearGradient id="paint4_linear" x1="142.715" y1="60.6981" x2="143.712" y2="72.1569" gradientUnits="userSpaceOnUse">
<stop stop-color="#F89F1E"/>
<stop offset="0.48" stop-color="#F08D16"/>
<stop offset="1" stop-color="#DB5D00"/>
</linearGradient>
<linearGradient id="paint5_linear" x1="141.017" y1="44.2562" x2="142.133" y2="57.0795" gradientUnits="userSpaceOnUse">
<stop stop-color="#F89F1E"/>
<stop offset="0.48" stop-color="#F08D16"/>
<stop offset="1" stop-color="#DB5D00"/>
</linearGradient>
<linearGradient id="paint6_linear" x1="64.0689" y1="78.9992" x2="53.892" y2="145.052" gradientUnits="userSpaceOnUse">
<stop stop-color="#E2F9FF"/>
<stop offset="1" stop-color="#B5CACF"/>
</linearGradient>
<linearGradient id="paint7_linear" x1="70.4283" y1="70.6815" x2="73.8337" y2="36.2848" gradientUnits="userSpaceOnUse">
<stop stop-color="#FE8C77"/>
<stop offset="1" stop-color="#FDCB9F"/>
</linearGradient>
<linearGradient id="paint8_linear" x1="89.1269" y1="49.1873" x2="59.2761" y2="25.7125" gradientUnits="userSpaceOnUse">
<stop stop-color="#32546D"/>
<stop offset="1" stop-color="#588193"/>
</linearGradient>
<linearGradient id="paint9_linear" x1="81.877" y1="71.815" x2="85.2824" y2="37.4183" gradientUnits="userSpaceOnUse">
<stop stop-color="#FE8C77"/>
<stop offset="1" stop-color="#FDCB9F"/>
</linearGradient>
<linearGradient id="paint10_linear" x1="66.5056" y1="123.902" x2="120.38" y2="111.736" gradientUnits="userSpaceOnUse">
<stop stop-color="#32546D"/>
<stop offset="1" stop-color="#588193"/>
</linearGradient>
<linearGradient id="paint11_linear" x1="43.8678" y1="90.7621" x2="16.1128" y2="52.7232" gradientUnits="userSpaceOnUse">
<stop stop-color="#32546D"/>
<stop offset="1" stop-color="#588193"/>
</linearGradient>
<linearGradient id="paint12_linear" x1="45.7849" y1="58.1202" x2="43.0711" y2="44.9913" gradientUnits="userSpaceOnUse">
<stop stop-color="#32546D"/>
<stop offset="1" stop-color="#588193"/>
</linearGradient>
<linearGradient id="paint13_linear" x1="36.1625" y1="71.386" x2="42.5857" y2="57.4206" gradientUnits="userSpaceOnUse">
<stop stop-color="#FE8C77"/>
<stop offset="1" stop-color="#FDCB9F"/>
</linearGradient>
<linearGradient id="paint14_linear" x1="22.9288" y1="94.1577" x2="37.6887" y2="63.2603" gradientUnits="userSpaceOnUse">
<stop stop-color="#32546D"/>
<stop offset="1" stop-color="#588193"/>
</linearGradient>
<linearGradient id="paint15_linear" x1="66.7421" y1="80.3627" x2="66.7625" y2="74.1569" gradientUnits="userSpaceOnUse">
<stop stop-color="#F89F1E"/>
<stop offset="0.48" stop-color="#F08D16"/>
<stop offset="1" stop-color="#DB5D00"/>
</linearGradient>
<linearGradient id="paint16_linear" x1="64.5204" y1="70.6531" x2="63.7451" y2="79.0657" gradientUnits="userSpaceOnUse">
<stop stop-color="#E2F9FF"/>
<stop offset="1" stop-color="#B5CACF"/>
</linearGradient>
<linearGradient id="paint17_linear" x1="28.3272" y1="133.885" x2="83.857" y2="83.9887" gradientUnits="userSpaceOnUse">
<stop stop-color="#32546D"/>
<stop offset="1" stop-color="#588193"/>
</linearGradient>
<linearGradient id="paint18_linear" x1="71.9229" y1="73.7478" x2="71.8379" y2="81.3191" gradientUnits="userSpaceOnUse">
<stop stop-color="#E2F9FF"/>
<stop offset="1" stop-color="#B5CACF"/>
</linearGradient>
<linearGradient id="paint19_linear" x1="58.9951" y1="124.91" x2="67.0363" y2="83.1652" gradientUnits="userSpaceOnUse">
<stop stop-color="#F89F1E"/>
<stop offset="0.48" stop-color="#F08D16"/>
<stop offset="1" stop-color="#DB5D00"/>
</linearGradient>
<linearGradient id="paint20_linear" x1="111.401" y1="88.2431" x2="133.971" y2="79.7818" gradientUnits="userSpaceOnUse">
<stop stop-color="#FE8C77"/>
<stop offset="1" stop-color="#FDCB9F"/>
</linearGradient>
<linearGradient id="paint21_linear" x1="98.7117" y1="113.609" x2="101.43" y2="75.387" gradientUnits="userSpaceOnUse">
<stop stop-color="#32546D"/>
<stop offset="1" stop-color="#588193"/>
</linearGradient>
<linearGradient id="paint22_linear" x1="29.8726" y1="45.5079" x2="30.059" y2="17.4703" gradientUnits="userSpaceOnUse">
<stop stop-color="#F89F1E"/>
<stop offset="0.48" stop-color="#F08D16"/>
<stop offset="1" stop-color="#DB5D00"/>
</linearGradient>
<linearGradient id="paint23_linear" x1="33.1973" y1="37.1696" x2="20.3573" y2="31.2118" gradientUnits="userSpaceOnUse">
<stop stop-color="#32546D"/>
<stop offset="1" stop-color="#588193"/>
</linearGradient>
<linearGradient id="paint24_linear" x1="33.8637" y1="38.5385" x2="22.9554" y2="31.9993" gradientUnits="userSpaceOnUse">
<stop stop-color="#DB5D00"/>
<stop offset="0.52" stop-color="#F08D16"/>
<stop offset="1" stop-color="#F89F1E"/>
</linearGradient>
<linearGradient id="paint25_linear" x1="27.7397" y1="34.6683" x2="25.8353" y2="33.7846" gradientUnits="userSpaceOnUse">
<stop stop-color="#32546D"/>
<stop offset="1" stop-color="#588193"/>
</linearGradient>
<linearGradient id="paint26_linear" x1="53.0187" y1="54.2203" x2="53.0913" y2="42.7619" gradientUnits="userSpaceOnUse">
<stop stop-color="#F89F1E"/>
<stop offset="0.48" stop-color="#F08D16"/>
<stop offset="1" stop-color="#DB5D00"/>
</linearGradient>
<linearGradient id="paint27_linear" x1="177.885" y1="124.609" x2="162.829" y2="109.64" gradientUnits="userSpaceOnUse">
<stop stop-color="#32546D"/>
<stop offset="1" stop-color="#588193"/>
</linearGradient>
<linearGradient id="paint28_linear" x1="168.085" y1="114.471" x2="194.283" y2="141.639" gradientUnits="userSpaceOnUse">
<stop stop-color="#F89F1E"/>
<stop offset="0.48" stop-color="#F08D16"/>
<stop offset="1" stop-color="#DB5D00"/>
</linearGradient>
</defs>
</svg>
