<svg width="176" height="193" viewBox="0 0 176 193" fill="none" xmlns="http://www.w3.org/2000/svg">
<path fill-rule="evenodd" clip-rule="evenodd" d="M114.665 192.957C136.913 192.957 161.523 175.69 168.285 150.934C175.046 126.142 162.832 74.7035 136.913 58.9631C110.994 43.2226 87.1104 49.6933 71.9152 61.6168C56.72 73.5039 56.8291 110.838 47.632 119.889C38.4349 128.977 24.5121 131.304 15.4968 140.246C7.46295 148.171 2.55542 153.951 2.55542 168.928C2.55542 176.817 4.37302 192.957 24.5121 192.957H114.665Z" fill="#F1F2F0"/>
<path fill-rule="evenodd" clip-rule="evenodd" d="M65.5535 152.242C65.8807 151.952 66.3169 151.843 66.7532 151.879C67.1894 151.915 67.5893 152.133 67.8801 152.461C72.3514 157.804 89.6913 178.452 94.1626 183.796C94.4535 184.123 94.5625 184.559 94.5262 184.996C94.4898 185.432 94.2717 185.832 93.9445 186.123C91.9815 187.795 88.1645 190.957 86.2015 192.63C85.8744 192.92 85.4381 193.03 85.0019 192.993C84.5657 192.957 84.1658 192.739 83.875 192.412C79.4037 187.068 62.0637 166.42 57.5924 161.076C57.3016 160.749 57.1926 160.313 57.2289 159.876C57.2653 159.44 57.4834 159.04 57.8106 158.749C59.8099 157.077 63.5905 153.878 65.5535 152.242Z" fill="#FFE612"/>
<path fill-rule="evenodd" clip-rule="evenodd" d="M57.5198 159.077L85.838 192.811C85.5836 192.921 85.3291 192.957 85.0383 192.957C84.6021 192.921 84.2022 192.702 83.9114 192.375L57.6288 161.04C57.338 160.713 57.2289 160.276 57.2653 159.84C57.2653 159.586 57.3743 159.295 57.5198 159.077Z" fill="#E1B000"/>
<path fill-rule="evenodd" clip-rule="evenodd" d="M65.9544 151.989L75.1878 163.003L66.7178 170.092L57.4844 159.077C57.5571 159.005 57.5934 158.895 57.6661 158.823L65.6636 152.134C65.7727 152.061 65.8817 152.025 65.9544 151.989Z" fill="#F0B40E"/>
<path fill-rule="evenodd" clip-rule="evenodd" d="M65.9544 151.989L94.2727 185.723C94.2 185.869 94.0909 185.978 93.9455 186.087C91.9825 187.759 88.1655 190.922 86.2025 192.594C86.0935 192.703 85.9481 192.776 85.8027 192.848L57.4844 159.114C57.5571 158.968 57.6661 158.859 57.8115 158.75L60.2835 156.678L65.5545 152.279C65.6999 152.134 65.809 152.061 65.9544 151.989Z" fill="#FAC60E"/>
<path fill-rule="evenodd" clip-rule="evenodd" d="M94.2719 185.723C94.1992 185.868 94.0901 185.977 93.9447 186.086C91.9817 187.759 88.1647 190.921 86.2017 192.593C86.0927 192.702 85.9473 192.775 85.8019 192.848L83.8025 190.449L92.2725 183.36L94.2719 185.723Z" fill="#FBCB07"/>
<path fill-rule="evenodd" clip-rule="evenodd" d="M92.2724 183.324L87.4012 177.507L78.9312 184.596L83.8023 190.412L92.2724 183.324Z" fill="#FDCB0A"/>
<path fill-rule="evenodd" clip-rule="evenodd" d="M87.4013 177.507L80.0945 168.783L71.6245 175.908L78.9313 184.632L87.4013 177.507Z" fill="#EEB40D"/>
<path fill-rule="evenodd" clip-rule="evenodd" d="M90.673 183.723L91.6182 184.85L85.4383 190.049L84.4932 188.922L90.673 183.723Z" fill="#FFE612"/>
<path fill-rule="evenodd" clip-rule="evenodd" d="M88.2372 180.815L89.1824 181.942L83.0025 187.141L82.0574 186.014L88.2372 180.815Z" fill="#FFE612"/>
<path fill-rule="evenodd" clip-rule="evenodd" d="M85.8017 177.907L86.7468 179.034L80.567 184.232L79.6218 183.106L85.8017 177.907Z" fill="#FFE612"/>
<path fill-rule="evenodd" clip-rule="evenodd" d="M83.3661 174.999L84.3113 176.126L78.1314 181.324L77.1863 180.197L83.3661 174.999Z" fill="#FFE612"/>
<path fill-rule="evenodd" clip-rule="evenodd" d="M80.9306 172.091L81.8757 173.218L75.6959 178.416L74.7507 177.289L80.9306 172.091Z" fill="#FFE612"/>
<path fill-rule="evenodd" clip-rule="evenodd" d="M78.495 169.183L79.4402 170.31L73.2603 175.508L72.3152 174.381L78.495 169.183Z" fill="#FFE612"/>
<path fill-rule="evenodd" clip-rule="evenodd" d="M76.0595 166.311L77.0047 167.438L70.8248 172.636L69.8796 171.509L76.0595 166.311Z" fill="#FFE612"/>
<path fill-rule="evenodd" clip-rule="evenodd" d="M73.6237 163.403L74.5689 164.53L68.389 169.728L67.4438 168.601L73.6237 163.403Z" fill="#FFE612"/>
<path fill-rule="evenodd" clip-rule="evenodd" d="M71.1518 160.495L72.0969 161.621L65.9171 166.82L64.9719 165.693L71.1518 160.495Z" fill="#FFE612"/>
<path fill-rule="evenodd" clip-rule="evenodd" d="M68.7162 157.586L69.6614 158.713L63.4815 163.912L62.5364 162.785L68.7162 157.586Z" fill="#FFE612"/>
<path fill-rule="evenodd" clip-rule="evenodd" d="M66.2807 154.678L67.2258 155.805L61.046 161.003L60.1008 159.877L66.2807 154.678Z" fill="#FFE612"/>
<path fill-rule="evenodd" clip-rule="evenodd" d="M81.2574 189.213L57.6286 161.04C57.3378 160.713 57.2287 160.276 57.265 159.84C57.3014 159.404 57.5195 159.004 57.8467 158.713L65.5897 152.206C65.8078 152.024 66.0623 151.915 66.3531 151.843L81.2574 189.213Z" fill="#FF6900" fill-opacity="0.5"/>
<path fill-rule="evenodd" clip-rule="evenodd" d="M60.7195 181.215C60.7195 180.779 60.5378 180.379 60.247 180.052C59.9562 179.761 59.5199 179.579 59.0837 179.579C52.1405 179.579 25.1309 179.579 18.1876 179.579C17.7514 179.579 17.3515 179.761 17.0243 180.052C16.7335 180.343 16.5518 180.779 16.5518 181.215C16.5518 183.796 16.5518 188.74 16.5518 191.321C16.5518 191.757 16.7335 192.157 17.0243 192.484C17.3152 192.775 17.7514 192.957 18.1876 192.957C25.1309 192.957 52.1405 192.957 59.0837 192.957C59.5199 192.957 59.9198 192.775 60.247 192.484C60.5378 192.194 60.7195 191.757 60.7195 191.321C60.7195 188.74 60.7195 183.796 60.7195 181.215Z" fill="#FFEA0A"/>
<path fill-rule="evenodd" clip-rule="evenodd" d="M60.646 180.743C60.6823 180.852 60.6823 180.961 60.7187 181.033V191.466C60.7187 191.576 60.6823 191.685 60.646 191.757H53.8481V180.706H60.646V180.743Z" fill="#FECA04"/>
<path fill-rule="evenodd" clip-rule="evenodd" d="M60.6461 180.743C60.6824 180.888 60.7188 181.033 60.7188 181.215C60.7188 183.796 60.7188 188.74 60.7188 191.321C60.7188 191.466 60.6824 191.648 60.6461 191.794H16.5874C16.551 191.648 16.5146 191.503 16.5146 191.321C16.5146 188.74 16.5146 183.796 16.5146 181.215C16.5146 181.07 16.551 180.888 16.5874 180.743H60.6461Z" fill="#FCD808"/>
<path fill-rule="evenodd" clip-rule="evenodd" d="M37.3807 191.794H16.5874C16.551 191.648 16.5146 191.503 16.5146 191.321V181.215C16.5146 181.07 16.551 180.888 16.5874 180.743H37.3807V191.794Z" fill="#FECA04"/>
<path d="M20.4407 182.233H18.9866V190.34H20.4407V182.233Z" fill="#FFEA0A"/>
<path d="M24.2575 182.233H22.8035V190.34H24.2575V182.233Z" fill="#FFEA0A"/>
<path d="M28.0383 182.233H26.5842V190.34H28.0383V182.233Z" fill="#FFEA0A"/>
<path d="M31.8188 182.233H30.3647V190.34H31.8188V182.233Z" fill="#FFEA0A"/>
<path d="M35.636 182.233H34.1819V190.34H35.636V182.233Z" fill="#FFEA0A"/>
<path d="M39.4165 182.233H37.9624V190.34H39.4165V182.233Z" fill="#FFEA0A"/>
<path d="M43.197 182.233H41.7429V190.34H43.197V182.233Z" fill="#FFEA0A"/>
<path d="M46.9778 182.233H45.5237V190.34H46.9778V182.233Z" fill="#FFEA0A"/>
<path d="M50.7947 182.233H49.3406V190.34H50.7947V182.233Z" fill="#FFEA0A"/>
<path d="M54.5752 182.233H53.1211V190.34H54.5752V182.233Z" fill="#FFEA0A"/>
<path d="M58.3559 182.233H56.9019V190.34H58.3559V182.233Z" fill="#FFEA0A"/>
<path fill-rule="evenodd" clip-rule="evenodd" d="M46.9414 179.579H59.083C59.5192 179.579 59.9191 179.761 60.2463 180.052C60.5371 180.343 60.7188 180.779 60.7188 181.215C60.7188 183.796 60.7188 188.74 60.7188 191.321C60.7188 191.757 60.5371 192.157 60.2463 192.484C60.1736 192.557 60.1009 192.593 60.0282 192.666L46.9414 179.579Z" fill="#FF6900" fill-opacity="0.4"/>
<path fill-rule="evenodd" clip-rule="evenodd" d="M13.0615 154.424C13.0615 153.987 13.2433 153.588 13.5341 153.26C13.8249 152.97 14.2611 152.788 14.6974 152.788C21.6406 152.788 48.6502 152.788 55.5935 152.788C56.0297 152.788 56.4296 152.97 56.7567 153.26C57.0476 153.551 57.2293 153.987 57.2293 154.424C57.2293 157.005 57.2293 161.949 57.2293 164.53C57.2293 164.966 57.0476 165.366 56.7567 165.693C56.4659 165.984 56.0297 166.165 55.5935 166.165H14.6974C14.2611 166.165 13.8613 165.984 13.5341 165.693C13.2433 165.402 13.0615 164.966 13.0615 164.53C13.0615 161.949 13.0615 157.005 13.0615 154.424Z" fill="#FFEA0A"/>
<path fill-rule="evenodd" clip-rule="evenodd" d="M57.1926 153.951C57.2289 154.097 57.2653 154.242 57.2653 154.424V164.53C57.2653 164.675 57.2289 164.857 57.1926 165.002H36.3992V153.951H57.1926Z" fill="#FECA04"/>
<path fill-rule="evenodd" clip-rule="evenodd" d="M57.1927 153.951C57.2291 154.097 57.2654 154.242 57.2654 154.424C57.2654 157.005 57.2654 161.949 57.2654 164.53C57.2654 164.675 57.2291 164.857 57.1927 165.002H13.134C13.0976 164.857 13.0613 164.711 13.0613 164.53C13.0613 161.949 13.0613 157.005 13.0613 154.424C13.0613 154.278 13.0976 154.097 13.134 153.951H57.1927Z" fill="#FCD808"/>
<path fill-rule="evenodd" clip-rule="evenodd" d="M19.9318 165.002H13.134C13.0976 164.893 13.0976 164.784 13.0613 164.711V154.278C13.0613 154.169 13.0976 154.06 13.134 153.987H19.9318V165.002Z" fill="#FECA04"/>
<path d="M54.7571 155.442H53.303V163.548H54.7571V155.442Z" fill="#FFEA0A"/>
<path d="M50.9765 155.442H49.5225V163.548H50.9765V155.442Z" fill="#FFEA0A"/>
<path d="M47.1958 155.442H45.7417V163.548H47.1958V155.442Z" fill="#FFEA0A"/>
<path d="M43.3789 155.442H41.9248V163.548H43.3789V155.442Z" fill="#FFEA0A"/>
<path d="M39.5981 155.442H38.144V163.548H39.5981V155.442Z" fill="#FFEA0A"/>
<path d="M35.8176 155.442H34.3635V163.548H35.8176V155.442Z" fill="#FFEA0A"/>
<path d="M32.0007 155.442H30.5466V163.548H32.0007V155.442Z" fill="#FFEA0A"/>
<path d="M28.22 155.442H26.7659V163.548H28.22V155.442Z" fill="#FFEA0A"/>
<path d="M24.4394 155.442H22.9854V163.548H24.4394V155.442Z" fill="#FFEA0A"/>
<path d="M20.6587 155.442H19.2046V163.548H20.6587V155.442Z" fill="#FFEA0A"/>
<path d="M16.8418 155.442H15.3877V163.548H16.8418V155.442Z" fill="#FFEA0A"/>
<path fill-rule="evenodd" clip-rule="evenodd" d="M50.5038 152.788H55.6294C56.0656 152.788 56.4655 152.97 56.7927 153.26C57.0835 153.551 57.2653 153.987 57.2653 154.424C57.2653 157.005 57.2653 161.949 57.2653 164.53C57.2653 164.966 57.0835 165.366 56.7927 165.693L43.8877 152.788H50.5038Z" fill="#FB7B22" fill-opacity="0.5"/>
<path fill-rule="evenodd" clip-rule="evenodd" d="M51.4124 167.837C51.4124 167.401 51.2307 167.001 50.9398 166.674C50.649 166.383 50.2128 166.202 49.7766 166.202C42.8333 166.202 15.8237 166.202 8.88047 166.202C8.44425 166.202 8.04438 166.383 7.71721 166.674C7.42639 166.965 7.24463 167.401 7.24463 167.837C7.24463 170.418 7.24463 175.362 7.24463 177.943C7.24463 178.379 7.42639 178.779 7.71721 179.107C8.00802 179.397 8.44425 179.579 8.88047 179.579H49.7766C50.2128 179.579 50.6127 179.397 50.9398 179.107C51.2307 178.816 51.4124 178.379 51.4124 177.943C51.4124 175.362 51.4124 170.382 51.4124 167.837Z" fill="#FFE612"/>
<path fill-rule="evenodd" clip-rule="evenodd" d="M51.3399 167.365C51.3763 167.51 51.4126 167.656 51.4126 167.838C51.4126 170.419 51.4126 175.362 51.4126 177.943C51.4126 178.089 51.3763 178.271 51.3399 178.416H7.2812C7.24485 178.271 7.2085 178.125 7.2085 177.943V172.781V167.838C7.2085 167.692 7.24485 167.51 7.2812 167.365H51.3399Z" fill="#FAC60E"/>
<path d="M18.0051 167.365H10.4075V178.416H18.0051V167.365Z" fill="#FDCB0A"/>
<path d="M29.3833 167.365H18.0051V178.416H29.3833V167.365Z" fill="#EEB40D"/>
<path fill-rule="evenodd" clip-rule="evenodd" d="M51.3398 167.365C51.3761 167.474 51.3761 167.583 51.4125 167.656V178.089C51.4125 178.198 51.3761 178.307 51.3398 178.38H36.9807V167.329H51.3398V167.365Z" fill="#F0B40E"/>
<path d="M11.1345 168.819H9.68042V176.926H11.1345V168.819Z" fill="#FFE612"/>
<path d="M14.915 168.819H13.4609V176.926H14.915V168.819Z" fill="#FFE612"/>
<path d="M18.7322 168.819H17.2781V176.926H18.7322V168.819Z" fill="#FFE612"/>
<path d="M22.5127 168.819H21.0586V176.926H22.5127V168.819Z" fill="#FFE612"/>
<path d="M26.2934 168.819H24.8394V176.926H26.2934V168.819Z" fill="#FFE612"/>
<path d="M30.1103 168.819H28.6562V176.926H30.1103V168.819Z" fill="#FFE612"/>
<path d="M33.8909 168.819H32.4368V176.926H33.8909V168.819Z" fill="#FFE612"/>
<path d="M37.6716 168.819H36.2175V176.926H37.6716V168.819Z" fill="#FFE612"/>
<path d="M41.4885 168.819H40.0344V176.926H41.4885V168.819Z" fill="#FFE612"/>
<path d="M45.269 168.819H43.8149V176.926H45.269V168.819Z" fill="#FFE612"/>
<path d="M49.0498 168.819H47.5957V176.926H49.0498V168.819Z" fill="#FFE612"/>
<path fill-rule="evenodd" clip-rule="evenodd" d="M33.5273 166.165H49.7404C50.1766 166.165 50.5765 166.347 50.9036 166.638C51.1945 166.929 51.3762 167.365 51.3762 167.801C51.3762 170.382 51.3762 175.326 51.3762 177.907C51.3762 178.343 51.1945 178.743 50.9036 179.07C50.6128 179.361 50.1766 179.543 49.7404 179.543H46.9049L33.5273 166.165Z" fill="#FF6900" fill-opacity="0.45"/>
<path fill-rule="evenodd" clip-rule="evenodd" d="M51.34 178.416C51.2673 178.67 51.1219 178.925 50.9401 179.107C50.6493 179.398 50.2131 179.579 49.7768 179.579H8.84439C8.40816 179.579 8.00829 179.398 7.68112 179.107C7.49936 178.925 7.35395 178.67 7.28125 178.416H51.34Z" fill="#E1B000"/>
<path fill-rule="evenodd" clip-rule="evenodd" d="M15.0242 141.046C15.0242 140.61 15.2059 140.21 15.4967 139.883C15.7876 139.592 16.2238 139.41 16.66 139.41C23.6033 139.41 50.6129 139.41 57.5561 139.41C57.9923 139.41 58.3922 139.592 58.7194 139.883C59.0102 140.174 59.192 140.61 59.192 141.046C59.192 143.627 59.192 148.571 59.192 151.152C59.192 151.588 59.0102 151.988 58.7194 152.315C58.4286 152.606 57.9923 152.788 57.5561 152.788H16.66C16.2238 152.788 15.8239 152.606 15.4967 152.315C15.2059 152.024 15.0242 151.588 15.0242 151.152C15.0242 148.571 15.0242 143.627 15.0242 141.046Z" fill="#FFE612"/>
<path fill-rule="evenodd" clip-rule="evenodd" d="M59.1557 151.625C59.083 151.879 58.9375 152.133 58.7558 152.315C58.465 152.606 58.0287 152.788 57.5925 152.788H16.6601C16.2238 152.788 15.824 152.606 15.4968 152.315C15.315 152.133 15.1696 151.879 15.0969 151.625H59.1557Z" fill="#E1B000"/>
<path fill-rule="evenodd" clip-rule="evenodd" d="M59.1556 140.574C59.1919 140.719 59.2283 140.864 59.2283 141.046C59.2283 143.627 59.2283 148.571 59.2283 151.152C59.2283 151.297 59.1919 151.479 59.1556 151.625H55.9929V140.574H59.1556Z" fill="#FBCB07"/>
<path fill-rule="evenodd" clip-rule="evenodd" d="M59.1556 140.574C59.192 140.719 59.2283 140.864 59.2283 141.046C59.2283 143.627 59.2283 148.571 59.2283 151.152C59.2283 151.297 59.192 151.479 59.1556 151.625H15.0969C15.0605 151.479 15.0242 151.334 15.0242 151.152C15.0242 148.571 15.0242 143.627 15.0242 141.046C15.0242 140.901 15.0605 140.719 15.0969 140.574H59.1556Z" fill="#FAC60E"/>
<path fill-rule="evenodd" clip-rule="evenodd" d="M29.4559 151.625H15.0969C15.0605 151.515 15.0605 151.406 15.0242 151.334V140.901C15.0242 140.792 15.0605 140.683 15.0969 140.61H29.4559V151.625Z" fill="#F0B40E"/>
<path d="M56.0292 140.574H48.4316V151.625H56.0292V140.574Z" fill="#FDCB0A"/>
<path d="M48.4317 140.574H37.0535V151.625H48.4317V140.574Z" fill="#EEB40D"/>
<path d="M56.72 142.064H55.2659V150.17H56.72V142.064Z" fill="#FFE612"/>
<path d="M52.9394 142.064H51.4854V150.17H52.9394V142.064Z" fill="#FFE612"/>
<path d="M49.1587 142.064H47.7046V150.17H49.1587V142.064Z" fill="#FFE612"/>
<path d="M45.3418 142.064H43.8877V150.17H45.3418V142.064Z" fill="#FFE612"/>
<path d="M41.5613 142.064H40.1072V150.17H41.5613V142.064Z" fill="#FFE612"/>
<path d="M37.7805 142.064H36.3264V150.17H37.7805V142.064Z" fill="#FFE612"/>
<path d="M34 142.064H32.5459V150.17H34V142.064Z" fill="#FFE612"/>
<path d="M30.1831 142.064H28.729V150.17H30.1831V142.064Z" fill="#FFE612"/>
<path d="M26.4023 142.064H24.9482V150.17H26.4023V142.064Z" fill="#FFE612"/>
<path d="M22.6218 142.064H21.1677V150.17H22.6218V142.064Z" fill="#FFE612"/>
<path d="M18.8047 142.064H17.3506V150.17H18.8047V142.064Z" fill="#FFE612"/>
<path fill-rule="evenodd" clip-rule="evenodd" d="M18.2232 148.171C18.2232 148.171 18.9866 148.971 19.7136 149.698C20.4407 150.461 21.5312 150.752 22.5491 150.461C23.5306 150.17 24.5848 149.88 24.5848 149.88C24.5848 149.88 23.7851 150.643 23.058 151.37C22.2946 152.097 22.0038 153.188 22.2946 154.206C22.5854 155.187 22.8763 156.241 22.8763 156.241C22.8763 156.241 22.1129 155.441 21.3858 154.714C20.6588 153.951 19.5682 153.66 18.5504 153.951C17.5689 154.242 16.5146 154.533 16.5146 154.533C16.5146 154.533 17.3144 153.769 18.0414 153.042C18.8048 152.315 19.0956 151.225 18.8048 150.207C18.514 149.225 18.2232 148.171 18.2232 148.171Z" fill="white"/>
<path fill-rule="evenodd" clip-rule="evenodd" d="M52.8668 131.958C52.8668 131.958 55.1569 134.285 56.611 135.775C57.3381 136.538 58.4286 136.829 59.4465 136.538C61.4459 135.993 64.6085 135.084 64.6085 135.084C64.6085 135.084 62.2819 137.375 60.7915 138.829C60.0281 139.556 59.7373 140.646 60.0281 141.664C60.5734 143.663 61.4822 146.826 61.4822 146.826C61.4822 146.826 59.192 144.5 57.7379 143.009C57.0109 142.246 55.9203 141.955 54.9025 142.246C52.9031 142.791 49.7405 143.7 49.7405 143.7C49.7405 143.7 52.067 141.41 53.5574 139.956C54.3208 139.228 54.6117 138.138 54.3208 137.12C53.7392 135.084 52.8668 131.958 52.8668 131.958Z" fill="white"/>
<path d="M124.117 187.831L119.682 190.231L122.445 178.452L126.88 176.053L124.117 187.831Z" fill="#003F26"/>
<path d="M126.879 176.053L122.372 178.452L101.688 173.545L106.122 171.146L126.879 176.053Z" fill="url(#paint0_linear)"/>
<path d="M124.117 187.831L133.641 190.012L129.17 192.412L119.682 190.231L124.117 187.831Z" fill="url(#paint1_linear)"/>
<path d="M125.026 90.9166L120.554 93.3158L101.688 173.545L106.122 171.146L125.026 90.9166Z" fill="url(#paint2_linear)"/>
<path d="M148.255 85.4274L143.783 87.8267L142.038 94.9517L145.783 95.8241L148.255 85.4274Z" fill="url(#paint3_linear)"/>
<path d="M143.529 105.457L139.058 107.857L134.187 128.505L137.894 129.377L143.529 105.457Z" fill="url(#paint4_linear)"/>
<path d="M139.058 107.857L132.732 106.403L133.532 103.058L143.529 105.457L139.058 107.857Z" fill="url(#paint5_linear)"/>
<path d="M135.604 139.01L131.169 141.41L125.462 165.693L129.133 166.529L135.604 139.01Z" fill="url(#paint6_linear)"/>
<path d="M131.169 141.41L135.604 139.01L125.607 136.611L124.88 139.919L131.169 141.41Z" fill="url(#paint7_linear)"/>
<path d="M152.035 111.819C152.035 111.819 158.469 114.037 158.869 121.162C159.306 128.287 154.762 131.449 154.762 131.449C154.762 131.449 162.432 130.431 163.377 119.38C163.377 119.38 164.54 111.201 152.944 107.893L152.035 111.819Z" fill="url(#paint8_linear)"/>
<path d="M145.092 141.301L144.183 145.081C144.183 145.081 151.672 147.117 153.017 156.023C154.362 164.929 146.801 169.292 146.801 169.292C146.801 169.292 159.2 168.259 158 153.5C157.694 151.43 157.634 143.045 145.092 141.301Z" fill="url(#paint9_linear)"/>
<path d="M163.995 136.647C163.995 136.647 159.742 139.665 157.015 139.665L153.853 138.574L154.325 136.32L163.995 136.647Z" fill="url(#paint10_linear)"/>
<path d="M106.123 171.146L125.026 90.8802L145.783 95.7878L148.218 85.3911L157.743 87.5722L155.271 98.0779C163.413 100.623 168.466 103.785 171.883 107.857C175.337 111.928 176.282 117.163 174.792 123.597C173.665 128.359 171.411 131.994 167.994 134.466C164.577 136.975 160.287 138.029 155.089 137.702L154.98 138.211C158.251 139.592 161.123 141.337 163.523 143.409C165.958 145.481 167.667 148.026 168.648 151.043C169.666 154.06 169.666 157.659 168.685 161.803C166.976 169.074 163.123 174.09 157.161 176.853C151.163 179.616 144.728 180.161 136.404 178.198L133.641 189.976L124.117 187.795L126.88 176.017L106.123 171.146ZM127.897 126.978L137.894 129.341L143.529 105.421L133.532 103.058L127.897 126.978ZM119.137 164.166L129.133 166.529L135.604 138.974L125.607 136.611L119.137 164.166ZM162.977 122.179C164.54 115.6 161.669 110.91 152.944 107.893L147.419 131.413C152.617 132.176 155.67 131.631 158.106 129.995C160.505 128.359 162.141 125.742 162.977 122.179ZM157.052 158.023C157.888 154.424 157.415 151.188 155.67 148.244C153.889 145.299 150.872 143.082 145.128 141.301L138.694 168.601C144.619 169.655 148.327 169.001 151.272 166.929C154.216 164.82 156.143 161.876 157.052 158.023Z" fill="url(#paint11_linear)"/>
<path fill-rule="evenodd" clip-rule="evenodd" d="M145.9 89.18C145.9 89.18 146.386 90.8178 146.755 92.1872C147.055 93.1978 147.857 93.9834 148.874 94.2125C150.22 94.533 151.922 94.8998 151.922 94.8998C151.922 94.8998 150.284 95.3863 148.915 95.7551C147.904 96.0553 147.118 96.8575 146.889 97.8736C146.569 99.2202 146.202 100.922 146.202 100.922C146.202 100.922 145.716 99.284 145.347 97.9146C145.047 96.9041 144.244 96.1184 143.228 95.8894C141.882 95.5688 140.18 95.2021 140.18 95.2021C140.18 95.2021 141.818 94.7156 143.187 94.3468C144.198 94.0466 144.983 93.2444 145.212 92.2283C145.533 90.8817 145.9 89.18 145.9 89.18Z" fill="white"/>
<path fill-rule="evenodd" clip-rule="evenodd" d="M159.217 165C159.217 165 159.689 166.309 160.089 167.363C160.38 168.163 161.071 168.744 161.943 168.853C163.034 169.035 164.415 169.217 164.415 169.217C164.415 169.217 163.107 169.689 162.052 170.089C161.253 170.38 160.671 171.071 160.562 171.943C160.38 173.034 160.198 174.415 160.198 174.415C160.198 174.415 159.726 173.107 159.326 172.052C159.035 171.253 158.344 170.671 157.472 170.562C156.381 170.38 155 170.198 155 170.198C155 170.198 156.309 169.726 157.363 169.326C158.163 169.035 158.744 168.344 158.853 167.472C159.035 166.381 159.217 165 159.217 165Z" fill="white"/>
<path fill-rule="evenodd" clip-rule="evenodd" d="M104.669 166.093C104.669 166.093 105.141 166.892 105.577 167.692C106.086 168.601 107.068 169.183 108.122 169.146C109.031 169.146 109.976 169.146 109.976 169.146C109.976 169.146 109.176 169.619 108.376 170.055C107.468 170.564 106.886 171.546 106.922 172.6C106.922 173.509 106.922 174.454 106.922 174.454C106.922 174.454 106.45 173.654 106.014 172.854C105.505 171.945 104.523 171.364 103.469 171.4C102.56 171.4 101.615 171.4 101.615 171.4C101.615 171.4 102.415 170.928 103.214 170.491C104.123 169.982 104.705 169.001 104.669 167.947C104.669 167.038 104.669 166.093 104.669 166.093Z" fill="white"/>
<path fill-rule="evenodd" clip-rule="evenodd" d="M118.41 43.7316C118.41 43.7316 120.082 43.6952 121.027 43.4408C121.972 43.15 122.481 43.15 122.699 43.4408C122.954 43.7316 122.736 44.604 121.972 44.604C121.209 44.604 120.155 45.5492 120.155 45.5492L118.41 43.7316Z" fill="#E87965"/>
<path fill-rule="evenodd" clip-rule="evenodd" d="M79.8398 70.414C79.8398 70.414 81.3303 72.2316 84.093 73.2131C86.8558 74.1946 91.1817 72.2316 91.1817 72.2316L92.8902 67.0696C92.9266 67.0696 82.4935 64.4159 79.8398 70.414Z" fill="url(#paint12_linear)"/>
<path fill-rule="evenodd" clip-rule="evenodd" d="M114.665 44.7131C114.665 44.7131 115.72 43.4407 117.137 43.4407C118.555 43.4407 120.154 44.9675 121.936 45.6946C123.753 46.4216 126.698 46.6397 127.716 46.7851C128.734 46.9305 128.77 48.1302 127.716 48.2029C126.661 48.2756 123.135 48.3119 120.591 47.7666C118.082 47.2214 117.101 47.7666 117.101 47.7666L114.665 44.7131Z" fill="url(#paint13_linear)"/>
<path fill-rule="evenodd" clip-rule="evenodd" d="M83.7297 114.473L102.851 115.636L92.9631 76.5939C92.9631 76.5939 89.8732 76.9937 84.0205 77.6117C78.1678 78.2297 82.6391 94.6245 82.6391 94.6245L83.7297 114.473Z" fill="url(#paint14_linear)"/>
<path fill-rule="evenodd" clip-rule="evenodd" d="M83.7297 72.268C83.7297 72.268 85.0021 74.9217 84.5658 77.6117C84.1296 80.3018 89.6915 80.3018 89.6915 80.3018L92.9268 76.6302C92.9268 76.6302 91.3637 75.7941 91.1456 71.3228C90.8911 66.7788 83.7297 72.268 83.7297 72.268Z" fill="#E87965"/>
<path fill-rule="evenodd" clip-rule="evenodd" d="M78.8222 66.6697C78.8222 66.6697 76.2412 65.7245 75.5868 66.6697C74.9325 67.6149 74.7871 69.3234 76.2412 70.1595C77.6953 70.9956 81.2578 70.1595 81.2578 70.1595L78.8222 66.6697Z" fill="url(#paint15_linear)"/>
<path fill-rule="evenodd" clip-rule="evenodd" d="M89.3642 50.7839C89.3642 50.7839 91.4727 51.4746 92.6723 53.6557C94.0537 56.2003 94.5626 59.981 94.5626 59.981L93.472 61.5804L85.4019 52.2743L89.3642 50.7839Z" fill="url(#paint16_linear)"/>
<path fill-rule="evenodd" clip-rule="evenodd" d="M93.9446 60.9261C93.9446 60.9261 94.1627 59.2539 94.9261 59.2903C95.6895 59.3266 96.3802 60.2354 96.2711 61.8349C96.1621 63.4344 94.9261 63.9797 94.9261 63.9797L93.9446 60.9261Z" fill="url(#paint17_linear)"/>
<path fill-rule="evenodd" clip-rule="evenodd" d="M77.6589 57.6908C76.1321 60.2718 76.3502 62.0894 77.6589 64.7794C78.9675 67.4695 81.076 70.7775 82.6391 71.7954C84.1659 72.8133 88.2737 72.5951 90.0913 71.7954C91.9089 70.9956 94.0537 69.4325 94.5626 67.3604C95.1079 65.2884 95.1079 64.1251 93.9446 60.8898C92.745 57.6908 91.9452 54.819 89.5096 53.1468C87.1468 51.5836 79.5492 54.4918 77.6589 57.6908Z" fill="url(#paint18_linear)"/>
<path fill-rule="evenodd" clip-rule="evenodd" d="M76.6047 66.2698C76.6047 66.2698 72.2061 61.7258 73.6602 56.6365C75.1143 51.5472 77.2591 51.6199 78.7495 49.4025C80.24 47.185 81.7667 43.8406 83.7661 43.4771C85.8018 43.1136 89.4734 44.2041 90.3822 48.4937C91.291 52.7832 81.0761 54.7099 79.6583 55.655C78.2042 56.6002 76.6411 60.3808 79.2585 67.6149L76.6047 66.2698Z" fill="url(#paint19_linear)"/>
<path fill-rule="evenodd" clip-rule="evenodd" d="M97.1073 180.561C97.1073 180.561 101.288 187.431 107.977 188.449C107.977 188.449 109.322 191.248 109.322 192.957H90.3822V190.485C90.3822 190.485 90.2004 183.469 90.8911 180.561C91.6182 177.653 97.1073 180.561 97.1073 180.561Z" fill="url(#paint20_linear)"/>
<path fill-rule="evenodd" clip-rule="evenodd" d="M77.1499 179.252C77.1499 179.252 78.0223 187.141 79.2219 189.831V192.993H64.6084V189.831C64.6084 189.831 67.6983 179.034 69.4432 177.289C71.2245 175.508 77.1499 179.252 77.1499 179.252Z" fill="url(#paint21_linear)"/>
<path fill-rule="evenodd" clip-rule="evenodd" d="M83.7297 114.473L102.851 115.636L102.233 119.889L80.4216 118.508L83.7297 114.473Z" fill="url(#paint22_linear)"/>
<path fill-rule="evenodd" clip-rule="evenodd" d="M76.6047 123.379C76.6047 123.379 74.0237 157.477 67.335 177.216C67.335 177.216 67.9893 179.616 78.1679 179.107C78.1679 179.107 86.0563 144.645 88.8918 129.741C88.9645 129.268 89.2916 128.832 89.6915 128.577C90.1277 128.323 90.6367 128.287 91.1092 128.432C91.5818 128.577 91.909 129.05 91.909 129.559C91.8363 134.903 91.5091 164.093 89.9823 180.561H98.416C98.416 180.561 104.85 141.119 103.723 124.724V119.162C103.723 119.162 84.6022 117.89 79.8401 117.708C75.078 117.49 76.6047 123.379 76.6047 123.379Z" fill="url(#paint23_linear)"/>
<path fill-rule="evenodd" clip-rule="evenodd" d="M86.8559 81.2833C86.8559 81.2833 88.8189 82.5919 89.4369 82.9555C90.0549 83.2826 91.0364 82.6283 91.0364 82.6283C91.0364 82.6283 92.9267 80.4108 92.9267 79.9019C92.9267 79.3566 89.9822 78.2661 89.9822 78.2661L89.0007 78.4115L86.3833 78.8113L86.8559 81.2833Z" fill="url(#paint24_linear)"/>
<path fill-rule="evenodd" clip-rule="evenodd" d="M89.0372 78.3751L85.511 83.1373L83.7661 76.9938L84.6386 75.5397C85.2202 76.5939 86.4562 77.2482 89.0372 78.3751Z" fill="url(#paint25_linear)"/>
<path fill-rule="evenodd" clip-rule="evenodd" d="M89.0371 78.3751L93.6538 81.7195L92.9631 76.5939L91.7635 74.7399C91.7272 74.7399 91.7635 76.8484 89.0371 78.3751Z" fill="url(#paint26_linear)"/>
<path fill-rule="evenodd" clip-rule="evenodd" d="M89.0371 82.701L89.6914 108.802L92.9631 112.219L96.2712 108.802L91.3636 81.7195L89.0371 82.701Z" fill="url(#paint27_linear)"/>
<path fill-rule="evenodd" clip-rule="evenodd" d="M91.7271 74.7399C91.7271 74.7399 107.94 47.9847 113.793 44.4222C113.793 44.4222 117.246 45.222 118.555 48.0211C118.555 48.0211 104.341 64.8521 99.1065 78.3024C99.1065 78.3024 105.723 109.565 105.359 124.215L99.1065 126.178C99.1429 126.142 95.1441 81.4287 91.7271 74.7399Z" fill="url(#paint28_linear)"/>
<path fill-rule="evenodd" clip-rule="evenodd" d="M44.6876 51.3655C44.6876 51.3655 42.2884 51.2928 41.1978 50.0932C40.0709 48.8936 39.2712 49.2208 38.9077 49.4752C38.5441 49.7297 37.9989 50.3477 39.2712 51.6927C40.5435 53.0377 40.5435 52.1653 40.8707 53.4013C41.1615 54.6372 44.6876 51.3655 44.6876 51.3655Z" fill="#E87965"/>
<path fill-rule="evenodd" clip-rule="evenodd" d="M50.5039 52.7469C50.5039 52.7469 48.3955 50.8203 46.5051 50.8203C44.6148 50.8203 41.634 53.3285 39.3438 53.3285C37.09 53.3285 34.5453 52.7106 34.2181 53.3285C33.8546 53.9465 33.4184 54.8553 36.472 56.2367C40.1799 57.9089 44.215 55.6914 45.3419 56.2367C46.5051 56.782 49.1952 58.9995 49.1952 58.9995L50.5039 52.7469Z" fill="url(#paint29_linear)"/>
<path fill-rule="evenodd" clip-rule="evenodd" d="M83.7296 76.9937C83.7296 76.9937 85.7653 80.6653 86.6741 92.6615C87.5829 104.694 84.6747 127.559 84.6747 127.559L74.1326 122.107C74.1326 122.107 78.7857 101.386 78.1314 83.8279C78.1314 83.8279 65.6262 68.8145 45.3054 58.1633C45.3054 58.1633 49.1224 55.2915 50.4674 52.7469C50.4674 52.7469 71.6607 65.8336 82.2755 77.0301C82.3119 76.9937 82.7844 77.6481 83.7296 76.9937Z" fill="url(#paint30_linear)"/>
<path fill-rule="evenodd" clip-rule="evenodd" d="M79.6218 190.921C79.6218 190.63 79.3674 190.376 79.0765 190.376C76.6773 190.376 67.2258 190.376 64.8265 190.376C64.5357 190.376 64.2812 190.63 64.2812 190.921C64.2812 191.357 64.2812 191.975 64.2812 192.412C64.2812 192.702 64.5357 192.957 64.8265 192.957C67.2258 192.957 76.6773 192.957 79.0765 192.957C79.3674 192.957 79.6218 192.702 79.6218 192.412C79.6218 191.975 79.6218 191.357 79.6218 190.921Z" fill="url(#paint31_linear)"/>
<path fill-rule="evenodd" clip-rule="evenodd" d="M109.322 190.921C109.322 190.776 109.249 190.63 109.176 190.521C109.067 190.412 108.922 190.376 108.776 190.376C105.977 190.376 93.3629 190.376 90.5638 190.376C90.4184 190.376 90.273 190.449 90.164 190.521C90.0549 190.63 90.0186 190.776 90.0186 190.921C90.0186 191.357 90.0186 191.975 90.0186 192.412C90.0186 192.557 90.0913 192.702 90.164 192.812C90.273 192.921 90.4184 192.957 90.5638 192.957C93.3629 192.957 105.977 192.957 108.776 192.957C108.922 192.957 109.067 192.884 109.176 192.812C109.285 192.702 109.322 192.557 109.322 192.412C109.322 191.975 109.322 191.357 109.322 190.921Z" fill="url(#paint32_linear)"/>
<path fill-rule="evenodd" clip-rule="evenodd" d="M45.3418 32.2444L47.3775 35.7705C47.3775 35.7705 51.6671 30.2813 59.0829 32.2444C59.0829 32.2444 60.5733 28.1366 56.7564 24.5741C56.7564 24.5377 50.4311 26.2099 45.3418 32.2444Z" fill="url(#paint33_linear)"/>
<path fill-rule="evenodd" clip-rule="evenodd" d="M85.0382 0L82.4209 5.48917C82.4209 5.48917 85.1837 12.0325 91.618 14.7953C91.618 14.7953 93.2175 8.47004 92.9267 6.10715C92.9267 6.10715 87.074 6.9069 85.0382 0Z" fill="url(#paint34_linear)"/>
<path fill-rule="evenodd" clip-rule="evenodd" d="M116.665 19.1939C116.665 19.1939 117.537 13.6684 127.098 9.05167L127.897 3.5625C127.861 3.5625 117.901 9.45154 116.665 19.1939Z" fill="url(#paint35_linear)"/>
<path fill-rule="evenodd" clip-rule="evenodd" d="M135.386 31.4082C135.386 31.4082 135.713 32.317 138.73 31.1174C141.784 29.9178 150.036 25.8827 150.036 25.8827L151.744 33.1895C151.744 33.1895 140.621 37.479 139.676 37.6971C138.73 37.9152 138.149 38.0606 137.749 37.479C137.349 36.861 135.568 33.2622 135.386 31.4082Z" fill="url(#paint36_linear)"/>
<path fill-rule="evenodd" clip-rule="evenodd" d="M153.417 52.238C153.417 52.238 156.47 52.7469 157.597 50.7839C157.597 50.7839 157.525 56.164 159.742 58.1634C161.996 60.1991 165.558 58.1634 165.558 58.1634L161.996 63.907C161.996 63.907 156.834 63.0345 155.125 59.6174C153.417 56.2003 153.417 52.238 153.417 52.238Z" fill="url(#paint37_linear)"/>
<path fill-rule="evenodd" clip-rule="evenodd" d="M135.386 66.488C135.386 66.488 138.112 70.1232 140.512 70.9229C140.512 70.9229 140.693 79.0295 133.35 83.9006C133.35 83.9006 129.679 80.738 128.552 76.6302C128.552 76.5939 134.768 73.1404 135.386 66.488Z" fill="url(#paint38_linear)"/>
<path fill-rule="evenodd" clip-rule="evenodd" d="M36.472 77.3572C36.472 77.3572 35.6722 83.7552 44.7602 82.9191C44.7602 82.9191 46.1053 85.5365 44.7602 90.1532C44.7602 90.1532 35.854 90.3349 33.1639 83.5007C33.1276 83.5007 34 79.393 36.472 77.3572Z" fill="url(#paint39_linear)"/>
<path fill-rule="evenodd" clip-rule="evenodd" d="M3.17343 73.9038L0.0107985 76.1213C0.0107985 76.1213 -0.461779 84.5186 4.84563 89.6443C4.84563 89.6443 7.68109 89.1717 9.68046 85.6092C9.71681 85.6092 3.71871 83.5371 3.17343 73.9038Z" fill="url(#paint40_linear)"/>
<path fill-rule="evenodd" clip-rule="evenodd" d="M36.3992 117.199C36.3992 117.199 40.3615 116.436 44.6511 110.292L47.9591 114.509C47.9591 114.509 44.433 121.416 38.3258 120.653L36.3992 117.199Z" fill="url(#paint41_linear)"/>
<path fill-rule="evenodd" clip-rule="evenodd" d="M59.9553 118.762C59.9553 118.762 65.4445 121.852 70.3157 117.672L71.0427 124.179C71.0427 124.179 68.1709 126.287 64.7538 125.924C61.3367 125.56 59.9553 123.815 59.9553 123.815V118.762Z" fill="url(#paint42_linear)"/>
<path fill-rule="evenodd" clip-rule="evenodd" d="M18.1504 114C19.3863 114.727 19.6045 116.654 18.623 118.326C17.6414 119.998 15.8602 120.798 14.6242 120.071C14.5515 120.035 14.4788 119.962 14.4061 119.926L13.7518 119.453L13.8608 119.235C13.3883 118.326 13.461 116.945 14.1516 115.745C14.8423 114.509 16.0056 113.782 17.0235 113.746L17.2416 113.382L18.1504 114Z" fill="#EFA419"/>
<path fill-rule="evenodd" clip-rule="evenodd" d="M17.2418 113.382C18.4777 114.109 18.6958 116.036 17.7143 117.708C16.7328 119.38 14.9516 120.18 13.7156 119.453C12.4796 118.726 12.2615 116.799 13.243 115.127C14.2245 113.455 16.0058 112.655 17.2418 113.382Z" fill="#FEE001"/>
<path fill-rule="evenodd" clip-rule="evenodd" d="M16.9509 113.891C17.9687 114.473 18.1505 116.109 17.3508 117.49C16.551 118.871 15.0606 119.562 14.0427 118.944C13.0249 118.362 12.8431 116.727 13.6428 115.345C14.4426 113.964 15.933 113.309 16.9509 113.891Z" fill="#EFA419"/>
<path fill-rule="evenodd" clip-rule="evenodd" d="M14.4062 114.764L17.0962 117.454C16.8418 117.89 16.4783 118.253 16.1147 118.508L13.6064 116C13.6791 115.818 13.7519 115.636 13.8609 115.491C14.0063 115.2 14.1881 114.945 14.4062 114.764ZM15.315 114.146L17.5325 116.363C17.4598 116.654 17.3871 116.908 17.2417 117.199L14.6243 114.582C14.8424 114.364 15.0605 114.255 15.315 114.146Z" fill="#FEE001"/>
<path fill-rule="evenodd" clip-rule="evenodd" d="M106.523 24.2105C108.013 25.083 108.267 27.4095 107.104 29.4089C105.941 31.4446 103.796 32.3898 102.306 31.5173C102.197 31.4446 102.124 31.4083 102.015 31.3355L101.215 30.7903L101.361 30.5358C100.779 29.4089 100.888 27.773 101.724 26.319C102.56 24.8649 103.942 23.9561 105.177 23.8834L105.432 23.4471L106.523 24.2105Z" fill="#EFA419"/>
<path fill-rule="evenodd" clip-rule="evenodd" d="M105.432 23.4835C106.922 24.356 107.177 26.6825 106.014 28.6819C104.85 30.7176 102.706 31.6627 101.215 30.7903C99.7247 29.9178 99.4702 27.5913 100.633 25.5919C101.797 23.5562 103.942 22.6111 105.432 23.4835Z" fill="#FEE001"/>
<path fill-rule="evenodd" clip-rule="evenodd" d="M105.068 24.1014C106.304 24.8284 106.523 26.7551 105.541 28.4273C104.559 30.0995 102.778 30.8992 101.542 30.1722C100.306 29.4452 100.088 27.5185 101.07 25.8463C102.051 24.1741 103.832 23.3744 105.068 24.1014Z" fill="#EFA419"/>
<path fill-rule="evenodd" clip-rule="evenodd" d="M102.015 25.1193L105.25 28.3546C104.923 28.8999 104.487 29.2997 104.051 29.5906L101.033 26.5733C101.106 26.3552 101.215 26.1371 101.324 25.9554C101.542 25.6645 101.76 25.3737 102.015 25.1193ZM103.106 24.3922L105.796 27.0823C105.723 27.4094 105.614 27.7366 105.468 28.0638L102.306 24.9011C102.524 24.683 102.815 24.5013 103.106 24.3922Z" fill="#FEE001"/>
<path fill-rule="evenodd" clip-rule="evenodd" d="M19.6047 32.2088C18.0052 33.1176 17.7507 35.6259 18.9867 37.807C20.259 39.9881 22.5492 41.006 24.1487 40.0608C24.2577 39.9881 24.3668 39.9154 24.4395 39.8427L25.3119 39.2611L25.1665 38.9702C25.7845 37.7706 25.6755 36.0257 24.7667 34.4262C23.8579 32.8631 22.4038 31.8816 21.0588 31.8089L20.8043 31.3363L19.6047 32.2088Z" fill="#EFA419"/>
<path fill-rule="evenodd" clip-rule="evenodd" d="M20.7678 31.4083C19.1683 32.3171 18.9138 34.8254 20.1498 37.0065C21.4221 39.1876 23.7123 40.2055 25.3118 39.2603C26.9113 38.3515 27.1657 35.8433 25.9298 33.6621C24.6938 31.5174 22.3672 30.4995 20.7678 31.4083Z" fill="#FEE001"/>
<path fill-rule="evenodd" clip-rule="evenodd" d="M21.1677 32.0989C19.859 32.8623 19.6045 34.9344 20.6588 36.752C21.713 38.5696 23.6396 39.4057 24.9483 38.6423C26.257 37.8789 26.5114 35.8069 25.4572 33.9893C24.403 32.1717 22.4764 31.3356 21.1677 32.0989Z" fill="#EFA419"/>
<path fill-rule="evenodd" clip-rule="evenodd" d="M24.4757 33.1895L20.9859 36.6793C21.3495 37.261 21.7857 37.6972 22.2946 38.0243L25.5299 34.789C25.4572 34.5709 25.3482 34.3528 25.2028 34.0983C24.9847 33.7712 24.7302 33.4803 24.4757 33.1895ZM23.2761 32.3898L20.4043 35.2616C20.477 35.6251 20.5861 35.9886 20.7678 36.3158L24.1486 32.9351C23.8941 32.7169 23.6033 32.5352 23.2761 32.3898Z" fill="#FEE001"/>
<path fill-rule="evenodd" clip-rule="evenodd" d="M164.904 87.9721C164.25 89.3171 165.195 91.3528 167.012 92.5888C168.83 93.7884 170.829 93.7157 171.484 92.3707C171.52 92.298 171.556 92.1889 171.593 92.0798L171.92 91.2801L171.702 91.1347C171.593 89.9714 170.72 88.6264 169.412 87.7539C168.103 86.8815 166.685 86.6997 165.74 87.1723L165.34 86.9178L164.904 87.9721Z" fill="#EFA419"/>
<path fill-rule="evenodd" clip-rule="evenodd" d="M165.34 86.9179C164.686 88.2629 165.631 90.2986 167.448 91.5346C169.266 92.7342 171.265 92.6615 171.92 91.3165C172.574 89.9714 171.629 87.9357 169.811 86.6997C167.994 85.4638 165.994 85.5728 165.34 86.9179Z" fill="#FEE001"/>
<path fill-rule="evenodd" clip-rule="evenodd" d="M165.885 87.2814C165.34 88.4083 166.14 90.1168 167.63 91.0983C169.157 92.1162 170.829 92.0071 171.374 90.9166C171.92 89.7897 171.12 88.0811 169.63 87.0996C168.103 86.0817 166.431 86.1544 165.885 87.2814Z" fill="#EFA419"/>
<path fill-rule="evenodd" clip-rule="evenodd" d="M168.612 86.8452L167.848 90.9166C168.357 91.2438 168.866 91.4255 169.339 91.4619L170.03 87.6813C169.884 87.5358 169.702 87.3904 169.521 87.2814C169.193 87.0996 168.903 86.9542 168.612 86.8452ZM167.449 86.6997L166.831 90.0441C167.049 90.2986 167.267 90.5167 167.558 90.7348L168.285 86.7725C167.994 86.6997 167.703 86.6634 167.449 86.6997Z" fill="#FEE001"/>
<path fill-rule="evenodd" clip-rule="evenodd" d="M113.865 66.5979C112.52 67.3613 112.302 69.4697 113.357 71.2873C114.411 73.1049 116.337 73.941 117.646 73.1776C117.719 73.1413 117.828 73.0686 117.901 72.9959L118.628 72.487L118.482 72.2688C118.991 71.2873 118.918 69.7969 118.155 68.4882C117.392 67.1795 116.156 66.3798 115.065 66.3071L114.847 65.9072L113.865 66.5979Z" fill="#EFA419"/>
<path fill-rule="evenodd" clip-rule="evenodd" d="M114.811 65.9064C113.466 66.6698 113.248 68.7782 114.302 70.5958C115.356 72.4134 117.283 73.2495 118.591 72.4861C119.936 71.7227 120.155 69.6143 119.1 67.7967C118.082 66.0154 116.156 65.143 114.811 65.9064Z" fill="#FEE001"/>
<path fill-rule="evenodd" clip-rule="evenodd" d="M115.138 66.488C114.047 67.1423 113.829 68.8509 114.702 70.3776C115.574 71.8681 117.174 72.5951 118.264 71.9408C119.355 71.2864 119.573 69.5779 118.7 68.0511C117.864 66.5243 116.228 65.8336 115.138 66.488Z" fill="#EFA419"/>
<path fill-rule="evenodd" clip-rule="evenodd" d="M117.901 67.3968L114.993 70.3049C115.283 70.7775 115.647 71.1774 116.083 71.4318L118.773 68.7418C118.701 68.56 118.628 68.3783 118.519 68.1602C118.337 67.8693 118.119 67.6149 117.901 67.3968ZM116.919 66.7424L114.52 69.1417C114.593 69.4325 114.665 69.7233 114.811 70.0141L117.646 67.1787C117.428 66.9969 117.174 66.8515 116.919 66.7424Z" fill="#FEE001"/>
<defs>
<linearGradient id="paint0_linear" x1="100.607" y1="161.127" x2="118.615" y2="179.135" gradientUnits="userSpaceOnUse">
<stop stop-color="#33946D"/>
<stop offset="1" stop-color="#0E5E3E"/>
</linearGradient>
<linearGradient id="paint1_linear" x1="143.595" y1="202.528" x2="122.266" y2="186.907" gradientUnits="userSpaceOnUse">
<stop stop-color="#33946D"/>
<stop offset="1" stop-color="#0E5E3E"/>
</linearGradient>
<linearGradient id="paint2_linear" x1="118.572" y1="74.0793" x2="109" y2="180.639" gradientUnits="userSpaceOnUse">
<stop stop-color="#33946D"/>
<stop offset="1" stop-color="#0E5E3E"/>
</linearGradient>
<linearGradient id="paint3_linear" x1="152.46" y1="79.8403" x2="135.545" y2="106.228" gradientUnits="userSpaceOnUse">
<stop stop-color="#33946D"/>
<stop offset="1" stop-color="#0E5E3E"/>
</linearGradient>
<linearGradient id="paint4_linear" x1="141.853" y1="104.668" x2="133.587" y2="138.778" gradientUnits="userSpaceOnUse">
<stop stop-color="#33946D"/>
<stop offset="1" stop-color="#0E5E3E"/>
</linearGradient>
<linearGradient id="paint5_linear" x1="132.603" y1="95.3752" x2="141.197" y2="111.77" gradientUnits="userSpaceOnUse">
<stop stop-color="#33946D"/>
<stop offset="1" stop-color="#0E5E3E"/>
</linearGradient>
<linearGradient id="paint6_linear" x1="133.387" y1="142.184" x2="125.208" y2="171.943" gradientUnits="userSpaceOnUse">
<stop stop-color="#33946D"/>
<stop offset="1" stop-color="#0E5E3E"/>
</linearGradient>
<linearGradient id="paint7_linear" x1="124.718" y1="128.919" x2="133.313" y2="145.314" gradientUnits="userSpaceOnUse">
<stop stop-color="#33946D"/>
<stop offset="1" stop-color="#0E5E3E"/>
</linearGradient>
<linearGradient id="paint8_linear" x1="159.414" y1="109.101" x2="151.857" y2="140.282" gradientUnits="userSpaceOnUse">
<stop stop-color="#33946D"/>
<stop offset="1" stop-color="#0E5E3E"/>
</linearGradient>
<linearGradient id="paint9_linear" x1="152.838" y1="142.656" x2="143.786" y2="180.007" gradientUnits="userSpaceOnUse">
<stop stop-color="#33946D"/>
<stop offset="1" stop-color="#0E5E3E"/>
</linearGradient>
<linearGradient id="paint10_linear" x1="164.811" y1="133.07" x2="150.952" y2="141.521" gradientUnits="userSpaceOnUse">
<stop stop-color="#33946D"/>
<stop offset="1" stop-color="#0E5E3E"/>
</linearGradient>
<linearGradient id="paint11_linear" x1="160.735" y1="74.3897" x2="126.476" y2="202.859" gradientUnits="userSpaceOnUse">
<stop stop-color="#74D5CE"/>
<stop offset="0.23" stop-color="#40B889"/>
<stop offset="1" stop-color="#14817B"/>
</linearGradient>
<linearGradient id="paint12_linear" x1="57.247" y1="69.9899" x2="92.9467" y2="69.9899" gradientUnits="userSpaceOnUse">
<stop stop-color="#683957"/>
<stop offset="1" stop-color="#331C3C"/>
</linearGradient>
<linearGradient id="paint13_linear" x1="116.196" y1="45.5363" x2="123.561" y2="45.9762" gradientUnits="userSpaceOnUse">
<stop stop-color="#FE8C77"/>
<stop offset="1" stop-color="#FDCB9F"/>
</linearGradient>
<linearGradient id="paint14_linear" x1="90.2217" y1="80.4641" x2="93.2183" y2="115.466" gradientUnits="userSpaceOnUse">
<stop stop-color="#EFE3FE"/>
<stop offset="1" stop-color="#B3A2BF"/>
</linearGradient>
<linearGradient id="paint15_linear" x1="75.0852" y1="68.3974" x2="96.2491" y2="68.3974" gradientUnits="userSpaceOnUse">
<stop stop-color="#FE8C77"/>
<stop offset="1" stop-color="#FDCB9F"/>
</linearGradient>
<linearGradient id="paint16_linear" x1="87.5704" y1="49.9231" x2="91.5204" y2="58.0685" gradientUnits="userSpaceOnUse">
<stop stop-color="#683957"/>
<stop offset="1" stop-color="#331C3C"/>
</linearGradient>
<linearGradient id="paint17_linear" x1="95.4714" y1="63.771" x2="94.8356" y2="59.2108" gradientUnits="userSpaceOnUse">
<stop stop-color="#FE8C77"/>
<stop offset="1" stop-color="#FDCB9F"/>
</linearGradient>
<linearGradient id="paint18_linear" x1="86.6897" y1="73.0174" x2="84.8819" y2="53.7034" gradientUnits="userSpaceOnUse">
<stop stop-color="#FE8C77"/>
<stop offset="1" stop-color="#FDCB9F"/>
</linearGradient>
<linearGradient id="paint19_linear" x1="83.9406" y1="46.2649" x2="78.1201" y2="66.7008" gradientUnits="userSpaceOnUse">
<stop stop-color="#683957"/>
<stop offset="1" stop-color="#331C3C"/>
</linearGradient>
<linearGradient id="paint20_linear" x1="100.436" y1="178.201" x2="99.7403" y2="191.766" gradientUnits="userSpaceOnUse">
<stop stop-color="#EFE3FE"/>
<stop offset="1" stop-color="#B3A2BF"/>
</linearGradient>
<linearGradient id="paint21_linear" x1="72.6694" y1="176.777" x2="71.974" y2="190.343" gradientUnits="userSpaceOnUse">
<stop stop-color="#EFE3FE"/>
<stop offset="1" stop-color="#B3A2BF"/>
</linearGradient>
<linearGradient id="paint22_linear" x1="91.6269" y1="114.476" x2="91.6269" y2="121.144" gradientUnits="userSpaceOnUse">
<stop stop-color="#5A3B4E"/>
<stop offset="1" stop-color="#321226"/>
</linearGradient>
<linearGradient id="paint23_linear" x1="83.4275" y1="180.419" x2="89.0233" y2="118.235" gradientUnits="userSpaceOnUse">
<stop stop-color="#683957"/>
<stop offset="1" stop-color="#331C3C"/>
</linearGradient>
<linearGradient id="paint24_linear" x1="89.262" y1="78.3164" x2="90.6116" y2="83.0892" gradientUnits="userSpaceOnUse">
<stop stop-color="#683957"/>
<stop offset="1" stop-color="#331C3C"/>
</linearGradient>
<linearGradient id="paint25_linear" x1="85.9197" y1="74.9479" x2="87.701" y2="85.5993" gradientUnits="userSpaceOnUse">
<stop stop-color="#EFE3FE"/>
<stop offset="1" stop-color="#B3A2BF"/>
</linearGradient>
<linearGradient id="paint26_linear" x1="90.7027" y1="74.8723" x2="91.8981" y2="84.7064" gradientUnits="userSpaceOnUse">
<stop stop-color="#EFE3FE"/>
<stop offset="1" stop-color="#B3A2BF"/>
</linearGradient>
<linearGradient id="paint27_linear" x1="92.6959" y1="106.592" x2="89.7501" y2="82.3074" gradientUnits="userSpaceOnUse">
<stop stop-color="#683957"/>
<stop offset="1" stop-color="#331C3C"/>
</linearGradient>
<linearGradient id="paint28_linear" x1="106.132" y1="69.4755" x2="112.449" y2="122.497" gradientUnits="userSpaceOnUse">
<stop stop-color="#683957"/>
<stop offset="1" stop-color="#331C3C"/>
</linearGradient>
<linearGradient id="paint29_linear" x1="49.9354" y1="55.4237" x2="40.0391" y2="53.1999" gradientUnits="userSpaceOnUse">
<stop stop-color="#FE8C77"/>
<stop offset="1" stop-color="#FDCB9F"/>
</linearGradient>
<linearGradient id="paint30_linear" x1="65.4581" y1="70.6782" x2="73.7607" y2="124.854" gradientUnits="userSpaceOnUse">
<stop stop-color="#683957"/>
<stop offset="1" stop-color="#331C3C"/>
</linearGradient>
<linearGradient id="paint31_linear" x1="71.9225" y1="188.833" x2="71.9225" y2="192.963" gradientUnits="userSpaceOnUse">
<stop stop-color="#683957"/>
<stop offset="1" stop-color="#331C3C"/>
</linearGradient>
<linearGradient id="paint32_linear" x1="99.5527" y1="188.255" x2="99.6997" y2="192.89" gradientUnits="userSpaceOnUse">
<stop stop-color="#683957"/>
<stop offset="1" stop-color="#331C3C"/>
</linearGradient>
<linearGradient id="paint33_linear" x1="52.5717" y1="24.6995" x2="52.4561" y2="40.7358" gradientUnits="userSpaceOnUse">
<stop stop-color="#74D5CE"/>
<stop offset="0.23" stop-color="#40B889"/>
<stop offset="1" stop-color="#14817B"/>
</linearGradient>
<linearGradient id="paint34_linear" x1="88.0434" y1="0.157112" x2="87.2262" y2="21.2999" gradientUnits="userSpaceOnUse">
<stop stop-color="#74D5CE"/>
<stop offset="0.23" stop-color="#40B889"/>
<stop offset="1" stop-color="#14817B"/>
</linearGradient>
<linearGradient id="paint35_linear" x1="122.694" y1="3.7526" x2="121.842" y2="26.0831" gradientUnits="userSpaceOnUse">
<stop stop-color="#74D5CE"/>
<stop offset="0.23" stop-color="#40B889"/>
<stop offset="1" stop-color="#14817B"/>
</linearGradient>
<linearGradient id="paint36_linear" x1="143.746" y1="26.0238" x2="143.65" y2="43.1614" gradientUnits="userSpaceOnUse">
<stop stop-color="#74D5CE"/>
<stop offset="0.23" stop-color="#40B889"/>
<stop offset="1" stop-color="#14817B"/>
</linearGradient>
<linearGradient id="paint37_linear" x1="159.666" y1="50.9379" x2="159.332" y2="69.7351" gradientUnits="userSpaceOnUse">
<stop stop-color="#74D5CE"/>
<stop offset="0.23" stop-color="#40B889"/>
<stop offset="1" stop-color="#14817B"/>
</linearGradient>
<linearGradient id="paint38_linear" x1="134.944" y1="66.6858" x2="133.87" y2="91.5236" gradientUnits="userSpaceOnUse">
<stop stop-color="#74D5CE"/>
<stop offset="0.23" stop-color="#40B889"/>
<stop offset="1" stop-color="#14817B"/>
</linearGradient>
<linearGradient id="paint39_linear" x1="39.5646" y1="77.4843" x2="39.2673" y2="95.821" gradientUnits="userSpaceOnUse">
<stop stop-color="#74D5CE"/>
<stop offset="0.23" stop-color="#40B889"/>
<stop offset="1" stop-color="#14817B"/>
</linearGradient>
<linearGradient id="paint40_linear" x1="5.31215" y1="74.0705" x2="3.96475" y2="96.5139" gradientUnits="userSpaceOnUse">
<stop stop-color="#74D5CE"/>
<stop offset="0.23" stop-color="#40B889"/>
<stop offset="1" stop-color="#14817B"/>
</linearGradient>
<linearGradient id="paint41_linear" x1="42.4058" y1="110.408" x2="42.2533" y2="125.329" gradientUnits="userSpaceOnUse">
<stop stop-color="#74D5CE"/>
<stop offset="0.23" stop-color="#40B889"/>
<stop offset="1" stop-color="#14817B"/>
</linearGradient>
<linearGradient id="paint42_linear" x1="65.6062" y1="117.795" x2="65.5362" y2="129.699" gradientUnits="userSpaceOnUse">
<stop stop-color="#74D5CE"/>
<stop offset="0.23" stop-color="#40B889"/>
<stop offset="1" stop-color="#14817B"/>
</linearGradient>
</defs>
</svg>
