<svg width="526" height="379" viewBox="0 0 526 379" fill="none" xmlns="http://www.w3.org/2000/svg">
<g clip-path="url(#clip0)">
<path fill-rule="evenodd" clip-rule="evenodd" d="M142.173 158.076C97.8818 153.249 66.3878 146.109 34.4938 167.729C2.5999 189.349 -4.69871 229.371 2.5999 261.951C14.3977 314.442 54.79 339.28 101.781 361.201C173.267 394.486 319.24 378.296 391.226 336.766C465.612 293.828 516.002 251.695 523.801 181.506C531.599 111.317 504.904 73.9094 482.309 56.3119C459.713 38.7144 428.219 44.8484 391.226 81.049C354.333 117.149 182.566 162.5 142.173 158.076ZM420.72 369.346C405.023 344.509 433.718 320.073 456.714 307.202C479.709 294.331 502.905 285.381 518.402 299.861C533.899 314.342 523.401 340.587 506.504 355.067C489.607 369.548 433.518 389.659 420.72 369.346Z" fill="#DBEDF8"/>
<path fill-rule="evenodd" clip-rule="evenodd" d="M153.072 26.8488C153.072 25.0388 152.372 23.3293 151.072 22.1226C149.772 20.8154 148.073 20.1115 146.373 20.1115C144.573 20.1115 142.874 20.8154 141.674 22.1226C140.374 23.4298 139.674 25.1393 139.674 26.8488C139.674 34.6922 139.674 46.7591 139.674 46.7591H153.072V26.8488ZM146.373 24.6365C147.673 24.6365 148.773 25.7427 148.773 27.0499C148.773 28.3571 147.673 29.4633 146.373 29.4633C145.073 29.4633 143.974 28.3571 143.974 27.0499C143.974 25.7427 145.073 24.6365 146.373 24.6365Z" fill="url(#paint0_linear)"/>
<path fill-rule="evenodd" clip-rule="evenodd" d="M397.925 26.8488C397.925 25.0388 397.225 23.3293 395.926 22.1226C394.626 20.8154 392.926 20.1115 391.227 20.1115C389.427 20.1115 387.727 20.8154 386.527 22.1226C385.228 23.4298 384.528 25.1393 384.528 26.8488C384.528 34.6922 384.528 46.7591 384.528 46.7591H397.925V26.8488ZM391.227 24.6365C392.526 24.6365 393.626 25.7427 393.626 27.0499C393.626 28.3571 392.526 29.4633 391.227 29.4633C389.927 29.4633 388.827 28.3571 388.827 27.0499C388.827 25.7427 389.927 24.6365 391.227 24.6365Z" fill="url(#paint1_linear)"/>
<path d="M442.816 33.6866H70.4873V249.583H442.816V33.6866Z" fill="url(#paint2_linear)"/>
<path d="M437.318 39.7201H76.0864V243.55H437.318V39.7201Z" fill="url(#paint3_linear)"/>
<path fill-rule="evenodd" clip-rule="evenodd" d="M301.243 57.3175L301.443 57.4181L301.543 57.6192V57.8203V81.4513C301.543 81.6524 301.543 81.6524 301.443 81.753L301.243 81.8535H301.043H242.054C241.854 81.8535 241.854 81.8535 241.754 81.753L241.654 81.5518V81.3507V57.7198C241.654 57.5186 241.654 57.5186 241.754 57.4181L241.954 57.3175H242.154H301.143C301.143 57.217 301.243 57.3175 301.243 57.3175ZM242.654 58.2225V81.049H300.643V58.2225H242.654Z" fill="black"/>
<path fill-rule="evenodd" clip-rule="evenodd" d="M413.222 141.182C413.522 141.383 413.522 141.484 413.522 141.584V165.316C413.522 165.517 413.322 165.718 413.022 165.819H359.333C359.133 165.819 359.133 165.819 359.033 165.718L358.933 165.517V165.316V141.584C358.933 141.383 358.933 141.383 359.033 141.283L359.233 141.182H359.433H413.122C413.022 141.182 413.122 141.182 413.222 141.182ZM359.832 142.087V164.914H412.622V142.087H359.832Z" fill="black"/>
<path fill-rule="evenodd" clip-rule="evenodd" d="M338.037 141.182L338.237 141.283L338.337 141.484V141.685V165.416C338.337 165.618 338.337 165.618 338.237 165.718L338.037 165.819H337.837H284.147C283.947 165.819 283.947 165.819 283.847 165.718L283.747 165.517V165.316V141.584C283.747 141.383 283.747 141.383 283.847 141.283L284.047 141.182H284.247H337.937H338.037ZM284.647 142.087V164.914H337.437V142.087H284.647Z" fill="black"/>
<path fill-rule="evenodd" clip-rule="evenodd" d="M329.538 198.701C329.838 198.801 329.938 198.902 329.938 199.204V217.405C329.938 217.807 329.838 217.807 329.438 217.907H292.545C292.145 217.907 292.145 217.807 292.045 217.405V199.103C292.045 198.701 292.145 198.701 292.545 198.6L329.538 198.701C329.538 198.6 329.538 198.701 329.538 198.701ZM293.045 199.606V216.801H328.938V199.606H293.045Z" fill="black"/>
<path fill-rule="evenodd" clip-rule="evenodd" d="M279.648 198.701C279.948 198.801 280.047 198.902 280.047 199.204V217.405C280.047 217.807 279.948 217.807 279.548 217.907H242.655C242.255 217.907 242.255 217.807 242.155 217.405V199.103C242.155 198.701 242.255 198.701 242.655 198.6L279.648 198.701C279.548 198.6 279.548 198.701 279.648 198.701ZM243.155 199.606V216.801H279.048V199.606H243.155Z" fill="black"/>
<path fill-rule="evenodd" clip-rule="evenodd" d="M361.132 182.31C361.332 182.411 361.332 182.411 361.432 182.612V182.813V199.103H360.432V183.215H261.451V199.103H260.451V182.713V182.511L260.551 182.31L260.751 182.21H260.951H360.832C361.032 182.31 361.132 182.31 361.132 182.31Z" fill="black"/>
<path fill-rule="evenodd" clip-rule="evenodd" d="M379.529 198.701C379.828 198.801 379.928 198.902 379.928 199.204V217.405C379.928 217.807 379.828 217.807 379.429 217.907H342.536C342.136 217.907 342.136 217.807 342.036 217.405V199.103C342.036 198.701 342.136 198.701 342.536 198.6L379.529 198.701C379.429 198.6 379.529 198.701 379.529 198.701ZM343.035 199.606V216.801H378.929V199.606H343.035Z" fill="black"/>
<path fill-rule="evenodd" clip-rule="evenodd" d="M262.95 141.182L263.15 141.283L263.25 141.484V141.685V165.416C263.25 165.618 263.25 165.618 263.15 165.718L262.95 165.819H262.75H209.061C208.861 165.819 208.861 165.819 208.761 165.718L208.661 165.517V165.316V141.584C208.661 141.383 208.661 141.383 208.761 141.283L208.961 141.182H209.161H262.85C262.85 141.182 262.85 141.182 262.95 141.182ZM209.56 142.087V164.914H262.35V142.087H209.56Z" fill="black"/>
<path fill-rule="evenodd" clip-rule="evenodd" d="M187.865 141.182L188.065 141.283L188.165 141.484V141.685V165.416C188.165 165.618 188.165 165.618 188.065 165.718L187.865 165.819H187.665H133.975C133.775 165.819 133.775 165.819 133.675 165.718L133.575 165.517V165.316V141.584C133.575 141.383 133.575 141.383 133.675 141.283L133.875 141.182H134.075H187.765C187.765 141.182 187.765 141.182 187.865 141.182ZM134.475 142.087V164.914H187.265V142.087H134.475Z" fill="black"/>
<path fill-rule="evenodd" clip-rule="evenodd" d="M386.327 108.903C386.627 109.104 386.627 109.205 386.627 109.306V141.584H385.627V109.808H161.27V141.584H160.27V109.306C160.27 109.104 160.27 109.104 160.37 109.004L160.57 108.903H160.77H386.127C386.227 108.903 386.327 108.903 386.327 108.903Z" fill="black"/>
<path d="M311.541 109.406H310.542V141.685H311.541V109.406Z" fill="black"/>
<path d="M236.455 109.406H235.456V141.685H236.455V109.406Z" fill="black"/>
<path d="M311.541 165.316H310.542V198.5H311.541V165.316Z" fill="black"/>
<path fill-rule="evenodd" clip-rule="evenodd" d="M205.261 123.283C206.061 122.78 219.358 141.585 214.159 172.254C214.159 172.254 205.761 177.282 202.061 174.064L201.062 181.807C201.062 181.807 188.564 194.88 173.067 189.651L174.067 166.623C173.967 166.724 167.968 119.663 205.261 123.283Z" fill="url(#paint4_linear)"/>
<path fill-rule="evenodd" clip-rule="evenodd" d="M198.562 161.897C198.562 161.897 191.563 159.081 190.663 151.841C189.763 144.601 192.763 143.294 194.163 143.596C195.562 143.897 198.562 147.718 198.562 147.718C198.562 147.718 201.561 145.506 200.661 142.288C199.761 139.071 197.762 134.747 200.661 130.825C203.561 126.903 212.359 123.484 210.559 110.11C208.76 96.6354 200.061 89.7975 194.163 88.993C194.163 88.993 193.863 94.0209 187.564 97.0376C181.365 100.054 167.668 101.06 159.569 106.49C151.471 111.92 146.772 120.166 145.172 128.009C143.472 136.154 142.372 142.389 145.672 158.076C148.871 173.763 160.869 181.506 172.967 182.612C182.465 183.517 196.462 178.288 198.562 174.969C200.661 171.752 198.562 161.897 198.562 161.897Z" fill="url(#paint5_linear)"/>
<path fill-rule="evenodd" clip-rule="evenodd" d="M158.67 205.639C158.27 204.131 156.67 203.226 155.171 203.628C145.773 206.142 115.078 214.388 105.78 216.902C104.28 217.304 103.381 218.913 103.781 220.421C106.88 232.186 119.078 277.94 122.277 289.705C122.677 291.213 124.277 292.118 125.776 291.716C135.175 289.202 165.869 280.957 175.167 278.443C176.667 278.04 177.566 276.431 177.167 274.923C173.967 263.158 161.77 217.404 158.67 205.639Z" fill="url(#paint6_linear)"/>
<path fill-rule="evenodd" clip-rule="evenodd" d="M153.971 208.053L109.079 220.119L126.676 286.186L171.567 274.119L153.971 208.053Z" fill="url(#paint7_linear)"/>
<path fill-rule="evenodd" clip-rule="evenodd" d="M147.872 210.667C148.072 211.371 147.672 212.176 146.872 212.377C141.573 213.785 122.577 218.913 117.278 220.321C116.578 220.522 115.778 220.12 115.578 219.315C115.078 217.304 114.079 213.483 113.479 211.472C113.279 210.768 113.679 209.963 114.479 209.762C119.777 208.354 138.774 203.226 144.073 201.818C144.773 201.617 145.573 202.019 145.773 202.824C146.272 204.835 147.372 208.656 147.872 210.667Z" fill="url(#paint8_linear)"/>
<path fill-rule="evenodd" clip-rule="evenodd" d="M139.873 210.667C139.873 210.667 134.674 216.298 132.575 232.086C130.475 247.773 121.777 258.834 117.078 270.499C112.379 282.163 101.581 297.347 101.881 310.52C102.281 326.509 120.777 331.436 131.375 325.101C141.973 318.565 159.37 262.957 139.873 210.667Z" fill="url(#paint9_linear)"/>
<path fill-rule="evenodd" clip-rule="evenodd" d="M286.645 69.9876C286.545 69.5854 286.145 69.2837 285.746 69.2837C283.646 69.6859 278.147 70.5909 278.147 70.5909L278.447 72.1998C278.447 72.1998 283.946 71.1943 286.045 70.8926C286.445 70.8926 286.745 70.4904 286.645 69.9876Z" fill="black"/>
<path fill-rule="evenodd" clip-rule="evenodd" d="M280.947 69.6859L283.446 69.2837L283.946 71.8982L281.447 72.3004L280.947 69.6859Z" fill="url(#paint10_linear)"/>
<path fill-rule="evenodd" clip-rule="evenodd" d="M282.047 68.5801L278.447 69.1834L279.247 73.6079L282.846 73.0046L282.047 68.5801Z" fill="url(#paint11_linear)"/>
<path fill-rule="evenodd" clip-rule="evenodd" d="M262.95 70.6915L280.046 67.6748L281.246 74.5127L264.149 77.5294C264.749 76.9261 265.749 76.021 265.749 73.6077C265.749 71.1943 262.95 70.7921 262.95 70.7921V70.6915Z" fill="url(#paint12_linear)"/>
<path fill-rule="evenodd" clip-rule="evenodd" d="M256.651 102.065C256.651 102.065 258.951 94.222 256.651 91.6075C254.352 89.0936 251.252 83.563 252.252 78.1329C253.252 72.6022 258.551 74.3117 258.551 74.3117C258.551 74.3117 256.651 66.6694 261.65 64.1554C265.549 62.2448 270.848 64.1554 274.448 68.4794C278.147 72.9039 280.447 77.7306 279.747 81.6524C279.047 85.5741 275.048 90.9036 274.448 96.6354C273.848 102.065 274.048 107.093 274.048 107.093L256.651 102.065Z" fill="url(#paint13_linear)"/>
<path fill-rule="evenodd" clip-rule="evenodd" d="M262.95 70.6915C262.95 70.6915 265.25 71.0938 265.75 73.6077C266.249 76.0211 264.75 76.9261 264.15 77.5294L239.854 81.8534C239.454 81.9539 238.955 81.8534 238.655 81.5517C238.255 81.3506 238.055 80.9484 237.955 80.4456C237.755 79.3394 237.555 77.9316 237.355 76.8255C237.255 76.4233 237.355 75.9205 237.655 75.6188C237.855 75.2166 238.255 75.0155 238.755 74.9149L262.95 70.6915Z" fill="url(#paint14_linear)"/>
<path fill-rule="evenodd" clip-rule="evenodd" d="M241.654 148.121C247.953 133.942 247.953 102.065 247.953 102.065H277.648C277.648 102.065 278.647 117.25 276.148 136.054V136.355C274.748 147.316 272.149 159.383 267.55 170.545C255.952 198.801 231.356 221.829 231.356 221.829C231.356 221.829 241.654 271.303 241.654 301.671C241.654 331.839 247.853 377.492 247.953 377.894C206.861 380.709 166.369 378.598 133.775 370.352C132.575 368.643 132.575 367.436 132.575 367.436C132.575 367.436 147.072 265.773 139.774 210.768C139.774 210.768 155.071 200.611 167.569 196.79C180.066 192.969 210.76 188.142 210.76 188.142C210.76 188.142 231.156 171.752 241.654 148.121Z" fill="url(#paint15_linear)"/>
<path fill-rule="evenodd" clip-rule="evenodd" d="M167.668 196.991C167.668 196.991 167.568 190.254 168.768 189.449C169.868 188.645 193.563 184.019 199.762 182.008C205.861 179.897 209.36 186.03 210.86 188.142C210.86 188.042 191.264 199.907 167.668 196.991Z" fill="url(#paint16_linear)"/>
<path fill-rule="evenodd" clip-rule="evenodd" d="M26.7949 20.9159C26.7949 9.35182 36.0932 0 47.591 0H114.678C126.176 0 135.474 9.35182 135.474 20.9159V62.7477C135.474 74.3118 126.176 83.6636 114.678 83.6636H100.181L113.778 109.306L83.8841 83.6636H47.591C36.0932 83.6636 26.7949 74.3118 26.7949 62.7477V20.9159Z" fill="url(#paint17_linear)"/>
<path fill-rule="evenodd" clip-rule="evenodd" d="M85.0836 64.4573H77.1851V65.5634C77.1851 66.1667 77.385 66.7701 77.8849 67.1723C78.2849 67.5746 78.8847 67.8762 79.4846 67.8762C80.5844 67.8762 81.7842 67.8762 82.884 67.8762C83.4839 67.8762 84.0838 67.6751 84.4837 67.1723C84.8836 66.7701 85.1836 66.1667 85.1836 65.5634C85.0836 64.9601 85.0836 64.4573 85.0836 64.4573Z" fill="url(#paint18_linear)"/>
<path fill-rule="evenodd" clip-rule="evenodd" d="M87.1833 54.3009H75.1855V63.5522C75.1855 64.7589 76.1854 65.865 77.4851 65.865C79.5847 65.865 82.7841 65.865 84.9837 65.865C86.1835 65.865 87.2833 64.8594 87.2833 63.5522C87.1833 60.2338 87.1833 54.3009 87.1833 54.3009Z" fill="url(#paint19_linear)"/>
<path fill-rule="evenodd" clip-rule="evenodd" d="M73.1858 51.2842C73.1858 48.0663 71.7861 45.0496 69.3866 42.9379C65.6873 39.6195 63.3877 34.8934 63.3877 29.4633C63.3877 19.6087 71.3862 11.5641 81.1843 11.5641C90.9824 11.5641 98.9809 19.6087 98.9809 29.4633C98.9809 34.7928 96.6814 39.6195 92.9821 42.9379C90.5825 45.0496 89.1828 48.0663 89.1828 51.2842C89.1828 51.4853 89.1828 51.5858 89.1828 51.5858C89.1828 53.3959 87.7831 54.8037 85.9834 54.8037C83.1839 54.8037 79.1847 54.8037 76.3852 54.8037C74.5856 54.8037 73.1858 53.3959 73.1858 51.5858V51.2842Z" fill="url(#paint20_linear)"/>
<path fill-rule="evenodd" clip-rule="evenodd" d="M89.2832 57.2172C89.2832 56.8149 89.0833 56.3121 88.7833 56.0105C88.4834 55.7088 88.0834 55.5077 87.5835 55.5077C84.4841 55.5077 77.7854 55.5077 74.686 55.5077C74.2861 55.5077 73.7862 55.7088 73.4862 56.0105C73.1863 56.3121 72.9863 56.7144 72.9863 57.2172C72.9863 57.6194 73.1863 58.1222 73.4862 58.4238C73.7862 58.7255 74.1861 58.9266 74.686 58.9266C77.7854 58.9266 84.4841 58.9266 87.5835 58.9266C87.9835 58.9266 88.4834 58.7255 88.7833 58.4238C89.0833 58.0216 89.2832 57.6194 89.2832 57.2172Z" fill="url(#paint21_linear)"/>
<path fill-rule="evenodd" clip-rule="evenodd" d="M89.2832 61.3397C89.2832 60.9375 89.0833 60.4347 88.7833 60.133C88.4834 59.8314 88.0834 59.6302 87.5835 59.6302C84.4841 59.6302 77.7854 59.6302 74.686 59.6302C74.2861 59.6302 73.7862 59.8314 73.4862 60.133C73.1863 60.4347 72.9863 60.8369 72.9863 61.3397C72.9863 61.742 73.1863 62.2447 73.4862 62.5464C73.7862 62.8481 74.1861 63.0492 74.686 63.0492C77.7854 63.0492 84.4841 63.0492 87.5835 63.0492C87.9835 63.0492 88.4834 62.8481 88.7833 62.5464C89.0833 62.2447 89.2832 61.8425 89.2832 61.3397Z" fill="url(#paint22_linear)"/>
<path fill-rule="evenodd" clip-rule="evenodd" d="M83.6837 47.8653C83.6837 47.5636 83.5838 47.3625 83.3838 47.1614C83.1838 46.9603 82.8839 46.8597 82.6839 46.8597C81.7841 46.8597 80.5843 46.8597 79.7845 46.8597C79.4845 46.8597 79.2846 46.9603 79.0846 47.1614C78.8846 47.3625 78.7847 47.6642 78.7847 47.8653C78.7847 50.0776 78.7847 54.8038 78.7847 54.8038H83.7837V47.8653H83.6837Z" fill="url(#paint23_linear)"/>
<path fill-rule="evenodd" clip-rule="evenodd" d="M78.1848 33.1838C79.4845 33.1838 80.6843 34.3905 80.6843 35.6978V37.5078H81.7841C81.7841 36.2006 81.6841 34.8933 82.484 34.0889C83.3838 33.0833 85.1835 32.9827 86.0833 33.9883C86.7832 34.7928 86.9831 35.9994 86.5832 36.9045C86.1833 37.8095 85.1835 38.4128 84.1837 38.4128H82.7839V46.7591H81.7841V38.4128H80.6843V46.7591H79.6845V38.4128C78.8847 38.4128 78.0848 38.5134 77.3849 38.3123C75.9852 37.8095 75.1854 36.1 75.8852 34.6922C76.1852 33.7872 77.085 33.1838 78.1848 33.1838C78.0848 33.1838 78.0848 33.1838 78.1848 33.1838ZM78.0848 34.0889C76.985 34.0889 76.1852 35.4967 76.7851 36.6028C77.085 37.1056 77.5849 37.4072 78.1848 37.4072H79.5845C79.5845 36.6028 79.7845 35.6978 79.4845 35.0944C79.2846 34.4911 78.7847 34.0889 78.0848 34.0889ZM84.1837 34.0889C83.3838 34.0889 82.6839 34.7928 82.6839 35.6978V37.5078C83.5838 37.5078 84.4836 37.7089 85.1835 37.1056C86.1833 36.3011 85.7833 34.1894 84.1837 34.0889Z" fill="#FFFFFE"/>
</g>
<defs>
<linearGradient id="paint0_linear" x1="146.399" y1="20.1135" x2="146.399" y2="46.4641" gradientUnits="userSpaceOnUse">
<stop stop-color="#7A8D9F"/>
<stop offset="1" stop-color="#2E557A"/>
</linearGradient>
<linearGradient id="paint1_linear" x1="391.216" y1="20.1135" x2="391.216" y2="46.4641" gradientUnits="userSpaceOnUse">
<stop stop-color="#7A8D9F"/>
<stop offset="1" stop-color="#2E557A"/>
</linearGradient>
<linearGradient id="paint2_linear" x1="256.679" y1="33.6702" x2="256.679" y2="247.512" gradientUnits="userSpaceOnUse">
<stop stop-color="#7A8D9F"/>
<stop offset="1" stop-color="#2E557A"/>
</linearGradient>
<linearGradient id="paint3_linear" x1="256.662" y1="41.8827" x2="256.662" y2="274.203" gradientUnits="userSpaceOnUse">
<stop stop-color="#F1F9FD"/>
<stop offset="1" stop-color="#CDCDCD"/>
</linearGradient>
<linearGradient id="paint4_linear" x1="199.208" y1="131.547" x2="188.847" y2="191.894" gradientUnits="userSpaceOnUse">
<stop stop-color="#FFCAAF"/>
<stop offset="1" stop-color="#FF9D87"/>
</linearGradient>
<linearGradient id="paint5_linear" x1="175.548" y1="94.5933" x2="179.062" y2="164.246" gradientUnits="userSpaceOnUse">
<stop stop-color="#4E8E9E"/>
<stop offset="1" stop-color="#28465D"/>
</linearGradient>
<linearGradient id="paint6_linear" x1="130.759" y1="210.357" x2="151.206" y2="288.299" gradientUnits="userSpaceOnUse">
<stop stop-color="#9FB6C2"/>
<stop offset="1" stop-color="#3583AB"/>
</linearGradient>
<linearGradient id="paint7_linear" x1="128.629" y1="217.026" x2="152.92" y2="278.926" gradientUnits="userSpaceOnUse">
<stop stop-color="#FDFDFD"/>
<stop offset="1" stop-color="#B2B3B2"/>
</linearGradient>
<linearGradient id="paint8_linear" x1="129.674" y1="205.685" x2="132.632" y2="221.172" gradientUnits="userSpaceOnUse">
<stop stop-color="#838F96"/>
<stop offset="1" stop-color="#355D73"/>
</linearGradient>
<linearGradient id="paint9_linear" x1="88.9491" y1="270.439" x2="127.178" y2="269.271" gradientUnits="userSpaceOnUse">
<stop stop-color="#4E8E9E"/>
<stop offset="1" stop-color="#28465D"/>
</linearGradient>
<linearGradient id="paint10_linear" x1="283.669" y1="70.1527" x2="281.644" y2="71.2506" gradientUnits="userSpaceOnUse">
<stop stop-color="#FFFFFE"/>
<stop offset="1" stop-color="#B4B4B4"/>
</linearGradient>
<linearGradient id="paint11_linear" x1="282.441" y1="70.7958" x2="280.304" y2="71.2042" gradientUnits="userSpaceOnUse">
<stop stop-color="#FFFFFE"/>
<stop offset="1" stop-color="#B4B4B4"/>
</linearGradient>
<linearGradient id="paint12_linear" x1="280.658" y1="71.1991" x2="269.344" y2="73.107" gradientUnits="userSpaceOnUse">
<stop stop-color="#FFFFFE"/>
<stop offset="1" stop-color="#B4B4B4"/>
</linearGradient>
<linearGradient id="paint13_linear" x1="269.703" y1="80.1673" x2="262.362" y2="93.6847" gradientUnits="userSpaceOnUse">
<stop stop-color="#FFCAAF"/>
<stop offset="1" stop-color="#FF9D87"/>
</linearGradient>
<linearGradient id="paint14_linear" x1="249.249" y1="76.1822" x2="274.222" y2="78.2354" gradientUnits="userSpaceOnUse">
<stop stop-color="#FFFFFE"/>
<stop offset="1" stop-color="#B4B4B4"/>
</linearGradient>
<linearGradient id="paint15_linear" x1="228.676" y1="99.1524" x2="192.562" y2="299.389" gradientUnits="userSpaceOnUse">
<stop stop-color="#4E8E9E"/>
<stop offset="1" stop-color="#28465D"/>
</linearGradient>
<linearGradient id="paint16_linear" x1="189.237" y1="173.676" x2="189.237" y2="196.224" gradientUnits="userSpaceOnUse">
<stop stop-color="#4E8E9E"/>
<stop offset="1" stop-color="#28465D"/>
</linearGradient>
<linearGradient id="paint17_linear" x1="81.1607" y1="-0.0124354" x2="81.1607" y2="109.361" gradientUnits="userSpaceOnUse">
<stop stop-color="#DBF2FF"/>
<stop offset="1" stop-color="#BFBFBF"/>
</linearGradient>
<linearGradient id="paint18_linear" x1="81.1726" y1="64.4827" x2="81.1726" y2="67.7886" gradientUnits="userSpaceOnUse">
<stop stop-color="#7A8D9F"/>
<stop offset="1" stop-color="#2E557A"/>
</linearGradient>
<linearGradient id="paint19_linear" x1="81.1726" y1="54.5068" x2="81.1726" y2="65.8312" gradientUnits="userSpaceOnUse">
<stop stop-color="#7A8D9F"/>
<stop offset="1" stop-color="#2E557A"/>
</linearGradient>
<linearGradient id="paint20_linear" x1="81.1677" y1="20.1102" x2="81.1677" y2="54.8424" gradientUnits="userSpaceOnUse">
<stop stop-color="#FFD652"/>
<stop offset="1" stop-color="#FF9500"/>
</linearGradient>
<linearGradient id="paint21_linear" x1="81.172" y1="55.5331" x2="81.172" y2="58.8264" gradientUnits="userSpaceOnUse">
<stop stop-color="#7A8D9F"/>
<stop offset="1" stop-color="#2E557A"/>
</linearGradient>
<linearGradient id="paint22_linear" x1="81.1726" y1="59.7509" x2="81.1726" y2="63.0219" gradientUnits="userSpaceOnUse">
<stop stop-color="#7A8D9F"/>
<stop offset="1" stop-color="#2E557A"/>
</linearGradient>
<linearGradient id="paint23_linear" x1="81.1737" y1="46.8101" x2="81.1737" y2="55.1569" gradientUnits="userSpaceOnUse">
<stop stop-color="#FFBD00"/>
<stop offset="1" stop-color="#EB6F00"/>
</linearGradient>
<clipPath id="clip0">
<rect width="526" height="379" fill="white"/>
</clipPath>
</defs>
</svg>
